<svg xmlns="http://www.w3.org/2000/svg" width="760" height="480" viewBox="0 0 760 480">
<rect width="100%" height="100%" fill="#0f172a"/>
<text x="18" y="24" font-family="sans-serif" font-size="15" fill="#f8fafc">Cylinder cross-section</text>
<text x="18" y="44" font-family="sans-serif" font-size="12" fill="#94a3b8">Expected complete</text>
<polyline points="437.18,69.55 437.18,79.76 437.18,89.98 437.18,100.20 437.18,110.42 437.18,120.63 437.18,130.85 437.18,141.07 437.18,151.28 437.18,161.50 437.18,171.72 437.18,181.94 437.18,192.15 437.18,202.37 437.18,212.59 437.18,222.81 437.18,233.02 437.18,243.24 437.18,253.46 437.18,263.67 437.18,273.89 437.18,284.11 437.18,294.33 437.18,304.54 437.18,314.76" fill="none" stroke="#60a5fa" stroke-width="1.0" opacity="0.55"/><polyline points="300.20,34.00 300.20,44.22 300.20,54.43 300.20,64.65 300.20,74.87 300.20,85.09 300.20,95.30 300.20,105.52 300.20,115.74 300.20,125.96 300.20,136.17 300.20,146.39 300.20,156.61 300.20,166.82 300.20,177.04 300.20,187.26 300.20,197.48 300.20,207.69 300.20,217.91 300.20,228.13 300.20,238.35 300.20,248.56 300.20,258.78 300.20,269.00 300.20,279.21" fill="none" stroke="#60a5fa" stroke-width="1.0" opacity="0.55"/><polyline points="180.28,80.80 180.28,91.02 180.28,101.23 180.28,111.45 180.28,121.67 180.28,131.88 180.28,142.10 180.28,152.32 180.28,162.54 180.28,172.75 180.28,182.97 180.28,193.19 180.28,203.41 180.28,213.62 180.28,223.84 180.28,234.06 180.28,244.27 180.28,254.49 180.28,264.71 180.28,274.93 180.28,285.14 180.28,295.36 180.28,305.58 180.28,315.80 180.28,326.01" fill="none" stroke="#60a5fa" stroke-width="1.0" opacity="0.55"/><polyline points="191.97,165.24 191.97,175.46 191.97,185.67 191.97,195.89 191.97,206.11 191.97,216.33 191.97,226.54 191.97,236.76 191.97,246.98 191.97,257.19 191.97,267.41 191.97,277.63 191.97,287.85 191.97,298.06 191.97,308.28 191.97,318.50 191.97,328.72 191.97,338.93 191.97,349.15 191.97,359.37 191.97,369.58 191.97,379.80 191.97,390.02 191.97,400.24 191.97,410.45" fill="none" stroke="#60a5fa" stroke-width="1.0" opacity="0.55"/><polyline points="328.96,200.79 328.96,211.00 328.96,221.22 328.96,231.44 328.96,241.65 328.96,251.87 328.96,262.09 328.96,272.31 328.96,282.52 328.96,292.74 328.96,302.96 328.96,313.18 328.96,323.39 328.96,333.61 328.96,343.83 328.96,354.04 328.96,364.26 328.96,374.48 328.96,384.70 328.96,394.91 328.96,405.13 328.96,415.35 328.96,425.57 328.96,435.78 328.96,446.00" fill="none" stroke="#60a5fa" stroke-width="1.0" opacity="0.55"/><polyline points="448.88,153.99 448.88,164.20 448.88,174.42 448.88,184.64 448.88,194.86 448.88,205.07 448.88,215.29 448.88,225.51 448.88,235.73 448.88,245.94 448.88,256.16 448.88,266.38 448.88,276.59 448.88,286.81 448.88,297.03 448.88,307.25 448.88,317.46 448.88,327.68 448.88,337.90 448.88,348.12 448.88,358.33 448.88,368.55 448.88,378.77 448.88,388.98 448.88,399.20" fill="none" stroke="#60a5fa" stroke-width="1.0" opacity="0.55"/><polyline points="437.18,69.55 437.18,79.76 437.18,89.98 437.18,100.20 437.18,110.42 437.18,120.63 437.18,130.85 437.18,141.07 437.18,151.28 437.18,161.50 437.18,171.72 437.18,181.94 437.18,192.15 437.18,202.37 437.18,212.59 437.18,222.81 437.18,233.02 437.18,243.24 437.18,253.46 437.18,263.67 437.18,273.89 437.18,284.11 437.18,294.33 437.18,304.54 437.18,314.76" fill="none" stroke="#60a5fa" stroke-width="1.0" opacity="0.55"/><polyline points="437.18,69.55 412.68,54.21 379.84,42.02 341.01,34.93 300.20,34.00 261.85,39.02 229.35,48.61 202.00,62.37 180.28,80.80 167.62,102.59 165.95,125.49 174.88,147.01 191.97,165.24 216.48,180.58 249.31,192.76 288.14,199.86 328.96,200.79 367.30,195.77 399.80,186.17 427.15,172.42 448.88,153.99 461.54,132.19 463.20,109.29 454.28,87.78 437.18,69.55" fill="none" stroke="#60a5fa" stroke-width="1.0" opacity="0.55"/><polyline points="437.18,110.42 412.68,95.08 379.84,82.89 341.01,75.79 300.20,74.87 261.85,79.88 229.35,89.48 202.00,103.24 180.28,121.67 167.62,143.46 165.95,166.36 174.88,187.88 191.97,206.11 216.48,221.45 249.31,233.63 288.14,240.73 328.96,241.65 367.30,236.64 399.80,227.04 427.15,213.28 448.88,194.86 461.54,173.06 463.20,150.16 454.28,128.65 437.18,110.42" fill="none" stroke="#60a5fa" stroke-width="1.0" opacity="0.55"/><polyline points="437.18,151.28 412.68,135.95 379.84,123.76 341.01,116.66 300.20,115.74 261.85,120.75 229.35,130.35 202.00,144.11 180.28,162.54 167.62,184.33 165.95,207.23 174.88,228.75 191.97,246.98 216.48,262.32 249.31,274.50 288.14,281.60 328.96,282.52 367.30,277.51 399.80,267.91 427.15,254.15 448.88,235.73 461.54,213.93 463.20,191.03 454.28,169.52 437.18,151.28" fill="none" stroke="#60a5fa" stroke-width="1.0" opacity="0.55"/><polyline points="437.18,192.15 412.68,176.81 379.84,164.63 341.01,157.53 300.20,156.61 261.85,161.62 229.35,171.22 202.00,184.98 180.28,203.41 167.62,225.20 165.95,248.10 174.88,269.61 191.97,287.85 216.48,303.19 249.31,315.37 288.14,322.47 328.96,323.39 367.30,318.38 399.80,308.78 427.15,295.02 448.88,276.59 461.54,254.80 463.20,231.90 454.28,210.39 437.18,192.15" fill="none" stroke="#60a5fa" stroke-width="1.0" opacity="0.55"/><polyline points="437.18,233.02 412.68,217.68 379.84,205.50 341.01,198.40 300.20,197.48 261.85,202.49 229.35,212.09 202.00,225.85 180.28,244.27 167.62,266.07 165.95,288.97 174.88,310.48 191.97,328.72 216.48,344.05 249.31,356.24 288.14,363.34 328.96,364.26 367.30,359.25 399.80,349.65 427.15,335.89 448.88,317.46 461.54,295.67 463.20,272.77 454.28,251.25 437.18,233.02" fill="none" stroke="#60a5fa" stroke-width="1.0" opacity="0.55"/><polyline points="437.18,273.89 412.68,258.55 379.84,246.37 341.01,239.27 300.20,238.35 261.85,243.36 229.35,252.96 202.00,266.72 180.28,285.14 167.62,306.94 165.95,329.84 174.88,351.35 191.97,369.58 216.48,384.92 249.31,397.11 288.14,404.21 328.96,405.13 367.30,400.12 399.80,390.52 427.15,376.76 448.88,358.33 461.54,336.54 463.20,313.64 454.28,292.12 437.18,273.89" fill="none" stroke="#60a5fa" stroke-width="1.0" opacity="0.55"/><polyline points="437.18,314.76 412.68,299.42 379.84,287.24 341.01,280.14 300.20,279.21 261.85,284.23 229.35,293.83 202.00,307.58 180.28,326.01 167.62,347.81 165.95,370.71 174.88,392.22 191.97,410.45 216.48,425.79 249.31,437.98 288.14,445.07 328.96,446.00 367.30,440.98 399.80,431.39 427.15,417.63 448.88,399.20 461.54,377.41 463.20,354.51 454.28,332.99 437.18,314.76" fill="none" stroke="#60a5fa" stroke-width="1.0" opacity="0.55"/><polyline points="264.11,397.45 254.52,389.71 244.94,381.97 235.35,374.23 225.76,366.49 216.17,358.76 206.58,351.02 197.00,343.28 187.41,335.54 177.82,327.81 168.23,320.07 158.64,312.33 149.06,304.59 139.47,296.86 129.88,289.12 120.29,281.38 110.70,273.64 101.12,265.90 91.53,258.17 81.94,250.43 72.35,242.69 62.76,234.95 53.18,227.22 43.59,219.48 34.00,211.74" fill="none" stroke="#fb923c" stroke-width="1.0" opacity="0.55"/><polyline points="319.29,375.91 309.70,368.18 300.11,360.44 290.52,352.70 280.93,344.96 271.35,337.23 261.76,329.49 252.17,321.75 242.58,314.01 232.99,306.28 223.41,298.54 213.82,290.80 204.23,283.06 194.64,275.32 185.05,267.59 175.47,259.85 165.88,252.11 156.29,244.37 146.70,236.64 137.11,228.90 127.53,221.16 117.94,213.42 108.35,205.68 98.76,197.95 89.17,190.21" fill="none" stroke="#fb923c" stroke-width="1.0" opacity="0.55"/><polyline points="374.46,354.38 364.87,346.65 355.28,338.91 345.70,331.17 336.11,323.43 326.52,315.69 316.93,307.96 307.34,300.22 297.75,292.48 288.17,284.74 278.58,277.01 268.99,269.27 259.40,261.53 249.81,253.79 240.23,246.06 230.64,238.32 221.05,230.58 211.46,222.84 201.87,215.10 192.29,207.37 182.70,199.63 173.11,191.89 163.52,184.15 153.93,176.42 144.35,168.68" fill="none" stroke="#fb923c" stroke-width="1.0" opacity="0.55"/><polyline points="429.63,332.85 420.04,325.11 410.46,317.38 400.87,309.64 391.28,301.90 381.69,294.16 372.10,286.43 362.52,278.69 352.93,270.95 343.34,263.21 333.75,255.48 324.16,247.74 314.58,240.00 304.99,232.26 295.40,224.52 285.81,216.79 276.22,209.05 266.64,201.31 257.05,193.57 247.46,185.84 237.87,178.10 228.28,170.36 218.70,162.62 209.11,154.89 199.52,147.15" fill="none" stroke="#fb923c" stroke-width="1.0" opacity="0.55"/><polyline points="484.81,311.32 475.22,303.58 465.63,295.85 456.04,288.11 446.45,280.37 436.87,272.63 427.28,264.90 417.69,257.16 408.10,249.42 398.51,241.68 388.93,233.94 379.34,226.21 369.75,218.47 360.16,210.73 350.57,202.99 340.99,195.26 331.40,187.52 321.81,179.78 312.22,172.04 302.63,164.31 293.05,156.57 283.46,148.83 273.87,141.09 264.28,133.35 254.69,125.62" fill="none" stroke="#fb923c" stroke-width="1.0" opacity="0.55"/><polyline points="539.98,289.79 530.39,282.05 520.80,274.32 511.21,266.58 501.63,258.84 492.04,251.10 482.45,243.36 472.86,235.63 463.27,227.89 453.69,220.15 444.10,212.41 434.51,204.68 424.92,196.94 415.33,189.20 405.75,181.46 396.16,173.72 386.57,165.99 376.98,158.25 367.39,150.51 357.81,142.77 348.22,135.04 338.63,127.30 329.04,119.56 319.45,111.82 309.87,104.09" fill="none" stroke="#fb923c" stroke-width="1.0" opacity="0.55"/><polyline points="595.15,268.26 585.56,260.52 575.98,252.78 566.39,245.05 556.80,237.31 547.21,229.57 537.62,221.83 528.04,214.10 518.45,206.36 508.86,198.62 499.27,190.88 489.68,183.14 480.10,175.41 470.51,167.67 460.92,159.93 451.33,152.19 441.74,144.46 432.16,136.72 422.57,128.98 412.98,121.24 403.39,113.51 393.80,105.77 384.22,98.03 374.63,90.29 365.04,82.55" fill="none" stroke="#fb923c" stroke-width="1.0" opacity="0.55"/><polyline points="264.11,397.45 277.91,392.06 291.70,386.68 305.49,381.30 319.29,375.91 333.08,370.53 346.87,365.15 360.67,359.77 374.46,354.38 388.25,349.00 402.05,343.62 415.84,338.24 429.63,332.85 443.43,327.47 457.22,322.09 471.01,316.70 484.81,311.32 498.60,305.94 512.39,300.56 526.19,295.17 539.98,289.79 553.77,284.41 567.57,279.02 581.36,273.64 595.15,268.26" fill="none" stroke="#fb923c" stroke-width="1.0" opacity="0.55"/><polyline points="225.76,366.49 239.55,361.11 253.35,355.73 267.14,350.35 280.93,344.96 294.73,339.58 308.52,334.20 322.31,328.82 336.11,323.43 349.90,318.05 363.69,312.67 377.49,307.28 391.28,301.90 405.07,296.52 418.87,291.14 432.66,285.75 446.45,280.37 460.25,274.99 474.04,269.61 487.83,264.22 501.63,258.84 515.42,253.46 529.21,248.07 543.01,242.69 556.80,237.31" fill="none" stroke="#fb923c" stroke-width="1.0" opacity="0.55"/><polyline points="187.41,335.54 201.20,330.16 215.00,324.78 228.79,319.40 242.58,314.01 256.38,308.63 270.17,303.25 283.96,297.86 297.75,292.48 311.55,287.10 325.34,281.72 339.13,276.33 352.93,270.95 366.72,265.57 380.51,260.19 394.31,254.80 408.10,249.42 421.89,244.04 435.69,238.65 449.48,233.27 463.27,227.89 477.07,222.51 490.86,217.12 504.65,211.74 518.45,206.36" fill="none" stroke="#fb923c" stroke-width="1.0" opacity="0.55"/><polyline points="149.06,304.59 162.85,299.21 176.64,293.83 190.44,288.44 204.23,283.06 218.02,277.68 231.82,272.30 245.61,266.91 259.40,261.53 273.20,256.15 286.99,250.77 300.78,245.38 314.58,240.00 328.37,234.62 342.16,229.23 355.96,223.85 369.75,218.47 383.54,213.09 397.34,207.70 411.13,202.32 424.92,196.94 438.72,191.56 452.51,186.17 466.30,180.79 480.10,175.41" fill="none" stroke="#fb923c" stroke-width="1.0" opacity="0.55"/><polyline points="110.70,273.64 124.50,268.26 138.29,262.88 152.08,257.49 165.88,252.11 179.67,246.73 193.46,241.35 207.26,235.96 221.05,230.58 234.84,225.20 248.64,219.81 262.43,214.43 276.22,209.05 290.02,203.67 303.81,198.28 317.60,192.90 331.40,187.52 345.19,182.14 358.98,176.75 372.78,171.37 386.57,165.99 400.36,160.60 414.16,155.22 427.95,149.84 441.74,144.46" fill="none" stroke="#fb923c" stroke-width="1.0" opacity="0.55"/><polyline points="72.35,242.69 86.15,237.31 99.94,231.93 113.73,226.54 127.53,221.16 141.32,215.78 155.11,210.39 168.91,205.01 182.70,199.63 196.49,194.25 210.29,188.86 224.08,183.48 237.87,178.10 251.67,172.72 265.46,167.33 279.25,161.95 293.05,156.57 306.84,151.18 320.63,145.80 334.43,140.42 348.22,135.04 362.01,129.65 375.80,124.27 389.60,118.89 403.39,113.51" fill="none" stroke="#fb923c" stroke-width="1.0" opacity="0.55"/><polyline points="34.00,211.74 47.79,206.36 61.59,200.98 75.38,195.59 89.17,190.21 102.97,184.83 116.76,179.44 130.55,174.06 144.35,168.68 158.14,163.30 171.93,157.91 185.73,152.53 199.52,147.15 213.31,141.76 227.11,136.38 240.90,131.00 254.69,125.62 268.49,120.23 282.28,114.85 296.07,109.47 309.87,104.09 323.66,98.70 337.45,93.32 351.25,87.94 365.04,82.55" fill="none" stroke="#fb923c" stroke-width="1.0" opacity="0.55"/><polyline points="437.18,192.15 431.35,187.76 425.01,183.59 418.20,179.65 410.95,175.98 403.28,172.58 395.24,169.47 386.84,166.67 378.14,164.17 369.17,162.00 359.96,160.17 350.56,158.68 341.01,157.53 331.34,156.74 321.60,156.31 311.83,156.23 302.07,156.51 292.37,157.15 282.76,158.15 273.28,159.49 263.99,161.18 254.91,163.21 246.08,165.56 237.55,168.24 229.35,171.22 221.51,174.50 214.07,178.05 207.07,181.88 200.52,185.95 194.46,190.25 188.92,194.77 183.91,199.48 179.46,204.36 175.60,209.39 172.32,214.56 169.66,219.84 167.62,225.20 166.20,230.62 165.42,236.09 165.28,241.57 165.78,247.05 166.92,252.49 168.69,257.88 171.08,263.20 174.09,268.41 177.70,273.51 181.89,278.46 186.66,283.25 191.97,287.85 197.81,292.24 204.14,296.41 210.95,300.35 218.21,304.02 225.87,307.42 233.92,310.53 242.31,313.33 251.01,315.83 259.98,318.00 269.19,319.83 278.59,321.32 288.14,322.47 297.81,323.26 307.55,323.69 317.32,323.77 327.08,323.49 336.79,322.85 346.40,321.85 355.87,320.51 365.17,318.82 374.25,316.79 383.07,314.44 391.60,311.76 399.80,308.78 407.64,305.50 415.08,301.95 422.08,298.12 428.63,294.05 434.69,289.75 440.24,285.23 445.24,280.52 449.69,275.64 453.56,270.61 456.83,265.44 459.49,260.16 461.54,254.80 462.95,249.38 463.73,243.91 463.87,238.43 463.37,232.95 462.23,227.51 460.47,222.12 458.07,216.80 455.06,211.59 451.45,206.49 447.26,201.54 442.49,196.75 437.18,192.15" fill="none" stroke="#facc15" stroke-width="2.8" opacity="1.0"/><polyline points="437.18,192.15 439.25,193.87 441.17,195.54 443.12,197.34 444.99,199.17 446.68,200.92 448.39,202.80 449.93,204.60 451.48,206.52 452.93,208.46 454.23,210.32 455.51,212.30 456.71,214.30 457.76,216.20 458.78,218.23 459.66,220.16 460.50,222.21 461.25,224.28 461.88,226.24 462.45,228.32 462.92,230.41 463.28,232.40 463.58,234.50 463.77,236.60 463.87,238.59 463.89,240.70 463.82,242.69 463.65,244.80 463.38,246.90 463.05,248.89 462.60,250.98 462.06,253.07 461.46,255.03 460.74,257.10 459.97,259.05 459.07,261.09 458.08,263.13 457.06,265.04 455.89,267.04 454.63,269.03 453.36,270.89 451.93,272.84 450.41,274.77 448.90,276.57 447.21,278.45 445.55,280.21 443.70,282.05 441.77,283.86 439.88,285.55 437.79,287.30 435.63,289.03 433.52,290.63 431.21,292.29 428.96,293.83 426.51,295.43 423.99,297.00 421.54,298.44 418.88,299.93 416.16,301.39 413.53,302.72 410.69,304.10 407.78,305.44 404.98,306.67 401.96,307.92 399.06,309.07 395.93,310.24 392.76,311.37 389.71,312.39 386.44,313.43 383.12,314.42 379.95,315.32 376.55,316.22 373.30,317.02 369.83,317.83 366.32,318.58 362.98,319.25 359.41,319.91 355.81,320.52 352.39,321.05 348.74,321.56 345.07,322.01 341.59,322.40 337.88,322.75 334.37,323.04 330.64,323.30 326.90,323.50 323.36,323.64 319.60,323.74 315.84,323.78 312.30,323.78 308.54,323.72 304.99,323.61 301.25,323.45 297.51,323.24 293.99,322.99 290.27,322.67 286.57,322.30 283.09,321.91 279.43,321.44 275.79,320.92 272.37,320.38 268.78,319.76 265.42,319.12 261.88,318.41 258.38,317.64 255.11,316.87 251.68,316.00 248.29,315.09 245.13,314.19 241.83,313.18 238.75,312.19 235.54,311.10 232.37,309.96 229.43,308.85 226.37,307.62 223.37,306.36 220.58,305.12 217.69,303.77 214.86,302.39 212.25,301.04 209.55,299.58 207.05,298.16 204.48,296.62 201.98,295.05 199.68,293.53 197.31,291.89 195.02,290.22 192.93,288.61 190.79,286.88 188.84,285.22 186.85,283.43 184.95,281.61 183.22,279.87 181.48,278.00 179.82,276.11 178.32,274.30 176.83,272.37 175.50,270.52 174.18,268.55 172.94,266.56 171.86,264.66 170.80,262.64 169.83,260.60 169.00,258.67 168.21,256.60 167.51,254.53 166.94,252.57 166.42,250.48 166.02,248.50 165.69,246.40 165.45,244.29 165.31,242.30 165.26,240.20 165.30,238.09 165.42,236.10 165.65,233.99 165.94,232.01 166.35,229.91 166.85,227.82 167.41,225.85 168.09,223.78 168.87,221.72 169.68,219.78 170.64,217.74 171.68,215.71 172.75,213.81 173.98,211.82 175.21,209.95 176.60,207.99 178.08,206.05 179.56,204.24 181.21,202.35 182.94,200.47 184.65,198.73 186.55,196.91 188.41,195.21 190.46,193.44 192.59,191.71 194.67,190.09 196.95,188.41 199.30,186.77 201.59,185.25 204.08,183.67 206.64,182.12 209.13,180.70 211.82,179.23 214.43,177.88 217.24,176.48 220.13,175.13 222.90,173.88 225.90,172.61 228.95,171.38 231.88,170.25 235.04,169.11 238.06,168.07 241.31,167.01 244.61,166.00 247.77,165.08 251.15,164.16 254.57,163.29 257.84,162.51 261.33,161.73 264.86,161.01 268.22,160.36 271.81,159.73 275.22,159.19 278.86,158.65 282.52,158.18 285.99,157.77 289.69,157.39 293.40,157.07 296.92,156.81 300.66,156.58 304.20,156.42 307.95,156.30 311.71,156.23 315.25,156.22 319.01,156.25 322.77,156.34 326.31,156.47 330.05,156.66 333.78,156.91 337.30,157.19 341.01,157.53 344.49,157.91 348.16,158.36 351.81,158.85 355.24,159.37 358.84,159.97 362.42,160.62 365.77,161.28 369.28,162.03 372.57,162.78 376.01,163.62 379.42,164.51 382.60,165.40 385.92,166.38 389.20,167.41 392.25,168.43 395.44,169.55 398.57,170.71 401.48,171.85 404.51,173.10 407.32,174.32 410.23,175.65 413.09,177.02 415.73,178.35 418.46,179.80 421.13,181.28 423.58,182.72 426.12,184.28 428.45,185.78 430.67,187.28 432.99,188.94 435.12,190.53 437.18,192.15" fill="none" stroke="#f472b6" stroke-width="2.8" opacity="1.0"/><polyline points="437.18,192.15 444.35,198.53 450.64,205.47 455.90,212.93 459.95,220.83 462.63,229.09 463.83,237.59 463.48,246.21 461.54,254.80 458.02,263.24 453.00,271.39 446.59,279.12 438.95,286.34 430.25,292.96 420.69,298.93 410.48,304.20 399.80,308.78 388.44,312.80 376.07,316.34 362.78,319.29 348.69,321.56 333.97,323.07 318.82,323.75 303.46,323.55 288.14,322.47 273.11,320.50 258.59,317.68 244.81,314.09 231.95,309.80 220.15,304.93 209.52,299.56 200.12,293.83 191.97,287.85 184.81,281.47 178.51,274.53 173.25,267.07 169.21,259.17 166.52,250.91 165.32,242.41 165.67,233.79 167.62,225.20 171.13,216.76 176.15,208.61 182.56,200.88 190.20,193.66 198.90,187.04 208.46,181.07 218.68,175.80 229.35,171.22 240.71,167.20 253.08,163.66 266.38,160.71 280.46,158.44 295.18,156.93 310.33,156.25 325.69,156.45 341.01,157.53 356.04,159.50 370.56,162.32 384.34,165.91 397.20,170.20 409.00,175.07 419.63,180.44 429.03,186.17 437.18,192.15" fill="none" stroke="#34d399" stroke-width="2.8" opacity="1.0"/>
</svg>
