<svg xmlns="http://www.w3.org/2000/svg" width="760" height="480" viewBox="0 0 760 480">
<rect width="100%" height="100%" fill="#0f172a"/>
<text x="18" y="24" font-family="sans-serif" font-size="15" fill="#f8fafc">Non-positive rational weight</text>
<text x="18" y="44" font-family="sans-serif" font-size="12" fill="#94a3b8">Expected rejected: invalid-input</text>
<polyline points="419.69,55.70 419.69,66.30 419.69,76.89 419.69,87.48 419.69,98.07 419.69,108.67 419.69,119.26 419.69,129.85 419.69,140.45 419.69,151.04 419.69,161.63 419.69,172.23 419.69,182.82 419.69,193.41 419.69,204.00 419.69,214.60 419.69,225.19 419.69,235.78 419.69,246.38 419.69,256.97 419.69,267.56 419.69,278.16 419.69,288.75 419.69,299.34 419.69,309.93" fill="none" stroke="#60a5fa" stroke-width="1.0" opacity="0.55"/><polyline points="247.31,38.34 249.24,53.30 251.09,67.59 252.86,81.25 254.55,94.32 256.16,106.84 257.72,118.84 259.21,130.36 260.64,141.41 262.01,152.04 263.33,162.27 264.61,172.11 265.83,181.59 267.01,190.73 268.15,199.54 269.25,208.05 270.32,216.26 271.34,224.20 272.33,231.88 273.30,239.30 274.22,246.49 275.13,253.45 276.00,260.20 276.84,266.74 277.66,273.08" fill="none" stroke="#60a5fa" stroke-width="1.0" opacity="0.55"/><polyline points="153.33,67.37 153.33,77.96 153.33,88.55 153.33,99.15 153.33,109.74 153.33,120.33 153.33,130.93 153.33,141.52 153.33,152.11 153.33,162.71 153.33,173.30 153.33,183.89 153.33,194.48 153.33,205.08 153.33,215.67 153.33,226.26 153.33,236.86 153.33,247.45 153.33,258.04 153.33,268.64 153.33,279.23 153.33,289.82 153.33,300.41 153.33,311.01 153.33,321.60" fill="none" stroke="#60a5fa" stroke-width="1.0" opacity="0.55"/><polyline points="165.46,154.92 165.46,165.51 165.46,176.10 165.46,186.69 165.46,197.29 165.46,207.88 165.46,218.47 165.46,229.07 165.46,239.66 165.46,250.25 165.46,260.84 165.46,271.44 165.46,282.03 165.46,292.62 165.46,303.22 165.46,313.81 165.46,324.40 165.46,335.00 165.46,345.59 165.46,356.18 165.46,366.77 165.46,377.37 165.46,387.96 165.46,398.55 165.46,409.15" fill="none" stroke="#60a5fa" stroke-width="1.0" opacity="0.55"/><polyline points="307.48,191.77 307.48,202.36 307.48,212.95 307.48,223.55 307.48,234.14 307.48,244.73 307.48,255.33 307.48,265.92 307.48,276.51 307.48,287.11 307.48,297.70 307.48,308.29 307.48,318.88 307.48,329.48 307.48,340.07 307.48,350.66 307.48,361.26 307.48,371.85 307.48,382.44 307.48,393.04 307.48,403.63 307.48,414.22 307.48,424.81 307.48,435.41 307.48,446.00" fill="none" stroke="#60a5fa" stroke-width="1.0" opacity="0.55"/><polyline points="431.81,143.25 431.81,153.84 431.81,164.44 431.81,175.03 431.81,185.62 431.81,196.21 431.81,206.81 431.81,217.40 431.81,227.99 431.81,238.59 431.81,249.18 431.81,259.77 431.81,270.37 431.81,280.96 431.81,291.55 431.81,302.14 431.81,312.74 431.81,323.33 431.81,333.92 431.81,344.52 431.81,355.11 431.81,365.70 431.81,376.30 431.81,386.89 431.81,397.48" fill="none" stroke="#60a5fa" stroke-width="1.0" opacity="0.55"/><polyline points="419.69,55.70 419.69,66.30 419.69,76.89 419.69,87.48 419.69,98.07 419.69,108.67 419.69,119.26 419.69,129.85 419.69,140.45 419.69,151.04 419.69,161.63 419.69,172.23 419.69,182.82 419.69,193.41 419.69,204.00 419.69,214.60 419.69,225.19 419.69,235.78 419.69,246.38 419.69,256.97 419.69,267.56 419.69,278.16 419.69,288.75 419.69,299.34 419.69,309.93" fill="none" stroke="#60a5fa" stroke-width="1.0" opacity="0.55"/><polyline points="419.69,55.70 411.40,54.87 376.59,51.36 311.95,44.85 247.31,38.34 212.50,34.83 204.21,34.00 175.86,48.26 153.33,67.37 140.21,89.96 138.48,113.71 147.74,136.01 165.46,154.92 190.86,170.82 224.91,183.45 265.17,190.81 307.48,191.77 347.24,186.57 380.93,176.62 409.28,162.36 431.81,143.25 444.94,120.66 446.66,96.91 437.41,74.61 419.69,55.70" fill="none" stroke="#60a5fa" stroke-width="1.0" opacity="0.55"/><polyline points="419.69,98.07 407.93,103.37 372.69,106.22 313.99,103.19 254.55,94.32 217.65,84.21 204.21,76.37 175.86,90.63 153.33,109.74 140.21,132.33 138.48,156.08 147.74,178.38 165.46,197.29 190.86,213.19 224.91,225.82 265.17,233.18 307.48,234.14 347.24,228.94 380.93,218.99 409.28,204.73 431.81,185.62 444.94,163.03 446.66,139.28 437.41,116.98 419.69,98.07" fill="none" stroke="#60a5fa" stroke-width="1.0" opacity="0.55"/><polyline points="419.69,140.45 404.74,147.84 369.41,152.37 315.65,150.39 260.64,141.41 222.38,129.47 204.21,118.74 175.86,133.01 153.33,152.11 140.21,174.71 138.48,198.45 147.74,220.76 165.46,239.66 190.86,255.56 224.91,268.20 265.17,275.55 307.48,276.51 347.24,271.31 380.93,261.36 409.28,247.10 431.81,227.99 444.94,205.40 446.66,181.66 437.41,159.35 419.69,140.45" fill="none" stroke="#60a5fa" stroke-width="1.0" opacity="0.55"/><polyline points="419.69,182.82 401.82,188.76 366.61,191.74 317.01,189.38 265.83,181.59 226.72,171.13 204.21,161.12 175.86,175.38 153.33,194.48 140.21,217.08 138.48,240.82 147.74,263.13 165.46,282.03 190.86,297.93 224.91,310.57 265.17,317.92 307.48,318.88 347.24,313.68 380.93,303.73 409.28,289.47 431.81,270.37 444.94,247.77 446.66,224.03 437.41,201.72 419.69,182.82" fill="none" stroke="#60a5fa" stroke-width="1.0" opacity="0.55"/><polyline points="419.69,225.19 399.11,226.55 364.20,225.72 318.16,222.12 270.32,216.26 230.74,209.59 204.21,203.49 175.86,217.75 153.33,236.86 140.21,259.45 138.48,283.19 147.74,305.50 165.46,324.40 190.86,340.31 224.91,352.94 265.17,360.30 307.48,361.26 347.24,356.06 380.93,346.11 409.28,331.84 431.81,312.74 444.94,290.14 446.66,266.40 437.41,244.09 419.69,225.19" fill="none" stroke="#60a5fa" stroke-width="1.0" opacity="0.55"/><polyline points="419.69,267.56 396.61,261.54 362.09,255.34 319.13,250.01 274.22,246.49 234.45,245.20 204.21,245.86 175.86,260.12 153.33,279.23 140.21,301.82 138.48,325.57 147.74,347.87 165.46,366.77 190.86,382.68 224.91,395.31 265.17,402.67 307.48,403.63 347.24,398.43 380.93,388.48 409.28,374.21 431.81,355.11 444.94,332.51 446.66,308.77 437.41,286.47 419.69,267.56" fill="none" stroke="#60a5fa" stroke-width="1.0" opacity="0.55"/><polyline points="419.69,309.93 394.28,294.03 360.24,281.40 319.98,274.04 277.66,273.08 237.91,278.28 204.21,288.23 175.86,302.49 153.33,321.60 140.21,344.19 138.48,367.94 147.74,390.24 165.46,409.15 190.86,425.05 224.91,437.68 265.17,445.04 307.48,446.00 347.24,440.80 380.93,430.85 409.28,416.59 431.81,397.48 444.94,374.89 446.66,351.14 437.41,328.84 419.69,309.93" fill="none" stroke="#60a5fa" stroke-width="1.0" opacity="0.55"/><polyline points="246.07,377.52 237.23,370.39 228.39,363.26 219.56,356.13 210.72,349.00 201.89,341.87 193.05,334.74 184.21,327.61 175.38,320.48 166.54,313.34 157.71,306.21 148.87,299.08 140.03,291.95 131.20,284.82 122.36,277.69 113.52,270.56 104.69,263.43 95.85,256.30 87.02,249.17 78.18,242.04 69.34,234.91 60.51,227.77 51.67,220.64 42.84,213.51 34.00,206.38" fill="none" stroke="#fb923c" stroke-width="1.0" opacity="0.55"/><polyline points="296.91,357.68 288.08,350.55 279.24,343.42 270.40,336.29 261.57,329.16 252.73,322.03 243.90,314.90 235.06,307.76 226.22,300.63 217.39,293.50 208.55,286.37 199.72,279.24 190.88,272.11 182.04,264.98 173.21,257.85 164.37,250.72 155.54,243.59 146.70,236.46 137.86,229.32 129.03,222.19 120.19,215.06 111.35,207.93 102.52,200.80 93.68,193.67 84.85,186.54" fill="none" stroke="#fb923c" stroke-width="1.0" opacity="0.55"/><polyline points="347.76,337.84 338.92,330.71 330.09,323.58 321.25,316.45 312.41,309.31 303.58,302.18 294.74,295.05 285.91,287.92 277.07,280.79 268.23,273.66 259.40,266.53 250.56,259.40 241.73,252.27 232.89,245.14 224.05,238.01 215.22,230.87 206.38,223.74 197.55,216.61 188.71,209.48 179.87,202.35 171.04,195.22 162.20,188.09 153.36,180.96 144.53,173.83 135.69,166.70" fill="none" stroke="#fb923c" stroke-width="1.0" opacity="0.55"/><polyline points="398.61,318.00 389.77,310.86 380.93,303.73 372.10,296.60 363.26,289.47 354.42,282.34 345.59,275.21 336.75,268.08 327.92,260.95 319.08,253.82 310.24,246.69 301.41,239.56 292.57,232.42 283.74,225.29 274.90,218.16 266.06,211.03 257.23,203.90 248.39,196.77 239.56,189.64 230.72,182.51 221.88,175.38 213.05,168.25 204.21,161.12 195.38,153.98 186.54,146.85" fill="none" stroke="#fb923c" stroke-width="1.0" opacity="0.55"/><polyline points="449.45,298.15 440.62,291.02 431.78,283.89 422.94,276.76 414.11,269.63 405.27,262.50 396.44,255.37 387.60,248.24 378.76,241.11 369.93,233.97 361.09,226.84 352.25,219.71 343.42,212.58 334.58,205.45 325.75,198.32 316.91,191.19 308.07,184.06 299.24,176.93 290.40,169.80 281.57,162.67 272.73,155.54 263.89,148.40 255.06,141.27 246.22,134.14 237.39,127.01" fill="none" stroke="#fb923c" stroke-width="1.0" opacity="0.55"/><polyline points="500.30,278.31 491.46,271.18 482.63,264.05 473.79,256.92 464.95,249.79 456.12,242.66 447.28,235.53 438.45,228.39 429.61,221.26 420.77,214.13 411.94,207.00 403.10,199.87 394.26,192.74 385.43,185.61 376.59,178.48 367.76,171.35 358.92,164.22 350.08,157.09 341.25,149.95 332.41,142.82 323.58,135.69 314.74,128.56 305.90,121.43 297.07,114.30 288.23,107.17" fill="none" stroke="#fb923c" stroke-width="1.0" opacity="0.55"/><polyline points="551.14,258.47 542.31,251.34 533.47,244.21 524.64,237.08 515.80,229.94 506.96,222.81 498.13,215.68 489.29,208.55 480.46,201.42 471.62,194.29 462.78,187.16 453.95,180.03 445.11,172.90 436.28,165.77 427.44,158.64 418.60,151.50 409.77,144.37 400.93,137.24 392.09,130.11 383.26,122.98 374.42,115.85 365.59,108.72 356.75,101.59 347.91,94.46 339.08,87.33" fill="none" stroke="#fb923c" stroke-width="1.0" opacity="0.55"/><polyline points="246.07,377.52 258.78,372.56 271.49,367.60 284.20,362.64 296.91,357.68 309.62,352.72 322.34,347.76 335.05,342.80 347.76,337.84 360.47,332.88 373.18,327.92 385.89,322.96 398.61,318.00 411.32,313.03 424.03,308.07 436.74,303.11 449.45,298.15 462.16,293.19 474.87,288.23 487.59,283.27 500.30,278.31 513.01,273.35 525.72,268.39 538.43,263.43 551.14,258.47" fill="none" stroke="#fb923c" stroke-width="1.0" opacity="0.55"/><polyline points="210.72,349.00 223.43,344.04 236.15,339.08 248.86,334.12 261.57,329.16 274.28,324.20 286.99,319.24 299.70,314.27 312.41,309.31 325.13,304.35 337.84,299.39 350.55,294.43 363.26,289.47 375.97,284.51 388.68,279.55 401.40,274.59 414.11,269.63 426.82,264.67 439.53,259.71 452.24,254.75 464.95,249.79 477.67,244.83 490.38,239.87 503.09,234.91 515.80,229.94" fill="none" stroke="#fb923c" stroke-width="1.0" opacity="0.55"/><polyline points="175.38,320.48 188.09,315.52 200.80,310.55 213.51,305.59 226.22,300.63 238.94,295.67 251.65,290.71 264.36,285.75 277.07,280.79 289.78,275.83 302.49,270.87 315.21,265.91 327.92,260.95 340.63,255.99 353.34,251.03 366.05,246.07 378.76,241.11 391.47,236.15 404.19,231.18 416.90,226.22 429.61,221.26 442.32,216.30 455.03,211.34 467.74,206.38 480.46,201.42" fill="none" stroke="#fb923c" stroke-width="1.0" opacity="0.55"/><polyline points="140.03,291.95 152.74,286.99 165.46,282.03 178.17,277.07 190.88,272.11 203.59,267.15 216.30,262.19 229.01,257.23 241.73,252.27 254.44,247.31 267.15,242.35 279.86,237.39 292.57,232.42 305.28,227.46 318.00,222.50 330.71,217.54 343.42,212.58 356.13,207.62 368.84,202.66 381.55,197.70 394.26,192.74 406.98,187.78 419.69,182.82 432.40,177.86 445.11,172.90" fill="none" stroke="#fb923c" stroke-width="1.0" opacity="0.55"/><polyline points="104.69,263.43 117.40,258.47 130.11,253.51 142.82,248.55 155.54,243.59 168.25,238.63 180.96,233.66 193.67,228.70 206.38,223.74 219.09,218.78 231.80,213.82 244.52,208.86 257.23,203.90 269.94,198.94 282.65,193.98 295.36,189.02 308.07,184.06 320.79,179.10 333.50,174.14 346.21,169.18 358.92,164.22 371.63,159.26 384.34,154.29 397.06,149.33 409.77,144.37" fill="none" stroke="#fb923c" stroke-width="1.0" opacity="0.55"/><polyline points="69.34,234.91 82.06,229.94 94.77,224.98 107.48,220.02 120.19,215.06 132.90,210.10 145.61,205.14 158.33,200.18 171.04,195.22 183.75,190.26 196.46,185.30 209.17,180.34 221.88,175.38 234.60,170.42 247.31,165.46 260.02,160.50 272.73,155.54 285.44,150.57 298.15,145.61 310.86,140.65 323.58,135.69 336.29,130.73 349.00,125.77 361.71,120.81 374.42,115.85" fill="none" stroke="#fb923c" stroke-width="1.0" opacity="0.55"/><polyline points="34.00,206.38 46.71,201.42 59.42,196.46 72.13,191.50 84.85,186.54 97.56,181.58 110.27,176.62 122.98,171.66 135.69,166.70 148.40,161.74 161.12,156.78 173.83,151.81 186.54,146.85 199.25,141.89 211.96,136.93 224.67,131.97 237.39,127.01 250.10,122.05 262.81,117.09 275.52,112.13 288.23,107.17 300.94,102.21 313.65,97.25 326.37,92.29 339.08,87.33" fill="none" stroke="#fb923c" stroke-width="1.0" opacity="0.55"/>
</svg>
