<svg xmlns="http://www.w3.org/2000/svg" width="760" height="480" viewBox="0 0 760 480">
<rect width="100%" height="100%" fill="#0f172a"/>
<text x="18" y="24" font-family="sans-serif" font-size="15" fill="#f8fafc">Parallel separation inside operand accuracy</text>
<text x="18" y="44" font-family="sans-serif" font-size="12" fill="#94a3b8">Expected rejected: below-resolution</text>
<polyline points="317.77,445.18 305.95,435.64 294.12,426.10 282.30,416.56 270.47,407.02 258.65,397.47 246.83,387.93 235.00,378.39 223.18,368.85 211.36,359.31 199.53,349.76 187.71,340.22 175.88,330.68 164.06,321.14 152.24,311.60 140.41,302.05 128.59,292.51 116.77,282.97 104.94,273.43 93.12,263.89 81.29,254.34 69.47,244.80 57.65,235.26 45.82,225.72 34.00,216.18" fill="none" stroke="#60a5fa" stroke-width="1.0" opacity="0.55"/><polyline points="385.81,418.63 373.98,409.09 362.16,399.55 350.34,390.01 338.51,380.46 326.69,370.92 314.87,361.38 303.04,351.84 291.22,342.30 279.39,332.75 267.57,323.21 255.75,313.67 243.92,304.13 232.10,294.59 220.28,285.04 208.45,275.50 196.63,265.96 184.80,256.42 172.98,246.88 161.16,237.33 149.33,227.79 137.51,218.25 125.69,208.71 113.86,199.17 102.04,189.62" fill="none" stroke="#60a5fa" stroke-width="1.0" opacity="0.55"/><polyline points="453.85,392.08 442.02,382.54 430.20,373.00 418.38,363.45 406.55,353.91 394.73,344.37 382.90,334.83 371.08,325.29 359.26,315.74 347.43,306.20 335.61,296.66 323.79,287.12 311.96,277.58 300.14,268.03 288.31,258.49 276.49,248.95 264.67,239.41 252.84,229.87 241.02,220.33 229.20,210.78 217.37,201.24 205.55,191.70 193.72,182.16 181.90,172.62 170.08,163.07" fill="none" stroke="#60a5fa" stroke-width="1.0" opacity="0.55"/><polyline points="521.88,365.53 510.06,355.99 498.24,346.44 486.41,336.90 474.59,327.36 462.77,317.82 450.94,308.28 439.12,298.74 427.29,289.19 415.47,279.65 403.65,270.11 391.82,260.57 380.00,251.03 368.18,241.48 356.35,231.94 344.53,222.40 332.71,212.86 320.88,203.32 309.06,193.77 297.23,184.23 285.41,174.69 273.59,165.15 261.76,155.61 249.94,146.06 238.12,136.52" fill="none" stroke="#60a5fa" stroke-width="1.0" opacity="0.55"/><polyline points="589.92,338.98 578.10,329.44 566.28,319.89 554.45,310.35 542.63,300.81 530.80,291.27 518.98,281.73 507.16,272.18 495.33,262.64 483.51,253.10 471.69,243.56 459.86,234.02 448.04,224.47 436.21,214.93 424.39,205.39 412.57,195.85 400.74,186.31 388.92,176.76 377.10,167.22 365.27,157.68 353.45,148.14 341.62,138.60 329.80,129.05 317.98,119.51 306.15,109.97" fill="none" stroke="#60a5fa" stroke-width="1.0" opacity="0.55"/><polyline points="657.96,312.43 646.14,302.88 634.31,293.34 622.49,283.80 610.67,274.26 598.84,264.72 587.02,255.17 575.20,245.63 563.37,236.09 551.55,226.55 539.72,217.01 527.90,207.46 516.08,197.92 504.25,188.38 492.43,178.84 480.61,169.30 468.78,159.75 456.96,150.21 445.13,140.67 433.31,131.13 421.49,121.59 409.66,112.04 397.84,102.50 386.02,92.96 374.19,83.42" fill="none" stroke="#60a5fa" stroke-width="1.0" opacity="0.55"/><polyline points="726.00,285.87 714.18,276.33 702.35,266.79 690.53,257.25 678.71,247.71 666.88,238.16 655.06,228.62 643.23,219.08 631.41,209.54 619.59,200.00 607.76,190.45 595.94,180.91 584.12,171.37 572.29,161.83 560.47,152.29 548.64,142.74 536.82,133.20 525.00,123.66 513.17,114.12 501.35,104.58 489.53,95.03 477.70,85.49 465.88,75.95 454.05,66.41 442.23,56.87" fill="none" stroke="#60a5fa" stroke-width="1.0" opacity="0.55"/><polyline points="317.77,445.18 334.78,438.55 351.79,431.91 368.80,425.27 385.81,418.63 402.82,411.99 419.83,405.36 436.84,398.72 453.85,392.08 470.86,385.44 487.87,378.80 504.88,372.17 521.88,365.53 538.89,358.89 555.90,352.25 572.91,345.62 589.92,338.98 606.93,332.34 623.94,325.70 640.95,319.06 657.96,312.43 674.97,305.79 691.98,299.15 708.99,292.51 726.00,285.87" fill="none" stroke="#60a5fa" stroke-width="1.0" opacity="0.55"/><polyline points="270.47,407.02 287.48,400.38 304.49,393.74 321.50,387.10 338.51,380.46 355.52,373.83 372.53,367.19 389.54,360.55 406.55,353.91 423.56,347.27 440.57,340.64 457.58,334.00 474.59,327.36 491.60,320.72 508.61,314.09 525.62,307.45 542.63,300.81 559.64,294.17 576.65,287.53 593.66,280.90 610.67,274.26 627.68,267.62 644.69,260.98 661.70,254.34 678.71,247.71" fill="none" stroke="#60a5fa" stroke-width="1.0" opacity="0.55"/><polyline points="223.18,368.85 240.19,362.21 257.20,355.57 274.21,348.93 291.22,342.30 308.23,335.66 325.24,329.02 342.25,322.38 359.26,315.74 376.27,309.11 393.28,302.47 410.29,295.83 427.29,289.19 444.30,282.56 461.31,275.92 478.32,269.28 495.33,262.64 512.34,256.00 529.35,249.37 546.36,242.73 563.37,236.09 580.38,229.45 597.39,222.81 614.40,216.18 631.41,209.54" fill="none" stroke="#60a5fa" stroke-width="1.0" opacity="0.55"/><polyline points="175.88,330.68 192.89,324.04 209.90,317.40 226.91,310.77 243.92,304.13 260.93,297.49 277.94,290.85 294.95,284.21 311.96,277.58 328.97,270.94 345.98,264.30 362.99,257.66 380.00,251.03 397.01,244.39 414.02,237.75 431.03,231.11 448.04,224.47 465.05,217.84 482.06,211.20 499.07,204.56 516.08,197.92 533.09,191.28 550.10,184.65 567.11,178.01 584.12,171.37" fill="none" stroke="#60a5fa" stroke-width="1.0" opacity="0.55"/><polyline points="128.59,292.51 145.60,285.87 162.61,279.24 179.62,272.60 196.63,265.96 213.64,259.32 230.65,252.68 247.66,246.05 264.67,239.41 281.68,232.77 298.69,226.13 315.70,219.50 332.71,212.86 349.71,206.22 366.72,199.58 383.73,192.94 400.74,186.31 417.75,179.67 434.76,173.03 451.77,166.39 468.78,159.75 485.79,153.12 502.80,146.48 519.81,139.84 536.82,133.20" fill="none" stroke="#60a5fa" stroke-width="1.0" opacity="0.55"/><polyline points="81.29,254.34 98.30,247.71 115.31,241.07 132.32,234.43 149.33,227.79 166.34,221.15 183.35,214.52 200.36,207.88 217.37,201.24 234.38,194.60 251.39,187.97 268.40,181.33 285.41,174.69 302.42,168.05 319.43,161.41 336.44,154.78 353.45,148.14 370.46,141.50 387.47,134.86 404.48,128.22 421.49,121.59 438.50,114.95 455.51,108.31 472.52,101.67 489.53,95.03" fill="none" stroke="#60a5fa" stroke-width="1.0" opacity="0.55"/><polyline points="34.00,216.18 51.01,209.54 68.02,202.90 85.03,196.26 102.04,189.62 119.05,182.99 136.06,176.35 153.07,169.71 170.08,163.07 187.09,156.44 204.10,149.80 221.11,143.16 238.12,136.52 255.12,129.88 272.13,123.25 289.14,116.61 306.15,109.97 323.16,103.33 340.17,96.69 357.18,90.06 374.19,83.42 391.20,76.78 408.21,70.14 425.22,63.50 442.23,56.87" fill="none" stroke="#60a5fa" stroke-width="1.0" opacity="0.55"/><polyline points="317.77,446.00 305.95,436.46 294.12,426.92 282.30,417.37 270.47,407.83 258.65,398.29 246.83,388.75 235.00,379.21 223.18,369.66 211.36,360.12 199.53,350.58 187.71,341.04 175.88,331.50 164.06,321.95 152.24,312.41 140.41,302.87 128.59,293.33 116.77,283.79 104.94,274.24 93.12,264.70 81.29,255.16 69.47,245.62 57.65,236.08 45.82,226.53 34.00,216.99" fill="none" stroke="#fb923c" stroke-width="1.0" opacity="0.55"/><polyline points="385.81,419.45 373.98,409.91 362.16,400.36 350.34,390.82 338.51,381.28 326.69,371.74 314.87,362.20 303.04,352.65 291.22,343.11 279.39,333.57 267.57,324.03 255.75,314.49 243.92,304.94 232.10,295.40 220.28,285.86 208.45,276.32 196.63,266.78 184.80,257.24 172.98,247.69 161.16,238.15 149.33,228.61 137.51,219.07 125.69,209.53 113.86,199.98 102.04,190.44" fill="none" stroke="#fb923c" stroke-width="1.0" opacity="0.55"/><polyline points="453.85,392.90 442.02,383.35 430.20,373.81 418.38,364.27 406.55,354.73 394.73,345.19 382.90,335.65 371.08,326.10 359.26,316.56 347.43,307.02 335.61,297.48 323.79,287.94 311.96,278.39 300.14,268.85 288.31,259.31 276.49,249.77 264.67,240.23 252.84,230.68 241.02,221.14 229.20,211.60 217.37,202.06 205.55,192.52 193.72,182.97 181.90,173.43 170.08,163.89" fill="none" stroke="#fb923c" stroke-width="1.0" opacity="0.55"/><polyline points="521.88,366.35 510.06,356.80 498.24,347.26 486.41,337.72 474.59,328.18 462.77,318.64 450.94,309.09 439.12,299.55 427.29,290.01 415.47,280.47 403.65,270.93 391.82,261.38 380.00,251.84 368.18,242.30 356.35,232.76 344.53,223.22 332.71,213.67 320.88,204.13 309.06,194.59 297.23,185.05 285.41,175.51 273.59,165.96 261.76,156.42 249.94,146.88 238.12,137.34" fill="none" stroke="#fb923c" stroke-width="1.0" opacity="0.55"/><polyline points="589.92,339.79 578.10,330.25 566.28,320.71 554.45,311.17 542.63,301.63 530.80,292.08 518.98,282.54 507.16,273.00 495.33,263.46 483.51,253.92 471.69,244.37 459.86,234.83 448.04,225.29 436.21,215.75 424.39,206.21 412.57,196.66 400.74,187.12 388.92,177.58 377.10,168.04 365.27,158.50 353.45,148.95 341.62,139.41 329.80,129.87 317.98,120.33 306.15,110.79" fill="none" stroke="#fb923c" stroke-width="1.0" opacity="0.55"/><polyline points="657.96,313.24 646.14,303.70 634.31,294.16 622.49,284.62 610.67,275.07 598.84,265.53 587.02,255.99 575.20,246.45 563.37,236.91 551.55,227.36 539.72,217.82 527.90,208.28 516.08,198.74 504.25,189.20 492.43,179.65 480.61,170.11 468.78,160.57 456.96,151.03 445.13,141.49 433.31,131.94 421.49,122.40 409.66,112.86 397.84,103.32 386.02,93.78 374.19,84.24" fill="none" stroke="#fb923c" stroke-width="1.0" opacity="0.55"/><polyline points="726.00,286.69 714.18,277.15 702.35,267.61 690.53,258.06 678.71,248.52 666.88,238.98 655.06,229.44 643.23,219.90 631.41,210.35 619.59,200.81 607.76,191.27 595.94,181.73 584.12,172.19 572.29,162.65 560.47,153.10 548.64,143.56 536.82,134.02 525.00,124.48 513.17,114.94 501.35,105.39 489.53,95.85 477.70,86.31 465.88,76.77 454.05,67.23 442.23,57.68" fill="none" stroke="#fb923c" stroke-width="1.0" opacity="0.55"/><polyline points="317.77,446.00 334.78,439.36 351.79,432.72 368.80,426.09 385.81,419.45 402.82,412.81 419.83,406.17 436.84,399.53 453.85,392.90 470.86,386.26 487.87,379.62 504.88,372.98 521.88,366.35 538.89,359.71 555.90,353.07 572.91,346.43 589.92,339.79 606.93,333.16 623.94,326.52 640.95,319.88 657.96,313.24 674.97,306.60 691.98,299.97 708.99,293.33 726.00,286.69" fill="none" stroke="#fb923c" stroke-width="1.0" opacity="0.55"/><polyline points="270.47,407.83 287.48,401.19 304.49,394.56 321.50,387.92 338.51,381.28 355.52,374.64 372.53,368.00 389.54,361.37 406.55,354.73 423.56,348.09 440.57,341.45 457.58,334.82 474.59,328.18 491.60,321.54 508.61,314.90 525.62,308.26 542.63,301.63 559.64,294.99 576.65,288.35 593.66,281.71 610.67,275.07 627.68,268.44 644.69,261.80 661.70,255.16 678.71,248.52" fill="none" stroke="#fb923c" stroke-width="1.0" opacity="0.55"/><polyline points="223.18,369.66 240.19,363.03 257.20,356.39 274.21,349.75 291.22,343.11 308.23,336.47 325.24,329.84 342.25,323.20 359.26,316.56 376.27,309.92 393.28,303.29 410.29,296.65 427.29,290.01 444.30,283.37 461.31,276.73 478.32,270.10 495.33,263.46 512.34,256.82 529.35,250.18 546.36,243.54 563.37,236.91 580.38,230.27 597.39,223.63 614.40,216.99 631.41,210.35" fill="none" stroke="#fb923c" stroke-width="1.0" opacity="0.55"/><polyline points="175.88,331.50 192.89,324.86 209.90,318.22 226.91,311.58 243.92,304.94 260.93,298.31 277.94,291.67 294.95,285.03 311.96,278.39 328.97,271.76 345.98,265.12 362.99,258.48 380.00,251.84 397.01,245.20 414.02,238.57 431.03,231.93 448.04,225.29 465.05,218.65 482.06,212.01 499.07,205.38 516.08,198.74 533.09,192.10 550.10,185.46 567.11,178.82 584.12,172.19" fill="none" stroke="#fb923c" stroke-width="1.0" opacity="0.55"/><polyline points="128.59,293.33 145.60,286.69 162.61,280.05 179.62,273.41 196.63,266.78 213.64,260.14 230.65,253.50 247.66,246.86 264.67,240.23 281.68,233.59 298.69,226.95 315.70,220.31 332.71,213.67 349.71,207.04 366.72,200.40 383.73,193.76 400.74,187.12 417.75,180.48 434.76,173.85 451.77,167.21 468.78,160.57 485.79,153.93 502.80,147.29 519.81,140.66 536.82,134.02" fill="none" stroke="#fb923c" stroke-width="1.0" opacity="0.55"/><polyline points="81.29,255.16 98.30,248.52 115.31,241.88 132.32,235.25 149.33,228.61 166.34,221.97 183.35,215.33 200.36,208.70 217.37,202.06 234.38,195.42 251.39,188.78 268.40,182.14 285.41,175.51 302.42,168.87 319.43,162.23 336.44,155.59 353.45,148.95 370.46,142.32 387.47,135.68 404.48,129.04 421.49,122.40 438.50,115.76 455.51,109.13 472.52,102.49 489.53,95.85" fill="none" stroke="#fb923c" stroke-width="1.0" opacity="0.55"/><polyline points="34.00,216.99 51.01,210.35 68.02,203.72 85.03,197.08 102.04,190.44 119.05,183.80 136.06,177.17 153.07,170.53 170.08,163.89 187.09,157.25 204.10,150.61 221.11,143.98 238.12,137.34 255.12,130.70 272.13,124.06 289.14,117.42 306.15,110.79 323.16,104.15 340.17,97.51 357.18,90.87 374.19,84.24 391.20,77.60 408.21,70.96 425.22,64.32 442.23,57.68" fill="none" stroke="#fb923c" stroke-width="1.0" opacity="0.55"/>
</svg>
