<svg xmlns="http://www.w3.org/2000/svg" width="760" height="480" viewBox="0 0 760 480">
<rect width="100%" height="100%" fill="#0f172a"/>
<text x="18" y="24" font-family="sans-serif" font-size="15" fill="#f8fafc">Parallel separated planes</text>
<text x="18" y="44" font-family="sans-serif" font-size="12" fill="#94a3b8">Expected empty</text>
<polyline points="249.94,329.50 240.95,322.24 231.95,314.98 222.95,307.72 213.95,300.46 204.96,293.20 195.96,285.94 186.96,278.67 177.96,271.41 168.97,264.15 159.97,256.89 150.97,249.63 141.97,242.37 132.97,235.11 123.98,227.85 114.98,220.58 105.98,213.32 96.98,206.06 87.99,198.80 78.99,191.54 69.99,184.28 60.99,177.02 52.00,169.75 43.00,162.49 34.00,155.23" fill="none" stroke="#60a5fa" stroke-width="1.0" opacity="0.55"/><polyline points="301.72,309.30 292.72,302.04 283.73,294.78 274.73,287.51 265.73,280.25 256.73,272.99 247.73,265.73 238.74,258.47 229.74,251.21 220.74,243.95 211.74,236.69 202.75,229.42 193.75,222.16 184.75,214.90 175.75,207.64 166.76,200.38 157.76,193.12 148.76,185.86 139.76,178.59 130.76,171.33 121.77,164.07 112.77,156.81 103.77,149.55 94.77,142.29 85.78,135.03" fill="none" stroke="#60a5fa" stroke-width="1.0" opacity="0.55"/><polyline points="353.50,289.09 344.50,281.83 335.50,274.57 326.50,267.31 317.51,260.05 308.51,252.79 299.51,245.52 290.51,238.26 281.52,231.00 272.52,223.74 263.52,216.48 254.52,209.22 245.52,201.96 236.53,194.70 227.53,187.43 218.53,180.17 209.53,172.91 200.54,165.65 191.54,158.39 182.54,151.13 173.54,143.87 164.55,136.61 155.55,129.34 146.55,122.08 137.55,114.82" fill="none" stroke="#60a5fa" stroke-width="1.0" opacity="0.55"/><polyline points="405.27,268.89 396.28,261.63 387.28,254.36 378.28,247.10 369.28,239.84 360.29,232.58 351.29,225.32 342.29,218.06 333.29,210.80 324.29,203.54 315.30,196.27 306.30,189.01 297.30,181.75 288.30,174.49 279.31,167.23 270.31,159.97 261.31,152.71 252.31,145.45 243.31,138.18 234.32,130.92 225.32,123.66 216.32,116.40 207.32,109.14 198.33,101.88 189.33,94.62" fill="none" stroke="#60a5fa" stroke-width="1.0" opacity="0.55"/><polyline points="457.05,248.68 448.05,241.42 439.05,234.16 430.06,226.90 421.06,219.64 412.06,212.38 403.06,205.11 394.07,197.85 385.07,190.59 376.07,183.33 367.07,176.07 358.08,168.81 349.08,161.55 340.08,154.29 331.08,147.02 322.08,139.76 313.09,132.50 304.09,125.24 295.09,117.98 286.09,110.72 277.10,103.46 268.10,96.19 259.10,88.93 250.10,81.67 241.10,74.41" fill="none" stroke="#60a5fa" stroke-width="1.0" opacity="0.55"/><polyline points="508.83,228.48 499.83,221.22 490.83,213.95 481.83,206.69 472.84,199.43 463.84,192.17 454.84,184.91 445.84,177.65 436.84,170.39 427.85,163.12 418.85,155.86 409.85,148.60 400.85,141.34 391.86,134.08 382.86,126.82 373.86,119.56 364.86,112.30 355.87,105.03 346.87,97.77 337.87,90.51 328.87,83.25 319.87,75.99 310.88,68.73 301.88,61.47 292.88,54.21" fill="none" stroke="#60a5fa" stroke-width="1.0" opacity="0.55"/><polyline points="560.60,208.27 551.60,201.01 542.61,193.75 533.61,186.49 524.61,179.23 515.61,171.96 506.62,164.70 497.62,157.44 488.62,150.18 479.62,142.92 470.63,135.66 461.63,128.40 452.63,121.14 443.63,113.87 434.63,106.61 425.64,99.35 416.64,92.09 407.64,84.83 398.64,77.57 389.65,70.31 380.65,63.05 371.65,55.78 362.65,48.52 353.66,41.26 344.66,34.00" fill="none" stroke="#60a5fa" stroke-width="1.0" opacity="0.55"/><polyline points="249.94,329.50 262.89,324.45 275.83,319.40 288.78,314.35 301.72,309.30 314.67,304.25 327.61,299.20 340.55,294.14 353.50,289.09 366.44,284.04 379.39,278.99 392.33,273.94 405.27,268.89 418.22,263.84 431.16,258.78 444.11,253.73 457.05,248.68 469.99,243.63 482.94,238.58 495.88,233.53 508.83,228.48 521.77,223.43 534.71,218.37 547.66,213.32 560.60,208.27" fill="none" stroke="#60a5fa" stroke-width="1.0" opacity="0.55"/><polyline points="213.95,300.46 226.90,295.41 239.84,290.36 252.79,285.30 265.73,280.25 278.67,275.20 291.62,270.15 304.56,265.10 317.51,260.05 330.45,255.00 343.39,249.94 356.34,244.89 369.28,239.84 382.23,234.79 395.17,229.74 408.11,224.69 421.06,219.64 434.00,214.59 446.95,209.53 459.89,204.48 472.84,199.43 485.78,194.38 498.72,189.33 511.67,184.28 524.61,179.23" fill="none" stroke="#60a5fa" stroke-width="1.0" opacity="0.55"/><polyline points="177.96,271.41 190.91,266.36 203.85,261.31 216.80,256.26 229.74,251.21 242.68,246.16 255.63,241.10 268.57,236.05 281.52,231.00 294.46,225.95 307.40,220.90 320.35,215.85 333.29,210.80 346.24,205.75 359.18,200.69 372.12,195.64 385.07,190.59 398.01,185.54 410.96,180.49 423.90,175.44 436.84,170.39 449.79,165.33 462.73,160.28 475.68,155.23 488.62,150.18" fill="none" stroke="#60a5fa" stroke-width="1.0" opacity="0.55"/><polyline points="141.97,242.37 154.92,237.32 167.86,232.27 180.80,227.21 193.75,222.16 206.69,217.11 219.64,212.06 232.58,207.01 245.52,201.96 258.47,196.91 271.41,191.85 284.36,186.80 297.30,181.75 310.25,176.70 323.19,171.65 336.13,166.60 349.08,161.55 362.02,156.50 374.97,151.44 387.91,146.39 400.85,141.34 413.80,136.29 426.74,131.24 439.69,126.19 452.63,121.14" fill="none" stroke="#60a5fa" stroke-width="1.0" opacity="0.55"/><polyline points="105.98,213.32 118.93,208.27 131.87,203.22 144.81,198.17 157.76,193.12 170.70,188.07 183.65,183.01 196.59,177.96 209.53,172.91 222.48,167.86 235.42,162.81 248.37,157.76 261.31,152.71 274.25,147.66 287.20,142.60 300.14,137.55 313.09,132.50 326.03,127.45 338.97,122.40 351.92,117.35 364.86,112.30 377.81,107.24 390.75,102.19 403.70,97.14 416.64,92.09" fill="none" stroke="#60a5fa" stroke-width="1.0" opacity="0.55"/><polyline points="69.99,184.28 82.93,179.23 95.88,174.17 108.82,169.12 121.77,164.07 134.71,159.02 147.66,153.97 160.60,148.92 173.54,143.87 186.49,138.82 199.43,133.76 212.38,128.71 225.32,123.66 238.26,118.61 251.21,113.56 264.15,108.51 277.10,103.46 290.04,98.40 302.98,93.35 315.93,88.30 328.87,83.25 341.82,78.20 354.76,73.15 367.70,68.10 380.65,63.05" fill="none" stroke="#60a5fa" stroke-width="1.0" opacity="0.55"/><polyline points="34.00,155.23 46.94,150.18 59.89,145.13 72.83,140.08 85.78,135.03 98.72,129.98 111.66,124.92 124.61,119.87 137.55,114.82 150.50,109.77 163.44,104.72 176.38,99.67 189.33,94.62 202.27,89.56 215.22,84.51 228.16,79.46 241.10,74.41 254.05,69.36 266.99,64.31 279.94,59.26 292.88,54.21 305.83,49.15 318.77,44.10 331.71,39.05 344.66,34.00" fill="none" stroke="#60a5fa" stroke-width="1.0" opacity="0.55"/><polyline points="249.94,446.00 240.95,438.74 231.95,431.48 222.95,424.22 213.95,416.95 204.96,409.69 195.96,402.43 186.96,395.17 177.96,387.91 168.97,380.65 159.97,373.39 150.97,366.13 141.97,358.86 132.97,351.60 123.98,344.34 114.98,337.08 105.98,329.82 96.98,322.56 87.99,315.30 78.99,308.04 69.99,300.77 60.99,293.51 52.00,286.25 43.00,278.99 34.00,271.73" fill="none" stroke="#fb923c" stroke-width="1.0" opacity="0.55"/><polyline points="301.72,425.79 292.72,418.53 283.73,411.27 274.73,404.01 265.73,396.75 256.73,389.49 247.73,382.23 238.74,374.97 229.74,367.70 220.74,360.44 211.74,353.18 202.75,345.92 193.75,338.66 184.75,331.40 175.75,324.14 166.76,316.88 157.76,309.61 148.76,302.35 139.76,295.09 130.76,287.83 121.77,280.57 112.77,273.31 103.77,266.05 94.77,258.78 85.78,251.52" fill="none" stroke="#fb923c" stroke-width="1.0" opacity="0.55"/><polyline points="353.50,405.59 344.50,398.33 335.50,391.07 326.50,383.81 317.51,376.54 308.51,369.28 299.51,362.02 290.51,354.76 281.52,347.50 272.52,340.24 263.52,332.98 254.52,325.71 245.52,318.45 236.53,311.19 227.53,303.93 218.53,296.67 209.53,289.41 200.54,282.15 191.54,274.89 182.54,267.62 173.54,260.36 164.55,253.10 155.55,245.84 146.55,238.58 137.55,231.32" fill="none" stroke="#fb923c" stroke-width="1.0" opacity="0.55"/><polyline points="405.27,385.38 396.28,378.12 387.28,370.86 378.28,363.60 369.28,356.34 360.29,349.08 351.29,341.82 342.29,334.55 333.29,327.29 324.29,320.03 315.30,312.77 306.30,305.51 297.30,298.25 288.30,290.99 279.31,283.73 270.31,276.46 261.31,269.20 252.31,261.94 243.31,254.68 234.32,247.42 225.32,240.16 216.32,232.90 207.32,225.64 198.33,218.37 189.33,211.11" fill="none" stroke="#fb923c" stroke-width="1.0" opacity="0.55"/><polyline points="457.05,365.18 448.05,357.92 439.05,350.66 430.06,343.39 421.06,336.13 412.06,328.87 403.06,321.61 394.07,314.35 385.07,307.09 376.07,299.83 367.07,292.57 358.08,285.30 349.08,278.04 340.08,270.78 331.08,263.52 322.08,256.26 313.09,249.00 304.09,241.74 295.09,234.48 286.09,227.21 277.10,219.95 268.10,212.69 259.10,205.43 250.10,198.17 241.10,190.91" fill="none" stroke="#fb923c" stroke-width="1.0" opacity="0.55"/><polyline points="508.83,344.97 499.83,337.71 490.83,330.45 481.83,323.19 472.84,315.93 463.84,308.67 454.84,301.41 445.84,294.14 436.84,286.88 427.85,279.62 418.85,272.36 409.85,265.10 400.85,257.84 391.86,250.58 382.86,243.31 373.86,236.05 364.86,228.79 355.87,221.53 346.87,214.27 337.87,207.01 328.87,199.75 319.87,192.49 310.88,185.22 301.88,177.96 292.88,170.70" fill="none" stroke="#fb923c" stroke-width="1.0" opacity="0.55"/><polyline points="560.60,324.77 551.60,317.51 542.61,310.25 533.61,302.98 524.61,295.72 515.61,288.46 506.62,281.20 497.62,273.94 488.62,266.68 479.62,259.42 470.63,252.15 461.63,244.89 452.63,237.63 443.63,230.37 434.63,223.11 425.64,215.85 416.64,208.59 407.64,201.33 398.64,194.06 389.65,186.80 380.65,179.54 371.65,172.28 362.65,165.02 353.66,157.76 344.66,150.50" fill="none" stroke="#fb923c" stroke-width="1.0" opacity="0.55"/><polyline points="249.94,446.00 262.89,440.95 275.83,435.90 288.78,430.85 301.72,425.79 314.67,420.74 327.61,415.69 340.55,410.64 353.50,405.59 366.44,400.54 379.39,395.49 392.33,390.44 405.27,385.38 418.22,380.33 431.16,375.28 444.11,370.23 457.05,365.18 469.99,360.13 482.94,355.08 495.88,350.02 508.83,344.97 521.77,339.92 534.71,334.87 547.66,329.82 560.60,324.77" fill="none" stroke="#fb923c" stroke-width="1.0" opacity="0.55"/><polyline points="213.95,416.95 226.90,411.90 239.84,406.85 252.79,401.80 265.73,396.75 278.67,391.70 291.62,386.65 304.56,381.60 317.51,376.54 330.45,371.49 343.39,366.44 356.34,361.39 369.28,356.34 382.23,351.29 395.17,346.24 408.11,341.18 421.06,336.13 434.00,331.08 446.95,326.03 459.89,320.98 472.84,315.93 485.78,310.88 498.72,305.83 511.67,300.77 524.61,295.72" fill="none" stroke="#fb923c" stroke-width="1.0" opacity="0.55"/><polyline points="177.96,387.91 190.91,382.86 203.85,377.81 216.80,372.76 229.74,367.70 242.68,362.65 255.63,357.60 268.57,352.55 281.52,347.50 294.46,342.45 307.40,337.40 320.35,332.34 333.29,327.29 346.24,322.24 359.18,317.19 372.12,312.14 385.07,307.09 398.01,302.04 410.96,296.99 423.90,291.93 436.84,286.88 449.79,281.83 462.73,276.78 475.68,271.73 488.62,266.68" fill="none" stroke="#fb923c" stroke-width="1.0" opacity="0.55"/><polyline points="141.97,358.86 154.92,353.81 167.86,348.76 180.80,343.71 193.75,338.66 206.69,333.61 219.64,328.56 232.58,323.50 245.52,318.45 258.47,313.40 271.41,308.35 284.36,303.30 297.30,298.25 310.25,293.20 323.19,288.15 336.13,283.09 349.08,278.04 362.02,272.99 374.97,267.94 387.91,262.89 400.85,257.84 413.80,252.79 426.74,247.73 439.69,242.68 452.63,237.63" fill="none" stroke="#fb923c" stroke-width="1.0" opacity="0.55"/><polyline points="105.98,329.82 118.93,324.77 131.87,319.72 144.81,314.67 157.76,309.61 170.70,304.56 183.65,299.51 196.59,294.46 209.53,289.41 222.48,284.36 235.42,279.31 248.37,274.25 261.31,269.20 274.25,264.15 287.20,259.10 300.14,254.05 313.09,249.00 326.03,243.95 338.97,238.90 351.92,233.84 364.86,228.79 377.81,223.74 390.75,218.69 403.70,213.64 416.64,208.59" fill="none" stroke="#fb923c" stroke-width="1.0" opacity="0.55"/><polyline points="69.99,300.77 82.93,295.72 95.88,290.67 108.82,285.62 121.77,280.57 134.71,275.52 147.66,270.47 160.60,265.41 173.54,260.36 186.49,255.31 199.43,250.26 212.38,245.21 225.32,240.16 238.26,235.11 251.21,230.06 264.15,225.00 277.10,219.95 290.04,214.90 302.98,209.85 315.93,204.80 328.87,199.75 341.82,194.70 354.76,189.64 367.70,184.59 380.65,179.54" fill="none" stroke="#fb923c" stroke-width="1.0" opacity="0.55"/><polyline points="34.00,271.73 46.94,266.68 59.89,261.63 72.83,256.57 85.78,251.52 98.72,246.47 111.66,241.42 124.61,236.37 137.55,231.32 150.50,226.27 163.44,221.22 176.38,216.16 189.33,211.11 202.27,206.06 215.22,201.01 228.16,195.96 241.10,190.91 254.05,185.86 266.99,180.80 279.94,175.75 292.88,170.70 305.83,165.65 318.77,160.60 331.71,155.55 344.66,150.50" fill="none" stroke="#fb923c" stroke-width="1.0" opacity="0.55"/>
</svg>
