<svg xmlns="http://www.w3.org/2000/svg" width="760" height="480" viewBox="0 0 760 480">
<rect width="100%" height="100%" fill="#0f172a"/>
<text x="18" y="24" font-family="sans-serif" font-size="15" fill="#f8fafc">Bounded circular arc</text>
<text x="18" y="44" font-family="sans-serif" font-size="12" fill="#94a3b8">Expected complete</text>
<polyline points="399.52,86.62 399.52,101.59 399.52,116.57 399.52,131.54 399.52,146.52 399.52,161.49 399.52,176.46 399.52,191.44 399.52,206.41 399.52,221.39 399.52,236.36 399.52,251.34 399.52,266.31 399.52,281.28 399.52,296.26 399.52,311.23 399.52,326.21 399.52,341.18 399.52,356.15 399.52,371.13 399.52,386.10 399.52,401.08 399.52,416.05 399.52,431.03 399.52,446.00" fill="none" stroke="#60a5fa" stroke-width="1.0" opacity="0.55"/><polyline points="363.60,64.14 363.60,79.11 363.60,94.09 363.60,109.06 363.60,124.04 363.60,139.01 363.60,153.98 363.60,168.96 363.60,183.93 363.60,198.91 363.60,213.88 363.60,228.86 363.60,243.83 363.60,258.80 363.60,273.78 363.60,288.75 363.60,303.73 363.60,318.70 363.60,333.67 363.60,348.65 363.60,363.62 363.60,378.60 363.60,393.57 363.60,408.55 363.60,423.52" fill="none" stroke="#60a5fa" stroke-width="1.0" opacity="0.55"/><polyline points="315.48,46.28 315.48,61.26 315.48,76.23 315.48,91.20 315.48,106.18 315.48,121.15 315.48,136.13 315.48,151.10 315.48,166.07 315.48,181.05 315.48,196.02 315.48,211.00 315.48,225.97 315.48,240.95 315.48,255.92 315.48,270.89 315.48,285.87 315.48,300.84 315.48,315.82 315.48,330.79 315.48,345.76 315.48,360.74 315.48,375.71 315.48,390.69 315.48,405.66" fill="none" stroke="#60a5fa" stroke-width="1.0" opacity="0.55"/><polyline points="258.56,35.88 258.56,50.85 258.56,65.83 258.56,80.80 258.56,95.78 258.56,110.75 258.56,125.73 258.56,140.70 258.56,155.67 258.56,170.65 258.56,185.62 258.56,200.60 258.56,215.57 258.56,230.54 258.56,245.52 258.56,260.49 258.56,275.47 258.56,290.44 258.56,305.42 258.56,320.39 258.56,335.36 258.56,350.34 258.56,365.31 258.56,380.29 258.56,395.26" fill="none" stroke="#60a5fa" stroke-width="1.0" opacity="0.55"/><polyline points="198.75,34.52 198.75,49.50 198.75,64.47 198.75,79.45 198.75,94.42 198.75,109.40 198.75,124.37 198.75,139.34 198.75,154.32 198.75,169.29 198.75,184.27 198.75,199.24 198.75,214.21 198.75,229.19 198.75,244.16 198.75,259.14 198.75,274.11 198.75,289.09 198.75,304.06 198.75,319.03 198.75,334.01 198.75,348.98 198.75,363.96 198.75,378.93 198.75,393.90" fill="none" stroke="#60a5fa" stroke-width="1.0" opacity="0.55"/><polyline points="142.55,41.88 142.55,56.85 142.55,71.82 142.55,86.80 142.55,101.77 142.55,116.75 142.55,131.72 142.55,146.69 142.55,161.67 142.55,176.64 142.55,191.62 142.55,206.59 142.55,221.57 142.55,236.54 142.55,251.51 142.55,266.49 142.55,281.46 142.55,296.44 142.55,311.41 142.55,326.38 142.55,341.36 142.55,356.33 142.55,371.31 142.55,386.28 142.55,401.26" fill="none" stroke="#60a5fa" stroke-width="1.0" opacity="0.55"/><polyline points="94.92,55.94 94.92,70.92 94.92,85.89 94.92,100.86 94.92,115.84 94.92,130.81 94.92,145.79 94.92,160.76 94.92,175.73 94.92,190.71 94.92,205.68 94.92,220.66 94.92,235.63 94.92,250.61 94.92,265.58 94.92,280.55 94.92,295.53 94.92,310.50 94.92,325.48 94.92,340.45 94.92,355.42 94.92,370.40 94.92,385.37 94.92,400.35 94.92,415.32" fill="none" stroke="#60a5fa" stroke-width="1.0" opacity="0.55"/><polyline points="399.52,86.62 391.75,80.74 383.18,75.00 373.79,69.45 363.60,64.14 352.63,59.12 340.92,54.44 328.52,50.14 315.48,46.28 301.88,42.89 287.79,40.01 273.32,37.66 258.56,35.88 243.62,34.67 228.60,34.05 213.61,34.00 198.75,34.52 184.13,35.60 169.83,37.21 155.95,39.31 142.55,41.88 129.70,44.86 117.45,48.23 105.85,51.94 94.92,55.94" fill="none" stroke="#60a5fa" stroke-width="1.0" opacity="0.55"/><polyline points="399.52,146.52 391.75,140.63 383.18,134.89 373.79,129.34 363.60,124.04 352.63,119.02 340.92,114.34 328.52,110.04 315.48,106.18 301.88,102.79 287.79,99.90 273.32,97.56 258.56,95.78 243.62,94.57 228.60,93.94 213.61,93.90 198.75,94.42 184.13,95.50 169.83,97.10 155.95,99.21 142.55,101.77 129.70,104.76 117.45,108.13 105.85,111.84 94.92,115.84" fill="none" stroke="#60a5fa" stroke-width="1.0" opacity="0.55"/><polyline points="399.52,206.41 391.75,200.53 383.18,194.79 373.79,189.24 363.60,183.93 352.63,178.91 340.92,174.23 328.52,169.94 315.48,166.07 301.88,162.68 287.79,159.80 273.32,157.46 258.56,155.67 243.62,154.47 228.60,153.84 213.61,153.79 198.75,154.32 184.13,155.39 169.83,157.00 155.95,159.10 142.55,161.67 129.70,164.66 117.45,168.03 105.85,171.73 94.92,175.73" fill="none" stroke="#60a5fa" stroke-width="1.0" opacity="0.55"/><polyline points="399.52,266.31 391.75,260.43 383.18,254.69 373.79,249.14 363.60,243.83 352.63,238.81 340.92,234.13 328.52,229.83 315.48,225.97 301.88,222.58 287.79,219.70 273.32,217.35 258.56,215.57 243.62,214.36 228.60,213.74 213.61,213.69 198.75,214.21 184.13,215.29 169.83,216.90 155.95,219.00 142.55,221.57 129.70,224.55 117.45,227.92 105.85,231.63 94.92,235.63" fill="none" stroke="#60a5fa" stroke-width="1.0" opacity="0.55"/><polyline points="399.52,326.21 391.75,320.32 383.18,314.58 373.79,309.04 363.60,303.73 352.63,298.71 340.92,294.03 328.52,289.73 315.48,285.87 301.88,282.48 287.79,279.60 273.32,277.25 258.56,275.47 243.62,274.26 228.60,273.63 213.61,273.59 198.75,274.11 184.13,275.19 169.83,276.79 155.95,278.90 142.55,281.46 129.70,284.45 117.45,287.82 105.85,291.53 94.92,295.53" fill="none" stroke="#60a5fa" stroke-width="1.0" opacity="0.55"/><polyline points="399.52,386.10 391.75,380.22 383.18,374.48 373.79,368.93 363.60,363.62 352.63,358.60 340.92,353.92 328.52,349.63 315.48,345.76 301.88,342.37 287.79,339.49 273.32,337.15 258.56,335.36 243.62,334.16 228.60,333.53 213.61,333.48 198.75,334.01 184.13,335.08 169.83,336.69 155.95,338.79 142.55,341.36 129.70,344.35 117.45,347.72 105.85,351.42 94.92,355.42" fill="none" stroke="#60a5fa" stroke-width="1.0" opacity="0.55"/><polyline points="399.52,446.00 391.75,440.12 383.18,434.38 373.79,428.83 363.60,423.52 352.63,418.50 340.92,413.82 328.52,409.52 315.48,405.66 301.88,402.27 287.79,399.39 273.32,397.04 258.56,395.26 243.62,394.05 228.60,393.43 213.61,393.38 198.75,393.90 184.13,394.98 169.83,396.59 155.95,398.69 142.55,401.26 129.70,404.24 117.45,407.61 105.85,411.32 94.92,415.32" fill="none" stroke="#60a5fa" stroke-width="1.0" opacity="0.55"/><polyline points="208.87,370.62 201.58,364.74 194.30,358.86 187.01,352.98 179.72,347.10 172.44,341.22 165.15,335.34 157.87,329.46 150.58,323.58 143.29,317.70 136.01,311.82 128.72,305.94 121.43,300.06 114.15,294.18 106.86,288.30 99.58,282.42 92.29,276.54 85.00,270.66 77.72,264.78 70.43,258.90 63.14,253.02 55.86,247.14 48.57,241.26 41.29,235.38 34.00,229.50" fill="none" stroke="#fb923c" stroke-width="1.0" opacity="0.55"/><polyline points="250.80,354.26 243.51,348.38 236.22,342.50 228.94,336.62 221.65,330.74 214.37,324.86 207.08,318.98 199.79,313.10 192.51,307.21 185.22,301.33 177.93,295.45 170.65,289.57 163.36,283.69 156.08,277.81 148.79,271.93 141.50,266.05 134.22,260.17 126.93,254.29 119.65,248.41 112.36,242.53 105.07,236.65 97.79,230.77 90.50,224.89 83.21,219.01 75.93,213.13" fill="none" stroke="#fb923c" stroke-width="1.0" opacity="0.55"/><polyline points="292.72,337.89 285.44,332.01 278.15,326.13 270.87,320.25 263.58,314.37 256.29,308.49 249.01,302.61 241.72,296.73 234.43,290.85 227.15,284.97 219.86,279.09 212.58,273.21 205.29,267.33 198.00,261.45 190.72,255.57 183.43,249.69 176.15,243.81 168.86,237.93 161.57,232.05 154.29,226.17 147.00,220.29 139.71,214.41 132.43,208.53 125.14,202.65 117.86,196.77" fill="none" stroke="#fb923c" stroke-width="1.0" opacity="0.55"/><polyline points="334.65,321.53 327.37,315.65 320.08,309.77 312.79,303.89 305.51,298.01 298.22,292.13 290.94,286.25 283.65,280.37 276.36,274.49 269.08,268.61 261.79,262.73 254.50,256.85 247.22,250.97 239.93,245.09 232.65,239.21 225.36,233.33 218.07,227.45 210.79,221.57 203.50,215.69 196.21,209.81 188.93,203.93 181.64,198.05 174.36,192.17 167.07,186.29 159.78,180.41" fill="none" stroke="#fb923c" stroke-width="1.0" opacity="0.55"/><polyline points="376.58,305.17 369.29,299.29 362.01,293.41 354.72,287.53 347.44,281.65 340.15,275.77 332.86,269.89 325.58,264.01 318.29,258.13 311.00,252.25 303.72,246.37 296.43,240.49 289.15,234.61 281.86,228.73 274.57,222.85 267.29,216.97 260.00,211.09 252.71,205.21 245.43,199.33 238.14,193.45 230.86,187.57 223.57,181.69 216.28,175.81 209.00,169.93 201.71,164.05" fill="none" stroke="#fb923c" stroke-width="1.0" opacity="0.55"/><polyline points="418.51,288.81 411.22,282.93 403.94,277.05 396.65,271.17 389.36,265.29 382.08,259.41 374.79,253.53 367.50,247.65 360.22,241.77 352.93,235.89 345.65,230.01 338.36,224.13 331.07,218.25 323.79,212.37 316.50,206.49 309.21,200.61 301.93,194.73 294.64,188.85 287.36,182.97 280.07,177.09 272.78,171.21 265.50,165.33 258.21,159.45 250.92,153.57 243.64,147.69" fill="none" stroke="#fb923c" stroke-width="1.0" opacity="0.55"/><polyline points="460.44,272.45 453.15,266.57 445.86,260.69 438.58,254.81 431.29,248.93 424.00,243.05 416.72,237.16 409.43,231.28 402.15,225.40 394.86,219.52 387.57,213.64 380.29,207.76 373.00,201.88 365.71,196.00 358.43,190.12 351.14,184.24 343.86,178.36 336.57,172.48 329.28,166.60 322.00,160.72 314.71,154.84 307.42,148.96 300.14,143.08 292.85,137.20 285.57,131.32" fill="none" stroke="#fb923c" stroke-width="1.0" opacity="0.55"/><polyline points="208.87,370.62 219.35,366.53 229.83,362.44 240.31,358.35 250.80,354.26 261.28,350.17 271.76,346.07 282.24,341.98 292.72,337.89 303.21,333.80 313.69,329.71 324.17,325.62 334.65,321.53 345.13,317.44 355.62,313.35 366.10,309.26 376.58,305.17 387.06,301.08 397.54,296.99 408.03,292.90 418.51,288.81 428.99,284.72 439.47,280.63 449.95,276.54 460.44,272.45" fill="none" stroke="#fb923c" stroke-width="1.0" opacity="0.55"/><polyline points="179.72,347.10 190.21,343.01 200.69,338.92 211.17,334.83 221.65,330.74 232.13,326.64 242.62,322.55 253.10,318.46 263.58,314.37 274.06,310.28 284.54,306.19 295.03,302.10 305.51,298.01 315.99,293.92 326.47,289.83 336.95,285.74 347.44,281.65 357.92,277.56 368.40,273.47 378.88,269.38 389.36,265.29 399.84,261.20 410.33,257.11 420.81,253.02 431.29,248.93" fill="none" stroke="#fb923c" stroke-width="1.0" opacity="0.55"/><polyline points="150.58,323.58 161.06,319.49 171.54,315.40 182.03,311.31 192.51,307.21 202.99,303.12 213.47,299.03 223.95,294.94 234.43,290.85 244.92,286.76 255.40,282.67 265.88,278.58 276.36,274.49 286.84,270.40 297.33,266.31 307.81,262.22 318.29,258.13 328.77,254.04 339.25,249.95 349.74,245.86 360.22,241.77 370.70,237.68 381.18,233.59 391.66,229.50 402.15,225.40" fill="none" stroke="#fb923c" stroke-width="1.0" opacity="0.55"/><polyline points="121.43,300.06 131.92,295.97 142.40,291.88 152.88,287.78 163.36,283.69 173.84,279.60 184.33,275.51 194.81,271.42 205.29,267.33 215.77,263.24 226.25,259.15 236.74,255.06 247.22,250.97 257.70,246.88 268.18,242.79 278.66,238.70 289.15,234.61 299.63,230.52 310.11,226.43 320.59,222.34 331.07,218.25 341.56,214.16 352.04,210.07 362.52,205.97 373.00,201.88" fill="none" stroke="#fb923c" stroke-width="1.0" opacity="0.55"/><polyline points="92.29,276.54 102.77,272.45 113.25,268.36 123.74,264.26 134.22,260.17 144.70,256.08 155.18,251.99 165.66,247.90 176.15,243.81 186.63,239.72 197.11,235.63 207.59,231.54 218.07,227.45 228.55,223.36 239.04,219.27 249.52,215.18 260.00,211.09 270.48,207.00 280.96,202.91 291.45,198.82 301.93,194.73 312.41,190.64 322.89,186.54 333.37,182.45 343.86,178.36" fill="none" stroke="#fb923c" stroke-width="1.0" opacity="0.55"/><polyline points="63.14,253.02 73.63,248.93 84.11,244.83 94.59,240.74 105.07,236.65 115.55,232.56 126.04,228.47 136.52,224.38 147.00,220.29 157.48,216.20 167.96,212.11 178.45,208.02 188.93,203.93 199.41,199.84 209.89,195.75 220.37,191.66 230.86,187.57 241.34,183.48 251.82,179.39 262.30,175.30 272.78,171.21 283.27,167.12 293.75,163.02 304.23,158.93 314.71,154.84" fill="none" stroke="#fb923c" stroke-width="1.0" opacity="0.55"/><polyline points="34.00,229.50 44.48,225.40 54.96,221.31 65.45,217.22 75.93,213.13 86.41,209.04 96.89,204.95 107.37,200.86 117.86,196.77 128.34,192.68 138.82,188.59 149.30,184.50 159.78,180.41 170.27,176.32 180.75,172.23 191.23,168.14 201.71,164.05 212.19,159.96 222.67,155.87 233.16,151.78 243.64,147.69 254.12,143.59 264.60,139.50 275.08,135.41 285.57,131.32" fill="none" stroke="#fb923c" stroke-width="1.0" opacity="0.55"/><polyline points="399.52,266.31 371.70,247.99 338.04,233.07 299.84,222.13 258.56,215.57 215.80,213.66 173.19,216.47 132.38,223.89 94.92,235.63" fill="none" stroke="#facc15" stroke-width="2.8" opacity="1.0"/><polyline points="399.52,266.31 398.79,265.73 398.04,265.13 397.27,264.53 396.35,263.82 395.57,263.23 394.79,262.64 394.00,262.06 393.21,261.47 392.40,260.89 391.43,260.20 390.62,259.63 389.80,259.05 388.97,258.49 388.14,257.92 387.30,257.36 386.45,256.80 385.43,256.13 384.57,255.57 383.71,255.02 382.84,254.47 381.96,253.93 381.08,253.39 380.01,252.74 379.12,252.20 378.22,251.67 377.31,251.14 376.40,250.61 375.48,250.09 374.56,249.57 373.45,248.95 372.51,248.44 371.57,247.92 370.63,247.42 369.67,246.91 368.72,246.41 367.56,245.82 366.60,245.32 365.62,244.83 364.64,244.34 363.66,243.86 362.67,243.38 361.68,242.90 360.48,242.33 359.47,241.86 358.46,241.40 357.45,240.93 356.43,240.47 355.40,240.02 354.37,239.56 353.13,239.02 352.09,238.58 351.05,238.14 350.00,237.70 348.94,237.26 347.88,236.83 346.61,236.32 345.54,235.90 344.46,235.48 343.39,235.06 342.30,234.65 341.22,234.24 340.12,233.83 338.81,233.35 337.71,232.95 336.60,232.56 335.50,232.17 334.38,231.78 333.27,231.40 331.92,230.95 330.79,230.57 329.66,230.20 328.53,229.84 327.39,229.48 326.25,229.12 325.11,228.76 323.73,228.34 322.57,227.99 321.41,227.65 320.25,227.31 319.09,226.98 317.92,226.65 316.52,226.26 315.34,225.93 314.16,225.61 312.98,225.30 311.79,224.99 310.60,224.68 309.41,224.38 307.97,224.02 306.78,223.73 305.57,223.44 304.37,223.16 303.16,222.87 301.95,222.60 300.49,222.27 299.27,222.00 298.05,221.74 296.83,221.48 295.60,221.22 294.37,220.97 293.14,220.72 291.66,220.43 290.42,220.19 289.18,219.96 287.94,219.72 286.69,219.50 285.45,219.28 283.95,219.02 282.69,218.80 281.44,218.59 280.18,218.39 278.92,218.19 277.66,217.99 276.40,217.80 274.88,217.58 273.61,217.40 272.34,217.22 271.07,217.04 269.80,216.87 268.52,216.71 266.99,216.52 265.71,216.36 264.43,216.21 263.15,216.06 261.87,215.92 260.58,215.78 259.30,215.65 257.75,215.49 256.46,215.36 255.17,215.24 253.88,215.13 252.58,215.02 251.29,214.91 249.99,214.81 248.44,214.69 247.14,214.59 245.84,214.50 244.54,214.42 243.24,214.34 241.94,214.26 240.38,214.18 239.07,214.11 237.77,214.05 236.46,213.99 235.16,213.94 233.85,213.89 232.55,213.84 230.98,213.80 229.67,213.76 228.36,213.73 227.06,213.70 225.75,213.68 224.44,213.67 222.87,213.65 221.56,213.64 220.25,213.64 218.94,213.64 217.63,213.65 216.33,213.66 215.02,213.67 213.45,213.69 212.14,213.72 210.83,213.74 209.52,213.78 208.22,213.81 206.91,213.86 205.34,213.91 204.04,213.96 202.73,214.02 201.43,214.08 200.12,214.14 198.82,214.21 197.52,214.28 195.96,214.38 194.66,214.46 193.36,214.55 192.06,214.64 190.76,214.73 189.46,214.83 187.91,214.96 186.62,215.07 185.32,215.18 184.03,215.30 182.74,215.42 181.45,215.55 180.16,215.68 178.62,215.84 177.34,215.98 176.05,216.13 174.77,216.28 173.49,216.43 172.21,216.59 170.68,216.79 169.41,216.95 168.14,217.12 166.86,217.30 165.60,217.48 164.33,217.66 163.06,217.85 161.55,218.09 160.29,218.28 159.03,218.49 157.77,218.69 156.52,218.90 155.27,219.12 153.77,219.38 152.52,219.60 151.28,219.83 150.04,220.06 148.80,220.30 147.56,220.54 146.33,220.79 144.85,221.09 143.62,221.34 142.40,221.60 141.17,221.86 139.95,222.13 138.74,222.40 137.52,222.67 136.07,223.01 134.86,223.29 133.66,223.58 132.46,223.87 131.26,224.16 130.06,224.46 128.63,224.83 127.45,225.14 126.26,225.45 125.08,225.76 123.90,226.08 122.73,226.41 121.56,226.74 120.15,227.13 118.99,227.47 117.83,227.81 116.68,228.16 115.52,228.50 114.37,228.86 113.00,229.28 111.86,229.65 110.72,230.01 109.59,230.38 108.46,230.75 107.34,231.13 106.22,231.51 104.88,231.97 103.77,232.35 102.66,232.74 101.56,233.14 100.46,233.54 99.36,233.94 98.06,234.43 96.97,234.84 95.89,235.25 94.92,235.63" fill="none" stroke="#f472b6" stroke-width="2.8" opacity="1.0"/><polyline points="399.52,266.31 396.70,264.09 393.77,261.89 390.72,259.70 387.57,257.54 384.29,255.40 380.90,253.28 377.40,251.19 373.79,249.14 370.06,247.12 366.22,245.13 362.27,243.18 358.21,241.28 354.04,239.42 349.77,237.61 345.40,235.84 340.92,234.13 336.35,232.47 331.68,230.87 326.92,229.33 322.07,227.85 317.14,226.43 312.13,225.08 307.04,223.79 301.88,222.58 296.65,221.44 291.35,220.37 286.00,219.38 280.60,218.46 275.15,217.62 269.66,216.86 264.13,216.17 258.56,215.57 252.98,215.05 247.37,214.61 241.74,214.25 236.11,213.98 230.48,213.78 224.84,213.67 219.22,213.64 213.61,213.69 208.02,213.82 202.45,214.03 196.91,214.32 191.40,214.69 185.94,215.13 180.52,215.64 175.15,216.23 169.83,216.90 164.57,217.63 159.38,218.43 154.25,219.30 149.18,220.23 144.20,221.22 139.28,222.27 134.45,223.39 129.70,224.55 125.04,225.78 120.46,227.05 115.97,228.37 111.57,229.74 107.27,231.15 103.05,232.61 98.94,234.10 94.92,235.63" fill="none" stroke="#34d399" stroke-width="2.8" opacity="1.0"/>
</svg>
