<svg xmlns="http://www.w3.org/2000/svg" width="760" height="480" viewBox="0 0 760 480">
<rect width="100%" height="100%" fill="#0f172a"/>
<text x="18" y="24" font-family="sans-serif" font-size="15" fill="#f8fafc">Sub-grid double transverse crossing</text>
<text x="18" y="44" font-family="sans-serif" font-size="12" fill="#94a3b8">Expected complete</text>
<polyline points="228.46,245.77 220.35,239.23 212.25,232.69 204.15,226.15 196.05,219.61 187.94,213.07 179.84,206.53 171.74,199.99 163.64,193.46 155.54,186.92 147.43,180.38 139.33,173.84 131.23,167.30 123.13,160.76 115.02,154.22 106.92,147.68 98.82,141.15 90.72,134.61 82.61,128.07 74.51,121.53 66.41,114.99 58.31,108.45 50.20,101.91 42.10,95.37 34.00,88.84" fill="none" stroke="#60a5fa" stroke-width="1.0" opacity="0.55"/><polyline points="251.77,238.80 243.67,232.26 235.56,225.72 227.46,219.18 219.36,212.64 211.26,206.10 203.15,199.56 195.05,193.02 186.95,186.49 178.85,179.95 170.74,173.41 162.64,166.87 154.54,160.33 146.44,153.79 138.34,147.25 130.23,140.71 122.13,134.18 114.03,127.64 105.93,121.10 97.82,114.56 89.72,108.02 81.62,101.48 73.52,94.94 65.41,88.40 57.31,81.87" fill="none" stroke="#60a5fa" stroke-width="1.0" opacity="0.55"/><polyline points="275.08,242.78 266.98,236.24 258.88,229.70 250.77,223.17 242.67,216.63 234.57,210.09 226.47,203.55 218.36,197.01 210.26,190.47 202.16,183.93 194.06,177.39 185.95,170.86 177.85,164.32 169.75,157.78 161.65,151.24 153.55,144.70 145.44,138.16 137.34,131.62 129.24,125.08 121.14,118.55 113.03,112.01 104.93,105.47 96.83,98.93 88.73,92.39 80.62,85.85" fill="none" stroke="#60a5fa" stroke-width="1.0" opacity="0.55"/><polyline points="298.39,261.61 290.29,255.07 282.19,248.53 274.09,241.99 265.98,235.45 257.88,228.92 249.78,222.38 241.68,215.84 233.57,209.30 225.47,202.76 217.37,196.22 209.27,189.68 201.16,183.15 193.06,176.61 184.96,170.07 176.86,163.53 168.75,156.99 160.65,150.45 152.55,143.91 144.45,137.37 136.35,130.84 128.24,124.30 120.14,117.76 112.04,111.22 103.94,104.68" fill="none" stroke="#60a5fa" stroke-width="1.0" opacity="0.55"/><polyline points="321.70,299.17 313.60,292.63 305.50,286.09 297.40,279.55 289.29,273.01 281.19,266.47 273.09,259.93 264.99,253.39 256.89,246.86 248.78,240.32 240.68,233.78 232.58,227.24 224.48,220.70 216.37,214.16 208.27,207.62 200.17,201.08 192.07,194.55 183.96,188.01 175.86,181.47 167.76,174.93 159.66,168.39 151.55,161.85 143.45,155.31 135.35,148.77 127.25,142.24" fill="none" stroke="#60a5fa" stroke-width="1.0" opacity="0.55"/><polyline points="345.02,359.33 336.91,352.80 328.81,346.26 320.71,339.72 312.61,333.18 304.50,326.64 296.40,320.10 288.30,313.56 280.20,307.02 272.10,300.49 263.99,293.95 255.89,287.41 247.79,280.87 239.69,274.33 231.58,267.79 223.48,261.25 215.38,254.71 207.28,248.18 199.17,241.64 191.07,235.10 182.97,228.56 174.87,222.02 166.76,215.48 158.66,208.94 150.56,202.40" fill="none" stroke="#60a5fa" stroke-width="1.0" opacity="0.55"/><polyline points="368.33,446.00 360.23,439.46 352.12,432.92 344.02,426.38 335.92,419.85 327.82,413.31 319.71,406.77 311.61,400.23 303.51,393.69 295.41,387.15 287.30,380.61 279.20,374.07 271.10,367.54 263.00,361.00 254.90,354.46 246.79,347.92 238.69,341.38 230.59,334.84 222.49,328.30 214.38,321.76 206.28,315.23 198.18,308.69 190.08,302.15 181.97,295.61 173.87,289.07" fill="none" stroke="#60a5fa" stroke-width="1.0" opacity="0.55"/><polyline points="228.46,245.77 234.28,243.21 240.11,241.15 245.94,239.66 251.77,238.80 257.60,238.61 263.42,239.18 269.25,240.55 275.08,242.78 280.91,245.95 286.74,250.10 292.56,255.30 298.39,261.61 304.22,269.09 310.05,277.80 315.88,287.81 321.70,299.17 327.53,311.94 333.36,326.18 339.19,341.96 345.02,359.33 350.84,378.36 356.67,399.11 362.50,421.64 368.33,446.00" fill="none" stroke="#60a5fa" stroke-width="1.0" opacity="0.55"/><polyline points="196.05,219.61 201.87,217.05 207.70,215.00 213.53,213.51 219.36,212.64 225.19,212.46 231.01,213.02 236.84,214.39 242.67,216.63 248.50,219.79 254.33,223.94 260.15,229.14 265.98,235.45 271.81,242.94 277.64,251.65 283.47,261.65 289.29,273.01 295.12,285.78 300.95,300.03 306.78,315.80 312.61,333.18 318.43,352.21 324.26,372.96 330.09,395.48 335.92,419.85" fill="none" stroke="#60a5fa" stroke-width="1.0" opacity="0.55"/><polyline points="163.64,193.46 169.47,190.90 175.29,188.84 181.12,187.35 186.95,186.49 192.78,186.30 198.61,186.87 204.43,188.24 210.26,190.47 216.09,193.64 221.92,197.79 227.75,202.99 233.57,209.30 239.40,216.78 245.23,225.49 251.06,235.50 256.89,246.86 262.71,259.63 268.54,273.87 274.37,289.65 280.20,307.02 286.03,326.05 291.85,346.80 297.68,369.33 303.51,393.69" fill="none" stroke="#60a5fa" stroke-width="1.0" opacity="0.55"/><polyline points="131.23,167.30 137.06,164.74 142.88,162.69 148.71,161.20 154.54,160.33 160.37,160.15 166.20,160.71 172.02,162.08 177.85,164.32 183.68,167.48 189.51,171.63 195.34,176.83 201.16,183.15 206.99,190.63 212.82,199.34 218.65,209.34 224.48,220.70 230.30,233.47 236.13,247.72 241.96,263.49 247.79,280.87 253.62,299.90 259.44,320.65 265.27,343.17 271.10,367.54" fill="none" stroke="#60a5fa" stroke-width="1.0" opacity="0.55"/><polyline points="98.82,141.15 104.65,138.59 110.47,136.53 116.30,135.04 122.13,134.18 127.96,133.99 133.79,134.56 139.61,135.93 145.44,138.16 151.27,141.33 157.10,145.48 162.93,150.68 168.75,156.99 174.58,164.47 180.41,173.18 186.24,183.19 192.07,194.55 197.89,207.32 203.72,221.56 209.55,237.34 215.38,254.71 221.21,273.74 227.03,294.49 232.86,317.02 238.69,341.38" fill="none" stroke="#60a5fa" stroke-width="1.0" opacity="0.55"/><polyline points="66.41,114.99 72.24,112.43 78.07,110.38 83.89,108.89 89.72,108.02 95.55,107.84 101.38,108.40 107.21,109.77 113.03,112.01 118.86,115.17 124.69,119.32 130.52,124.52 136.35,130.84 142.17,138.32 148.00,147.03 153.83,157.03 159.66,168.39 165.49,181.16 171.31,195.41 177.14,211.18 182.97,228.56 188.80,247.59 194.63,268.34 200.45,290.86 206.28,315.23" fill="none" stroke="#60a5fa" stroke-width="1.0" opacity="0.55"/><polyline points="34.00,88.84 39.83,86.28 45.66,84.22 51.48,82.73 57.31,81.87 63.14,81.68 68.97,82.25 74.80,83.62 80.62,85.85 86.45,89.02 92.28,93.17 98.11,98.37 103.94,104.68 109.76,112.16 115.59,120.87 121.42,130.88 127.25,142.24 133.08,155.01 138.90,169.25 144.73,185.03 150.56,202.40 156.39,221.43 162.22,242.18 168.04,264.71 173.87,289.07" fill="none" stroke="#60a5fa" stroke-width="1.0" opacity="0.55"/><polyline points="228.46,245.51 220.35,238.97 212.25,232.44 204.15,225.90 196.05,219.36 187.94,212.82 179.84,206.28 171.74,199.74 163.64,193.20 155.54,186.67 147.43,180.13 139.33,173.59 131.23,167.05 123.13,160.51 115.02,153.97 106.92,147.43 98.82,140.89 90.72,134.36 82.61,127.82 74.51,121.28 66.41,114.74 58.31,108.20 50.20,101.66 42.10,95.12 34.00,88.58" fill="none" stroke="#fb923c" stroke-width="1.0" opacity="0.55"/><polyline points="251.77,236.42 243.67,229.88 235.56,223.34 227.46,216.80 219.36,210.26 211.26,203.72 203.15,197.18 195.05,190.65 186.95,184.11 178.85,177.57 170.74,171.03 162.64,164.49 154.54,157.95 146.44,151.41 138.34,144.87 130.23,138.34 122.13,131.80 114.03,125.26 105.93,118.72 97.82,112.18 89.72,105.64 81.62,99.10 73.52,92.56 65.41,86.03 57.31,79.49" fill="none" stroke="#fb923c" stroke-width="1.0" opacity="0.55"/><polyline points="275.08,227.32 266.98,220.78 258.88,214.24 250.77,207.70 242.67,201.16 234.57,194.63 226.47,188.09 218.36,181.55 210.26,175.01 202.16,168.47 194.06,161.93 185.95,155.39 177.85,148.85 169.75,142.32 161.65,135.78 153.55,129.24 145.44,122.70 137.34,116.16 129.24,109.62 121.14,103.08 113.03,96.54 104.93,90.01 96.83,83.47 88.73,76.93 80.62,70.39" fill="none" stroke="#fb923c" stroke-width="1.0" opacity="0.55"/><polyline points="298.39,218.22 290.29,211.68 282.19,205.14 274.09,198.61 265.98,192.07 257.88,185.53 249.78,178.99 241.68,172.45 233.57,165.91 225.47,159.37 217.37,152.83 209.27,146.30 201.16,139.76 193.06,133.22 184.96,126.68 176.86,120.14 168.75,113.60 160.65,107.06 152.55,100.52 144.45,93.99 136.35,87.45 128.24,80.91 120.14,74.37 112.04,67.83 103.94,61.29" fill="none" stroke="#fb923c" stroke-width="1.0" opacity="0.55"/><polyline points="321.70,209.12 313.60,202.59 305.50,196.05 297.40,189.51 289.29,182.97 281.19,176.43 273.09,169.89 264.99,163.35 256.89,156.81 248.78,150.28 240.68,143.74 232.58,137.20 224.48,130.66 216.37,124.12 208.27,117.58 200.17,111.04 192.07,104.50 183.96,97.97 175.86,91.43 167.76,84.89 159.66,78.35 151.55,71.81 143.45,65.27 135.35,58.73 127.25,52.19" fill="none" stroke="#fb923c" stroke-width="1.0" opacity="0.55"/><polyline points="345.02,200.03 336.91,193.49 328.81,186.95 320.71,180.41 312.61,173.87 304.50,167.33 296.40,160.79 288.30,154.26 280.20,147.72 272.10,141.18 263.99,134.64 255.89,128.10 247.79,121.56 239.69,115.02 231.58,108.48 223.48,101.95 215.38,95.41 207.28,88.87 199.17,82.33 191.07,75.79 182.97,69.25 174.87,62.71 166.76,56.17 158.66,49.64 150.56,43.10" fill="none" stroke="#fb923c" stroke-width="1.0" opacity="0.55"/><polyline points="368.33,190.93 360.23,184.39 352.12,177.85 344.02,171.31 335.92,164.77 327.82,158.24 319.71,151.70 311.61,145.16 303.51,138.62 295.41,132.08 287.30,125.54 279.20,119.00 271.10,112.46 263.00,105.93 254.90,99.39 246.79,92.85 238.69,86.31 230.59,79.77 222.49,73.23 214.38,66.69 206.28,60.15 198.18,53.62 190.08,47.08 181.97,40.54 173.87,34.00" fill="none" stroke="#fb923c" stroke-width="1.0" opacity="0.55"/><polyline points="228.46,245.51 234.28,243.24 240.11,240.97 245.94,238.69 251.77,236.42 257.60,234.14 263.42,231.87 269.25,229.59 275.08,227.32 280.91,225.04 286.74,222.77 292.56,220.50 298.39,218.22 304.22,215.95 310.05,213.67 315.88,211.40 321.70,209.12 327.53,206.85 333.36,204.58 339.19,202.30 345.02,200.03 350.84,197.75 356.67,195.48 362.50,193.20 368.33,190.93" fill="none" stroke="#fb923c" stroke-width="1.0" opacity="0.55"/><polyline points="196.05,219.36 201.87,217.08 207.70,214.81 213.53,212.54 219.36,210.26 225.19,207.99 231.01,205.71 236.84,203.44 242.67,201.16 248.50,198.89 254.33,196.62 260.15,194.34 265.98,192.07 271.81,189.79 277.64,187.52 283.47,185.24 289.29,182.97 295.12,180.69 300.95,178.42 306.78,176.15 312.61,173.87 318.43,171.60 324.26,169.32 330.09,167.05 335.92,164.77" fill="none" stroke="#fb923c" stroke-width="1.0" opacity="0.55"/><polyline points="163.64,193.20 169.47,190.93 175.29,188.66 181.12,186.38 186.95,184.11 192.78,181.83 198.61,179.56 204.43,177.28 210.26,175.01 216.09,172.73 221.92,170.46 227.75,168.19 233.57,165.91 239.40,163.64 245.23,161.36 251.06,159.09 256.89,156.81 262.71,154.54 268.54,152.27 274.37,149.99 280.20,147.72 286.03,145.44 291.85,143.17 297.68,140.89 303.51,138.62" fill="none" stroke="#fb923c" stroke-width="1.0" opacity="0.55"/><polyline points="131.23,167.05 137.06,164.77 142.88,162.50 148.71,160.23 154.54,157.95 160.37,155.68 166.20,153.40 172.02,151.13 177.85,148.85 183.68,146.58 189.51,144.31 195.34,142.03 201.16,139.76 206.99,137.48 212.82,135.21 218.65,132.93 224.48,130.66 230.30,128.39 236.13,126.11 241.96,123.84 247.79,121.56 253.62,119.29 259.44,117.01 265.27,114.74 271.10,112.46" fill="none" stroke="#fb923c" stroke-width="1.0" opacity="0.55"/><polyline points="98.82,140.89 104.65,138.62 110.47,136.35 116.30,134.07 122.13,131.80 127.96,129.52 133.79,127.25 139.61,124.97 145.44,122.70 151.27,120.42 157.10,118.15 162.93,115.88 168.75,113.60 174.58,111.33 180.41,109.05 186.24,106.78 192.07,104.50 197.89,102.23 203.72,99.96 209.55,97.68 215.38,95.41 221.21,93.13 227.03,90.86 232.86,88.58 238.69,86.31" fill="none" stroke="#fb923c" stroke-width="1.0" opacity="0.55"/><polyline points="66.41,114.74 72.24,112.46 78.07,110.19 83.89,107.92 89.72,105.64 95.55,103.37 101.38,101.09 107.21,98.82 113.03,96.54 118.86,94.27 124.69,92.00 130.52,89.72 136.35,87.45 142.17,85.17 148.00,82.90 153.83,80.62 159.66,78.35 165.49,76.08 171.31,73.80 177.14,71.53 182.97,69.25 188.80,66.98 194.63,64.70 200.45,62.43 206.28,60.15" fill="none" stroke="#fb923c" stroke-width="1.0" opacity="0.55"/><polyline points="34.00,88.58 39.83,86.31 45.66,84.04 51.48,81.76 57.31,79.49 63.14,77.21 68.97,74.94 74.80,72.66 80.62,70.39 86.45,68.12 92.28,65.84 98.11,63.57 103.94,61.29 109.76,59.02 115.59,56.74 121.42,54.47 127.25,52.19 133.08,49.92 138.90,47.65 144.73,45.37 150.56,43.10 156.39,40.82 162.22,38.55 168.04,36.27 173.87,34.00" fill="none" stroke="#fb923c" stroke-width="1.0" opacity="0.55"/><polyline points="232.65,243.88 38.20,86.95" fill="none" stroke="#facc15" stroke-width="2.8" opacity="1.0"/><polyline points="236.85,242.24 42.39,85.31" fill="none" stroke="#facc15" stroke-width="2.8" opacity="1.0"/><polyline points="236.85,242.24 235.42,241.09 231.01,237.53 226.60,233.97 222.19,230.41 215.58,225.07 208.96,219.74 200.14,212.62 191.32,205.50 182.50,198.38 173.68,191.26 164.86,184.15 156.04,177.03 147.22,169.91 138.40,162.79 129.58,155.67 120.76,148.56 111.94,141.44 103.12,134.32 94.30,127.20 85.48,120.08 76.66,112.97 67.84,105.85 59.02,98.73 50.20,91.61 42.39,85.31" fill="none" stroke="#f472b6" stroke-width="2.8" opacity="1.0"/><polyline points="232.65,243.88 229.74,241.52 225.33,237.96 220.92,234.40 214.30,229.06 207.69,223.73 198.87,216.61 190.04,209.49 181.22,202.37 172.40,195.25 163.58,188.14 154.76,181.02 145.94,173.90 137.12,166.78 128.30,159.66 119.48,152.55 110.66,145.43 101.84,138.31 93.02,131.19 84.20,124.07 75.38,116.96 66.56,109.84 57.74,102.72 48.92,95.60 40.10,88.48 38.20,86.95" fill="none" stroke="#f472b6" stroke-width="2.8" opacity="1.0"/><polyline points="236.85,242.24 233.81,239.79 230.77,237.33 227.73,234.88 224.69,232.43 221.66,229.98 218.62,227.53 215.58,225.07 212.54,222.62 209.50,220.17 206.46,217.72 203.43,215.27 200.39,212.81 197.35,210.36 194.31,207.91 191.27,205.46 188.23,203.01 185.20,200.55 182.16,198.10 179.12,195.65 176.08,193.20 173.04,190.75 170.00,188.29 166.97,185.84 163.93,183.39 160.89,180.94 157.85,178.49 154.81,176.03 151.77,173.58 148.74,171.13 145.70,168.68 142.66,166.23 139.62,163.77 136.58,161.32 133.54,158.87 130.51,156.42 127.47,153.97 124.43,151.51 121.39,149.06 118.35,146.61 115.31,144.16 112.27,141.71 109.24,139.25 106.20,136.80 103.16,134.35 100.12,131.90 97.08,129.45 94.04,126.99 91.01,124.54 87.97,122.09 84.93,119.64 81.89,117.19 78.85,114.73 75.81,112.28 72.78,109.83 69.74,107.38 66.70,104.93 63.66,102.47 60.62,100.02 57.58,97.57 54.55,95.12 51.51,92.67 48.47,90.21 45.43,87.76 42.39,85.31" fill="none" stroke="#34d399" stroke-width="2.8" opacity="1.0"/><polyline points="232.65,243.88 229.61,241.42 226.58,238.97 223.54,236.52 220.50,234.07 217.46,231.62 214.42,229.16 211.38,226.71 208.35,224.26 205.31,221.81 202.27,219.36 199.23,216.90 196.19,214.45 193.15,212.00 190.12,209.55 187.08,207.10 184.04,204.64 181.00,202.19 177.96,199.74 174.92,197.29 171.89,194.84 168.85,192.38 165.81,189.93 162.77,187.48 159.73,185.03 156.69,182.58 153.66,180.12 150.62,177.67 147.58,175.22 144.54,172.77 141.50,170.32 138.46,167.86 135.43,165.41 132.39,162.96 129.35,160.51 126.31,158.05 123.27,155.60 120.23,153.15 117.19,150.70 114.16,148.25 111.12,145.79 108.08,143.34 105.04,140.89 102.00,138.44 98.96,135.99 95.93,133.53 92.89,131.08 89.85,128.63 86.81,126.18 83.77,123.73 80.73,121.27 77.70,118.82 74.66,116.37 71.62,113.92 68.58,111.47 65.54,109.01 62.50,106.56 59.47,104.11 56.43,101.66 53.39,99.21 50.35,96.75 47.31,94.30 44.27,91.85 41.24,89.40 38.20,86.95" fill="none" stroke="#34d399" stroke-width="2.8" opacity="1.0"/>
</svg>
