<svg xmlns="http://www.w3.org/2000/svg" width="760" height="480" viewBox="0 0 760 480">
<rect width="100%" height="100%" fill="#0f172a"/>
<text x="18" y="24" font-family="sans-serif" font-size="15" fill="#f8fafc">Two close free-form branches</text>
<text x="18" y="44" font-family="sans-serif" font-size="12" fill="#94a3b8">Expected complete</text>
<polyline points="231.43,304.16 223.20,296.34 214.98,288.52 206.75,280.70 198.52,272.88 190.30,265.05 182.07,257.23 173.84,249.41 165.62,241.59 157.39,233.77 149.17,225.94 140.94,218.12 132.71,210.30 124.49,202.48 116.26,194.66 108.04,186.83 99.81,179.01 91.58,171.19 83.36,163.37 75.13,155.55 66.90,147.72 58.68,139.90 50.45,132.08 42.23,124.26 34.00,116.43" fill="none" stroke="#60a5fa" stroke-width="1.0" opacity="0.55"/><polyline points="278.76,280.96 270.54,273.53 262.31,266.10 254.09,258.68 245.86,251.25 237.63,243.82 229.41,236.39 221.18,228.96 212.96,221.54 204.73,214.11 196.50,206.68 188.28,199.25 180.05,191.83 171.82,184.40 163.60,176.97 155.37,169.54 147.15,162.12 138.92,154.69 130.69,147.26 122.47,139.83 114.24,132.41 106.01,124.98 97.79,117.55 89.56,110.12 81.34,102.70" fill="none" stroke="#60a5fa" stroke-width="1.0" opacity="0.55"/><polyline points="326.10,257.75 317.87,250.72 309.65,243.69 301.42,236.65 293.20,229.62 284.97,222.59 276.74,215.55 268.52,208.52 260.29,201.49 252.07,194.45 243.84,187.42 235.61,180.39 227.39,173.35 219.16,166.32 210.93,159.29 202.71,152.25 194.48,145.22 186.26,138.19 178.03,131.16 169.80,124.12 161.58,117.09 153.35,110.06 145.13,103.02 136.90,95.99 128.67,88.96" fill="none" stroke="#60a5fa" stroke-width="1.0" opacity="0.55"/><polyline points="373.44,234.55 365.21,227.91 356.99,221.27 348.76,214.63 340.53,207.99 332.31,201.35 324.08,194.71 315.85,188.07 307.63,181.44 299.40,174.80 291.18,168.16 282.95,161.52 274.72,154.88 266.50,148.24 258.27,141.60 250.04,134.97 241.82,128.33 233.59,121.69 225.37,115.05 217.14,108.41 208.91,101.77 200.69,95.13 192.46,88.49 184.24,81.86 176.01,75.22" fill="none" stroke="#60a5fa" stroke-width="1.0" opacity="0.55"/><polyline points="420.77,211.34 412.55,205.09 404.32,198.85 396.10,192.61 387.87,186.36 379.64,180.12 371.42,173.87 363.19,167.63 354.96,161.39 346.74,155.14 338.51,148.90 330.29,142.65 322.06,136.41 313.83,130.16 305.61,123.92 297.38,117.68 289.16,111.43 280.93,105.19 272.70,98.94 264.48,92.70 256.25,86.46 248.02,80.21 239.80,73.97 231.57,67.72 223.35,61.48" fill="none" stroke="#60a5fa" stroke-width="1.0" opacity="0.55"/><polyline points="468.11,188.13 459.88,182.28 451.66,176.43 443.43,170.58 435.21,164.73 426.98,158.88 418.75,153.03 410.53,147.18 402.30,141.33 394.07,135.48 385.85,129.64 377.62,123.79 369.40,117.94 361.17,112.09 352.94,106.24 344.72,100.39 336.49,94.54 328.27,88.69 320.04,82.84 311.81,76.99 303.59,71.14 295.36,65.29 287.13,59.44 278.91,53.59 270.68,47.74" fill="none" stroke="#60a5fa" stroke-width="1.0" opacity="0.55"/><polyline points="515.45,164.93 507.22,159.47 498.99,154.02 490.77,148.56 482.54,143.10 474.32,137.65 466.09,132.19 457.86,126.74 449.64,121.28 441.41,115.83 433.19,110.37 424.96,104.92 416.73,99.46 408.51,94.01 400.28,88.55 392.05,83.10 383.83,77.64 375.60,72.19 367.38,66.73 359.15,61.28 350.92,55.82 342.70,50.37 334.47,44.91 326.25,39.46 318.02,34.00" fill="none" stroke="#60a5fa" stroke-width="1.0" opacity="0.55"/><polyline points="231.43,304.16 243.26,298.36 255.10,292.56 266.93,286.76 278.76,280.96 290.60,275.16 302.43,269.35 314.27,263.55 326.10,257.75 337.94,251.95 349.77,246.15 361.60,240.35 373.44,234.55 385.27,228.74 397.11,222.94 408.94,217.14 420.77,211.34 432.61,205.54 444.44,199.74 456.28,193.93 468.11,188.13 479.94,182.33 491.78,176.53 503.61,170.73 515.45,164.93" fill="none" stroke="#60a5fa" stroke-width="1.0" opacity="0.55"/><polyline points="198.52,272.88 210.36,267.47 222.19,262.06 234.03,256.65 245.86,251.25 257.69,245.84 269.53,240.43 281.36,235.03 293.20,229.62 305.03,224.21 316.86,218.80 328.70,213.40 340.53,207.99 352.37,202.58 364.20,197.18 376.04,191.77 387.87,186.36 399.70,180.95 411.54,175.55 423.37,170.14 435.21,164.73 447.04,159.33 458.87,153.92 470.71,148.51 482.54,143.10" fill="none" stroke="#60a5fa" stroke-width="1.0" opacity="0.55"/><polyline points="165.62,241.59 177.45,236.58 189.29,231.56 201.12,226.55 212.96,221.54 224.79,216.52 236.62,211.51 248.46,206.50 260.29,201.49 272.13,196.47 283.96,191.46 295.79,186.45 307.63,181.44 319.46,176.42 331.30,171.41 343.13,166.40 354.96,161.39 366.80,156.37 378.63,151.36 390.47,146.35 402.30,141.33 414.14,136.32 425.97,131.31 437.80,126.30 449.64,121.28" fill="none" stroke="#60a5fa" stroke-width="1.0" opacity="0.55"/><polyline points="132.71,210.30 144.55,205.68 156.38,201.06 168.22,196.45 180.05,191.83 191.88,187.21 203.72,182.59 215.55,177.97 227.39,173.35 239.22,168.74 251.06,164.12 262.89,159.50 274.72,154.88 286.56,150.26 298.39,145.64 310.23,141.03 322.06,136.41 333.89,131.79 345.73,127.17 357.56,122.55 369.40,117.94 381.23,113.32 393.06,108.70 404.90,104.08 416.73,99.46" fill="none" stroke="#60a5fa" stroke-width="1.0" opacity="0.55"/><polyline points="99.81,179.01 111.64,174.79 123.48,170.56 135.31,166.34 147.15,162.12 158.98,157.89 170.81,153.67 182.65,149.45 194.48,145.22 206.32,141.00 218.15,136.77 229.98,132.55 241.82,128.33 253.65,124.10 265.49,119.88 277.32,115.66 289.16,111.43 300.99,107.21 312.82,102.98 324.66,98.76 336.49,94.54 348.33,90.31 360.16,86.09 371.99,81.87 383.83,77.64" fill="none" stroke="#60a5fa" stroke-width="1.0" opacity="0.55"/><polyline points="66.90,147.72 78.74,143.89 90.57,140.06 102.41,136.24 114.24,132.41 126.08,128.58 137.91,124.75 149.74,120.92 161.58,117.09 173.41,113.26 185.25,109.43 197.08,105.60 208.91,101.77 220.75,97.94 232.58,94.11 244.42,90.28 256.25,86.46 268.08,82.63 279.92,78.80 291.75,74.97 303.59,71.14 315.42,67.31 327.26,63.48 339.09,59.65 350.92,55.82" fill="none" stroke="#60a5fa" stroke-width="1.0" opacity="0.55"/><polyline points="34.00,116.43 45.83,113.00 57.67,109.57 69.50,106.13 81.34,102.70 93.17,99.26 105.00,95.83 116.84,92.39 128.67,88.96 140.51,85.52 152.34,82.09 164.18,78.65 176.01,75.22 187.84,71.78 199.68,68.35 211.51,64.91 223.35,61.48 235.18,58.04 247.01,54.61 258.85,51.17 270.68,47.74 282.52,44.30 294.35,40.87 306.18,37.43 318.02,34.00" fill="none" stroke="#60a5fa" stroke-width="1.0" opacity="0.55"/><polyline points="231.43,446.00 223.20,438.18 214.98,430.36 206.75,422.53 198.52,414.71 190.30,406.89 182.07,399.07 173.84,391.25 165.62,383.42 157.39,375.60 149.17,367.78 140.94,359.96 132.71,352.14 124.49,344.31 116.26,336.49 108.04,328.67 99.81,320.85 91.58,313.02 83.36,305.20 75.13,297.38 66.90,289.56 58.68,281.74 50.45,273.91 42.23,266.09 34.00,258.27" fill="none" stroke="#fb923c" stroke-width="1.0" opacity="0.55"/><polyline points="278.76,343.90 270.54,336.47 262.31,329.04 254.09,321.62 245.86,314.19 237.63,306.76 229.41,299.33 221.18,291.91 212.96,284.48 204.73,277.05 196.50,269.62 188.28,262.20 180.05,254.77 171.82,247.34 163.60,239.91 155.37,232.49 147.15,225.06 138.92,217.63 130.69,210.20 122.47,202.78 114.24,195.35 106.01,187.92 97.79,180.49 89.56,173.06 81.34,165.64" fill="none" stroke="#fb923c" stroke-width="1.0" opacity="0.55"/><polyline points="326.10,273.36 317.87,266.32 309.65,259.29 301.42,252.26 293.20,245.22 284.97,238.19 276.74,231.16 268.52,224.12 260.29,217.09 252.07,210.06 243.84,203.03 235.61,195.99 227.39,188.96 219.16,181.93 210.93,174.89 202.71,167.86 194.48,160.83 186.26,153.79 178.03,146.76 169.80,139.73 161.58,132.69 153.35,125.66 145.13,118.63 136.90,111.59 128.67,104.56" fill="none" stroke="#fb923c" stroke-width="1.0" opacity="0.55"/><polyline points="373.44,234.37 365.21,227.73 356.99,221.09 348.76,214.46 340.53,207.82 332.31,201.18 324.08,194.54 315.85,187.90 307.63,181.26 299.40,174.62 291.18,167.98 282.95,161.35 274.72,154.71 266.50,148.07 258.27,141.43 250.04,134.79 241.82,128.15 233.59,121.51 225.37,114.88 217.14,108.24 208.91,101.60 200.69,94.96 192.46,88.32 184.24,81.68 176.01,75.04" fill="none" stroke="#fb923c" stroke-width="1.0" opacity="0.55"/><polyline points="420.77,226.94 412.55,220.70 404.32,214.46 396.10,208.21 387.87,201.97 379.64,195.72 371.42,189.48 363.19,183.23 354.96,176.99 346.74,170.75 338.51,164.50 330.29,158.26 322.06,152.01 313.83,145.77 305.61,139.52 297.38,133.28 289.16,127.04 280.93,120.79 272.70,114.55 264.48,108.30 256.25,102.06 248.02,95.82 239.80,89.57 231.57,83.33 223.35,77.08" fill="none" stroke="#fb923c" stroke-width="1.0" opacity="0.55"/><polyline points="468.11,251.07 459.88,245.22 451.66,239.37 443.43,233.52 435.21,227.67 426.98,221.83 418.75,215.98 410.53,210.13 402.30,204.28 394.07,198.43 385.85,192.58 377.62,186.73 369.40,180.88 361.17,175.03 352.94,169.18 344.72,163.33 336.49,157.48 328.27,151.63 320.04,145.78 311.81,139.93 303.59,134.08 295.36,128.23 287.13,122.38 278.91,116.53 270.68,110.68" fill="none" stroke="#fb923c" stroke-width="1.0" opacity="0.55"/><polyline points="515.45,306.76 507.22,301.31 498.99,295.85 490.77,290.40 482.54,284.94 474.32,279.49 466.09,274.03 457.86,268.57 449.64,263.12 441.41,257.66 433.19,252.21 424.96,246.75 416.73,241.30 408.51,235.84 400.28,230.39 392.05,224.93 383.83,219.48 375.60,214.02 367.38,208.57 359.15,203.11 350.92,197.66 342.70,192.20 334.47,186.75 326.25,181.29 318.02,175.84" fill="none" stroke="#fb923c" stroke-width="1.0" opacity="0.55"/><polyline points="231.43,446.00 243.26,417.52 255.10,391.00 266.93,366.47 278.76,343.90 290.60,323.31 302.43,304.68 314.27,288.03 326.10,273.36 337.94,260.65 349.77,249.92 361.60,241.16 373.44,234.37 385.27,229.56 397.11,226.71 408.94,225.84 420.77,226.94 432.61,230.02 444.44,235.06 456.28,242.08 468.11,251.07 479.94,262.04 491.78,274.97 503.61,289.88 515.45,306.76" fill="none" stroke="#fb923c" stroke-width="1.0" opacity="0.55"/><polyline points="198.52,414.71 210.36,386.62 222.19,360.51 234.03,336.36 245.86,314.19 257.69,293.99 269.53,275.76 281.36,259.51 293.20,245.22 305.03,232.91 316.86,222.58 328.70,214.21 340.53,207.82 352.37,203.40 364.20,200.95 376.04,200.47 387.87,201.97 399.70,205.44 411.54,210.88 423.37,218.29 435.21,227.67 447.04,239.03 458.87,252.36 470.71,267.67 482.54,284.94" fill="none" stroke="#fb923c" stroke-width="1.0" opacity="0.55"/><polyline points="165.62,383.42 177.45,355.73 189.29,330.01 201.12,306.26 212.96,284.48 224.79,264.67 236.62,246.84 248.46,230.98 260.29,217.09 272.13,205.18 283.96,195.23 295.79,187.26 307.63,181.26 319.46,177.24 331.30,175.18 343.13,175.10 354.96,176.99 366.80,180.85 378.63,186.69 390.47,194.50 402.30,204.28 414.14,216.03 425.97,229.75 437.80,245.45 449.64,263.12" fill="none" stroke="#fb923c" stroke-width="1.0" opacity="0.55"/><polyline points="132.71,352.14 144.55,324.83 156.38,299.51 168.22,276.15 180.05,254.77 191.88,235.36 203.72,217.92 215.55,202.45 227.39,188.96 239.22,177.44 251.06,167.89 262.89,160.31 274.72,154.71 286.56,151.08 298.39,149.42 310.23,149.73 322.06,152.01 333.89,156.27 345.73,162.50 357.56,170.70 369.40,180.88 381.23,193.02 393.06,207.14 404.90,223.23 416.73,241.30" fill="none" stroke="#fb923c" stroke-width="1.0" opacity="0.55"/><polyline points="99.81,320.85 111.64,293.94 123.48,269.01 135.31,246.05 147.15,225.06 158.98,206.04 170.81,189.00 182.65,173.93 194.48,160.83 206.32,149.70 218.15,140.54 229.98,133.36 241.82,128.15 253.65,124.92 265.49,123.65 277.32,124.36 289.16,127.04 300.99,131.69 312.82,138.31 324.66,146.91 336.49,157.48 348.33,170.02 360.16,184.53 371.99,201.02 383.83,219.48" fill="none" stroke="#fb923c" stroke-width="1.0" opacity="0.55"/><polyline points="66.90,289.56 78.74,263.05 90.57,238.51 102.41,215.94 114.24,195.35 126.08,176.73 137.91,160.08 149.74,145.40 161.58,132.69 173.41,121.96 185.25,113.20 197.08,106.41 208.91,101.60 220.75,98.75 232.58,97.88 244.42,98.99 256.25,102.06 268.08,107.11 279.92,114.12 291.75,123.12 303.59,134.08 315.42,147.02 327.26,161.92 339.09,178.80 350.92,197.66" fill="none" stroke="#fb923c" stroke-width="1.0" opacity="0.55"/><polyline points="34.00,258.27 45.83,232.15 57.67,208.01 69.50,185.84 81.34,165.64 93.17,147.41 105.00,131.15 116.84,116.87 128.67,104.56 140.51,94.22 152.34,85.86 164.18,79.46 176.01,75.04 187.84,72.59 199.68,72.12 211.51,73.61 223.35,77.08 235.18,82.52 247.01,89.94 258.85,99.32 270.68,110.68 282.52,124.01 294.35,139.31 306.18,156.59 318.02,175.84" fill="none" stroke="#fb923c" stroke-width="1.0" opacity="0.55"/><polyline points="368.47,236.98 365.38,234.48 362.30,231.97 359.21,229.47 356.13,226.96 353.04,224.46 349.96,221.95 346.87,219.45 343.79,216.94 340.70,214.44 337.62,211.93 334.53,209.43 331.45,206.92 328.36,204.42 325.28,201.91 322.19,199.41 319.11,196.90 316.03,194.40 312.94,191.89 309.86,189.39 306.77,186.88 303.69,184.38 300.60,181.87 297.52,179.37 294.43,176.86 291.35,174.36 288.26,171.85 285.18,169.35 282.09,166.84 279.01,164.34 275.92,161.83 272.84,159.33 269.75,156.82 266.67,154.32 263.58,151.81 260.50,149.31 257.41,146.80 254.33,144.30 251.24,141.79 248.16,139.29 245.07,136.78 241.99,134.28 238.91,131.77 235.82,129.27 232.74,126.76 229.65,124.26 226.57,121.75 223.48,119.25 220.40,116.74 217.31,114.24 214.23,111.73 211.14,109.23 208.06,106.72 204.97,104.22 201.89,101.71 198.80,99.21 195.72,96.70 192.63,94.20 189.55,91.69 186.46,89.19 183.38,86.68 180.29,84.18 177.21,81.67 174.12,79.17 171.04,76.66" fill="none" stroke="#facc15" stroke-width="2.8" opacity="1.0"/><polyline points="378.41,232.11 375.32,229.63 372.24,227.16 369.15,224.69 366.07,222.21 362.98,219.74 359.90,217.26 356.81,214.79 353.73,212.32 350.64,209.84 347.56,207.37 344.47,204.89 341.39,202.42 338.31,199.95 335.22,197.47 332.14,195.00 329.05,192.53 325.97,190.05 322.88,187.58 319.80,185.10 316.71,182.63 313.63,180.16 310.54,177.68 307.46,175.21 304.37,172.73 301.29,170.26 298.20,167.79 295.12,165.31 292.03,162.84 288.95,160.36 285.86,157.89 282.78,155.42 279.69,152.94 276.61,150.47 273.52,147.99 270.44,145.52 267.35,143.05 264.27,140.57 261.18,138.10 258.10,135.62 255.02,133.15 251.93,130.68 248.85,128.20 245.76,125.73 242.68,123.25 239.59,120.78 236.51,118.31 233.42,115.83 230.34,113.36 227.25,110.88 224.17,108.41 221.08,105.94 218.00,103.46 214.91,100.99 211.83,98.51 208.74,96.04 205.66,93.57 202.57,91.09 199.49,88.62 196.40,86.14 193.32,83.67 190.23,81.20 187.15,78.72 184.06,76.25 180.98,73.77" fill="none" stroke="#facc15" stroke-width="2.8" opacity="1.0"/><polyline points="368.47,236.98 368.23,236.79 362.79,232.37 357.36,227.96 349.21,221.34 341.06,214.72 330.19,205.90 319.32,197.07 308.46,188.25 297.59,179.43 286.72,170.60 275.86,161.78 264.99,152.95 254.12,144.13 243.25,135.30 232.39,126.48 221.52,117.65 210.65,108.83 199.79,100.00 188.92,91.18 178.05,82.35 171.04,76.66" fill="none" stroke="#f472b6" stroke-width="2.8" opacity="1.0"/><polyline points="378.41,232.11 378.17,231.91 372.73,227.56 367.30,223.20 359.15,216.66 351.00,210.13 340.13,201.41 329.26,192.70 318.40,183.98 307.53,175.27 296.66,166.55 285.80,157.84 274.93,149.12 264.06,140.41 253.19,131.69 242.33,122.97 231.46,114.26 220.59,105.54 209.73,96.83 198.86,88.11 187.99,79.40 180.98,73.77" fill="none" stroke="#f472b6" stroke-width="2.8" opacity="1.0"/><polyline points="368.47,236.98 365.38,234.48 362.30,231.97 359.21,229.47 356.13,226.96 353.04,224.46 349.96,221.95 346.87,219.45 343.79,216.94 340.70,214.44 337.62,211.93 334.53,209.43 331.45,206.92 328.36,204.42 325.28,201.91 322.19,199.41 319.11,196.90 316.03,194.40 312.94,191.89 309.86,189.39 306.77,186.88 303.69,184.38 300.60,181.87 297.52,179.37 294.43,176.86 291.35,174.36 288.26,171.85 285.18,169.35 282.09,166.84 279.01,164.34 275.92,161.83 272.84,159.33 269.75,156.82 266.67,154.32 263.58,151.81 260.50,149.31 257.41,146.80 254.33,144.30 251.24,141.79 248.16,139.29 245.07,136.78 241.99,134.28 238.91,131.77 235.82,129.27 232.74,126.76 229.65,124.26 226.57,121.75 223.48,119.25 220.40,116.74 217.31,114.24 214.23,111.73 211.14,109.23 208.06,106.72 204.97,104.22 201.89,101.71 198.80,99.21 195.72,96.70 192.63,94.20 189.55,91.69 186.46,89.19 183.38,86.68 180.29,84.18 177.21,81.67 174.12,79.17 171.04,76.66" fill="none" stroke="#34d399" stroke-width="2.8" opacity="1.0"/><polyline points="378.41,232.11 375.32,229.63 372.24,227.16 369.15,224.69 366.07,222.21 362.98,219.74 359.90,217.26 356.81,214.79 353.73,212.32 350.64,209.84 347.56,207.37 344.47,204.89 341.39,202.42 338.31,199.95 335.22,197.47 332.14,195.00 329.05,192.53 325.97,190.05 322.88,187.58 319.80,185.10 316.71,182.63 313.63,180.16 310.54,177.68 307.46,175.21 304.37,172.73 301.29,170.26 298.20,167.79 295.12,165.31 292.03,162.84 288.95,160.36 285.86,157.89 282.78,155.42 279.69,152.94 276.61,150.47 273.52,147.99 270.44,145.52 267.35,143.05 264.27,140.57 261.18,138.10 258.10,135.62 255.02,133.15 251.93,130.68 248.85,128.20 245.76,125.73 242.68,123.25 239.59,120.78 236.51,118.31 233.42,115.83 230.34,113.36 227.25,110.88 224.17,108.41 221.08,105.94 218.00,103.46 214.91,100.99 211.83,98.51 208.74,96.04 205.66,93.57 202.57,91.09 199.49,88.62 196.40,86.14 193.32,83.67 190.23,81.20 187.15,78.72 184.06,76.25 180.98,73.77" fill="none" stroke="#34d399" stroke-width="2.8" opacity="1.0"/>
</svg>
