<svg xmlns="http://www.w3.org/2000/svg" width="760" height="480" viewBox="0 0 760 480">
<rect width="100%" height="100%" fill="#0f172a"/>
<text x="18" y="24" font-family="sans-serif" font-size="15" fill="#f8fafc">Nested coaxial cylinders</text>
<text x="18" y="44" font-family="sans-serif" font-size="12" fill="#94a3b8">Expected empty</text>
<polyline points="313.14,70.58 313.14,80.60 313.14,90.61 313.14,100.63 313.14,110.64 313.14,120.66 313.14,130.67 313.14,140.68 313.14,150.70 313.14,160.71 313.14,170.73 313.14,180.74 313.14,190.76 313.14,200.77 313.14,210.79 313.14,220.80 313.14,230.82 313.14,240.83 313.14,250.85 313.14,260.86 313.14,270.87 313.14,280.89 313.14,290.90 313.14,300.92 313.14,310.93" fill="none" stroke="#60a5fa" stroke-width="1.0" opacity="0.55"/><polyline points="172.16,34.00 172.16,44.01 172.16,54.03 172.16,64.04 172.16,74.06 172.16,84.07 172.16,94.09 172.16,104.10 172.16,114.12 172.16,124.13 172.16,134.15 172.16,144.16 172.16,154.17 172.16,164.19 172.16,174.20 172.16,184.22 172.16,194.23 172.16,204.25 172.16,214.26 172.16,224.28 172.16,234.29 172.16,244.31 172.16,254.32 172.16,264.33 172.16,274.35" fill="none" stroke="#60a5fa" stroke-width="1.0" opacity="0.55"/><polyline points="48.74,82.16 48.74,92.18 48.74,102.19 48.74,112.21 48.74,122.22 48.74,132.24 48.74,142.25 48.74,152.27 48.74,162.28 48.74,172.29 48.74,182.31 48.74,192.32 48.74,202.34 48.74,212.35 48.74,222.37 48.74,232.38 48.74,242.40 48.74,252.41 48.74,262.43 48.74,272.44 48.74,282.45 48.74,292.47 48.74,302.48 48.74,312.50 48.74,322.51" fill="none" stroke="#60a5fa" stroke-width="1.0" opacity="0.55"/><polyline points="60.78,169.07 60.78,179.08 60.78,189.10 60.78,199.11 60.78,209.13 60.78,219.14 60.78,229.15 60.78,239.17 60.78,249.18 60.78,259.20 60.78,269.21 60.78,279.23 60.78,289.24 60.78,299.26 60.78,309.27 60.78,319.29 60.78,329.30 60.78,339.32 60.78,349.33 60.78,359.34 60.78,369.36 60.78,379.37 60.78,389.39 60.78,399.40 60.78,409.42" fill="none" stroke="#60a5fa" stroke-width="1.0" opacity="0.55"/><polyline points="201.76,205.65 201.76,215.67 201.76,225.68 201.76,235.69 201.76,245.71 201.76,255.72 201.76,265.74 201.76,275.75 201.76,285.77 201.76,295.78 201.76,305.80 201.76,315.81 201.76,325.83 201.76,335.84 201.76,345.85 201.76,355.87 201.76,365.88 201.76,375.90 201.76,385.91 201.76,395.93 201.76,405.94 201.76,415.96 201.76,425.97 201.76,435.99 201.76,446.00" fill="none" stroke="#60a5fa" stroke-width="1.0" opacity="0.55"/><polyline points="325.18,157.49 325.18,167.50 325.18,177.52 325.18,187.53 325.18,197.55 325.18,207.56 325.18,217.57 325.18,227.59 325.18,237.60 325.18,247.62 325.18,257.63 325.18,267.65 325.18,277.66 325.18,287.68 325.18,297.69 325.18,307.71 325.18,317.72 325.18,327.73 325.18,337.75 325.18,347.76 325.18,357.78 325.18,367.79 325.18,377.81 325.18,387.82 325.18,397.84" fill="none" stroke="#60a5fa" stroke-width="1.0" opacity="0.55"/><polyline points="313.14,70.58 313.14,80.60 313.14,90.61 313.14,100.63 313.14,110.64 313.14,120.66 313.14,130.67 313.14,140.68 313.14,150.70 313.14,160.71 313.14,170.73 313.14,180.74 313.14,190.76 313.14,200.77 313.14,210.79 313.14,220.80 313.14,230.82 313.14,240.83 313.14,250.85 313.14,260.86 313.14,270.87 313.14,280.89 313.14,290.90 313.14,300.92 313.14,310.93" fill="none" stroke="#60a5fa" stroke-width="1.0" opacity="0.55"/><polyline points="313.14,70.58 287.92,54.80 254.13,42.26 214.16,34.95 172.16,34.00 132.69,39.16 99.25,49.04 71.10,63.20 48.74,82.16 35.71,104.59 34.00,128.16 43.19,150.30 60.78,169.07 86.00,184.85 119.79,197.39 159.76,204.70 201.76,205.65 241.23,200.49 274.67,190.61 302.82,176.45 325.18,157.49 338.21,135.06 339.92,111.49 330.73,89.35 313.14,70.58" fill="none" stroke="#60a5fa" stroke-width="1.0" opacity="0.55"/><polyline points="313.14,110.64 287.92,94.85 254.13,82.31 214.16,75.01 172.16,74.06 132.69,79.22 99.25,89.10 71.10,103.26 48.74,122.22 35.71,144.65 34.00,168.22 43.19,190.36 60.78,209.13 86.00,224.91 119.79,237.45 159.76,244.76 201.76,245.71 241.23,240.55 274.67,230.67 302.82,216.51 325.18,197.55 338.21,175.12 339.92,151.55 330.73,129.41 313.14,110.64" fill="none" stroke="#60a5fa" stroke-width="1.0" opacity="0.55"/><polyline points="313.14,150.70 287.92,134.91 254.13,122.37 214.16,115.07 172.16,114.12 132.69,119.28 99.25,129.16 71.10,143.31 48.74,162.28 35.71,184.71 34.00,208.28 43.19,230.42 60.78,249.18 86.00,264.97 119.79,277.51 159.76,284.81 201.76,285.77 241.23,280.60 274.67,270.73 302.82,256.57 325.18,237.60 338.21,215.18 339.92,191.61 330.73,169.46 313.14,150.70" fill="none" stroke="#60a5fa" stroke-width="1.0" opacity="0.55"/><polyline points="313.14,190.76 287.92,174.97 254.13,162.43 214.16,155.13 172.16,154.17 132.69,159.34 99.25,169.21 71.10,183.37 48.74,202.34 35.71,224.77 34.00,248.33 43.19,270.48 60.78,289.24 86.00,305.03 119.79,317.57 159.76,324.87 201.76,325.83 241.23,320.66 274.67,310.79 302.82,296.63 325.18,277.66 338.21,255.23 339.92,231.67 330.73,209.52 313.14,190.76" fill="none" stroke="#60a5fa" stroke-width="1.0" opacity="0.55"/><polyline points="313.14,230.82 287.92,215.03 254.13,202.49 214.16,195.19 172.16,194.23 132.69,199.40 99.25,209.27 71.10,223.43 48.74,242.40 35.71,264.82 34.00,288.39 43.19,310.54 60.78,329.30 86.00,345.09 119.79,357.63 159.76,364.93 201.76,365.88 241.23,360.72 274.67,350.84 302.82,336.69 325.18,317.72 338.21,295.29 339.92,271.72 330.73,249.58 313.14,230.82" fill="none" stroke="#60a5fa" stroke-width="1.0" opacity="0.55"/><polyline points="313.14,270.87 287.92,255.09 254.13,242.55 214.16,235.24 172.16,234.29 132.69,239.45 99.25,249.33 71.10,263.49 48.74,282.45 35.71,304.88 34.00,328.45 43.19,350.59 60.78,369.36 86.00,385.15 119.79,397.69 159.76,404.99 201.76,405.94 241.23,400.78 274.67,390.90 302.82,376.74 325.18,357.78 338.21,335.35 339.92,311.78 330.73,289.64 313.14,270.87" fill="none" stroke="#60a5fa" stroke-width="1.0" opacity="0.55"/><polyline points="313.14,310.93 287.92,295.15 254.13,282.61 214.16,275.30 172.16,274.35 132.69,279.51 99.25,289.39 71.10,303.55 48.74,322.51 35.71,344.94 34.00,368.51 43.19,390.65 60.78,409.42 86.00,425.20 119.79,437.74 159.76,445.05 201.76,446.00 241.23,440.84 274.67,430.96 302.82,416.80 325.18,397.84 338.21,375.41 339.92,351.84 330.73,329.70 313.14,310.93" fill="none" stroke="#60a5fa" stroke-width="1.0" opacity="0.55"/><polyline points="273.49,86.06 273.49,96.07 273.49,106.09 273.49,116.10 273.49,126.12 273.49,136.13 273.49,146.15 273.49,156.16 273.49,166.18 273.49,176.19 273.49,186.20 273.49,196.22 273.49,206.23 273.49,216.25 273.49,226.26 273.49,236.28 273.49,246.29 273.49,256.31 273.49,266.32 273.49,276.34 273.49,286.35 273.49,296.36 273.49,306.38 273.49,316.39 273.49,326.41" fill="none" stroke="#fb923c" stroke-width="1.0" opacity="0.55"/><polyline points="176.81,60.97 176.81,70.99 176.81,81.00 176.81,91.02 176.81,101.03 176.81,111.05 176.81,121.06 176.81,131.08 176.81,141.09 176.81,151.10 176.81,161.12 176.81,171.13 176.81,181.15 176.81,191.16 176.81,201.18 176.81,211.19 176.81,221.21 176.81,231.22 176.81,241.24 176.81,251.25 176.81,261.26 176.81,271.28 176.81,281.29 176.81,291.31 176.81,301.32" fill="none" stroke="#fb923c" stroke-width="1.0" opacity="0.55"/><polyline points="92.18,94.00 92.18,104.01 92.18,114.03 92.18,124.04 92.18,134.06 92.18,144.07 92.18,154.09 92.18,164.10 92.18,174.12 92.18,184.13 92.18,194.15 92.18,204.16 92.18,214.17 92.18,224.19 92.18,234.20 92.18,244.22 92.18,254.23 92.18,264.25 92.18,274.26 92.18,284.28 92.18,294.29 92.18,304.31 92.18,314.32 92.18,324.33 92.18,334.35" fill="none" stroke="#fb923c" stroke-width="1.0" opacity="0.55"/><polyline points="100.43,153.59 100.43,163.61 100.43,173.62 100.43,183.64 100.43,193.65 100.43,203.66 100.43,213.68 100.43,223.69 100.43,233.71 100.43,243.72 100.43,253.74 100.43,263.75 100.43,273.77 100.43,283.78 100.43,293.80 100.43,303.81 100.43,313.82 100.43,323.84 100.43,333.85 100.43,343.87 100.43,353.88 100.43,363.90 100.43,373.91 100.43,383.93 100.43,393.94" fill="none" stroke="#fb923c" stroke-width="1.0" opacity="0.55"/><polyline points="197.11,178.68 197.11,188.69 197.11,198.71 197.11,208.72 197.11,218.74 197.11,228.75 197.11,238.76 197.11,248.78 197.11,258.79 197.11,268.81 197.11,278.82 197.11,288.84 197.11,298.85 197.11,308.87 197.11,318.88 197.11,328.90 197.11,338.91 197.11,348.92 197.11,358.94 197.11,368.95 197.11,378.97 197.11,388.98 197.11,399.00 197.11,409.01 197.11,419.03" fill="none" stroke="#fb923c" stroke-width="1.0" opacity="0.55"/><polyline points="281.74,145.65 281.74,155.67 281.74,165.68 281.74,175.69 281.74,185.71 281.74,195.72 281.74,205.74 281.74,215.75 281.74,225.77 281.74,235.78 281.74,245.80 281.74,255.81 281.74,265.83 281.74,275.84 281.74,285.85 281.74,295.87 281.74,305.88 281.74,315.90 281.74,325.91 281.74,335.93 281.74,345.94 281.74,355.96 281.74,365.97 281.74,375.99 281.74,386.00" fill="none" stroke="#fb923c" stroke-width="1.0" opacity="0.55"/><polyline points="273.49,86.06 273.49,96.07 273.49,106.09 273.49,116.10 273.49,126.12 273.49,136.13 273.49,146.15 273.49,156.16 273.49,166.18 273.49,176.19 273.49,186.20 273.49,196.22 273.49,206.23 273.49,216.25 273.49,226.26 273.49,236.28 273.49,246.29 273.49,256.31 273.49,266.32 273.49,276.34 273.49,286.35 273.49,296.36 273.49,306.38 273.49,316.39 273.49,326.41" fill="none" stroke="#fb923c" stroke-width="1.0" opacity="0.55"/><polyline points="273.49,86.06 256.19,75.23 233.02,66.63 205.61,61.63 176.81,60.97 149.75,64.51 126.81,71.29 107.52,80.99 92.18,94.00 83.25,109.38 82.07,125.54 88.37,140.72 100.43,153.59 117.73,164.42 140.90,173.02 168.31,178.02 197.11,178.68 224.17,175.14 247.11,168.36 266.40,158.66 281.74,145.65 290.67,130.27 291.85,114.11 285.55,98.93 273.49,86.06" fill="none" stroke="#fb923c" stroke-width="1.0" opacity="0.55"/><polyline points="273.49,126.12 256.19,115.29 233.02,106.69 205.61,101.69 176.81,101.03 149.75,104.57 126.81,111.34 107.52,121.05 92.18,134.06 83.25,149.44 82.07,165.60 88.37,180.78 100.43,193.65 117.73,204.47 140.90,213.07 168.31,218.08 197.11,218.74 224.17,215.20 247.11,208.42 266.40,198.71 281.74,185.71 290.67,170.33 291.85,154.17 285.55,138.98 273.49,126.12" fill="none" stroke="#fb923c" stroke-width="1.0" opacity="0.55"/><polyline points="273.49,166.18 256.19,155.35 233.02,146.75 205.61,141.74 176.81,141.09 149.75,144.63 126.81,151.40 107.52,161.11 92.18,174.12 83.25,189.50 82.07,205.66 88.37,220.84 100.43,233.71 117.73,244.53 140.90,253.13 168.31,258.14 197.11,258.79 224.17,255.25 247.11,248.48 266.40,238.77 281.74,225.77 290.67,210.39 291.85,194.23 285.55,179.04 273.49,166.18" fill="none" stroke="#fb923c" stroke-width="1.0" opacity="0.55"/><polyline points="273.49,206.23 256.19,195.41 233.02,186.81 205.61,181.80 176.81,181.15 149.75,184.69 126.81,191.46 107.52,201.17 92.18,214.17 83.25,229.55 82.07,245.72 88.37,260.90 100.43,273.77 117.73,284.59 140.90,293.19 168.31,298.20 197.11,298.85 224.17,295.31 247.11,288.54 266.40,278.83 281.74,265.83 290.67,250.45 291.85,234.28 285.55,219.10 273.49,206.23" fill="none" stroke="#fb923c" stroke-width="1.0" opacity="0.55"/><polyline points="273.49,246.29 256.19,235.47 233.02,226.87 205.61,221.86 176.81,221.21 149.75,224.75 126.81,231.52 107.52,241.23 92.18,254.23 83.25,269.61 82.07,285.77 88.37,300.96 100.43,313.82 117.73,324.65 140.90,333.25 168.31,338.26 197.11,338.91 224.17,335.37 247.11,328.60 266.40,318.89 281.74,305.88 290.67,290.50 291.85,274.34 285.55,259.16 273.49,246.29" fill="none" stroke="#fb923c" stroke-width="1.0" opacity="0.55"/><polyline points="273.49,286.35 256.19,275.53 233.02,266.93 205.61,261.92 176.81,261.26 149.75,264.80 126.81,271.58 107.52,281.29 92.18,294.29 83.25,309.67 82.07,325.83 88.37,341.02 100.43,353.88 117.73,364.71 140.90,373.31 168.31,378.31 197.11,378.97 224.17,375.43 247.11,368.66 266.40,358.95 281.74,345.94 290.67,330.56 291.85,314.40 285.55,299.22 273.49,286.35" fill="none" stroke="#fb923c" stroke-width="1.0" opacity="0.55"/><polyline points="273.49,326.41 256.19,315.58 233.02,306.98 205.61,301.98 176.81,301.32 149.75,304.86 126.81,311.64 107.52,321.34 92.18,334.35 83.25,349.73 82.07,365.89 88.37,381.07 100.43,393.94 117.73,404.77 140.90,413.37 168.31,418.37 197.11,419.03 224.17,415.49 247.11,408.71 266.40,399.01 281.74,386.00 290.67,370.62 291.85,354.46 285.55,339.28 273.49,326.41" fill="none" stroke="#fb923c" stroke-width="1.0" opacity="0.55"/>
</svg>
