<svg xmlns="http://www.w3.org/2000/svg" width="760" height="480" viewBox="0 0 760 480">
<rect width="100%" height="100%" fill="#0f172a"/>
<text x="18" y="24" font-family="sans-serif" font-size="15" fill="#f8fafc">Axial cylinder cut</text>
<text x="18" y="44" font-family="sans-serif" font-size="12" fill="#94a3b8">Expected complete</text>
<polyline points="311.51,72.26 311.51,82.31 311.51,92.37 311.51,102.42 311.51,112.48 311.51,122.53 311.51,132.59 311.51,142.64 311.51,152.70 311.51,162.75 311.51,172.80 311.51,182.86 311.51,192.91 311.51,202.97 311.51,213.02 311.51,223.08 311.51,233.13 311.51,243.19 311.51,253.24 311.51,263.30 311.51,273.35 311.51,283.41 311.51,293.46 311.51,303.52 311.51,313.57" fill="none" stroke="#60a5fa" stroke-width="1.0" opacity="0.55"/><polyline points="176.70,37.28 176.70,47.33 176.70,57.39 176.70,67.44 176.70,77.50 176.70,87.55 176.70,97.60 176.70,107.66 176.70,117.71 176.70,127.77 176.70,137.82 176.70,147.88 176.70,157.93 176.70,167.99 176.70,178.04 176.70,188.10 176.70,198.15 176.70,208.21 176.70,218.26 176.70,228.32 176.70,238.37 176.70,248.43 176.70,258.48 176.70,268.54 176.70,278.59" fill="none" stroke="#60a5fa" stroke-width="1.0" opacity="0.55"/><polyline points="58.69,83.33 58.69,93.38 58.69,103.44 58.69,113.49 58.69,123.55 58.69,133.60 58.69,143.66 58.69,153.71 58.69,163.77 58.69,173.82 58.69,183.88 58.69,193.93 58.69,203.99 58.69,214.04 58.69,224.10 58.69,234.15 58.69,244.21 58.69,254.26 58.69,264.32 58.69,274.37 58.69,284.43 58.69,294.48 58.69,304.53 58.69,314.59 58.69,324.64" fill="none" stroke="#60a5fa" stroke-width="1.0" opacity="0.55"/><polyline points="70.20,166.43 70.20,176.48 70.20,186.54 70.20,196.59 70.20,206.65 70.20,216.70 70.20,226.76 70.20,236.81 70.20,246.87 70.20,256.92 70.20,266.98 70.20,277.03 70.20,287.09 70.20,297.14 70.20,307.20 70.20,317.25 70.20,327.30 70.20,337.36 70.20,347.41 70.20,357.47 70.20,367.52 70.20,377.58 70.20,387.63 70.20,397.69 70.20,407.74" fill="none" stroke="#60a5fa" stroke-width="1.0" opacity="0.55"/><polyline points="205.01,201.41 205.01,211.46 205.01,221.52 205.01,231.57 205.01,241.63 205.01,251.68 205.01,261.74 205.01,271.79 205.01,281.85 205.01,291.90 205.01,301.96 205.01,312.01 205.01,322.07 205.01,332.12 205.01,342.18 205.01,352.23 205.01,362.29 205.01,372.34 205.01,382.40 205.01,392.45 205.01,402.50 205.01,412.56 205.01,422.61 205.01,432.67 205.01,442.72" fill="none" stroke="#60a5fa" stroke-width="1.0" opacity="0.55"/><polyline points="323.02,155.36 323.02,165.41 323.02,175.47 323.02,185.52 323.02,195.57 323.02,205.63 323.02,215.68 323.02,225.74 323.02,235.79 323.02,245.85 323.02,255.90 323.02,265.96 323.02,276.01 323.02,286.07 323.02,296.12 323.02,306.18 323.02,316.23 323.02,326.29 323.02,336.34 323.02,346.40 323.02,356.45 323.02,366.51 323.02,376.56 323.02,386.62 323.02,396.67" fill="none" stroke="#60a5fa" stroke-width="1.0" opacity="0.55"/><polyline points="311.51,72.26 311.51,82.31 311.51,92.37 311.51,102.42 311.51,112.48 311.51,122.53 311.51,132.59 311.51,142.64 311.51,152.70 311.51,162.75 311.51,172.80 311.51,182.86 311.51,192.91 311.51,202.97 311.51,213.02 311.51,223.08 311.51,233.13 311.51,243.19 311.51,253.24 311.51,263.30 311.51,273.35 311.51,283.41 311.51,293.46 311.51,303.52 311.51,313.57" fill="none" stroke="#60a5fa" stroke-width="1.0" opacity="0.55"/><polyline points="311.51,72.26 287.39,57.16 255.08,45.17 216.87,38.19 176.70,37.28 138.97,42.21 106.98,51.66 80.07,65.20 58.69,83.33 46.23,104.78 44.59,127.31 53.38,148.49 70.20,166.43 94.31,181.52 126.63,193.51 164.84,200.50 205.01,201.41 242.74,196.47 274.73,187.03 301.64,173.49 323.02,155.36 335.48,133.91 337.12,111.37 328.33,90.20 311.51,72.26" fill="none" stroke="#60a5fa" stroke-width="1.0" opacity="0.55"/><polyline points="311.51,112.48 287.39,97.38 255.08,85.39 216.87,78.41 176.70,77.50 138.97,82.43 106.98,91.88 80.07,105.41 58.69,123.55 46.23,145.00 44.59,167.53 53.38,188.70 70.20,206.65 94.31,221.74 126.63,233.73 164.84,240.72 205.01,241.63 242.74,236.69 274.73,227.25 301.64,213.71 323.02,195.57 335.48,174.13 337.12,151.59 328.33,130.42 311.51,112.48" fill="none" stroke="#60a5fa" stroke-width="1.0" opacity="0.55"/><polyline points="311.51,152.70 287.39,137.60 255.08,125.61 216.87,118.63 176.70,117.71 138.97,122.65 106.98,132.10 80.07,145.63 58.69,163.77 46.23,185.21 44.59,207.75 53.38,228.92 70.20,246.87 94.31,261.96 126.63,273.95 164.84,280.94 205.01,281.85 242.74,276.91 274.73,267.47 301.64,253.93 323.02,235.79 335.48,214.35 337.12,191.81 328.33,170.64 311.51,152.70" fill="none" stroke="#60a5fa" stroke-width="1.0" opacity="0.55"/><polyline points="311.51,192.91 287.39,177.82 255.08,165.83 216.87,158.84 176.70,157.93 138.97,162.87 106.98,172.31 80.07,185.85 58.69,203.99 46.23,225.43 44.59,247.97 53.38,269.14 70.20,287.09 94.31,302.18 126.63,314.17 164.84,321.16 205.01,322.07 242.74,317.13 274.73,307.69 301.64,294.15 323.02,276.01 335.48,254.57 337.12,232.03 328.33,210.86 311.51,192.91" fill="none" stroke="#60a5fa" stroke-width="1.0" opacity="0.55"/><polyline points="311.51,233.13 287.39,218.04 255.08,206.05 216.87,199.06 176.70,198.15 138.97,203.09 106.98,212.53 80.07,226.07 58.69,244.21 46.23,265.65 44.59,288.19 53.38,309.36 70.20,327.30 94.31,342.40 126.63,354.39 164.84,361.37 205.01,362.29 242.74,357.35 274.73,347.90 301.64,334.37 323.02,316.23 335.48,294.79 337.12,272.25 328.33,251.08 311.51,233.13" fill="none" stroke="#60a5fa" stroke-width="1.0" opacity="0.55"/><polyline points="311.51,273.35 287.39,258.26 255.08,246.27 216.87,239.28 176.70,238.37 138.97,243.31 106.98,252.75 80.07,266.29 58.69,284.43 46.23,305.87 44.59,328.41 53.38,349.58 70.20,367.52 94.31,382.62 126.63,394.61 164.84,401.59 205.01,402.50 242.74,397.57 274.73,388.12 301.64,374.59 323.02,356.45 335.48,335.00 337.12,312.47 328.33,291.30 311.51,273.35" fill="none" stroke="#60a5fa" stroke-width="1.0" opacity="0.55"/><polyline points="311.51,313.57 287.39,298.48 255.08,286.49 216.87,279.50 176.70,278.59 138.97,283.53 106.98,292.97 80.07,306.51 58.69,324.64 46.23,346.09 44.59,368.63 53.38,389.80 70.20,407.74 94.31,422.84 126.63,434.83 164.84,441.81 205.01,442.72 242.74,437.79 274.73,428.34 301.64,414.80 323.02,396.67 335.48,375.22 337.12,352.69 328.33,331.51 311.51,313.57" fill="none" stroke="#60a5fa" stroke-width="1.0" opacity="0.55"/><polyline points="34.00,156.42 34.00,168.49 34.00,180.55 34.00,192.62 34.00,204.69 34.00,216.75 34.00,228.82 34.00,240.88 34.00,252.95 34.00,265.01 34.00,277.08 34.00,289.15 34.00,301.21 34.00,313.28 34.00,325.34 34.00,337.41 34.00,349.47 34.00,361.54 34.00,373.61 34.00,385.67 34.00,397.74 34.00,409.80 34.00,421.87 34.00,433.93 34.00,446.00" fill="none" stroke="#fb923c" stroke-width="1.0" opacity="0.55"/><polyline points="86.28,136.02 86.28,148.08 86.28,160.15 86.28,172.22 86.28,184.28 86.28,196.35 86.28,208.41 86.28,220.48 86.28,232.54 86.28,244.61 86.28,256.68 86.28,268.74 86.28,280.81 86.28,292.87 86.28,304.94 86.28,317.00 86.28,329.07 86.28,341.14 86.28,353.20 86.28,365.27 86.28,377.33 86.28,389.40 86.28,401.46 86.28,413.53 86.28,425.60" fill="none" stroke="#fb923c" stroke-width="1.0" opacity="0.55"/><polyline points="138.57,115.62 138.57,127.68 138.57,139.75 138.57,151.81 138.57,163.88 138.57,175.94 138.57,188.01 138.57,200.08 138.57,212.14 138.57,224.21 138.57,236.27 138.57,248.34 138.57,260.40 138.57,272.47 138.57,284.54 138.57,296.60 138.57,308.67 138.57,320.73 138.57,332.80 138.57,344.86 138.57,356.93 138.57,369.00 138.57,381.06 138.57,393.13 138.57,405.19" fill="none" stroke="#fb923c" stroke-width="1.0" opacity="0.55"/><polyline points="190.85,95.21 190.85,107.28 190.85,119.34 190.85,131.41 190.85,143.47 190.85,155.54 190.85,167.61 190.85,179.67 190.85,191.74 190.85,203.80 190.85,215.87 190.85,227.93 190.85,240.00 190.85,252.07 190.85,264.13 190.85,276.20 190.85,288.26 190.85,300.33 190.85,312.39 190.85,324.46 190.85,336.53 190.85,348.59 190.85,360.66 190.85,372.72 190.85,384.79" fill="none" stroke="#fb923c" stroke-width="1.0" opacity="0.55"/><polyline points="243.14,74.81 243.14,86.87 243.14,98.94 243.14,111.00 243.14,123.07 243.14,135.14 243.14,147.20 243.14,159.27 243.14,171.33 243.14,183.40 243.14,195.46 243.14,207.53 243.14,219.60 243.14,231.66 243.14,243.73 243.14,255.79 243.14,267.86 243.14,279.92 243.14,291.99 243.14,304.06 243.14,316.12 243.14,328.19 243.14,340.25 243.14,352.32 243.14,364.38" fill="none" stroke="#fb923c" stroke-width="1.0" opacity="0.55"/><polyline points="295.42,54.40 295.42,66.47 295.42,78.54 295.42,90.60 295.42,102.67 295.42,114.73 295.42,126.80 295.42,138.86 295.42,150.93 295.42,163.00 295.42,175.06 295.42,187.13 295.42,199.19 295.42,211.26 295.42,223.32 295.42,235.39 295.42,247.46 295.42,259.52 295.42,271.59 295.42,283.65 295.42,295.72 295.42,307.78 295.42,319.85 295.42,331.92 295.42,343.98" fill="none" stroke="#fb923c" stroke-width="1.0" opacity="0.55"/><polyline points="347.71,34.00 347.71,46.07 347.71,58.13 347.71,70.20 347.71,82.26 347.71,94.33 347.71,106.39 347.71,118.46 347.71,130.53 347.71,142.59 347.71,154.66 347.71,166.72 347.71,178.79 347.71,190.85 347.71,202.92 347.71,214.99 347.71,227.05 347.71,239.12 347.71,251.18 347.71,263.25 347.71,275.31 347.71,287.38 347.71,299.45 347.71,311.51 347.71,323.58" fill="none" stroke="#fb923c" stroke-width="1.0" opacity="0.55"/><polyline points="34.00,156.42 47.07,151.32 60.14,146.22 73.21,141.12 86.28,136.02 99.36,130.92 112.43,125.82 125.50,120.72 138.57,115.62 151.64,110.51 164.71,105.41 177.78,100.31 190.85,95.21 203.93,90.11 217.00,85.01 230.07,79.91 243.14,74.81 256.21,69.71 269.28,64.61 282.35,59.50 295.42,54.40 308.50,49.30 321.57,44.20 334.64,39.10 347.71,34.00" fill="none" stroke="#fb923c" stroke-width="1.0" opacity="0.55"/><polyline points="34.00,204.69 47.07,199.58 60.14,194.48 73.21,189.38 86.28,184.28 99.36,179.18 112.43,174.08 125.50,168.98 138.57,163.88 151.64,158.78 164.71,153.68 177.78,148.58 190.85,143.47 203.93,138.37 217.00,133.27 230.07,128.17 243.14,123.07 256.21,117.97 269.28,112.87 282.35,107.77 295.42,102.67 308.50,97.57 321.57,92.46 334.64,87.36 347.71,82.26" fill="none" stroke="#fb923c" stroke-width="1.0" opacity="0.55"/><polyline points="34.00,252.95 47.07,247.85 60.14,242.75 73.21,237.65 86.28,232.54 99.36,227.44 112.43,222.34 125.50,217.24 138.57,212.14 151.64,207.04 164.71,201.94 177.78,196.84 190.85,191.74 203.93,186.64 217.00,181.54 230.07,176.43 243.14,171.33 256.21,166.23 269.28,161.13 282.35,156.03 295.42,150.93 308.50,145.83 321.57,140.73 334.64,135.63 347.71,130.53" fill="none" stroke="#fb923c" stroke-width="1.0" opacity="0.55"/><polyline points="34.00,301.21 47.07,296.11 60.14,291.01 73.21,285.91 86.28,280.81 99.36,275.71 112.43,270.61 125.50,265.50 138.57,260.40 151.64,255.30 164.71,250.20 177.78,245.10 190.85,240.00 203.93,234.90 217.00,229.80 230.07,224.70 243.14,219.60 256.21,214.50 269.28,209.39 282.35,204.29 295.42,199.19 308.50,194.09 321.57,188.99 334.64,183.89 347.71,178.79" fill="none" stroke="#fb923c" stroke-width="1.0" opacity="0.55"/><polyline points="34.00,349.47 47.07,344.37 60.14,339.27 73.21,334.17 86.28,329.07 99.36,323.97 112.43,318.87 125.50,313.77 138.57,308.67 151.64,303.57 164.71,298.46 177.78,293.36 190.85,288.26 203.93,283.16 217.00,278.06 230.07,272.96 243.14,267.86 256.21,262.76 269.28,257.66 282.35,252.56 295.42,247.46 308.50,242.35 321.57,237.25 334.64,232.15 347.71,227.05" fill="none" stroke="#fb923c" stroke-width="1.0" opacity="0.55"/><polyline points="34.00,397.74 47.07,392.64 60.14,387.54 73.21,382.43 86.28,377.33 99.36,372.23 112.43,367.13 125.50,362.03 138.57,356.93 151.64,351.83 164.71,346.73 177.78,341.63 190.85,336.53 203.93,331.42 217.00,326.32 230.07,321.22 243.14,316.12 256.21,311.02 269.28,305.92 282.35,300.82 295.42,295.72 308.50,290.62 321.57,285.52 334.64,280.42 347.71,275.31" fill="none" stroke="#fb923c" stroke-width="1.0" opacity="0.55"/><polyline points="34.00,446.00 47.07,440.90 60.14,435.80 73.21,430.70 86.28,425.60 99.36,420.50 112.43,415.39 125.50,410.29 138.57,405.19 151.64,400.09 164.71,394.99 177.78,389.89 190.85,384.79 203.93,379.69 217.00,374.59 230.07,369.49 243.14,364.38 256.21,359.28 269.28,354.18 282.35,349.08 295.42,343.98 308.50,338.88 321.57,333.78 334.64,328.68 347.71,323.58" fill="none" stroke="#fb923c" stroke-width="1.0" opacity="0.55"/><polyline points="70.20,166.43 70.20,172.46 70.20,178.49 70.20,184.53 70.20,190.56 70.20,196.59 70.20,202.63 70.20,208.66 70.20,214.69 70.20,220.72 70.20,226.76 70.20,232.79 70.20,238.82 70.20,244.86 70.20,250.89 70.20,256.92 70.20,262.95 70.20,268.99 70.20,275.02 70.20,281.05 70.20,287.09 70.20,293.12 70.20,299.15 70.20,305.18 70.20,311.22 70.20,317.25 70.20,323.28 70.20,329.32 70.20,335.35 70.20,341.38 70.20,347.41 70.20,353.45 70.20,359.48 70.20,365.51 70.20,371.55 70.20,377.58 70.20,383.61 70.20,389.64 70.20,395.68 70.20,401.71 70.20,407.74" fill="none" stroke="#facc15" stroke-width="2.8" opacity="1.0"/><polyline points="311.51,72.26 311.51,78.29 311.51,84.32 311.51,90.36 311.51,96.39 311.51,102.42 311.51,108.45 311.51,114.49 311.51,120.52 311.51,126.55 311.51,132.59 311.51,138.62 311.51,144.65 311.51,150.68 311.51,156.72 311.51,162.75 311.51,168.78 311.51,174.82 311.51,180.85 311.51,186.88 311.51,192.91 311.51,198.95 311.51,204.98 311.51,211.01 311.51,217.05 311.51,223.08 311.51,229.11 311.51,235.14 311.51,241.18 311.51,247.21 311.51,253.24 311.51,259.28 311.51,265.31 311.51,271.34 311.51,277.37 311.51,283.41 311.51,289.44 311.51,295.47 311.51,301.51 311.51,307.54 311.51,313.57" fill="none" stroke="#facc15" stroke-width="2.8" opacity="1.0"/><polyline points="311.51,72.26 311.51,76.90 311.51,83.57 311.51,90.24 311.51,100.25 311.51,110.25 311.51,123.59 311.51,136.93 311.51,150.28 311.51,163.62 311.51,176.96 311.51,190.30 311.51,203.64 311.51,216.98 311.51,230.33 311.51,243.67 311.51,257.01 311.51,270.35 311.51,283.69 311.51,297.03 311.51,310.37 311.51,313.57" fill="none" stroke="#f472b6" stroke-width="2.8" opacity="1.0"/><polyline points="70.20,166.43 70.20,171.07 70.20,177.74 70.20,184.41 70.20,194.42 70.20,204.42 70.20,217.76 70.20,231.11 70.20,244.45 70.20,257.79 70.20,271.13 70.20,284.47 70.20,297.81 70.20,311.16 70.20,324.50 70.20,337.84 70.20,351.18 70.20,364.52 70.20,377.86 70.20,391.20 70.20,404.55 70.20,407.74" fill="none" stroke="#f472b6" stroke-width="2.8" opacity="1.0"/><polyline points="311.51,72.26 311.51,76.03 311.51,79.80 311.51,83.57 311.51,87.34 311.51,91.11 311.51,94.88 311.51,98.65 311.51,102.42 311.51,106.19 311.51,109.96 311.51,113.73 311.51,117.50 311.51,121.27 311.51,125.04 311.51,128.82 311.51,132.59 311.51,136.36 311.51,140.13 311.51,143.90 311.51,147.67 311.51,151.44 311.51,155.21 311.51,158.98 311.51,162.75 311.51,166.52 311.51,170.29 311.51,174.06 311.51,177.83 311.51,181.60 311.51,185.37 311.51,189.14 311.51,192.91 311.51,196.68 311.51,200.46 311.51,204.23 311.51,208.00 311.51,211.77 311.51,215.54 311.51,219.31 311.51,223.08 311.51,226.85 311.51,230.62 311.51,234.39 311.51,238.16 311.51,241.93 311.51,245.70 311.51,249.47 311.51,253.24 311.51,257.01 311.51,260.78 311.51,264.55 311.51,268.32 311.51,272.10 311.51,275.87 311.51,279.64 311.51,283.41 311.51,287.18 311.51,290.95 311.51,294.72 311.51,298.49 311.51,302.26 311.51,306.03 311.51,309.80 311.51,313.57" fill="none" stroke="#34d399" stroke-width="2.8" opacity="1.0"/><polyline points="70.20,166.43 70.20,170.20 70.20,173.97 70.20,177.74 70.20,181.51 70.20,185.28 70.20,189.05 70.20,192.82 70.20,196.59 70.20,200.36 70.20,204.13 70.20,207.90 70.20,211.68 70.20,215.45 70.20,219.22 70.20,222.99 70.20,226.76 70.20,230.53 70.20,234.30 70.20,238.07 70.20,241.84 70.20,245.61 70.20,249.38 70.20,253.15 70.20,256.92 70.20,260.69 70.20,264.46 70.20,268.23 70.20,272.00 70.20,275.77 70.20,279.54 70.20,283.32 70.20,287.09 70.20,290.86 70.20,294.63 70.20,298.40 70.20,302.17 70.20,305.94 70.20,309.71 70.20,313.48 70.20,317.25 70.20,321.02 70.20,324.79 70.20,328.56 70.20,332.33 70.20,336.10 70.20,339.87 70.20,343.64 70.20,347.41 70.20,351.18 70.20,354.96 70.20,358.73 70.20,362.50 70.20,366.27 70.20,370.04 70.20,373.81 70.20,377.58 70.20,381.35 70.20,385.12 70.20,388.89 70.20,392.66 70.20,396.43 70.20,400.20 70.20,403.97 70.20,407.74" fill="none" stroke="#34d399" stroke-width="2.8" opacity="1.0"/>
</svg>
