<svg xmlns="http://www.w3.org/2000/svg" width="760" height="480" viewBox="0 0 760 480">
<rect width="100%" height="100%" fill="#0f172a"/>
<text x="18" y="24" font-family="sans-serif" font-size="15" fill="#f8fafc">Intersecting planes with disjoint patches</text>
<text x="18" y="44" font-family="sans-serif" font-size="12" fill="#94a3b8">Expected empty</text>
<polyline points="207.96,446.00 200.71,440.15 193.46,434.30 186.21,428.45 178.96,422.60 171.71,416.75 164.47,410.90 157.22,405.05 149.97,399.20 142.72,393.36 135.47,387.51 128.23,381.66 120.98,375.81 113.73,369.96 106.48,364.11 99.23,358.26 91.99,352.41 84.74,346.56 77.49,340.71 70.24,334.86 62.99,329.01 55.74,323.16 48.50,317.31 41.25,311.46 34.00,305.61" fill="none" stroke="#60a5fa" stroke-width="1.0" opacity="0.55"/><polyline points="249.66,429.72 242.42,423.87 235.17,418.02 227.92,412.18 220.67,406.33 213.42,400.48 206.18,394.63 198.93,388.78 191.68,382.93 184.43,377.08 177.18,371.23 169.93,365.38 162.69,359.53 155.44,353.68 148.19,347.83 140.94,341.98 133.69,336.13 126.45,330.28 119.20,324.43 111.95,318.59 104.70,312.74 97.45,306.89 90.20,301.04 82.96,295.19 75.71,289.34" fill="none" stroke="#60a5fa" stroke-width="1.0" opacity="0.55"/><polyline points="291.37,413.45 284.12,407.60 276.88,401.75 269.63,395.90 262.38,390.05 255.13,384.20 247.88,378.35 240.64,372.50 233.39,366.65 226.14,360.80 218.89,354.95 211.64,349.10 204.40,343.25 197.15,337.40 189.90,331.56 182.65,325.71 175.40,319.86 168.15,314.01 160.91,308.16 153.66,302.31 146.41,296.46 139.16,290.61 131.91,284.76 124.67,278.91 117.42,273.06" fill="none" stroke="#60a5fa" stroke-width="1.0" opacity="0.55"/><polyline points="333.08,397.17 325.83,391.32 318.59,385.47 311.34,379.62 304.09,373.77 296.84,367.92 289.59,362.07 282.34,356.22 275.10,350.38 267.85,344.53 260.60,338.68 253.35,332.83 246.10,326.98 238.86,321.13 231.61,315.28 224.36,309.43 217.11,303.58 209.86,297.73 202.61,291.88 195.37,286.03 188.12,280.18 180.87,274.33 173.62,268.48 166.37,262.63 159.13,256.79" fill="none" stroke="#60a5fa" stroke-width="1.0" opacity="0.55"/><polyline points="374.79,380.89 367.54,375.04 360.29,369.20 353.05,363.35 345.80,357.50 338.55,351.65 331.30,345.80 324.05,339.95 316.80,334.10 309.56,328.25 302.31,322.40 295.06,316.55 287.81,310.70 280.56,304.85 273.32,299.00 266.07,293.15 258.82,287.30 251.57,281.45 244.32,275.60 237.08,269.76 229.83,263.91 222.58,258.06 215.33,252.21 208.08,246.36 200.83,240.51" fill="none" stroke="#60a5fa" stroke-width="1.0" opacity="0.55"/><polyline points="416.50,364.62 409.25,358.77 402.00,352.92 394.75,347.07 387.51,341.22 380.26,335.37 373.01,329.52 365.76,323.67 358.51,317.82 351.27,311.97 344.02,306.12 336.77,300.27 329.52,294.42 322.27,288.58 315.02,282.73 307.78,276.88 300.53,271.03 293.28,265.18 286.03,259.33 278.78,253.48 271.54,247.63 264.29,241.78 257.04,235.93 249.79,230.08 242.54,224.23" fill="none" stroke="#60a5fa" stroke-width="1.0" opacity="0.55"/><polyline points="458.21,348.34 450.96,342.49 443.71,336.64 436.46,330.79 429.21,324.94 421.97,319.09 414.72,313.24 407.47,307.40 400.22,301.55 392.97,295.70 385.73,289.85 378.48,284.00 371.23,278.15 363.98,272.30 356.73,266.45 349.49,260.60 342.24,254.75 334.99,248.90 327.74,243.05 320.49,237.20 313.24,231.35 306.00,225.50 298.75,219.65 291.50,213.80 284.25,207.96" fill="none" stroke="#60a5fa" stroke-width="1.0" opacity="0.55"/><polyline points="207.96,446.00 218.38,441.93 228.81,437.86 239.24,433.79 249.66,429.72 260.09,425.65 270.52,421.59 280.95,417.52 291.37,413.45 301.80,409.38 312.23,405.31 322.65,401.24 333.08,397.17 343.51,393.10 353.94,389.03 364.36,384.96 374.79,380.89 385.22,376.82 395.64,372.76 406.07,368.69 416.50,364.62 426.93,360.55 437.35,356.48 447.78,352.41 458.21,348.34" fill="none" stroke="#60a5fa" stroke-width="1.0" opacity="0.55"/><polyline points="178.96,422.60 189.39,418.53 199.82,414.46 210.24,410.40 220.67,406.33 231.10,402.26 241.53,398.19 251.95,394.12 262.38,390.05 272.81,385.98 283.23,381.91 293.66,377.84 304.09,373.77 314.52,369.70 324.94,365.63 335.37,361.57 345.80,357.50 356.22,353.43 366.65,349.36 377.08,345.29 387.51,341.22 397.93,337.15 408.36,333.08 418.79,329.01 429.21,324.94" fill="none" stroke="#60a5fa" stroke-width="1.0" opacity="0.55"/><polyline points="149.97,399.20 160.40,395.14 170.82,391.07 181.25,387.00 191.68,382.93 202.11,378.86 212.53,374.79 222.96,370.72 233.39,366.65 243.81,362.58 254.24,358.51 264.67,354.44 275.10,350.38 285.52,346.31 295.95,342.24 306.38,338.17 316.80,334.10 327.23,330.03 337.66,325.96 348.09,321.89 358.51,317.82 368.94,313.75 379.37,309.68 389.80,305.61 400.22,301.55" fill="none" stroke="#60a5fa" stroke-width="1.0" opacity="0.55"/><polyline points="120.98,375.81 131.40,371.74 141.83,367.67 152.26,363.60 162.69,359.53 173.11,355.46 183.54,351.39 193.97,347.32 204.40,343.25 214.82,339.19 225.25,335.12 235.68,331.05 246.10,326.98 256.53,322.91 266.96,318.84 277.39,314.77 287.81,310.70 298.24,306.63 308.67,302.56 319.09,298.49 329.52,294.42 339.95,290.36 350.38,286.29 360.80,282.22 371.23,278.15" fill="none" stroke="#60a5fa" stroke-width="1.0" opacity="0.55"/><polyline points="91.99,352.41 102.41,348.34 112.84,344.27 123.27,340.20 133.69,336.13 144.12,332.06 154.55,328.00 164.98,323.93 175.40,319.86 185.83,315.79 196.26,311.72 206.68,307.65 217.11,303.58 227.54,299.51 237.97,295.44 248.39,291.37 258.82,287.30 269.25,283.23 279.67,279.17 290.10,275.10 300.53,271.03 310.96,266.96 321.38,262.89 331.81,258.82 342.24,254.75" fill="none" stroke="#60a5fa" stroke-width="1.0" opacity="0.55"/><polyline points="62.99,329.01 73.42,324.94 83.85,320.87 94.27,316.80 104.70,312.74 115.13,308.67 125.56,304.60 135.98,300.53 146.41,296.46 156.84,292.39 167.26,288.32 177.69,284.25 188.12,280.18 198.55,276.11 208.97,272.04 219.40,267.98 229.83,263.91 240.25,259.84 250.68,255.77 261.11,251.70 271.54,247.63 281.96,243.56 292.39,239.49 302.82,235.42 313.24,231.35" fill="none" stroke="#60a5fa" stroke-width="1.0" opacity="0.55"/><polyline points="34.00,305.61 44.43,301.55 54.85,297.48 65.28,293.41 75.71,289.34 86.14,285.27 96.56,281.20 106.99,277.13 117.42,273.06 127.84,268.99 138.27,264.92 148.70,260.85 159.13,256.79 169.55,252.72 179.98,248.65 190.41,244.58 200.83,240.51 211.26,236.44 221.69,232.37 232.12,228.30 242.54,224.23 252.97,220.16 263.40,216.09 273.82,212.02 284.25,207.96" fill="none" stroke="#60a5fa" stroke-width="1.0" opacity="0.55"/><polyline points="583.33,174.39 583.33,184.81 583.33,195.24 583.33,205.67 583.33,216.09 583.33,226.52 583.33,236.95 583.33,247.38 583.33,257.80 583.33,268.23 583.33,278.66 583.33,289.08 583.33,299.51 583.33,309.94 583.33,320.37 583.33,330.79 583.33,341.22 583.33,351.65 583.33,362.07 583.33,372.50 583.33,382.93 583.33,393.36 583.33,403.78 583.33,414.21 583.33,424.64" fill="none" stroke="#fb923c" stroke-width="1.0" opacity="0.55"/><polyline points="554.34,150.99 554.34,161.41 554.34,171.84 554.34,182.27 554.34,192.70 554.34,203.12 554.34,213.55 554.34,223.98 554.34,234.40 554.34,244.83 554.34,255.26 554.34,265.69 554.34,276.11 554.34,286.54 554.34,296.97 554.34,307.40 554.34,317.82 554.34,328.25 554.34,338.68 554.34,349.10 554.34,359.53 554.34,369.96 554.34,380.39 554.34,390.81 554.34,401.24" fill="none" stroke="#fb923c" stroke-width="1.0" opacity="0.55"/><polyline points="525.35,127.59 525.35,138.02 525.35,148.44 525.35,158.87 525.35,169.30 525.35,179.73 525.35,190.15 525.35,200.58 525.35,211.01 525.35,221.43 525.35,231.86 525.35,242.29 525.35,252.72 525.35,263.14 525.35,273.57 525.35,284.00 525.35,294.42 525.35,304.85 525.35,315.28 525.35,325.71 525.35,336.13 525.35,346.56 525.35,356.99 525.35,367.41 525.35,377.84" fill="none" stroke="#fb923c" stroke-width="1.0" opacity="0.55"/><polyline points="496.36,104.19 496.36,114.62 496.36,125.05 496.36,135.47 496.36,145.90 496.36,156.33 496.36,166.76 496.36,177.18 496.36,187.61 496.36,198.04 496.36,208.46 496.36,218.89 496.36,229.32 496.36,239.75 496.36,250.17 496.36,260.60 496.36,271.03 496.36,281.45 496.36,291.88 496.36,302.31 496.36,312.74 496.36,323.16 496.36,333.59 496.36,344.02 496.36,354.44" fill="none" stroke="#fb923c" stroke-width="1.0" opacity="0.55"/><polyline points="467.36,80.80 467.36,91.22 467.36,101.65 467.36,112.08 467.36,122.50 467.36,132.93 467.36,143.36 467.36,153.79 467.36,164.21 467.36,174.64 467.36,185.07 467.36,195.49 467.36,205.92 467.36,216.35 467.36,226.78 467.36,237.20 467.36,247.63 467.36,258.06 467.36,268.48 467.36,278.91 467.36,289.34 467.36,299.77 467.36,310.19 467.36,320.62 467.36,331.05" fill="none" stroke="#fb923c" stroke-width="1.0" opacity="0.55"/><polyline points="438.37,57.40 438.37,67.82 438.37,78.25 438.37,88.68 438.37,99.11 438.37,109.53 438.37,119.96 438.37,130.39 438.37,140.81 438.37,151.24 438.37,161.67 438.37,172.10 438.37,182.52 438.37,192.95 438.37,203.38 438.37,213.80 438.37,224.23 438.37,234.66 438.37,245.09 438.37,255.51 438.37,265.94 438.37,276.37 438.37,286.80 438.37,297.22 438.37,307.65" fill="none" stroke="#fb923c" stroke-width="1.0" opacity="0.55"/><polyline points="409.38,34.00 409.38,44.43 409.38,54.85 409.38,65.28 409.38,75.71 409.38,86.14 409.38,96.56 409.38,106.99 409.38,117.42 409.38,127.84 409.38,138.27 409.38,148.70 409.38,159.13 409.38,169.55 409.38,179.98 409.38,190.41 409.38,200.83 409.38,211.26 409.38,221.69 409.38,232.12 409.38,242.54 409.38,252.97 409.38,263.40 409.38,273.82 409.38,284.25" fill="none" stroke="#fb923c" stroke-width="1.0" opacity="0.55"/><polyline points="583.33,174.39 576.09,168.54 568.84,162.69 561.59,156.84 554.34,150.99 547.09,145.14 539.84,139.29 532.60,133.44 525.35,127.59 518.10,121.74 510.85,115.89 503.60,110.04 496.36,104.19 489.11,98.34 481.86,92.49 474.61,86.64 467.36,80.80 460.11,74.95 452.87,69.10 445.62,63.25 438.37,57.40 431.12,51.55 423.87,45.70 416.63,39.85 409.38,34.00" fill="none" stroke="#fb923c" stroke-width="1.0" opacity="0.55"/><polyline points="583.33,216.09 576.09,210.24 568.84,204.40 561.59,198.55 554.34,192.70 547.09,186.85 539.84,181.00 532.60,175.15 525.35,169.30 518.10,163.45 510.85,157.60 503.60,151.75 496.36,145.90 489.11,140.05 481.86,134.20 474.61,128.35 467.36,122.50 460.11,116.65 452.87,110.80 445.62,104.96 438.37,99.11 431.12,93.26 423.87,87.41 416.63,81.56 409.38,75.71" fill="none" stroke="#fb923c" stroke-width="1.0" opacity="0.55"/><polyline points="583.33,257.80 576.09,251.95 568.84,246.10 561.59,240.25 554.34,234.40 547.09,228.56 539.84,222.71 532.60,216.86 525.35,211.01 518.10,205.16 510.85,199.31 503.60,193.46 496.36,187.61 489.11,181.76 481.86,175.91 474.61,170.06 467.36,164.21 460.11,158.36 452.87,152.51 445.62,146.66 438.37,140.81 431.12,134.97 423.87,129.12 416.63,123.27 409.38,117.42" fill="none" stroke="#fb923c" stroke-width="1.0" opacity="0.55"/><polyline points="583.33,299.51 576.09,293.66 568.84,287.81 561.59,281.96 554.34,276.11 547.09,270.26 539.84,264.41 532.60,258.57 525.35,252.72 518.10,246.87 510.85,241.02 503.60,235.17 496.36,229.32 489.11,223.47 481.86,217.62 474.61,211.77 467.36,205.92 460.11,200.07 452.87,194.22 445.62,188.37 438.37,182.52 431.12,176.67 423.87,170.82 416.63,164.98 409.38,159.13" fill="none" stroke="#fb923c" stroke-width="1.0" opacity="0.55"/><polyline points="583.33,341.22 576.09,335.37 568.84,329.52 561.59,323.67 554.34,317.82 547.09,311.97 539.84,306.12 532.60,300.27 525.35,294.42 518.10,288.58 510.85,282.73 503.60,276.88 496.36,271.03 489.11,265.18 481.86,259.33 474.61,253.48 467.36,247.63 460.11,241.78 452.87,235.93 445.62,230.08 438.37,224.23 431.12,218.38 423.87,212.53 416.63,206.68 409.38,200.83" fill="none" stroke="#fb923c" stroke-width="1.0" opacity="0.55"/><polyline points="583.33,382.93 576.09,377.08 568.84,371.23 561.59,365.38 554.34,359.53 547.09,353.68 539.84,347.83 532.60,341.98 525.35,336.13 518.10,330.28 510.85,324.43 503.60,318.59 496.36,312.74 489.11,306.89 481.86,301.04 474.61,295.19 467.36,289.34 460.11,283.49 452.87,277.64 445.62,271.79 438.37,265.94 431.12,260.09 423.87,254.24 416.63,248.39 409.38,242.54" fill="none" stroke="#fb923c" stroke-width="1.0" opacity="0.55"/><polyline points="583.33,424.64 576.09,418.79 568.84,412.94 561.59,407.09 554.34,401.24 547.09,395.39 539.84,389.54 532.60,383.69 525.35,377.84 518.10,371.99 510.85,366.14 503.60,360.29 496.36,354.44 489.11,348.60 481.86,342.75 474.61,336.90 467.36,331.05 460.11,325.20 452.87,319.35 445.62,313.50 438.37,307.65 431.12,301.80 423.87,295.95 416.63,290.10 409.38,284.25" fill="none" stroke="#fb923c" stroke-width="1.0" opacity="0.55"/>
</svg>
