<svg xmlns="http://www.w3.org/2000/svg" width="760" height="480" viewBox="0 0 760 480">
<rect width="100%" height="100%" fill="#0f172a"/>
<text x="18" y="24" font-family="sans-serif" font-size="15" fill="#f8fafc">Free-form transverse branch</text>
<text x="18" y="44" font-family="sans-serif" font-size="12" fill="#94a3b8">Expected complete</text>
<polyline points="317.77,446.00 305.95,434.76 294.12,423.51 282.30,412.27 270.47,401.03 258.65,389.79 246.83,378.54 235.00,367.30 223.18,356.06 211.36,344.81 199.53,333.57 187.71,322.33 175.88,311.08 164.06,299.84 152.24,288.60 140.41,277.36 128.59,266.11 116.77,254.87 104.94,243.63 93.12,232.38 81.29,221.14 69.47,209.90 57.65,198.66 45.82,187.41 34.00,176.17" fill="none" stroke="#60a5fa" stroke-width="1.0" opacity="0.55"/><polyline points="385.81,412.64 373.98,401.97 362.16,391.29 350.34,380.62 338.51,369.94 326.69,359.26 314.87,348.59 303.04,337.91 291.22,327.24 279.39,316.56 267.57,305.89 255.75,295.21 243.92,284.53 232.10,273.86 220.28,263.18 208.45,252.51 196.63,241.83 184.80,231.15 172.98,220.48 161.16,209.80 149.33,199.13 137.51,188.45 125.69,177.77 113.86,167.10 102.04,156.42" fill="none" stroke="#60a5fa" stroke-width="1.0" opacity="0.55"/><polyline points="453.85,379.29 442.02,369.18 430.20,359.07 418.38,348.96 406.55,338.85 394.73,328.74 382.90,318.64 371.08,308.53 359.26,298.42 347.43,288.31 335.61,278.20 323.79,268.09 311.96,257.98 300.14,247.87 288.31,237.76 276.49,227.65 264.67,217.55 252.84,207.44 241.02,197.33 229.20,187.22 217.37,177.11 205.55,167.00 193.72,156.89 181.90,146.78 170.08,136.67" fill="none" stroke="#60a5fa" stroke-width="1.0" opacity="0.55"/><polyline points="521.88,345.93 510.06,336.39 498.24,326.85 486.41,317.31 474.59,307.77 462.77,298.22 450.94,288.68 439.12,279.14 427.29,269.60 415.47,260.06 403.65,250.51 391.82,240.97 380.00,231.43 368.18,221.89 356.35,212.35 344.53,202.80 332.71,193.26 320.88,183.72 309.06,174.18 297.23,164.64 285.41,155.09 273.59,145.55 261.76,136.01 249.94,126.47 238.12,116.93" fill="none" stroke="#60a5fa" stroke-width="1.0" opacity="0.55"/><polyline points="589.92,312.58 578.10,303.60 566.28,294.63 554.45,285.65 542.63,276.68 530.80,267.70 518.98,258.73 507.16,249.75 495.33,240.78 483.51,231.80 471.69,222.83 459.86,213.85 448.04,204.88 436.21,195.90 424.39,186.93 412.57,177.95 400.74,168.98 388.92,160.00 377.10,151.03 365.27,142.05 353.45,133.08 341.62,124.10 329.80,115.13 317.98,106.15 306.15,97.18" fill="none" stroke="#60a5fa" stroke-width="1.0" opacity="0.55"/><polyline points="657.96,279.22 646.14,270.82 634.31,262.41 622.49,254.00 610.67,245.59 598.84,237.18 587.02,228.78 575.20,220.37 563.37,211.96 551.55,203.55 539.72,195.14 527.90,186.74 516.08,178.33 504.25,169.92 492.43,161.51 480.61,153.10 468.78,144.70 456.96,136.29 445.13,127.88 433.31,119.47 421.49,111.06 409.66,102.66 397.84,94.25 386.02,85.84 374.19,77.43" fill="none" stroke="#60a5fa" stroke-width="1.0" opacity="0.55"/><polyline points="726.00,245.87 714.18,238.03 702.35,230.19 690.53,222.34 678.71,214.50 666.88,206.66 655.06,198.82 643.23,190.98 631.41,183.14 619.59,175.30 607.76,167.46 595.94,159.62 584.12,151.78 572.29,143.93 560.47,136.09 548.64,128.25 536.82,120.41 525.00,112.57 513.17,104.73 501.35,96.89 489.53,89.05 477.70,81.21 465.88,73.37 454.05,65.52 442.23,57.68" fill="none" stroke="#60a5fa" stroke-width="1.0" opacity="0.55"/><polyline points="317.77,446.00 334.78,437.66 351.79,429.32 368.80,420.98 385.81,412.64 402.82,404.31 419.83,395.97 436.84,387.63 453.85,379.29 470.86,370.95 487.87,362.61 504.88,354.27 521.88,345.93 538.89,337.59 555.90,329.26 572.91,320.92 589.92,312.58 606.93,304.24 623.94,295.90 640.95,287.56 657.96,279.22 674.97,270.88 691.98,262.55 708.99,254.21 726.00,245.87" fill="none" stroke="#60a5fa" stroke-width="1.0" opacity="0.55"/><polyline points="270.47,401.03 287.48,393.26 304.49,385.48 321.50,377.71 338.51,369.94 355.52,362.17 372.53,354.40 389.54,346.63 406.55,338.85 423.56,331.08 440.57,323.31 457.58,315.54 474.59,307.77 491.60,299.99 508.61,292.22 525.62,284.45 542.63,276.68 559.64,268.91 576.65,261.13 593.66,253.36 610.67,245.59 627.68,237.82 644.69,230.05 661.70,222.28 678.71,214.50" fill="none" stroke="#60a5fa" stroke-width="1.0" opacity="0.55"/><polyline points="223.18,356.06 240.19,348.85 257.20,341.65 274.21,334.44 291.22,327.24 308.23,320.03 325.24,312.83 342.25,305.62 359.26,298.42 376.27,291.21 393.28,284.01 410.29,276.80 427.29,269.60 444.30,262.39 461.31,255.19 478.32,247.98 495.33,240.78 512.34,233.57 529.35,226.37 546.36,219.16 563.37,211.96 580.38,204.75 597.39,197.55 614.40,190.34 631.41,183.14" fill="none" stroke="#60a5fa" stroke-width="1.0" opacity="0.55"/><polyline points="175.88,311.08 192.89,304.45 209.90,297.81 226.91,291.17 243.92,284.53 260.93,277.90 277.94,271.26 294.95,264.62 311.96,257.98 328.97,251.34 345.98,244.71 362.99,238.07 380.00,231.43 397.01,224.79 414.02,218.15 431.03,211.52 448.04,204.88 465.05,198.24 482.06,191.60 499.07,184.96 516.08,178.33 533.09,171.69 550.10,165.05 567.11,158.41 584.12,151.78" fill="none" stroke="#60a5fa" stroke-width="1.0" opacity="0.55"/><polyline points="128.59,266.11 145.60,260.04 162.61,253.97 179.62,247.90 196.63,241.83 213.64,235.76 230.65,229.69 247.66,223.62 264.67,217.55 281.68,211.48 298.69,205.40 315.70,199.33 332.71,193.26 349.71,187.19 366.72,181.12 383.73,175.05 400.74,168.98 417.75,162.91 434.76,156.84 451.77,150.77 468.78,144.70 485.79,138.62 502.80,132.55 519.81,126.48 536.82,120.41" fill="none" stroke="#60a5fa" stroke-width="1.0" opacity="0.55"/><polyline points="81.29,221.14 98.30,215.64 115.31,210.13 132.32,204.63 149.33,199.13 166.34,193.62 183.35,188.12 200.36,182.61 217.37,177.11 234.38,171.61 251.39,166.10 268.40,160.60 285.41,155.09 302.42,149.59 319.43,144.09 336.44,138.58 353.45,133.08 370.46,127.57 387.47,122.07 404.48,116.57 421.49,111.06 438.50,105.56 455.51,100.06 472.52,94.55 489.53,89.05" fill="none" stroke="#60a5fa" stroke-width="1.0" opacity="0.55"/><polyline points="34.00,176.17 51.01,171.23 68.02,166.30 85.03,161.36 102.04,156.42 119.05,151.49 136.06,146.55 153.07,141.61 170.08,136.67 187.09,131.74 204.10,126.80 221.11,121.86 238.12,116.93 255.12,111.99 272.13,107.05 289.14,102.12 306.15,97.18 323.16,92.24 340.17,87.31 357.18,82.37 374.19,77.43 391.20,72.49 408.21,67.56 425.22,62.62 442.23,57.68" fill="none" stroke="#60a5fa" stroke-width="1.0" opacity="0.55"/><polyline points="317.77,374.56 305.95,363.32 294.12,352.07 282.30,340.83 270.47,329.59 258.65,318.35 246.83,307.10 235.00,295.86 223.18,284.62 211.36,273.37 199.53,262.13 187.71,250.89 175.88,239.64 164.06,228.40 152.24,217.16 140.41,205.92 128.59,194.67 116.77,183.43 104.94,172.19 93.12,160.94 81.29,149.70 69.47,138.46 57.65,127.22 45.82,115.97 34.00,104.73" fill="none" stroke="#fb923c" stroke-width="1.0" opacity="0.55"/><polyline points="385.81,365.02 373.98,354.34 362.16,343.67 350.34,332.99 338.51,322.31 326.69,311.64 314.87,300.96 303.04,290.29 291.22,279.61 279.39,268.93 267.57,258.26 255.75,247.58 243.92,236.91 232.10,226.23 220.28,215.55 208.45,204.88 196.63,194.20 184.80,183.53 172.98,172.85 161.16,162.17 149.33,151.50 137.51,140.82 125.69,130.15 113.86,119.47 102.04,108.80" fill="none" stroke="#fb923c" stroke-width="1.0" opacity="0.55"/><polyline points="453.85,355.48 442.02,345.37 430.20,335.26 418.38,325.15 406.55,315.04 394.73,304.93 382.90,294.82 371.08,284.71 359.26,274.60 347.43,264.50 335.61,254.39 323.79,244.28 311.96,234.17 300.14,224.06 288.31,213.95 276.49,203.84 264.67,193.73 252.84,183.62 241.02,173.51 229.20,163.41 217.37,153.30 205.55,143.19 193.72,133.08 181.90,122.97 170.08,112.86" fill="none" stroke="#fb923c" stroke-width="1.0" opacity="0.55"/><polyline points="521.88,345.93 510.06,336.39 498.24,326.85 486.41,317.31 474.59,307.77 462.77,298.22 450.94,288.68 439.12,279.14 427.29,269.60 415.47,260.06 403.65,250.51 391.82,240.97 380.00,231.43 368.18,221.89 356.35,212.35 344.53,202.80 332.71,193.26 320.88,183.72 309.06,174.18 297.23,164.64 285.41,155.09 273.59,145.55 261.76,136.01 249.94,126.47 238.12,116.93" fill="none" stroke="#fb923c" stroke-width="1.0" opacity="0.55"/><polyline points="589.92,336.39 578.10,327.42 566.28,318.44 554.45,309.47 542.63,300.49 530.80,291.52 518.98,282.54 507.16,273.57 495.33,264.59 483.51,255.62 471.69,246.64 459.86,237.67 448.04,228.69 436.21,219.72 424.39,210.74 412.57,201.77 400.74,192.79 388.92,183.82 377.10,174.84 365.27,165.87 353.45,156.89 341.62,147.92 329.80,138.94 317.98,129.97 306.15,120.99" fill="none" stroke="#fb923c" stroke-width="1.0" opacity="0.55"/><polyline points="657.96,326.85 646.14,318.44 634.31,310.03 622.49,301.63 610.67,293.22 598.84,284.81 587.02,276.40 575.20,267.99 563.37,259.59 551.55,251.18 539.72,242.77 527.90,234.36 516.08,225.95 504.25,217.55 492.43,209.14 480.61,200.73 468.78,192.32 456.96,183.91 445.13,175.51 433.31,167.10 421.49,158.69 409.66,150.28 397.84,141.87 386.02,133.47 374.19,125.06" fill="none" stroke="#fb923c" stroke-width="1.0" opacity="0.55"/><polyline points="726.00,317.31 714.18,309.47 702.35,301.63 690.53,293.78 678.71,285.94 666.88,278.10 655.06,270.26 643.23,262.42 631.41,254.58 619.59,246.74 607.76,238.90 595.94,231.06 584.12,223.22 572.29,215.37 560.47,207.53 548.64,199.69 536.82,191.85 525.00,184.01 513.17,176.17 501.35,168.33 489.53,160.49 477.70,152.65 465.88,144.81 454.05,136.96 442.23,129.12" fill="none" stroke="#fb923c" stroke-width="1.0" opacity="0.55"/><polyline points="317.77,374.56 334.78,372.17 351.79,369.79 368.80,367.40 385.81,365.02 402.82,362.63 419.83,360.25 436.84,357.86 453.85,355.48 470.86,353.09 487.87,350.70 504.88,348.32 521.88,345.93 538.89,343.55 555.90,341.16 572.91,338.78 589.92,336.39 606.93,334.01 623.94,331.62 640.95,329.24 657.96,326.85 674.97,324.46 691.98,322.08 708.99,319.69 726.00,317.31" fill="none" stroke="#fb923c" stroke-width="1.0" opacity="0.55"/><polyline points="270.47,329.59 287.48,327.77 304.49,325.95 321.50,324.13 338.51,322.31 355.52,320.50 372.53,318.68 389.54,316.86 406.55,315.04 423.56,313.22 440.57,311.40 457.58,309.58 474.59,307.77 491.60,305.95 508.61,304.13 525.62,302.31 542.63,300.49 559.64,298.67 576.65,296.85 593.66,295.04 610.67,293.22 627.68,291.40 644.69,289.58 661.70,287.76 678.71,285.94" fill="none" stroke="#fb923c" stroke-width="1.0" opacity="0.55"/><polyline points="223.18,284.62 240.19,283.36 257.20,282.11 274.21,280.86 291.22,279.61 308.23,278.36 325.24,277.11 342.25,275.86 359.26,274.60 376.27,273.35 393.28,272.10 410.29,270.85 427.29,269.60 444.30,268.35 461.31,267.10 478.32,265.84 495.33,264.59 512.34,263.34 529.35,262.09 546.36,260.84 563.37,259.59 580.38,258.33 597.39,257.08 614.40,255.83 631.41,254.58" fill="none" stroke="#fb923c" stroke-width="1.0" opacity="0.55"/><polyline points="175.88,239.64 192.89,238.96 209.90,238.28 226.91,237.59 243.92,236.91 260.93,236.22 277.94,235.54 294.95,234.85 311.96,234.17 328.97,233.48 345.98,232.80 362.99,232.11 380.00,231.43 397.01,230.75 414.02,230.06 431.03,229.38 448.04,228.69 465.05,228.01 482.06,227.32 499.07,226.64 516.08,225.95 533.09,225.27 550.10,224.58 567.11,223.90 584.12,223.22" fill="none" stroke="#fb923c" stroke-width="1.0" opacity="0.55"/><polyline points="128.59,194.67 145.60,194.56 162.61,194.44 179.62,194.32 196.63,194.20 213.64,194.09 230.65,193.97 247.66,193.85 264.67,193.73 281.68,193.61 298.69,193.50 315.70,193.38 332.71,193.26 349.71,193.14 366.72,193.03 383.73,192.91 400.74,192.79 417.75,192.67 434.76,192.56 451.77,192.44 468.78,192.32 485.79,192.20 502.80,192.09 519.81,191.97 536.82,191.85" fill="none" stroke="#fb923c" stroke-width="1.0" opacity="0.55"/><polyline points="81.29,149.70 98.30,150.15 115.31,150.60 132.32,151.05 149.33,151.50 166.34,151.95 183.35,152.40 200.36,152.85 217.37,153.30 234.38,153.75 251.39,154.20 268.40,154.65 285.41,155.09 302.42,155.54 319.43,155.99 336.44,156.44 353.45,156.89 370.46,157.34 387.47,157.79 404.48,158.24 421.49,158.69 438.50,159.14 455.51,159.59 472.52,160.04 489.53,160.49" fill="none" stroke="#fb923c" stroke-width="1.0" opacity="0.55"/><polyline points="34.00,104.73 51.01,105.75 68.02,106.76 85.03,107.78 102.04,108.80 119.05,109.81 136.06,110.83 153.07,111.84 170.08,112.86 187.09,113.88 204.10,114.89 221.11,115.91 238.12,116.93 255.12,117.94 272.13,118.96 289.14,119.98 306.15,120.99 323.16,122.01 340.17,123.03 357.18,124.04 374.19,125.06 391.20,126.07 408.21,127.09 425.22,128.11 442.23,129.12" fill="none" stroke="#fb923c" stroke-width="1.0" opacity="0.55"/><polyline points="521.88,345.93 517.45,342.36 513.02,338.78 508.58,335.20 504.15,331.62 499.72,328.04 495.28,324.46 490.85,320.89 486.41,317.31 481.98,313.73 477.55,310.15 473.11,306.57 468.68,302.99 464.24,299.42 459.81,295.84 455.38,292.26 450.94,288.68 446.51,285.10 442.07,281.53 437.64,277.95 433.21,274.37 428.77,270.79 424.34,267.21 419.91,263.63 415.47,260.06 411.04,256.48 406.60,252.90 402.17,249.32 397.74,245.74 393.30,242.16 388.87,238.59 384.43,235.01 380.00,231.43 375.57,227.85 371.13,224.27 366.70,220.70 362.26,217.12 357.83,213.54 353.40,209.96 348.96,206.38 344.53,202.80 340.09,199.23 335.66,195.65 331.23,192.07 326.79,188.49 322.36,184.91 317.93,181.33 313.49,177.76 309.06,174.18 304.62,170.60 300.19,167.02 295.76,163.44 291.32,159.87 286.89,156.29 282.45,152.71 278.02,149.13 273.59,145.55 269.15,141.97 264.72,138.40 260.28,134.82 255.85,131.24 251.42,127.66 246.98,124.08 242.55,120.50 238.12,116.93" fill="none" stroke="#facc15" stroke-width="2.8" opacity="1.0"/><polyline points="521.88,345.93 517.31,342.24 510.73,336.93 504.15,331.62 497.57,326.31 490.99,321.00 481.12,313.03 471.25,305.07 458.09,294.45 444.93,283.83 431.77,273.21 418.61,262.59 405.45,251.96 392.28,241.34 379.12,230.72 365.96,220.10 352.80,209.48 339.64,198.86 326.48,188.24 313.32,177.62 300.16,167.00 287.00,156.38 273.84,145.76 260.68,135.14 247.52,124.52 238.12,116.93" fill="none" stroke="#f472b6" stroke-width="2.8" opacity="1.0"/><polyline points="521.88,345.93 517.45,342.36 513.02,338.78 508.58,335.20 504.15,331.62 499.72,328.04 495.28,324.46 490.85,320.89 486.41,317.31 481.98,313.73 477.55,310.15 473.11,306.57 468.68,302.99 464.24,299.42 459.81,295.84 455.38,292.26 450.94,288.68 446.51,285.10 442.07,281.53 437.64,277.95 433.21,274.37 428.77,270.79 424.34,267.21 419.91,263.63 415.47,260.06 411.04,256.48 406.60,252.90 402.17,249.32 397.74,245.74 393.30,242.16 388.87,238.59 384.43,235.01 380.00,231.43 375.57,227.85 371.13,224.27 366.70,220.70 362.26,217.12 357.83,213.54 353.40,209.96 348.96,206.38 344.53,202.80 340.09,199.23 335.66,195.65 331.23,192.07 326.79,188.49 322.36,184.91 317.93,181.33 313.49,177.76 309.06,174.18 304.62,170.60 300.19,167.02 295.76,163.44 291.32,159.87 286.89,156.29 282.45,152.71 278.02,149.13 273.59,145.55 269.15,141.97 264.72,138.40 260.28,134.82 255.85,131.24 251.42,127.66 246.98,124.08 242.55,120.50 238.12,116.93" fill="none" stroke="#34d399" stroke-width="2.8" opacity="1.0"/>
</svg>
