<svg xmlns="http://www.w3.org/2000/svg" width="760" height="480" viewBox="0 0 760 480">
<rect width="100%" height="100%" fill="#0f172a"/>
<text x="18" y="24" font-family="sans-serif" font-size="15" fill="#f8fafc">Free-form bowl within tolerance</text>
<text x="18" y="44" font-family="sans-serif" font-size="12" fill="#94a3b8">Expected empty</text>
<polyline points="271.67,359.24 261.77,351.25 251.87,343.25 241.96,335.26 232.06,327.27 222.16,319.28 212.26,311.29 202.35,303.29 192.45,295.30 182.55,287.31 172.64,279.32 162.74,271.33 152.84,263.33 142.93,255.34 133.03,247.35 123.13,239.36 113.22,231.37 103.32,223.37 93.42,215.38 83.52,207.39 73.61,199.40 63.71,191.41 53.81,183.42 43.90,175.42 34.00,167.43" fill="none" stroke="#60a5fa" stroke-width="1.0" opacity="0.55"/><polyline points="328.66,337.00 318.76,329.01 308.85,321.02 298.95,313.02 289.05,305.03 279.15,297.04 269.24,289.05 259.34,281.06 249.44,273.06 239.53,265.07 229.63,257.08 219.73,249.09 209.82,241.10 199.92,233.10 190.02,225.11 180.11,217.12 170.21,209.13 160.31,201.14 150.40,193.14 140.50,185.15 130.60,177.16 120.70,169.17 110.79,161.18 100.89,153.18 90.99,145.19" fill="none" stroke="#60a5fa" stroke-width="1.0" opacity="0.55"/><polyline points="385.65,314.76 375.74,306.77 365.84,298.78 355.94,290.79 346.03,282.79 336.13,274.80 326.23,266.81 316.33,258.82 306.42,250.83 296.52,242.83 286.62,234.84 276.71,226.85 266.81,218.86 256.91,210.87 247.00,202.87 237.10,194.88 227.20,186.89 217.29,178.90 207.39,170.91 197.49,162.91 187.58,154.92 177.68,146.93 167.78,138.94 157.88,130.95 147.97,122.95" fill="none" stroke="#60a5fa" stroke-width="1.0" opacity="0.55"/><polyline points="442.63,292.52 432.73,284.53 422.83,276.54 412.92,268.55 403.02,260.56 393.12,252.56 383.21,244.57 373.31,236.58 363.41,228.59 353.51,220.60 343.60,212.60 333.70,204.61 323.80,196.62 313.89,188.63 303.99,180.64 294.09,172.64 284.18,164.65 274.28,156.66 264.38,148.67 254.47,140.68 244.57,132.68 234.67,124.69 224.76,116.70 214.86,108.71 204.96,100.72" fill="none" stroke="#60a5fa" stroke-width="1.0" opacity="0.55"/><polyline points="499.62,270.28 489.72,262.29 479.81,254.30 469.91,246.31 460.01,238.32 450.10,230.32 440.20,222.33 430.30,214.34 420.39,206.35 410.49,198.36 400.59,190.36 390.69,182.37 380.78,174.38 370.88,166.39 360.98,158.40 351.07,150.40 341.17,142.41 331.27,134.42 321.36,126.43 311.46,118.44 301.56,110.44 291.65,102.45 281.75,94.46 271.85,86.47 261.94,78.48" fill="none" stroke="#60a5fa" stroke-width="1.0" opacity="0.55"/><polyline points="556.61,248.05 546.70,240.05 536.80,232.06 526.90,224.07 516.99,216.08 507.09,208.09 497.19,200.09 487.28,192.10 477.38,184.11 467.48,176.12 457.57,168.13 447.67,160.13 437.77,152.14 427.87,144.15 417.96,136.16 408.06,128.17 398.16,120.17 388.25,112.18 378.35,104.19 368.45,96.20 358.54,88.21 348.64,80.21 338.74,72.22 328.83,64.23 318.93,56.24" fill="none" stroke="#60a5fa" stroke-width="1.0" opacity="0.55"/><polyline points="613.59,225.81 603.69,217.82 593.79,209.82 583.88,201.83 573.98,193.84 564.08,185.85 554.17,177.86 544.27,169.86 534.37,161.87 524.46,153.88 514.56,145.89 504.66,137.90 494.75,129.90 484.85,121.91 474.95,113.92 465.05,105.93 455.14,97.94 445.24,89.94 435.34,81.95 425.43,73.96 415.53,65.97 405.63,57.98 395.72,49.98 385.82,41.99 375.92,34.00" fill="none" stroke="#60a5fa" stroke-width="1.0" opacity="0.55"/><polyline points="271.67,359.24 285.92,353.68 300.17,348.12 314.41,342.56 328.66,337.00 342.91,331.44 357.15,325.88 371.40,320.32 385.65,314.76 399.89,309.20 414.14,303.64 428.39,298.08 442.63,292.52 456.88,286.96 471.13,281.40 485.37,275.84 499.62,270.28 513.87,264.72 528.11,259.17 542.36,253.61 556.61,248.05 570.85,242.49 585.10,236.93 599.35,231.37 613.59,225.81" fill="none" stroke="#60a5fa" stroke-width="1.0" opacity="0.55"/><polyline points="232.06,327.27 246.31,321.71 260.56,316.15 274.80,310.59 289.05,305.03 303.29,299.47 317.54,293.91 331.79,288.35 346.03,282.79 360.28,277.23 374.53,271.67 388.77,266.11 403.02,260.56 417.27,255.00 431.51,249.44 445.76,243.88 460.01,238.32 474.25,232.76 488.50,227.20 502.75,221.64 516.99,216.08 531.24,210.52 545.49,204.96 559.73,199.40 573.98,193.84" fill="none" stroke="#60a5fa" stroke-width="1.0" opacity="0.55"/><polyline points="192.45,295.30 206.70,289.74 220.94,284.18 235.19,278.62 249.44,273.06 263.68,267.50 277.93,261.94 292.18,256.39 306.42,250.83 320.67,245.27 334.92,239.71 349.16,234.15 363.41,228.59 377.65,223.03 391.90,217.47 406.15,211.91 420.39,206.35 434.64,200.79 448.89,195.23 463.13,189.67 477.38,184.11 491.63,178.55 505.87,172.99 520.12,167.43 534.37,161.87" fill="none" stroke="#60a5fa" stroke-width="1.0" opacity="0.55"/><polyline points="152.84,263.33 167.08,257.78 181.33,252.22 195.58,246.66 209.82,241.10 224.07,235.54 238.32,229.98 252.56,224.42 266.81,218.86 281.06,213.30 295.30,207.74 309.55,202.18 323.80,196.62 338.04,191.06 352.29,185.50 366.54,179.94 380.78,174.38 395.03,168.82 409.28,163.26 423.52,157.70 437.77,152.14 452.01,146.58 466.26,141.02 480.51,135.46 494.75,129.90" fill="none" stroke="#60a5fa" stroke-width="1.0" opacity="0.55"/><polyline points="113.22,231.37 127.47,225.81 141.72,220.25 155.96,214.69 170.21,209.13 184.46,203.57 198.70,198.01 212.95,192.45 227.20,186.89 241.44,181.33 255.69,175.77 269.94,170.21 284.18,164.65 298.43,159.09 312.68,153.53 326.92,147.97 341.17,142.41 355.42,136.85 369.66,131.29 383.91,125.73 398.16,120.17 412.40,114.61 426.65,109.06 440.90,103.50 455.14,97.94" fill="none" stroke="#60a5fa" stroke-width="1.0" opacity="0.55"/><polyline points="73.61,199.40 87.86,193.84 102.11,188.28 116.35,182.72 130.60,177.16 144.85,171.60 159.09,166.04 173.34,160.48 187.58,154.92 201.83,149.36 216.08,143.80 230.32,138.24 244.57,132.68 258.82,127.12 273.06,121.56 287.31,116.00 301.56,110.44 315.80,104.89 330.05,99.33 344.30,93.77 358.54,88.21 372.79,82.65 387.04,77.09 401.28,71.53 415.53,65.97" fill="none" stroke="#60a5fa" stroke-width="1.0" opacity="0.55"/><polyline points="34.00,167.43 48.25,161.87 62.49,156.31 76.74,150.75 90.99,145.19 105.23,139.63 119.48,134.07 133.73,128.51 147.97,122.95 162.22,117.39 176.47,111.83 190.71,106.28 204.96,100.72 219.21,95.16 233.45,89.60 247.70,84.04 261.94,78.48 276.19,72.92 290.44,67.36 304.68,61.80 318.93,56.24 333.18,50.68 347.42,45.12 361.67,39.56 375.92,34.00" fill="none" stroke="#60a5fa" stroke-width="1.0" opacity="0.55"/><polyline points="271.67,446.00 261.77,431.18 251.87,416.96 241.96,403.33 232.06,390.29 222.16,377.84 212.26,365.99 202.35,354.74 192.45,344.07 182.55,334.00 172.64,324.53 162.74,315.65 152.84,307.36 142.93,299.66 133.03,292.56 123.13,286.05 113.22,280.14 103.32,274.82 93.42,270.09 83.52,265.96 73.61,262.42 63.71,259.47 53.81,257.12 43.90,255.36 34.00,254.19" fill="none" stroke="#fb923c" stroke-width="1.0" opacity="0.55"/><polyline points="328.66,400.02 318.76,385.20 308.85,370.97 298.95,357.34 289.05,344.31 279.15,331.86 269.24,320.01 259.34,308.75 249.44,298.09 239.53,288.02 229.63,278.55 219.73,269.66 209.82,261.37 199.92,253.68 190.02,246.58 180.11,240.07 170.21,234.15 160.31,228.83 150.40,224.11 140.50,219.97 130.60,216.43 120.70,213.49 110.79,211.13 100.89,209.38 90.99,208.21" fill="none" stroke="#fb923c" stroke-width="1.0" opacity="0.55"/><polyline points="385.65,363.53 375.74,348.71 365.84,334.49 355.94,320.86 346.03,307.82 336.13,295.38 326.23,283.53 316.33,272.27 306.42,261.61 296.52,251.54 286.62,242.06 276.71,233.18 266.81,224.89 256.91,217.19 247.00,210.09 237.10,203.58 227.20,197.67 217.29,192.35 207.39,187.62 197.49,183.49 187.58,179.95 177.68,177.00 167.78,174.65 157.88,172.89 147.97,171.72" fill="none" stroke="#fb923c" stroke-width="1.0" opacity="0.55"/><polyline points="442.63,336.54 432.73,321.73 422.83,307.50 412.92,293.87 403.02,280.83 393.12,268.39 383.21,256.54 373.31,245.28 363.41,234.62 353.51,224.55 343.60,215.07 333.70,206.19 323.80,197.90 313.89,190.21 303.99,183.10 294.09,176.60 284.18,170.68 274.28,165.36 264.38,160.63 254.47,156.50 244.57,152.96 234.67,150.01 224.76,147.66 214.86,145.90 204.96,144.74" fill="none" stroke="#fb923c" stroke-width="1.0" opacity="0.55"/><polyline points="499.62,319.06 489.72,304.24 479.81,290.01 469.91,276.38 460.01,263.34 450.10,250.90 440.20,239.05 430.30,227.79 420.39,217.13 410.49,207.06 400.59,197.58 390.69,188.70 380.78,180.41 370.88,172.72 360.98,165.62 351.07,159.11 341.17,153.19 331.27,147.87 321.36,143.14 311.46,139.01 301.56,135.47 291.65,132.53 281.75,130.17 271.85,128.41 261.94,127.25" fill="none" stroke="#fb923c" stroke-width="1.0" opacity="0.55"/><polyline points="556.61,311.06 546.70,296.24 536.80,282.02 526.90,268.39 516.99,255.35 507.09,242.91 497.19,231.06 487.28,219.80 477.38,209.14 467.48,199.07 457.57,189.59 447.67,180.71 437.77,172.42 427.87,164.72 417.96,157.62 408.06,151.12 398.16,145.20 388.25,139.88 378.35,135.15 368.45,131.02 358.54,127.48 348.64,124.53 338.74,122.18 328.83,120.42 318.93,119.26" fill="none" stroke="#fb923c" stroke-width="1.0" opacity="0.55"/><polyline points="613.59,312.57 603.69,297.75 593.79,283.53 583.88,269.89 573.98,256.86 564.08,244.41 554.17,232.56 544.27,221.31 534.37,210.64 524.46,200.57 514.56,191.10 504.66,182.21 494.75,173.93 484.85,166.23 474.95,159.13 465.05,152.62 455.14,146.71 445.24,141.39 435.34,136.66 425.43,132.53 415.53,128.99 405.63,126.04 395.72,123.69 385.82,121.93 375.92,120.76" fill="none" stroke="#fb923c" stroke-width="1.0" opacity="0.55"/><polyline points="271.67,446.00 285.92,433.61 300.17,421.82 314.41,410.62 328.66,400.02 342.91,390.01 357.15,380.59 371.40,371.76 385.65,363.53 399.89,355.89 414.14,348.85 428.39,342.40 442.63,336.54 456.88,331.28 471.13,326.61 485.37,322.54 499.62,319.06 513.87,316.17 528.11,313.87 542.36,312.17 556.61,311.06 570.85,310.55 585.10,310.63 599.35,311.30 613.59,312.57" fill="none" stroke="#fb923c" stroke-width="1.0" opacity="0.55"/><polyline points="232.06,390.29 246.31,377.90 260.56,366.11 274.80,354.91 289.05,344.31 303.29,334.29 317.54,324.88 331.79,316.05 346.03,307.82 360.28,300.18 374.53,293.14 388.77,286.69 403.02,280.83 417.27,275.57 431.51,270.90 445.76,266.82 460.01,263.34 474.25,260.45 488.50,258.16 502.75,256.46 516.99,255.35 531.24,254.84 545.49,254.92 559.73,255.59 573.98,256.86" fill="none" stroke="#fb923c" stroke-width="1.0" opacity="0.55"/><polyline points="192.45,344.07 206.70,331.69 220.94,319.89 235.19,308.70 249.44,298.09 263.68,288.08 277.93,278.66 292.18,269.84 306.42,261.61 320.67,253.97 334.92,246.92 349.16,240.47 363.41,234.62 377.65,229.36 391.90,224.69 406.15,220.61 420.39,217.13 434.64,214.24 448.89,211.95 463.13,210.24 477.38,209.14 491.63,208.62 505.87,208.70 520.12,209.38 534.37,210.64" fill="none" stroke="#fb923c" stroke-width="1.0" opacity="0.55"/><polyline points="152.84,307.36 167.08,294.97 181.33,283.18 195.58,271.98 209.82,261.37 224.07,251.36 238.32,241.94 252.56,233.12 266.81,224.89 281.06,217.25 295.30,210.21 309.55,203.76 323.80,197.90 338.04,192.64 352.29,187.97 366.54,183.89 380.78,180.41 395.03,177.52 409.28,175.23 423.52,173.53 437.77,172.42 452.01,171.91 466.26,171.99 480.51,172.66 494.75,173.93" fill="none" stroke="#fb923c" stroke-width="1.0" opacity="0.55"/><polyline points="113.22,280.14 127.47,267.75 141.72,255.96 155.96,244.76 170.21,234.15 184.46,224.14 198.70,214.73 212.95,205.90 227.20,197.67 241.44,190.03 255.69,182.99 269.94,176.54 284.18,170.68 298.43,165.42 312.68,160.75 326.92,156.67 341.17,153.19 355.42,150.30 369.66,148.01 383.91,146.31 398.16,145.20 412.40,144.69 426.65,144.77 440.90,145.44 455.14,146.71" fill="none" stroke="#fb923c" stroke-width="1.0" opacity="0.55"/><polyline points="73.61,262.42 87.86,250.03 102.11,238.24 116.35,227.04 130.60,216.43 144.85,206.42 159.09,197.00 173.34,188.18 187.58,179.95 201.83,172.31 216.08,165.27 230.32,158.82 244.57,152.96 258.82,147.70 273.06,143.03 287.31,138.95 301.56,135.47 315.80,132.58 330.05,130.29 344.30,128.59 358.54,127.48 372.79,126.97 387.04,127.05 401.28,127.72 415.53,128.99" fill="none" stroke="#fb923c" stroke-width="1.0" opacity="0.55"/><polyline points="34.00,254.19 48.25,241.81 62.49,230.01 76.74,218.82 90.99,208.21 105.23,198.20 119.48,188.78 133.73,179.96 147.97,171.72 162.22,164.09 176.47,157.04 190.71,150.59 204.96,144.74 219.21,139.47 233.45,134.81 247.70,130.73 261.94,127.25 276.19,124.36 290.44,122.06 304.68,120.36 318.93,119.26 333.18,118.74 347.42,118.82 361.67,119.49 375.92,120.76" fill="none" stroke="#fb923c" stroke-width="1.0" opacity="0.55"/>
</svg>
