<svg xmlns="http://www.w3.org/2000/svg" width="760" height="480" viewBox="0 0 760 480">
<rect width="100%" height="100%" fill="#0f172a"/>
<text x="18" y="24" font-family="sans-serif" font-size="15" fill="#f8fafc">Free-form bowl outside tolerance</text>
<text x="18" y="44" font-family="sans-serif" font-size="12" fill="#94a3b8">Expected empty</text>
<polyline points="271.18,358.57 261.30,350.59 251.42,342.61 241.53,334.64 231.65,326.66 221.77,318.69 211.89,310.71 202.00,302.74 192.12,294.76 182.24,286.79 172.36,278.81 162.47,270.84 152.59,262.86 142.71,254.88 132.83,246.91 122.94,238.93 113.06,230.96 103.18,222.98 93.30,215.01 83.41,207.03 73.53,199.06 63.65,191.08 53.77,183.11 43.88,175.13 34.00,167.15" fill="none" stroke="#60a5fa" stroke-width="1.0" opacity="0.55"/><polyline points="328.05,336.37 318.17,328.40 308.29,320.42 298.40,312.45 288.52,304.47 278.64,296.50 268.75,288.52 258.87,280.54 248.99,272.57 239.11,264.59 229.22,256.62 219.34,248.64 209.46,240.67 199.58,232.69 189.69,224.72 179.81,216.74 169.93,208.77 160.05,200.79 150.16,192.81 140.28,184.84 130.40,176.86 120.52,168.89 110.63,160.91 100.75,152.94 90.87,144.96" fill="none" stroke="#60a5fa" stroke-width="1.0" opacity="0.55"/><polyline points="384.92,314.18 375.04,306.20 365.15,298.23 355.27,290.25 345.39,282.28 335.51,274.30 325.62,266.33 315.74,258.35 305.86,250.38 295.98,242.40 286.09,234.43 276.21,226.45 266.33,218.48 256.44,210.50 246.56,202.52 236.68,194.55 226.80,186.57 216.91,178.60 207.03,170.62 197.15,162.65 187.27,154.67 177.38,146.70 167.50,138.72 157.62,130.75 147.74,122.77" fill="none" stroke="#60a5fa" stroke-width="1.0" opacity="0.55"/><polyline points="441.79,291.99 431.90,284.01 422.02,276.04 412.14,268.06 402.26,260.09 392.37,252.11 382.49,244.14 372.61,236.16 362.73,228.18 352.84,220.21 342.96,212.23 333.08,204.26 323.20,196.28 313.31,188.31 303.43,180.33 293.55,172.36 283.67,164.38 273.78,156.41 263.90,148.43 254.02,140.45 244.14,132.48 234.25,124.50 224.37,116.53 214.49,108.55 204.60,100.58" fill="none" stroke="#60a5fa" stroke-width="1.0" opacity="0.55"/><polyline points="498.66,269.80 488.77,261.82 478.89,253.84 469.01,245.87 459.12,237.89 449.24,229.92 439.36,221.94 429.48,213.97 419.59,205.99 409.71,198.02 399.83,190.04 389.95,182.07 380.06,174.09 370.18,166.11 360.30,158.14 350.42,150.16 340.53,142.19 330.65,134.21 320.77,126.24 310.89,118.26 301.00,110.29 291.12,102.31 281.24,94.34 271.36,86.36 261.47,78.38" fill="none" stroke="#60a5fa" stroke-width="1.0" opacity="0.55"/><polyline points="555.52,247.60 545.64,239.63 535.76,231.65 525.88,223.68 515.99,215.70 506.11,207.73 496.23,199.75 486.35,191.77 476.46,183.80 466.58,175.82 456.70,167.85 446.81,159.87 436.93,151.90 427.05,143.92 417.17,135.95 407.28,127.97 397.40,120.00 387.52,112.02 377.64,104.05 367.75,96.07 357.87,88.09 347.99,80.12 338.11,72.14 328.22,64.17 318.34,56.19" fill="none" stroke="#60a5fa" stroke-width="1.0" opacity="0.55"/><polyline points="612.39,225.41 602.51,217.43 592.63,209.46 582.74,201.48 572.86,193.51 562.98,185.53 553.10,177.56 543.21,169.58 533.33,161.61 523.45,153.63 513.57,145.66 503.68,137.68 493.80,129.71 483.92,121.73 474.04,113.75 464.15,105.78 454.27,97.80 444.39,89.83 434.50,81.85 424.62,73.88 414.74,65.90 404.86,57.93 394.97,49.95 385.09,41.98 375.21,34.00" fill="none" stroke="#60a5fa" stroke-width="1.0" opacity="0.55"/><polyline points="271.18,358.57 285.40,353.02 299.62,347.47 313.83,341.92 328.05,336.37 342.27,330.82 356.48,325.28 370.70,319.73 384.92,314.18 399.14,308.63 413.35,303.08 427.57,297.54 441.79,291.99 456.00,286.44 470.22,280.89 484.44,275.34 498.66,269.80 512.87,264.25 527.09,258.70 541.31,253.15 555.52,247.60 569.74,242.05 583.96,236.51 598.17,230.96 612.39,225.41" fill="none" stroke="#60a5fa" stroke-width="1.0" opacity="0.55"/><polyline points="231.65,326.66 245.87,321.12 260.09,315.57 274.30,310.02 288.52,304.47 302.74,298.92 316.95,293.37 331.17,287.83 345.39,282.28 359.61,276.73 373.82,271.18 388.04,265.63 402.26,260.09 416.47,254.54 430.69,248.99 444.91,243.44 459.12,237.89 473.34,232.35 487.56,226.80 501.78,221.25 515.99,215.70 530.21,210.15 544.43,204.60 558.64,199.06 572.86,193.51" fill="none" stroke="#60a5fa" stroke-width="1.0" opacity="0.55"/><polyline points="192.12,294.76 206.34,289.21 220.56,283.67 234.77,278.12 248.99,272.57 263.21,267.02 277.42,261.47 291.64,255.92 305.86,250.38 320.07,244.83 334.29,239.28 348.51,233.73 362.73,228.18 376.94,222.64 391.16,217.09 405.38,211.54 419.59,205.99 433.81,200.44 448.03,194.90 462.25,189.35 476.46,183.80 490.68,178.25 504.90,172.70 519.11,167.15 533.33,161.61" fill="none" stroke="#60a5fa" stroke-width="1.0" opacity="0.55"/><polyline points="152.59,262.86 166.81,257.31 181.03,251.76 195.24,246.22 209.46,240.67 223.68,235.12 237.89,229.57 252.11,224.02 266.33,218.48 280.54,212.93 294.76,207.38 308.98,201.83 323.20,196.28 337.41,190.73 351.63,185.19 365.85,179.64 380.06,174.09 394.28,168.54 408.50,162.99 422.72,157.45 436.93,151.90 451.15,146.35 465.37,140.80 479.58,135.25 493.80,129.71" fill="none" stroke="#60a5fa" stroke-width="1.0" opacity="0.55"/><polyline points="113.06,230.96 127.28,225.41 141.49,219.86 155.71,214.31 169.93,208.77 184.15,203.22 198.36,197.67 212.58,192.12 226.80,186.57 241.01,181.03 255.23,175.48 269.45,169.93 283.67,164.38 297.88,158.83 312.10,153.28 326.32,147.74 340.53,142.19 354.75,136.64 368.97,131.09 383.18,125.54 397.40,120.00 411.62,114.45 425.84,108.90 440.05,103.35 454.27,97.80" fill="none" stroke="#60a5fa" stroke-width="1.0" opacity="0.55"/><polyline points="73.53,199.06 87.75,193.51 101.96,187.96 116.18,182.41 130.40,176.86 144.62,171.32 158.83,165.77 173.05,160.22 187.27,154.67 201.48,149.12 215.70,143.58 229.92,138.03 244.14,132.48 258.35,126.93 272.57,121.38 286.79,115.83 301.00,110.29 315.22,104.74 329.44,99.19 343.65,93.64 357.87,88.09 372.09,82.55 386.31,77.00 400.52,71.45 414.74,65.90" fill="none" stroke="#60a5fa" stroke-width="1.0" opacity="0.55"/><polyline points="34.00,167.15 48.22,161.61 62.43,156.06 76.65,150.51 90.87,144.96 105.09,139.41 119.30,133.87 133.52,128.32 147.74,122.77 161.95,117.22 176.17,111.67 190.39,106.13 204.60,100.58 218.82,95.03 233.04,89.48 247.26,83.93 261.47,78.38 275.69,72.84 289.91,67.29 304.12,61.74 318.34,56.19 332.56,50.64 346.78,45.10 360.99,39.55 375.21,34.00" fill="none" stroke="#60a5fa" stroke-width="1.0" opacity="0.55"/><polyline points="271.18,446.00 261.30,431.21 251.42,417.02 241.53,403.41 231.65,390.40 221.77,377.98 211.89,366.16 202.00,354.93 192.12,344.28 182.24,334.24 172.36,324.78 162.47,315.92 152.59,307.64 142.71,299.96 132.83,292.88 122.94,286.38 113.06,280.48 103.18,275.17 93.30,270.45 83.41,266.33 73.53,262.80 63.65,259.86 53.77,257.51 43.88,255.75 34.00,254.59" fill="none" stroke="#fb923c" stroke-width="1.0" opacity="0.55"/><polyline points="328.05,400.11 318.17,385.32 308.29,371.13 298.40,357.53 288.52,344.52 278.64,332.10 268.75,320.27 258.87,309.04 248.99,298.40 239.11,288.35 229.22,278.89 219.34,270.03 209.46,261.76 199.58,254.08 189.69,246.99 179.81,240.50 169.93,234.59 160.05,229.28 150.16,224.57 140.28,220.44 130.40,216.91 120.52,213.97 110.63,211.62 100.75,209.87 90.87,208.70" fill="none" stroke="#fb923c" stroke-width="1.0" opacity="0.55"/><polyline points="384.92,363.70 375.04,348.92 365.15,334.72 355.27,321.12 345.39,308.11 335.51,295.69 325.62,283.86 315.74,272.63 305.86,261.99 295.98,251.94 286.09,242.48 276.21,233.62 266.33,225.35 256.44,217.67 246.56,210.58 236.68,204.09 226.80,198.18 216.91,192.87 207.03,188.16 197.15,184.03 187.27,180.50 177.38,177.56 167.50,175.21 157.62,173.46 147.74,172.29" fill="none" stroke="#fb923c" stroke-width="1.0" opacity="0.55"/><polyline points="441.79,336.77 431.90,321.98 422.02,307.79 412.14,294.19 402.26,281.17 392.37,268.76 382.49,256.93 372.61,245.70 362.73,235.06 352.84,225.01 342.96,215.55 333.08,206.69 323.20,198.42 313.31,190.74 303.43,183.65 293.55,177.15 283.67,171.25 273.78,165.94 263.90,161.23 254.02,157.10 244.14,153.57 234.25,150.63 224.37,148.28 214.49,146.52 204.60,145.36" fill="none" stroke="#fb923c" stroke-width="1.0" opacity="0.55"/><polyline points="498.66,319.32 488.77,304.53 478.89,290.33 469.01,276.73 459.12,263.72 449.24,251.30 439.36,239.48 429.48,228.24 419.59,217.60 409.71,207.55 399.83,198.10 389.95,189.23 380.06,180.96 370.18,173.28 360.30,166.20 350.42,159.70 340.53,153.80 330.65,148.49 320.77,143.77 310.89,139.65 301.00,136.11 291.12,133.17 281.24,130.83 271.36,129.07 261.47,127.91" fill="none" stroke="#fb923c" stroke-width="1.0" opacity="0.55"/><polyline points="555.52,311.34 545.64,296.55 535.76,282.36 525.88,268.76 515.99,255.75 506.11,243.33 496.23,231.50 486.35,220.27 476.46,209.63 466.58,199.58 456.70,190.12 446.81,181.26 436.93,172.99 427.05,165.31 417.17,158.22 407.28,151.73 397.40,145.82 387.52,140.51 377.64,135.80 367.75,131.67 357.87,128.14 347.99,125.20 338.11,122.85 328.22,121.10 318.34,119.93" fill="none" stroke="#fb923c" stroke-width="1.0" opacity="0.55"/><polyline points="612.39,312.85 602.51,298.06 592.63,283.86 582.74,270.26 572.86,257.25 562.98,244.83 553.10,233.00 543.21,221.77 533.33,211.13 523.45,201.08 513.57,191.62 503.68,182.76 493.80,174.49 483.92,166.81 474.04,159.72 464.15,153.23 454.27,147.33 444.39,142.02 434.50,137.30 424.62,133.17 414.74,129.64 404.86,126.70 394.97,124.35 385.09,122.60 375.21,121.43" fill="none" stroke="#fb923c" stroke-width="1.0" opacity="0.55"/><polyline points="271.18,446.00 285.40,433.64 299.62,421.87 313.83,410.70 328.05,400.11 342.27,390.12 356.48,380.72 370.70,371.92 384.92,363.70 399.14,356.08 413.35,349.05 427.57,342.62 441.79,336.77 456.00,331.52 470.22,326.86 484.44,322.79 498.66,319.32 512.87,316.44 527.09,314.15 541.31,312.45 555.52,311.34 569.74,310.83 583.96,310.91 598.17,311.58 612.39,312.85" fill="none" stroke="#fb923c" stroke-width="1.0" opacity="0.55"/><polyline points="231.65,390.40 245.87,378.04 260.09,366.27 274.30,355.10 288.52,344.52 302.74,334.52 316.95,325.13 331.17,316.32 345.39,308.11 359.61,300.48 373.82,293.46 388.04,287.02 402.26,281.17 416.47,275.92 430.69,271.26 444.91,267.20 459.12,263.72 473.34,260.84 487.56,258.55 501.78,256.85 515.99,255.75 530.21,255.23 544.43,255.31 558.64,255.98 572.86,257.25" fill="none" stroke="#fb923c" stroke-width="1.0" opacity="0.55"/><polyline points="192.12,344.28 206.34,331.92 220.56,320.16 234.77,308.98 248.99,298.40 263.21,288.41 277.42,279.01 291.64,270.20 305.86,261.99 320.07,254.37 334.29,247.34 348.51,240.90 362.73,235.06 376.94,229.80 391.16,225.14 405.38,221.08 419.59,217.60 433.81,214.72 448.03,212.43 462.25,210.73 476.46,209.63 490.68,209.11 504.90,209.19 519.11,209.87 533.33,211.13" fill="none" stroke="#fb923c" stroke-width="1.0" opacity="0.55"/><polyline points="152.59,307.64 166.81,295.28 181.03,283.52 195.24,272.34 209.46,261.76 223.68,251.77 237.89,242.37 252.11,233.56 266.33,225.35 280.54,217.73 294.76,210.70 308.98,204.26 323.20,198.42 337.41,193.16 351.63,188.50 365.85,184.44 380.06,180.96 394.28,178.08 408.50,175.79 422.72,174.09 436.93,172.99 451.15,172.47 465.37,172.55 479.58,173.22 493.80,174.49" fill="none" stroke="#fb923c" stroke-width="1.0" opacity="0.55"/><polyline points="113.06,280.48 127.28,268.12 141.49,256.35 155.71,245.18 169.93,234.59 184.15,224.60 198.36,215.20 212.58,206.40 226.80,198.18 241.01,190.56 255.23,183.53 269.45,177.10 283.67,171.25 297.88,166.00 312.10,161.34 326.32,157.27 340.53,153.80 354.75,150.92 368.97,148.63 383.18,146.93 397.40,145.82 411.62,145.31 425.84,145.39 440.05,146.06 454.27,147.33" fill="none" stroke="#fb923c" stroke-width="1.0" opacity="0.55"/><polyline points="73.53,262.80 87.75,250.44 101.96,238.67 116.18,227.49 130.40,216.91 144.62,206.92 158.83,197.52 173.05,188.71 187.27,180.50 201.48,172.88 215.70,165.85 229.92,159.41 244.14,153.57 258.35,148.32 272.57,143.66 286.79,139.59 301.00,136.11 315.22,133.23 329.44,130.94 343.65,129.24 357.87,128.14 372.09,127.63 386.31,127.71 400.52,128.38 414.74,129.64" fill="none" stroke="#fb923c" stroke-width="1.0" opacity="0.55"/><polyline points="34.00,254.59 48.22,242.23 62.43,230.46 76.65,219.29 90.87,208.70 105.09,198.71 119.30,189.31 133.52,180.51 147.74,172.29 161.95,164.67 176.17,157.64 190.39,151.21 204.60,145.36 218.82,140.11 233.04,135.45 247.26,131.38 261.47,127.91 275.69,125.03 289.91,122.74 304.12,121.04 318.34,119.93 332.56,119.42 346.78,119.50 360.99,120.17 375.21,121.43" fill="none" stroke="#fb923c" stroke-width="1.0" opacity="0.55"/>
</svg>
