<svg xmlns="http://www.w3.org/2000/svg" width="760" height="480" viewBox="0 0 760 480">
<rect width="100%" height="100%" fill="#0f172a"/>
<text x="18" y="24" font-family="sans-serif" font-size="15" fill="#f8fafc">Five branches on a degree-five patch</text>
<text x="18" y="44" font-family="sans-serif" font-size="12" fill="#94a3b8">Expected rejected: unsupported-input</text>
<polyline points="323.43,425.50 312.68,416.82 301.93,408.15 291.18,399.48 280.43,390.80 269.68,382.13 258.93,373.45 248.19,364.78 237.44,356.10 226.69,347.43 215.94,338.75 205.19,330.08 194.44,321.40 183.69,312.73 172.94,304.06 162.19,295.38 151.45,286.71 140.70,278.03 129.95,269.36 119.20,260.68 108.45,252.01 97.70,243.33 86.95,234.66 76.20,225.99 65.45,217.31" fill="none" stroke="#60a5fa" stroke-width="1.0" opacity="0.55"/><polyline points="385.28,404.33 374.53,395.65 363.78,386.98 353.03,378.31 342.28,369.63 331.54,360.96 320.79,352.28 310.04,343.61 299.29,334.93 288.54,326.26 277.79,317.58 267.04,308.91 256.29,300.23 245.55,291.56 234.80,282.89 224.05,274.21 213.30,265.54 202.55,256.86 191.80,248.19 181.05,239.51 170.30,230.84 159.55,222.16 148.81,213.49 138.06,204.82 127.31,196.14" fill="none" stroke="#60a5fa" stroke-width="1.0" opacity="0.55"/><polyline points="447.13,380.09 436.38,371.41 425.64,362.74 414.89,354.07 404.14,345.39 393.39,336.72 382.64,328.04 371.89,319.37 361.14,310.69 350.39,302.02 339.64,293.34 328.90,284.67 318.15,275.99 307.40,267.32 296.65,258.65 285.90,249.97 275.15,241.30 264.40,232.62 253.65,223.95 242.90,215.27 232.16,206.60 221.41,197.92 210.66,189.25 199.91,180.58 189.16,171.90" fill="none" stroke="#60a5fa" stroke-width="1.0" opacity="0.55"/><polyline points="508.99,355.92 498.24,347.25 487.49,338.57 476.74,329.90 465.99,321.22 455.24,312.55 444.49,303.87 433.74,295.20 423.00,286.52 412.25,277.85 401.50,269.18 390.75,260.50 380.00,251.83 369.25,243.15 358.50,234.48 347.75,225.80 337.00,217.13 326.26,208.45 315.51,199.78 304.76,191.10 294.01,182.43 283.26,173.76 272.51,165.08 261.76,156.41 251.01,147.73" fill="none" stroke="#60a5fa" stroke-width="1.0" opacity="0.55"/><polyline points="570.84,331.83 560.09,323.15 549.34,314.48 538.59,305.80 527.84,297.13 517.10,288.45 506.35,279.78 495.60,271.10 484.85,262.43 474.10,253.76 463.35,245.08 452.60,236.41 441.85,227.73 431.10,219.06 420.36,210.38 409.61,201.71 398.86,193.03 388.11,184.36 377.36,175.68 366.61,167.01 355.86,158.34 345.11,149.66 334.36,140.99 323.62,132.31 312.87,123.64" fill="none" stroke="#60a5fa" stroke-width="1.0" opacity="0.55"/><polyline points="632.69,307.53 621.94,298.86 611.19,290.18 600.45,281.51 589.70,272.84 578.95,264.16 568.20,255.49 557.45,246.81 546.70,238.14 535.95,229.46 525.20,220.79 514.45,212.11 503.71,203.44 492.96,194.76 482.21,186.09 471.46,177.42 460.71,168.74 449.96,160.07 439.21,151.39 428.46,142.72 417.72,134.04 406.97,125.37 396.22,116.69 385.47,108.02 374.72,99.34" fill="none" stroke="#60a5fa" stroke-width="1.0" opacity="0.55"/><polyline points="694.55,285.36 683.80,276.68 673.05,268.01 662.30,259.34 651.55,250.66 640.80,241.99 630.05,233.31 619.30,224.64 608.55,215.96 597.81,207.29 587.06,198.61 576.31,189.94 565.56,181.26 554.81,172.59 544.06,163.92 533.31,155.24 522.56,146.57 511.81,137.89 501.07,129.22 490.32,120.54 479.57,111.87 468.82,103.19 458.07,94.52 447.32,85.85 436.57,77.17" fill="none" stroke="#60a5fa" stroke-width="1.0" opacity="0.55"/><polyline points="323.43,425.50 338.89,420.86 354.35,415.69 369.82,410.14 385.28,404.33 400.74,398.35 416.21,392.29 431.67,386.19 447.13,380.09 462.60,374.01 478.06,367.96 493.52,361.93 508.99,355.92 524.45,349.92 539.91,343.91 555.38,337.88 570.84,331.83 586.30,325.75 601.77,319.65 617.23,313.57 632.69,307.53 648.16,301.60 663.62,295.86 679.08,290.40 694.55,285.36" fill="none" stroke="#60a5fa" stroke-width="1.0" opacity="0.55"/><polyline points="280.43,390.80 295.89,386.17 311.36,381.00 326.82,375.44 342.28,369.63 357.75,363.66 373.21,357.59 388.67,351.49 404.14,345.39 419.60,339.31 435.06,333.26 450.53,327.23 465.99,321.22 481.45,315.22 496.92,309.21 512.38,303.18 527.84,297.13 543.31,291.05 558.77,284.96 574.23,278.87 589.70,272.84 605.16,266.90 620.62,261.16 636.09,255.70 651.55,250.66" fill="none" stroke="#60a5fa" stroke-width="1.0" opacity="0.55"/><polyline points="237.44,356.10 252.90,351.47 268.36,346.30 283.83,340.75 299.29,334.93 314.75,328.96 330.22,322.89 345.68,316.79 361.14,310.69 376.61,304.61 392.07,298.56 407.53,292.53 423.00,286.52 438.46,280.52 453.92,274.51 469.39,268.48 484.85,262.43 500.31,256.35 515.78,250.26 531.24,244.17 546.70,238.14 562.16,232.21 577.63,226.46 593.09,221.00 608.55,215.96" fill="none" stroke="#60a5fa" stroke-width="1.0" opacity="0.55"/><polyline points="194.44,321.40 209.90,316.77 225.37,311.60 240.83,306.05 256.29,300.23 271.76,294.26 287.22,288.20 302.68,282.10 318.15,275.99 333.61,269.91 349.07,263.86 364.54,257.83 380.00,251.83 395.46,245.82 410.93,239.81 426.39,233.79 441.85,227.73 457.32,221.65 472.78,215.56 488.24,209.48 503.71,203.44 519.17,197.51 534.63,191.76 550.10,186.30 565.56,181.26" fill="none" stroke="#60a5fa" stroke-width="1.0" opacity="0.55"/><polyline points="151.45,286.71 166.91,282.07 182.37,276.90 197.84,271.35 213.30,265.54 228.76,259.56 244.22,253.50 259.69,247.40 275.15,241.30 290.61,235.22 306.08,229.16 321.54,223.14 337.00,217.13 352.47,211.13 367.93,205.12 383.39,199.09 398.86,193.03 414.32,186.95 429.78,180.86 445.25,174.78 460.71,168.74 476.17,162.81 491.64,157.06 507.10,151.61 522.56,146.57" fill="none" stroke="#60a5fa" stroke-width="1.0" opacity="0.55"/><polyline points="108.45,252.01 123.91,247.37 139.38,242.20 154.84,236.65 170.30,230.84 185.77,224.86 201.23,218.80 216.69,212.70 232.16,206.60 247.62,200.52 263.08,194.47 278.55,188.44 294.01,182.43 309.47,176.43 324.94,170.42 340.40,164.39 355.86,158.34 371.33,152.26 386.79,146.16 402.25,140.08 417.72,134.04 433.18,128.11 448.64,122.37 464.11,116.91 479.57,111.87" fill="none" stroke="#60a5fa" stroke-width="1.0" opacity="0.55"/><polyline points="65.45,217.31 80.92,212.68 96.38,207.51 111.84,201.95 127.31,196.14 142.77,190.17 158.23,184.10 173.70,178.00 189.16,171.90 204.62,165.82 220.09,159.77 235.55,153.74 251.01,147.73 266.48,141.73 281.94,135.72 297.40,129.69 312.87,123.64 328.33,117.56 343.79,111.47 359.26,105.38 374.72,99.34 390.18,93.41 405.65,87.67 421.11,82.21 436.57,77.17" fill="none" stroke="#60a5fa" stroke-width="1.0" opacity="0.55"/><polyline points="317.77,446.00 305.95,436.46 294.12,426.92 282.30,417.37 270.47,407.83 258.65,398.29 246.83,388.75 235.00,379.21 223.18,369.66 211.36,360.12 199.53,350.58 187.71,341.04 175.88,331.50 164.06,321.95 152.24,312.41 140.41,302.87 128.59,293.33 116.77,283.79 104.94,274.24 93.12,264.70 81.29,255.16 69.47,245.62 57.65,236.08 45.82,226.53 34.00,216.99" fill="none" stroke="#fb923c" stroke-width="1.0" opacity="0.55"/><polyline points="385.81,419.45 373.98,409.91 362.16,400.36 350.34,390.82 338.51,381.28 326.69,371.74 314.87,362.20 303.04,352.65 291.22,343.11 279.39,333.57 267.57,324.03 255.75,314.49 243.92,304.94 232.10,295.40 220.28,285.86 208.45,276.32 196.63,266.78 184.80,257.24 172.98,247.69 161.16,238.15 149.33,228.61 137.51,219.07 125.69,209.53 113.86,199.98 102.04,190.44" fill="none" stroke="#fb923c" stroke-width="1.0" opacity="0.55"/><polyline points="453.85,392.90 442.02,383.35 430.20,373.81 418.38,364.27 406.55,354.73 394.73,345.19 382.90,335.65 371.08,326.10 359.26,316.56 347.43,307.02 335.61,297.48 323.79,287.94 311.96,278.39 300.14,268.85 288.31,259.31 276.49,249.77 264.67,240.23 252.84,230.68 241.02,221.14 229.20,211.60 217.37,202.06 205.55,192.52 193.72,182.97 181.90,173.43 170.08,163.89" fill="none" stroke="#fb923c" stroke-width="1.0" opacity="0.55"/><polyline points="521.88,366.35 510.06,356.80 498.24,347.26 486.41,337.72 474.59,328.18 462.77,318.64 450.94,309.09 439.12,299.55 427.29,290.01 415.47,280.47 403.65,270.93 391.82,261.38 380.00,251.84 368.18,242.30 356.35,232.76 344.53,223.22 332.71,213.67 320.88,204.13 309.06,194.59 297.23,185.05 285.41,175.51 273.59,165.96 261.76,156.42 249.94,146.88 238.12,137.34" fill="none" stroke="#fb923c" stroke-width="1.0" opacity="0.55"/><polyline points="589.92,339.79 578.10,330.25 566.28,320.71 554.45,311.17 542.63,301.63 530.80,292.08 518.98,282.54 507.16,273.00 495.33,263.46 483.51,253.92 471.69,244.37 459.86,234.83 448.04,225.29 436.21,215.75 424.39,206.21 412.57,196.66 400.74,187.12 388.92,177.58 377.10,168.04 365.27,158.50 353.45,148.95 341.62,139.41 329.80,129.87 317.98,120.33 306.15,110.79" fill="none" stroke="#fb923c" stroke-width="1.0" opacity="0.55"/><polyline points="657.96,313.24 646.14,303.70 634.31,294.16 622.49,284.62 610.67,275.07 598.84,265.53 587.02,255.99 575.20,246.45 563.37,236.91 551.55,227.36 539.72,217.82 527.90,208.28 516.08,198.74 504.25,189.20 492.43,179.65 480.61,170.11 468.78,160.57 456.96,151.03 445.13,141.49 433.31,131.94 421.49,122.40 409.66,112.86 397.84,103.32 386.02,93.78 374.19,84.24" fill="none" stroke="#fb923c" stroke-width="1.0" opacity="0.55"/><polyline points="726.00,286.69 714.18,277.15 702.35,267.61 690.53,258.06 678.71,248.52 666.88,238.98 655.06,229.44 643.23,219.90 631.41,210.35 619.59,200.81 607.76,191.27 595.94,181.73 584.12,172.19 572.29,162.65 560.47,153.10 548.64,143.56 536.82,134.02 525.00,124.48 513.17,114.94 501.35,105.39 489.53,95.85 477.70,86.31 465.88,76.77 454.05,67.23 442.23,57.68" fill="none" stroke="#fb923c" stroke-width="1.0" opacity="0.55"/><polyline points="317.77,446.00 334.78,439.36 351.79,432.72 368.80,426.09 385.81,419.45 402.82,412.81 419.83,406.17 436.84,399.53 453.85,392.90 470.86,386.26 487.87,379.62 504.88,372.98 521.88,366.35 538.89,359.71 555.90,353.07 572.91,346.43 589.92,339.79 606.93,333.16 623.94,326.52 640.95,319.88 657.96,313.24 674.97,306.60 691.98,299.97 708.99,293.33 726.00,286.69" fill="none" stroke="#fb923c" stroke-width="1.0" opacity="0.55"/><polyline points="270.47,407.83 287.48,401.19 304.49,394.56 321.50,387.92 338.51,381.28 355.52,374.64 372.53,368.00 389.54,361.37 406.55,354.73 423.56,348.09 440.57,341.45 457.58,334.82 474.59,328.18 491.60,321.54 508.61,314.90 525.62,308.26 542.63,301.63 559.64,294.99 576.65,288.35 593.66,281.71 610.67,275.07 627.68,268.44 644.69,261.80 661.70,255.16 678.71,248.52" fill="none" stroke="#fb923c" stroke-width="1.0" opacity="0.55"/><polyline points="223.18,369.66 240.19,363.03 257.20,356.39 274.21,349.75 291.22,343.11 308.23,336.47 325.24,329.84 342.25,323.20 359.26,316.56 376.27,309.92 393.28,303.29 410.29,296.65 427.29,290.01 444.30,283.37 461.31,276.73 478.32,270.10 495.33,263.46 512.34,256.82 529.35,250.18 546.36,243.54 563.37,236.91 580.38,230.27 597.39,223.63 614.40,216.99 631.41,210.35" fill="none" stroke="#fb923c" stroke-width="1.0" opacity="0.55"/><polyline points="175.88,331.50 192.89,324.86 209.90,318.22 226.91,311.58 243.92,304.94 260.93,298.31 277.94,291.67 294.95,285.03 311.96,278.39 328.97,271.76 345.98,265.12 362.99,258.48 380.00,251.84 397.01,245.20 414.02,238.57 431.03,231.93 448.04,225.29 465.05,218.65 482.06,212.01 499.07,205.38 516.08,198.74 533.09,192.10 550.10,185.46 567.11,178.82 584.12,172.19" fill="none" stroke="#fb923c" stroke-width="1.0" opacity="0.55"/><polyline points="128.59,293.33 145.60,286.69 162.61,280.05 179.62,273.41 196.63,266.78 213.64,260.14 230.65,253.50 247.66,246.86 264.67,240.23 281.68,233.59 298.69,226.95 315.70,220.31 332.71,213.67 349.71,207.04 366.72,200.40 383.73,193.76 400.74,187.12 417.75,180.48 434.76,173.85 451.77,167.21 468.78,160.57 485.79,153.93 502.80,147.29 519.81,140.66 536.82,134.02" fill="none" stroke="#fb923c" stroke-width="1.0" opacity="0.55"/><polyline points="81.29,255.16 98.30,248.52 115.31,241.88 132.32,235.25 149.33,228.61 166.34,221.97 183.35,215.33 200.36,208.70 217.37,202.06 234.38,195.42 251.39,188.78 268.40,182.14 285.41,175.51 302.42,168.87 319.43,162.23 336.44,155.59 353.45,148.95 370.46,142.32 387.47,135.68 404.48,129.04 421.49,122.40 438.50,115.76 455.51,109.13 472.52,102.49 489.53,95.85" fill="none" stroke="#fb923c" stroke-width="1.0" opacity="0.55"/><polyline points="34.00,216.99 51.01,210.35 68.02,203.72 85.03,197.08 102.04,190.44 119.05,183.80 136.06,177.17 153.07,170.53 170.08,163.89 187.09,157.25 204.10,150.61 221.11,143.98 238.12,137.34 255.12,130.70 272.13,124.06 289.14,117.42 306.15,110.79 323.16,104.15 340.17,97.51 357.18,90.87 374.19,84.24 391.20,77.60 408.21,70.96 425.22,64.32 442.23,57.68" fill="none" stroke="#fb923c" stroke-width="1.0" opacity="0.55"/>
</svg>
