<svg xmlns="http://www.w3.org/2000/svg" width="760" height="480" viewBox="0 0 760 480">
<rect width="100%" height="100%" fill="#0f172a"/>
<text x="18" y="24" font-family="sans-serif" font-size="15" fill="#f8fafc">Microscopic cylinder section</text>
<text x="18" y="44" font-family="sans-serif" font-size="12" fill="#94a3b8">Expected complete</text>
<polyline points="426.79,69.55 426.79,79.76 426.79,89.98 426.79,100.20 426.79,110.42 426.79,120.63 426.79,130.85 426.79,141.07 426.79,151.28 426.79,161.50 426.79,171.72 426.79,181.94 426.79,192.15 426.79,202.37 426.79,212.59 426.79,222.81 426.79,233.02 426.79,243.24 426.79,253.46 426.79,263.67 426.79,273.89 426.79,284.11 426.79,294.33 426.79,304.54 426.79,314.76" fill="none" stroke="#60a5fa" stroke-width="1.0" opacity="0.55"/><polyline points="289.80,34.00 289.80,44.22 289.80,54.43 289.80,64.65 289.80,74.87 289.80,85.09 289.80,95.30 289.80,105.52 289.80,115.74 289.80,125.96 289.80,136.17 289.80,146.39 289.80,156.61 289.80,166.82 289.80,177.04 289.80,187.26 289.80,197.48 289.80,207.69 289.80,217.91 289.80,228.13 289.80,238.35 289.80,248.56 289.80,258.78 289.80,269.00 289.80,279.21" fill="none" stroke="#60a5fa" stroke-width="1.0" opacity="0.55"/><polyline points="169.88,80.80 169.88,91.02 169.88,101.23 169.88,111.45 169.88,121.67 169.88,131.88 169.88,142.10 169.88,152.32 169.88,162.54 169.88,172.75 169.88,182.97 169.88,193.19 169.88,203.41 169.88,213.62 169.88,223.84 169.88,234.06 169.88,244.27 169.88,254.49 169.88,264.71 169.88,274.93 169.88,285.14 169.88,295.36 169.88,305.58 169.88,315.80 169.88,326.01" fill="none" stroke="#60a5fa" stroke-width="1.0" opacity="0.55"/><polyline points="181.58,165.24 181.58,175.46 181.58,185.67 181.58,195.89 181.58,206.11 181.58,216.33 181.58,226.54 181.58,236.76 181.58,246.98 181.58,257.19 181.58,267.41 181.58,277.63 181.58,287.85 181.58,298.06 181.58,308.28 181.58,318.50 181.58,328.72 181.58,338.93 181.58,349.15 181.58,359.37 181.58,369.58 181.58,379.80 181.58,390.02 181.58,400.24 181.58,410.45" fill="none" stroke="#60a5fa" stroke-width="1.0" opacity="0.55"/><polyline points="318.56,200.79 318.56,211.00 318.56,221.22 318.56,231.44 318.56,241.65 318.56,251.87 318.56,262.09 318.56,272.31 318.56,282.52 318.56,292.74 318.56,302.96 318.56,313.18 318.56,323.39 318.56,333.61 318.56,343.83 318.56,354.04 318.56,364.26 318.56,374.48 318.56,384.70 318.56,394.91 318.56,405.13 318.56,415.35 318.56,425.57 318.56,435.78 318.56,446.00" fill="none" stroke="#60a5fa" stroke-width="1.0" opacity="0.55"/><polyline points="438.48,153.99 438.48,164.20 438.48,174.42 438.48,184.64 438.48,194.86 438.48,205.07 438.48,215.29 438.48,225.51 438.48,235.73 438.48,245.94 438.48,256.16 438.48,266.38 438.48,276.59 438.48,286.81 438.48,297.03 438.48,307.25 438.48,317.46 438.48,327.68 438.48,337.90 438.48,348.12 438.48,358.33 438.48,368.55 438.48,378.77 438.48,388.98 438.48,399.20" fill="none" stroke="#60a5fa" stroke-width="1.0" opacity="0.55"/><polyline points="426.79,69.55 426.79,79.76 426.79,89.98 426.79,100.20 426.79,110.42 426.79,120.63 426.79,130.85 426.79,141.07 426.79,151.28 426.79,161.50 426.79,171.72 426.79,181.94 426.79,192.15 426.79,202.37 426.79,212.59 426.79,222.81 426.79,233.02 426.79,243.24 426.79,253.46 426.79,263.67 426.79,273.89 426.79,284.11 426.79,294.33 426.79,304.54 426.79,314.76" fill="none" stroke="#60a5fa" stroke-width="1.0" opacity="0.55"/><polyline points="426.79,69.55 402.28,54.21 369.45,42.02 330.62,34.93 289.80,34.00 251.46,39.02 218.96,48.61 191.61,62.37 169.88,80.80 157.22,102.59 155.56,125.49 164.48,147.01 181.58,165.24 206.08,180.58 238.92,192.76 277.75,199.86 318.56,200.79 356.91,195.77 389.41,186.17 416.76,172.42 438.48,153.99 451.15,132.19 452.81,109.29 443.88,87.78 426.79,69.55" fill="none" stroke="#60a5fa" stroke-width="1.0" opacity="0.55"/><polyline points="426.79,110.42 402.28,95.08 369.45,82.89 330.62,75.79 289.80,74.87 251.46,79.88 218.96,89.48 191.61,103.24 169.88,121.67 157.22,143.46 155.56,166.36 164.48,187.88 181.58,206.11 206.08,221.45 238.92,233.63 277.75,240.73 318.56,241.65 356.91,236.64 389.41,227.04 416.76,213.28 438.48,194.86 451.15,173.06 452.81,150.16 443.88,128.65 426.79,110.42" fill="none" stroke="#60a5fa" stroke-width="1.0" opacity="0.55"/><polyline points="426.79,151.28 402.28,135.95 369.45,123.76 330.62,116.66 289.80,115.74 251.46,120.75 218.96,130.35 191.61,144.11 169.88,162.54 157.22,184.33 155.56,207.23 164.48,228.75 181.58,246.98 206.08,262.32 238.92,274.50 277.75,281.60 318.56,282.52 356.91,277.51 389.41,267.91 416.76,254.15 438.48,235.73 451.15,213.93 452.81,191.03 443.88,169.52 426.79,151.28" fill="none" stroke="#60a5fa" stroke-width="1.0" opacity="0.55"/><polyline points="426.79,192.15 402.28,176.81 369.45,164.63 330.62,157.53 289.80,156.61 251.46,161.62 218.96,171.22 191.61,184.98 169.88,203.41 157.22,225.20 155.56,248.10 164.48,269.61 181.58,287.85 206.08,303.19 238.92,315.37 277.75,322.47 318.56,323.39 356.91,318.38 389.41,308.78 416.76,295.02 438.48,276.59 451.15,254.80 452.81,231.90 443.88,210.39 426.79,192.15" fill="none" stroke="#60a5fa" stroke-width="1.0" opacity="0.55"/><polyline points="426.79,233.02 402.28,217.68 369.45,205.50 330.62,198.40 289.80,197.48 251.46,202.49 218.96,212.09 191.61,225.85 169.88,244.27 157.22,266.07 155.56,288.97 164.48,310.48 181.58,328.72 206.08,344.05 238.92,356.24 277.75,363.34 318.56,364.26 356.91,359.25 389.41,349.65 416.76,335.89 438.48,317.46 451.15,295.67 452.81,272.77 443.88,251.25 426.79,233.02" fill="none" stroke="#60a5fa" stroke-width="1.0" opacity="0.55"/><polyline points="426.79,273.89 402.28,258.55 369.45,246.37 330.62,239.27 289.80,238.35 251.46,243.36 218.96,252.96 191.61,266.72 169.88,285.14 157.22,306.94 155.56,329.84 164.48,351.35 181.58,369.58 206.08,384.92 238.92,397.11 277.75,404.21 318.56,405.13 356.91,400.12 389.41,390.52 416.76,376.76 438.48,358.33 451.15,336.54 452.81,313.64 443.88,292.12 426.79,273.89" fill="none" stroke="#60a5fa" stroke-width="1.0" opacity="0.55"/><polyline points="426.79,314.76 402.28,299.42 369.45,287.24 330.62,280.14 289.80,279.21 251.46,284.23 218.96,293.83 191.61,307.58 169.88,326.01 157.22,347.81 155.56,370.71 164.48,392.22 181.58,410.45 206.08,425.79 238.92,437.98 277.75,445.07 318.56,446.00 356.91,440.98 389.41,431.39 416.76,417.63 438.48,399.20 451.15,377.41 452.81,354.51 443.88,332.99 426.79,314.76" fill="none" stroke="#60a5fa" stroke-width="1.0" opacity="0.55"/><polyline points="255.59,391.61 246.36,384.16 237.12,376.71 227.89,369.26 218.66,361.81 209.43,354.36 200.19,346.91 190.96,339.46 181.73,332.01 172.49,324.55 163.26,317.10 154.03,309.65 144.80,302.20 135.56,294.75 126.33,287.30 117.10,279.85 107.86,272.40 98.63,264.95 89.40,257.49 80.16,250.04 70.93,242.59 61.70,235.14 52.47,227.69 43.23,220.24 34.00,212.79" fill="none" stroke="#fb923c" stroke-width="1.0" opacity="0.55"/><polyline points="308.72,370.88 299.49,363.43 290.25,355.98 281.02,348.53 271.79,341.08 262.56,333.63 253.32,326.17 244.09,318.72 234.86,311.27 225.62,303.82 216.39,296.37 207.16,288.92 197.92,281.47 188.69,274.02 179.46,266.56 170.23,259.11 160.99,251.66 151.76,244.21 142.53,236.76 133.29,229.31 124.06,221.86 114.83,214.41 105.60,206.96 96.36,199.50 87.13,192.05" fill="none" stroke="#fb923c" stroke-width="1.0" opacity="0.55"/><polyline points="361.85,350.15 352.62,342.70 343.38,335.24 334.15,327.79 324.92,320.34 315.69,312.89 306.45,305.44 297.22,297.99 287.99,290.54 278.75,283.09 269.52,275.64 260.29,268.18 251.05,260.73 241.82,253.28 232.59,245.83 223.36,238.38 214.12,230.93 204.89,223.48 195.66,216.03 186.42,208.58 177.19,201.12 167.96,193.67 158.73,186.22 149.49,178.77 140.26,171.32" fill="none" stroke="#fb923c" stroke-width="1.0" opacity="0.55"/><polyline points="414.98,329.41 405.75,321.96 396.51,314.51 387.28,307.06 378.05,299.61 368.81,292.16 359.58,284.71 350.35,277.26 341.12,269.80 331.88,262.35 322.65,254.90 313.42,247.45 304.18,240.00 294.95,232.55 285.72,225.10 276.49,217.65 267.25,210.20 258.02,202.74 248.79,195.29 239.55,187.84 230.32,180.39 221.09,172.94 211.86,165.49 202.62,158.04 193.39,150.59" fill="none" stroke="#fb923c" stroke-width="1.0" opacity="0.55"/><polyline points="468.11,308.68 458.88,301.23 449.64,293.78 440.41,286.33 431.18,278.88 421.94,271.42 412.71,263.97 403.48,256.52 394.25,249.07 385.01,241.62 375.78,234.17 366.55,226.72 357.31,219.27 348.08,211.82 338.85,204.36 329.62,196.91 320.38,189.46 311.15,182.01 301.92,174.56 292.68,167.11 283.45,159.66 274.22,152.21 264.98,144.76 255.75,137.30 246.52,129.85" fill="none" stroke="#fb923c" stroke-width="1.0" opacity="0.55"/><polyline points="521.24,287.95 512.01,280.50 502.77,273.04 493.54,265.59 484.31,258.14 475.07,250.69 465.84,243.24 456.61,235.79 447.38,228.34 438.14,220.89 428.91,213.44 419.68,205.98 410.44,198.53 401.21,191.08 391.98,183.63 382.75,176.18 373.51,168.73 364.28,161.28 355.05,153.83 345.81,146.37 336.58,138.92 327.35,131.47 318.11,124.02 308.88,116.57 299.65,109.12" fill="none" stroke="#fb923c" stroke-width="1.0" opacity="0.55"/><polyline points="574.37,267.21 565.14,259.76 555.90,252.31 546.67,244.86 537.44,237.41 528.20,229.96 518.97,222.51 509.74,215.05 500.51,207.60 491.27,200.15 482.04,192.70 472.81,185.25 463.57,177.80 454.34,170.35 445.11,162.90 435.87,155.45 426.64,147.99 417.41,140.54 408.18,133.09 398.94,125.64 389.71,118.19 380.48,110.74 371.24,103.29 362.01,95.84 352.78,88.39" fill="none" stroke="#fb923c" stroke-width="1.0" opacity="0.55"/><polyline points="255.59,391.61 268.87,386.43 282.15,381.25 295.44,376.06 308.72,370.88 322.00,365.70 335.28,360.51 348.57,355.33 361.85,350.15 375.13,344.96 388.41,339.78 401.70,334.60 414.98,329.41 428.26,324.23 441.54,319.05 454.83,313.86 468.11,308.68 481.39,303.50 494.67,298.31 507.96,293.13 521.24,287.95 534.52,282.76 547.80,277.58 561.09,272.40 574.37,267.21" fill="none" stroke="#fb923c" stroke-width="1.0" opacity="0.55"/><polyline points="218.66,361.81 231.94,356.63 245.22,351.44 258.51,346.26 271.79,341.08 285.07,335.89 298.35,330.71 311.64,325.53 324.92,320.34 338.20,315.16 351.48,309.98 364.77,304.79 378.05,299.61 391.33,294.43 404.61,289.24 417.90,284.06 431.18,278.88 444.46,273.69 457.74,268.51 471.02,263.33 484.31,258.14 497.59,252.96 510.87,247.78 524.15,242.59 537.44,237.41" fill="none" stroke="#fb923c" stroke-width="1.0" opacity="0.55"/><polyline points="181.73,332.01 195.01,326.82 208.29,321.64 221.57,316.46 234.86,311.27 248.14,306.09 261.42,300.90 274.70,295.72 287.99,290.54 301.27,285.35 314.55,280.17 327.83,274.99 341.12,269.80 354.40,264.62 367.68,259.44 380.96,254.25 394.25,249.07 407.53,243.89 420.81,238.70 434.09,233.52 447.38,228.34 460.66,223.15 473.94,217.97 487.22,212.79 500.51,207.60" fill="none" stroke="#fb923c" stroke-width="1.0" opacity="0.55"/><polyline points="144.80,302.20 158.08,297.02 171.36,291.83 184.64,286.65 197.92,281.47 211.21,276.28 224.49,271.10 237.77,265.92 251.05,260.73 264.34,255.55 277.62,250.37 290.90,245.18 304.18,240.00 317.47,234.82 330.75,229.63 344.03,224.45 357.31,219.27 370.60,214.08 383.88,208.90 397.16,203.72 410.44,198.53 423.73,193.35 437.01,188.17 450.29,182.98 463.57,177.80" fill="none" stroke="#fb923c" stroke-width="1.0" opacity="0.55"/><polyline points="107.86,272.40 121.15,267.21 134.43,262.03 147.71,256.85 160.99,251.66 174.28,246.48 187.56,241.30 200.84,236.11 214.12,230.93 227.41,225.75 240.69,220.56 253.97,215.38 267.25,210.20 280.54,205.01 293.82,199.83 307.10,194.65 320.38,189.46 333.66,184.28 346.95,179.10 360.23,173.91 373.51,168.73 386.79,163.54 400.08,158.36 413.36,153.18 426.64,147.99" fill="none" stroke="#fb923c" stroke-width="1.0" opacity="0.55"/><polyline points="70.93,242.59 84.21,237.41 97.50,232.22 110.78,227.04 124.06,221.86 137.34,216.67 150.63,211.49 163.91,206.31 177.19,201.12 190.47,195.94 203.76,190.76 217.04,185.57 230.32,180.39 243.60,175.21 256.89,170.02 270.17,164.84 283.45,159.66 296.73,154.47 310.02,149.29 323.30,144.11 336.58,138.92 349.86,133.74 363.15,128.56 376.43,123.37 389.71,118.19" fill="none" stroke="#fb923c" stroke-width="1.0" opacity="0.55"/><polyline points="34.00,212.79 47.28,207.60 60.56,202.42 73.85,197.24 87.13,192.05 100.41,186.87 113.69,181.69 126.98,176.50 140.26,171.32 153.54,166.14 166.82,160.95 180.11,155.77 193.39,150.59 206.67,145.40 219.95,140.22 233.24,135.04 246.52,129.85 259.80,124.67 273.08,119.49 286.37,114.30 299.65,109.12 312.93,103.94 326.21,98.75 339.50,93.57 352.78,88.39" fill="none" stroke="#fb923c" stroke-width="1.0" opacity="0.55"/><polyline points="426.79,192.15 420.96,187.76 414.62,183.59 407.81,179.65 400.56,175.98 392.89,172.58 384.84,169.47 376.45,166.67 367.75,164.17 358.78,162.00 349.57,160.17 340.17,158.68 330.62,157.53 320.95,156.74 311.21,156.31 301.44,156.23 291.68,156.51 281.97,157.15 272.36,158.15 262.89,159.49 253.59,161.18 244.51,163.21 235.69,165.56 227.16,168.24 218.96,171.22 211.12,174.50 203.68,178.05 196.68,181.88 190.13,185.95 184.07,190.25 178.53,194.77 173.52,199.48 169.07,204.36 165.20,209.39 161.93,214.56 159.27,219.84 157.22,225.20 155.81,230.62 155.03,236.09 154.89,241.57 155.39,247.05 156.53,252.49 158.30,257.88 160.69,263.20 163.70,268.42 167.31,273.51 171.50,278.46 176.27,283.25 181.58,287.85 187.41,292.24 193.75,296.41 200.56,300.35 207.81,304.02 215.48,307.42 223.52,310.53 231.92,313.33 240.62,315.83 249.59,318.00 258.80,319.83 268.20,321.32 277.75,322.47 287.42,323.26 297.16,323.69 306.93,323.77 316.69,323.49 326.39,322.85 336.00,321.85 345.48,320.51 354.77,318.82 363.85,316.79 372.68,314.44 381.21,311.76 389.41,308.78 397.25,305.50 404.69,301.95 411.69,298.12 418.24,294.05 424.30,289.75 429.84,285.23 434.85,280.52 439.30,275.64 443.16,270.61 446.44,265.44 449.10,260.16 451.15,254.80 452.56,249.38 453.34,243.91 453.48,238.43 452.98,232.95 451.84,227.51 450.07,222.12 447.68,216.80 444.67,211.58 441.06,206.49 436.87,201.54 432.10,196.75 426.79,192.15" fill="none" stroke="#facc15" stroke-width="2.8" opacity="1.0"/><polyline points="426.79,192.15 428.22,193.33 430.84,195.60 432.51,197.14 434.13,198.70 435.68,200.28 437.90,202.69 439.30,204.31 440.64,205.95 442.53,208.44 443.71,210.12 444.82,211.82 446.37,214.38 447.32,216.10 448.20,217.84 449.02,219.59 450.11,222.22 450.76,223.99 451.34,225.77 452.08,228.44 452.49,230.23 452.83,232.03 453.21,234.73 453.38,236.53 453.47,238.33 453.50,240.14 453.42,242.84 453.27,244.65 453.06,246.45 452.61,249.15 452.22,250.94 451.76,252.72 450.95,255.39 450.33,257.16 449.63,258.93 448.87,260.68 447.60,263.29 446.67,265.02 445.68,266.74 444.06,269.29 442.90,270.97 441.68,272.64 439.73,275.12 438.35,276.75 436.90,278.37 435.40,279.96 433.03,282.32 431.37,283.87 429.66,285.40 426.98,287.65 425.12,289.12 423.20,290.57 421.23,292.00 418.18,294.09 416.07,295.46 413.92,296.80 410.59,298.76 408.31,300.03 405.98,301.28 402.39,303.09 399.95,304.27 397.46,305.41 394.92,306.52 391.04,308.13 388.41,309.17 385.73,310.17 381.65,311.61 378.88,312.53 376.07,313.42 371.81,314.69 368.92,315.49 366.01,316.25 363.07,316.98 358.60,318.01 355.60,318.65 352.56,319.26 347.97,320.09 344.89,320.60 341.78,321.08 337.10,321.72 333.95,322.10 330.79,322.44 327.62,322.74 322.84,323.12 319.65,323.33 316.44,323.50 311.63,323.68 308.41,323.75 305.20,323.78 300.37,323.76 297.16,323.69 293.94,323.59 290.74,323.45 285.94,323.16 282.75,322.92 279.57,322.64 274.83,322.16 271.68,321.78 268.55,321.37 263.88,320.68 260.79,320.18 257.72,319.64 254.68,319.06 250.15,318.12 247.17,317.45 244.21,316.74 239.82,315.61 236.93,314.82 234.07,313.99 231.25,313.13 227.08,311.77 224.34,310.82 221.64,309.84 217.66,308.30 215.06,307.24 212.50,306.15 208.74,304.45 206.29,303.29 203.88,302.09 201.52,300.86 198.07,298.97 195.84,297.67 193.65,296.35 190.46,294.32 188.40,292.93 186.40,291.52 183.49,289.36 181.63,287.89 179.82,286.40 178.07,284.88 175.55,282.57 173.95,281.01 172.40,279.42 170.20,277.02 168.81,275.39 167.49,273.74 165.62,271.25 164.45,269.57 163.35,267.87 162.31,266.16 160.88,263.58 160.01,261.84 159.21,260.09 158.13,257.45 157.49,255.68 156.93,253.90 156.21,251.23 155.81,249.44 155.48,247.64 155.23,245.84 154.97,243.14 154.88,241.33 154.87,239.53 154.97,236.82 155.13,235.02 155.36,233.22 155.66,231.42 156.23,228.73 156.70,226.95 157.23,225.17 158.17,222.51 158.87,220.75 159.65,219.00 160.93,216.39 161.87,214.66 162.88,212.94 163.95,211.24 165.69,208.71 166.92,207.05 168.22,205.40 170.28,202.95 171.74,201.34 173.25,199.75 175.64,197.39 177.31,195.85 179.03,194.32 180.82,192.82 183.60,190.61 185.53,189.16 187.51,187.74 190.58,185.65 192.69,184.29 194.86,182.95 198.20,181.00 200.49,179.73 202.83,178.49 205.22,177.28 208.88,175.52 211.38,174.38 213.92,173.27 217.81,171.67 220.46,170.64 223.14,169.65 227.23,168.21 230.01,167.30 232.82,166.42 235.66,165.57 239.98,164.37 242.90,163.61 245.85,162.89 250.32,161.87 253.33,161.23 256.37,160.64 260.96,159.81 264.05,159.31 267.16,158.84 270.29,158.41 275.00,157.84 278.16,157.50 281.34,157.21 286.12,156.83 289.32,156.63 292.52,156.47 295.73,156.35 300.55,156.24 303.77,156.22 306.98,156.23 311.81,156.32 315.02,156.43 318.22,156.58 323.02,156.88 326.21,157.13 329.38,157.41 332.55,157.73 337.27,158.29 340.40,158.71 343.51,159.17 348.15,159.92 351.21,160.47 354.25,161.06 358.77,162.00 361.75,162.68 364.71,163.39 367.63,164.14 371.97,165.33 374.82,166.17 377.64,167.04 381.80,168.41 384.53,169.36 387.22,170.35 391.19,171.89 393.78,172.96 396.34,174.06 398.85,175.18 402.53,176.93 404.93,178.14 407.28,179.37 410.71,181.27 412.94,182.57 415.12,183.90 417.95,185.71 419.32,186.63 421.01,187.80 422.99,189.22 425.85,191.40 426.79,192.15" fill="none" stroke="#f472b6" stroke-width="2.8" opacity="1.0"/><polyline points="426.79,192.15 433.95,198.53 440.25,205.47 445.51,212.93 449.55,220.83 452.24,229.09 453.44,237.59 453.09,246.21 451.15,254.80 447.63,263.24 442.61,271.39 436.20,279.12 428.56,286.34 419.86,292.96 410.30,298.92 400.08,304.20 389.41,308.78 378.05,312.80 365.68,316.34 352.39,319.29 338.30,321.56 323.58,323.07 308.43,323.75 293.07,323.56 277.75,322.47 262.72,320.50 248.20,317.68 234.42,314.09 221.56,309.80 209.76,304.93 199.13,299.56 189.73,293.83 181.58,287.85 174.42,281.47 168.12,274.53 162.86,267.07 158.81,259.17 156.13,250.91 154.93,242.41 155.28,233.79 157.22,225.20 160.74,216.76 165.76,208.61 172.17,200.88 179.81,193.66 188.51,187.04 198.07,181.08 208.28,175.80 218.96,171.22 230.32,167.20 242.69,163.66 255.98,160.71 270.07,158.44 284.79,156.93 299.94,156.25 315.30,156.44 330.62,157.53 345.65,159.50 360.17,162.32 373.95,165.91 386.81,170.20 398.61,175.07 409.24,180.44 418.64,186.17 426.79,192.15" fill="none" stroke="#34d399" stroke-width="2.8" opacity="1.0"/>
</svg>
