<svg xmlns="http://www.w3.org/2000/svg" width="760" height="480" viewBox="0 0 760 480">
<rect width="100%" height="100%" fill="#0f172a"/>
<text x="18" y="24" font-family="sans-serif" font-size="15" fill="#f8fafc">Parallel planes within tolerance</text>
<text x="18" y="44" font-family="sans-serif" font-size="12" fill="#94a3b8">Expected empty</text>
<polyline points="317.77,444.47 305.95,434.93 294.12,425.39 282.30,415.84 270.47,406.30 258.65,396.76 246.83,387.22 235.00,377.68 223.18,368.13 211.36,358.59 199.53,349.05 187.71,339.51 175.88,329.97 164.06,320.42 152.24,310.88 140.41,301.34 128.59,291.80 116.77,282.26 104.94,272.71 93.12,263.17 81.29,253.63 69.47,244.09 57.65,234.55 45.82,225.00 34.00,215.46" fill="none" stroke="#60a5fa" stroke-width="1.0" opacity="0.55"/><polyline points="385.81,417.92 373.98,408.38 362.16,398.83 350.34,389.29 338.51,379.75 326.69,370.21 314.87,360.67 303.04,351.12 291.22,341.58 279.39,332.04 267.57,322.50 255.75,312.96 243.92,303.41 232.10,293.87 220.28,284.33 208.45,274.79 196.63,265.25 184.80,255.70 172.98,246.16 161.16,236.62 149.33,227.08 137.51,217.54 125.69,207.99 113.86,198.45 102.04,188.91" fill="none" stroke="#60a5fa" stroke-width="1.0" opacity="0.55"/><polyline points="453.85,391.37 442.02,381.82 430.20,372.28 418.38,362.74 406.55,353.20 394.73,343.66 382.90,334.11 371.08,324.57 359.26,315.03 347.43,305.49 335.61,295.95 323.79,286.40 311.96,276.86 300.14,267.32 288.31,257.78 276.49,248.24 264.67,238.69 252.84,229.15 241.02,219.61 229.20,210.07 217.37,200.53 205.55,190.98 193.72,181.44 181.90,171.90 170.08,162.36" fill="none" stroke="#60a5fa" stroke-width="1.0" opacity="0.55"/><polyline points="521.88,364.81 510.06,355.27 498.24,345.73 486.41,336.19 474.59,326.65 462.77,317.10 450.94,307.56 439.12,298.02 427.29,288.48 415.47,278.94 403.65,269.39 391.82,259.85 380.00,250.31 368.18,240.77 356.35,231.23 344.53,221.68 332.71,212.14 320.88,202.60 309.06,193.06 297.23,183.52 285.41,173.98 273.59,164.43 261.76,154.89 249.94,145.35 238.12,135.81" fill="none" stroke="#60a5fa" stroke-width="1.0" opacity="0.55"/><polyline points="589.92,338.26 578.10,328.72 566.28,319.18 554.45,309.64 542.63,300.10 530.80,290.55 518.98,281.01 507.16,271.47 495.33,261.93 483.51,252.39 471.69,242.84 459.86,233.30 448.04,223.76 436.21,214.22 424.39,204.68 412.57,195.13 400.74,185.59 388.92,176.05 377.10,166.51 365.27,156.97 353.45,147.42 341.62,137.88 329.80,128.34 317.98,118.80 306.15,109.26" fill="none" stroke="#60a5fa" stroke-width="1.0" opacity="0.55"/><polyline points="657.96,311.71 646.14,302.17 634.31,292.63 622.49,283.09 610.67,273.54 598.84,264.00 587.02,254.46 575.20,244.92 563.37,235.38 551.55,225.83 539.72,216.29 527.90,206.75 516.08,197.21 504.25,187.67 492.43,178.12 480.61,168.58 468.78,159.04 456.96,149.50 445.13,139.96 433.31,130.41 421.49,120.87 409.66,111.33 397.84,101.79 386.02,92.25 374.19,82.70" fill="none" stroke="#60a5fa" stroke-width="1.0" opacity="0.55"/><polyline points="726.00,285.16 714.18,275.62 702.35,266.08 690.53,256.53 678.71,246.99 666.88,237.45 655.06,227.91 643.23,218.37 631.41,208.82 619.59,199.28 607.76,189.74 595.94,180.20 584.12,170.66 572.29,161.11 560.47,151.57 548.64,142.03 536.82,132.49 525.00,122.95 513.17,113.40 501.35,103.86 489.53,94.32 477.70,84.78 465.88,75.24 454.05,65.69 442.23,56.15" fill="none" stroke="#60a5fa" stroke-width="1.0" opacity="0.55"/><polyline points="317.77,444.47 334.78,437.83 351.79,431.19 368.80,424.56 385.81,417.92 402.82,411.28 419.83,404.64 436.84,398.00 453.85,391.37 470.86,384.73 487.87,378.09 504.88,371.45 521.88,364.81 538.89,358.18 555.90,351.54 572.91,344.90 589.92,338.26 606.93,331.63 623.94,324.99 640.95,318.35 657.96,311.71 674.97,305.07 691.98,298.44 708.99,291.80 726.00,285.16" fill="none" stroke="#60a5fa" stroke-width="1.0" opacity="0.55"/><polyline points="270.47,406.30 287.48,399.66 304.49,393.03 321.50,386.39 338.51,379.75 355.52,373.11 372.53,366.47 389.54,359.84 406.55,353.20 423.56,346.56 440.57,339.92 457.58,333.28 474.59,326.65 491.60,320.01 508.61,313.37 525.62,306.73 542.63,300.10 559.64,293.46 576.65,286.82 593.66,280.18 610.67,273.54 627.68,266.91 644.69,260.27 661.70,253.63 678.71,246.99" fill="none" stroke="#60a5fa" stroke-width="1.0" opacity="0.55"/><polyline points="223.18,368.13 240.19,361.50 257.20,354.86 274.21,348.22 291.22,341.58 308.23,334.94 325.24,328.31 342.25,321.67 359.26,315.03 376.27,308.39 393.28,301.75 410.29,295.12 427.29,288.48 444.30,281.84 461.31,275.20 478.32,268.57 495.33,261.93 512.34,255.29 529.35,248.65 546.36,242.01 563.37,235.38 580.38,228.74 597.39,222.10 614.40,215.46 631.41,208.82" fill="none" stroke="#60a5fa" stroke-width="1.0" opacity="0.55"/><polyline points="175.88,329.97 192.89,323.33 209.90,316.69 226.91,310.05 243.92,303.41 260.93,296.78 277.94,290.14 294.95,283.50 311.96,276.86 328.97,270.22 345.98,263.59 362.99,256.95 380.00,250.31 397.01,243.67 414.02,237.04 431.03,230.40 448.04,223.76 465.05,217.12 482.06,210.48 499.07,203.85 516.08,197.21 533.09,190.57 550.10,183.93 567.11,177.29 584.12,170.66" fill="none" stroke="#60a5fa" stroke-width="1.0" opacity="0.55"/><polyline points="128.59,291.80 145.60,285.16 162.61,278.52 179.62,271.88 196.63,265.25 213.64,258.61 230.65,251.97 247.66,245.33 264.67,238.69 281.68,232.06 298.69,225.42 315.70,218.78 332.71,212.14 349.71,205.51 366.72,198.87 383.73,192.23 400.74,185.59 417.75,178.95 434.76,172.32 451.77,165.68 468.78,159.04 485.79,152.40 502.80,145.76 519.81,139.13 536.82,132.49" fill="none" stroke="#60a5fa" stroke-width="1.0" opacity="0.55"/><polyline points="81.29,253.63 98.30,246.99 115.31,240.35 132.32,233.72 149.33,227.08 166.34,220.44 183.35,213.80 200.36,207.16 217.37,200.53 234.38,193.89 251.39,187.25 268.40,180.61 285.41,173.98 302.42,167.34 319.43,160.70 336.44,154.06 353.45,147.42 370.46,140.79 387.47,134.15 404.48,127.51 421.49,120.87 438.50,114.23 455.51,107.60 472.52,100.96 489.53,94.32" fill="none" stroke="#60a5fa" stroke-width="1.0" opacity="0.55"/><polyline points="34.00,215.46 51.01,208.82 68.02,202.19 85.03,195.55 102.04,188.91 119.05,182.27 136.06,175.63 153.07,169.00 170.08,162.36 187.09,155.72 204.10,149.08 221.11,142.45 238.12,135.81 255.12,129.17 272.13,122.53 289.14,115.89 306.15,109.26 323.16,102.62 340.17,95.98 357.18,89.34 374.19,82.70 391.20,76.07 408.21,69.43 425.22,62.79 442.23,56.15" fill="none" stroke="#60a5fa" stroke-width="1.0" opacity="0.55"/><polyline points="317.77,446.00 305.95,436.46 294.12,426.92 282.30,417.37 270.47,407.83 258.65,398.29 246.83,388.75 235.00,379.21 223.18,369.66 211.36,360.12 199.53,350.58 187.71,341.04 175.88,331.50 164.06,321.95 152.24,312.41 140.41,302.87 128.59,293.33 116.77,283.79 104.94,274.24 93.12,264.70 81.29,255.16 69.47,245.62 57.65,236.08 45.82,226.53 34.00,216.99" fill="none" stroke="#fb923c" stroke-width="1.0" opacity="0.55"/><polyline points="385.81,419.45 373.98,409.91 362.16,400.36 350.34,390.82 338.51,381.28 326.69,371.74 314.87,362.20 303.04,352.65 291.22,343.11 279.39,333.57 267.57,324.03 255.75,314.49 243.92,304.94 232.10,295.40 220.28,285.86 208.45,276.32 196.63,266.78 184.80,257.24 172.98,247.69 161.16,238.15 149.33,228.61 137.51,219.07 125.69,209.53 113.86,199.98 102.04,190.44" fill="none" stroke="#fb923c" stroke-width="1.0" opacity="0.55"/><polyline points="453.85,392.90 442.02,383.35 430.20,373.81 418.38,364.27 406.55,354.73 394.73,345.19 382.90,335.65 371.08,326.10 359.26,316.56 347.43,307.02 335.61,297.48 323.79,287.94 311.96,278.39 300.14,268.85 288.31,259.31 276.49,249.77 264.67,240.23 252.84,230.68 241.02,221.14 229.20,211.60 217.37,202.06 205.55,192.52 193.72,182.97 181.90,173.43 170.08,163.89" fill="none" stroke="#fb923c" stroke-width="1.0" opacity="0.55"/><polyline points="521.88,366.35 510.06,356.80 498.24,347.26 486.41,337.72 474.59,328.18 462.77,318.64 450.94,309.09 439.12,299.55 427.29,290.01 415.47,280.47 403.65,270.93 391.82,261.38 380.00,251.84 368.18,242.30 356.35,232.76 344.53,223.22 332.71,213.67 320.88,204.13 309.06,194.59 297.23,185.05 285.41,175.51 273.59,165.96 261.76,156.42 249.94,146.88 238.12,137.34" fill="none" stroke="#fb923c" stroke-width="1.0" opacity="0.55"/><polyline points="589.92,339.79 578.10,330.25 566.28,320.71 554.45,311.17 542.63,301.63 530.80,292.08 518.98,282.54 507.16,273.00 495.33,263.46 483.51,253.92 471.69,244.37 459.86,234.83 448.04,225.29 436.21,215.75 424.39,206.21 412.57,196.66 400.74,187.12 388.92,177.58 377.10,168.04 365.27,158.50 353.45,148.95 341.62,139.41 329.80,129.87 317.98,120.33 306.15,110.79" fill="none" stroke="#fb923c" stroke-width="1.0" opacity="0.55"/><polyline points="657.96,313.24 646.14,303.70 634.31,294.16 622.49,284.62 610.67,275.07 598.84,265.53 587.02,255.99 575.20,246.45 563.37,236.91 551.55,227.36 539.72,217.82 527.90,208.28 516.08,198.74 504.25,189.20 492.43,179.65 480.61,170.11 468.78,160.57 456.96,151.03 445.13,141.49 433.31,131.94 421.49,122.40 409.66,112.86 397.84,103.32 386.02,93.78 374.19,84.24" fill="none" stroke="#fb923c" stroke-width="1.0" opacity="0.55"/><polyline points="726.00,286.69 714.18,277.15 702.35,267.61 690.53,258.06 678.71,248.52 666.88,238.98 655.06,229.44 643.23,219.90 631.41,210.35 619.59,200.81 607.76,191.27 595.94,181.73 584.12,172.19 572.29,162.65 560.47,153.10 548.64,143.56 536.82,134.02 525.00,124.48 513.17,114.94 501.35,105.39 489.53,95.85 477.70,86.31 465.88,76.77 454.05,67.23 442.23,57.68" fill="none" stroke="#fb923c" stroke-width="1.0" opacity="0.55"/><polyline points="317.77,446.00 334.78,439.36 351.79,432.72 368.80,426.09 385.81,419.45 402.82,412.81 419.83,406.17 436.84,399.53 453.85,392.90 470.86,386.26 487.87,379.62 504.88,372.98 521.88,366.35 538.89,359.71 555.90,353.07 572.91,346.43 589.92,339.79 606.93,333.16 623.94,326.52 640.95,319.88 657.96,313.24 674.97,306.60 691.98,299.97 708.99,293.33 726.00,286.69" fill="none" stroke="#fb923c" stroke-width="1.0" opacity="0.55"/><polyline points="270.47,407.83 287.48,401.19 304.49,394.56 321.50,387.92 338.51,381.28 355.52,374.64 372.53,368.00 389.54,361.37 406.55,354.73 423.56,348.09 440.57,341.45 457.58,334.82 474.59,328.18 491.60,321.54 508.61,314.90 525.62,308.26 542.63,301.63 559.64,294.99 576.65,288.35 593.66,281.71 610.67,275.07 627.68,268.44 644.69,261.80 661.70,255.16 678.71,248.52" fill="none" stroke="#fb923c" stroke-width="1.0" opacity="0.55"/><polyline points="223.18,369.66 240.19,363.03 257.20,356.39 274.21,349.75 291.22,343.11 308.23,336.47 325.24,329.84 342.25,323.20 359.26,316.56 376.27,309.92 393.28,303.29 410.29,296.65 427.29,290.01 444.30,283.37 461.31,276.73 478.32,270.10 495.33,263.46 512.34,256.82 529.35,250.18 546.36,243.54 563.37,236.91 580.38,230.27 597.39,223.63 614.40,216.99 631.41,210.35" fill="none" stroke="#fb923c" stroke-width="1.0" opacity="0.55"/><polyline points="175.88,331.50 192.89,324.86 209.90,318.22 226.91,311.58 243.92,304.94 260.93,298.31 277.94,291.67 294.95,285.03 311.96,278.39 328.97,271.76 345.98,265.12 362.99,258.48 380.00,251.84 397.01,245.20 414.02,238.57 431.03,231.93 448.04,225.29 465.05,218.65 482.06,212.01 499.07,205.38 516.08,198.74 533.09,192.10 550.10,185.46 567.11,178.82 584.12,172.19" fill="none" stroke="#fb923c" stroke-width="1.0" opacity="0.55"/><polyline points="128.59,293.33 145.60,286.69 162.61,280.05 179.62,273.41 196.63,266.78 213.64,260.14 230.65,253.50 247.66,246.86 264.67,240.23 281.68,233.59 298.69,226.95 315.70,220.31 332.71,213.67 349.71,207.04 366.72,200.40 383.73,193.76 400.74,187.12 417.75,180.48 434.76,173.85 451.77,167.21 468.78,160.57 485.79,153.93 502.80,147.29 519.81,140.66 536.82,134.02" fill="none" stroke="#fb923c" stroke-width="1.0" opacity="0.55"/><polyline points="81.29,255.16 98.30,248.52 115.31,241.88 132.32,235.25 149.33,228.61 166.34,221.97 183.35,215.33 200.36,208.70 217.37,202.06 234.38,195.42 251.39,188.78 268.40,182.14 285.41,175.51 302.42,168.87 319.43,162.23 336.44,155.59 353.45,148.95 370.46,142.32 387.47,135.68 404.48,129.04 421.49,122.40 438.50,115.76 455.51,109.13 472.52,102.49 489.53,95.85" fill="none" stroke="#fb923c" stroke-width="1.0" opacity="0.55"/><polyline points="34.00,216.99 51.01,210.35 68.02,203.72 85.03,197.08 102.04,190.44 119.05,183.80 136.06,177.17 153.07,170.53 170.08,163.89 187.09,157.25 204.10,150.61 221.11,143.98 238.12,137.34 255.12,130.70 272.13,124.06 289.14,117.42 306.15,110.79 323.16,104.15 340.17,97.51 357.18,90.87 374.19,84.24 391.20,77.60 408.21,70.96 425.22,64.32 442.23,57.68" fill="none" stroke="#fb923c" stroke-width="1.0" opacity="0.55"/>
</svg>
