<svg xmlns="http://www.w3.org/2000/svg" width="760" height="480" viewBox="0 0 760 480">
<rect width="100%" height="100%" fill="#0f172a"/>
<text x="18" y="24" font-family="sans-serif" font-size="15" fill="#f8fafc">Parallel planes outside tolerance</text>
<text x="18" y="44" font-family="sans-serif" font-size="12" fill="#94a3b8">Expected empty</text>
<polyline points="317.77,443.45 305.95,433.91 294.12,424.36 282.30,414.82 270.47,405.28 258.65,395.74 246.83,386.20 235.00,376.65 223.18,367.11 211.36,357.57 199.53,348.03 187.71,338.49 175.88,328.94 164.06,319.40 152.24,309.86 140.41,300.32 128.59,290.78 116.77,281.24 104.94,271.69 93.12,262.15 81.29,252.61 69.47,243.07 57.65,233.53 45.82,223.98 34.00,214.44" fill="none" stroke="#60a5fa" stroke-width="1.0" opacity="0.55"/><polyline points="385.81,416.90 373.98,407.36 362.16,397.81 350.34,388.27 338.51,378.73 326.69,369.19 314.87,359.65 303.04,350.10 291.22,340.56 279.39,331.02 267.57,321.48 255.75,311.94 243.92,302.39 232.10,292.85 220.28,283.31 208.45,273.77 196.63,264.23 184.80,254.68 172.98,245.14 161.16,235.60 149.33,226.06 137.51,216.52 125.69,206.97 113.86,197.43 102.04,187.89" fill="none" stroke="#60a5fa" stroke-width="1.0" opacity="0.55"/><polyline points="453.85,390.35 442.02,380.80 430.20,371.26 418.38,361.72 406.55,352.18 394.73,342.64 382.90,333.09 371.08,323.55 359.26,314.01 347.43,304.47 335.61,294.93 323.79,285.38 311.96,275.84 300.14,266.30 288.31,256.76 276.49,247.22 264.67,237.67 252.84,228.13 241.02,218.59 229.20,209.05 217.37,199.51 205.55,189.96 193.72,180.42 181.90,170.88 170.08,161.34" fill="none" stroke="#60a5fa" stroke-width="1.0" opacity="0.55"/><polyline points="521.88,363.79 510.06,354.25 498.24,344.71 486.41,335.17 474.59,325.63 462.77,316.08 450.94,306.54 439.12,297.00 427.29,287.46 415.47,277.92 403.65,268.37 391.82,258.83 380.00,249.29 368.18,239.75 356.35,230.21 344.53,220.66 332.71,211.12 320.88,201.58 309.06,192.04 297.23,182.50 285.41,172.95 273.59,163.41 261.76,153.87 249.94,144.33 238.12,134.79" fill="none" stroke="#60a5fa" stroke-width="1.0" opacity="0.55"/><polyline points="589.92,337.24 578.10,327.70 566.28,318.16 554.45,308.62 542.63,299.07 530.80,289.53 518.98,279.99 507.16,270.45 495.33,260.91 483.51,251.36 471.69,241.82 459.86,232.28 448.04,222.74 436.21,213.20 424.39,203.65 412.57,194.11 400.74,184.57 388.92,175.03 377.10,165.49 365.27,155.94 353.45,146.40 341.62,136.86 329.80,127.32 317.98,117.78 306.15,108.24" fill="none" stroke="#60a5fa" stroke-width="1.0" opacity="0.55"/><polyline points="657.96,310.69 646.14,301.15 634.31,291.61 622.49,282.06 610.67,272.52 598.84,262.98 587.02,253.44 575.20,243.90 563.37,234.36 551.55,224.81 539.72,215.27 527.90,205.73 516.08,196.19 504.25,186.65 492.43,177.10 480.61,167.56 468.78,158.02 456.96,148.48 445.13,138.94 433.31,129.39 421.49,119.85 409.66,110.31 397.84,100.77 386.02,91.23 374.19,81.68" fill="none" stroke="#60a5fa" stroke-width="1.0" opacity="0.55"/><polyline points="726.00,284.14 714.18,274.60 702.35,265.06 690.53,255.51 678.71,245.97 666.88,236.43 655.06,226.89 643.23,217.35 631.41,207.80 619.59,198.26 607.76,188.72 595.94,179.18 584.12,169.64 572.29,160.09 560.47,150.55 548.64,141.01 536.82,131.47 525.00,121.93 513.17,112.38 501.35,102.84 489.53,93.30 477.70,83.76 465.88,74.22 454.05,64.67 442.23,55.13" fill="none" stroke="#60a5fa" stroke-width="1.0" opacity="0.55"/><polyline points="317.77,443.45 334.78,436.81 351.79,430.17 368.80,423.53 385.81,416.90 402.82,410.26 419.83,403.62 436.84,396.98 453.85,390.35 470.86,383.71 487.87,377.07 504.88,370.43 521.88,363.79 538.89,357.16 555.90,350.52 572.91,343.88 589.92,337.24 606.93,330.60 623.94,323.97 640.95,317.33 657.96,310.69 674.97,304.05 691.98,297.41 708.99,290.78 726.00,284.14" fill="none" stroke="#60a5fa" stroke-width="1.0" opacity="0.55"/><polyline points="270.47,405.28 287.48,398.64 304.49,392.00 321.50,385.37 338.51,378.73 355.52,372.09 372.53,365.45 389.54,358.82 406.55,352.18 423.56,345.54 440.57,338.90 457.58,332.26 474.59,325.63 491.60,318.99 508.61,312.35 525.62,305.71 542.63,299.07 559.64,292.44 576.65,285.80 593.66,279.16 610.67,272.52 627.68,265.89 644.69,259.25 661.70,252.61 678.71,245.97" fill="none" stroke="#60a5fa" stroke-width="1.0" opacity="0.55"/><polyline points="223.18,367.11 240.19,360.47 257.20,353.84 274.21,347.20 291.22,340.56 308.23,333.92 325.24,327.29 342.25,320.65 359.26,314.01 376.27,307.37 393.28,300.73 410.29,294.10 427.29,287.46 444.30,280.82 461.31,274.18 478.32,267.54 495.33,260.91 512.34,254.27 529.35,247.63 546.36,240.99 563.37,234.36 580.38,227.72 597.39,221.08 614.40,214.44 631.41,207.80" fill="none" stroke="#60a5fa" stroke-width="1.0" opacity="0.55"/><polyline points="175.88,328.94 192.89,322.31 209.90,315.67 226.91,309.03 243.92,302.39 260.93,295.76 277.94,289.12 294.95,282.48 311.96,275.84 328.97,269.20 345.98,262.57 362.99,255.93 380.00,249.29 397.01,242.65 414.02,236.01 431.03,229.38 448.04,222.74 465.05,216.10 482.06,209.46 499.07,202.83 516.08,196.19 533.09,189.55 550.10,182.91 567.11,176.27 584.12,169.64" fill="none" stroke="#60a5fa" stroke-width="1.0" opacity="0.55"/><polyline points="128.59,290.78 145.60,284.14 162.61,277.50 179.62,270.86 196.63,264.23 213.64,257.59 230.65,250.95 247.66,244.31 264.67,237.67 281.68,231.04 298.69,224.40 315.70,217.76 332.71,211.12 349.71,204.48 366.72,197.85 383.73,191.21 400.74,184.57 417.75,177.93 434.76,171.30 451.77,164.66 468.78,158.02 485.79,151.38 502.80,144.74 519.81,138.11 536.82,131.47" fill="none" stroke="#60a5fa" stroke-width="1.0" opacity="0.55"/><polyline points="81.29,252.61 98.30,245.97 115.31,239.33 132.32,232.70 149.33,226.06 166.34,219.42 183.35,212.78 200.36,206.14 217.37,199.51 234.38,192.87 251.39,186.23 268.40,179.59 285.41,172.95 302.42,166.32 319.43,159.68 336.44,153.04 353.45,146.40 370.46,139.77 387.47,133.13 404.48,126.49 421.49,119.85 438.50,113.21 455.51,106.58 472.52,99.94 489.53,93.30" fill="none" stroke="#60a5fa" stroke-width="1.0" opacity="0.55"/><polyline points="34.00,214.44 51.01,207.80 68.02,201.17 85.03,194.53 102.04,187.89 119.05,181.25 136.06,174.61 153.07,167.98 170.08,161.34 187.09,154.70 204.10,148.06 221.11,141.42 238.12,134.79 255.12,128.15 272.13,121.51 289.14,114.87 306.15,108.24 323.16,101.60 340.17,94.96 357.18,88.32 374.19,81.68 391.20,75.05 408.21,68.41 425.22,61.77 442.23,55.13" fill="none" stroke="#60a5fa" stroke-width="1.0" opacity="0.55"/><polyline points="317.77,446.00 305.95,436.46 294.12,426.92 282.30,417.37 270.47,407.83 258.65,398.29 246.83,388.75 235.00,379.21 223.18,369.66 211.36,360.12 199.53,350.58 187.71,341.04 175.88,331.50 164.06,321.95 152.24,312.41 140.41,302.87 128.59,293.33 116.77,283.79 104.94,274.24 93.12,264.70 81.29,255.16 69.47,245.62 57.65,236.08 45.82,226.53 34.00,216.99" fill="none" stroke="#fb923c" stroke-width="1.0" opacity="0.55"/><polyline points="385.81,419.45 373.98,409.91 362.16,400.36 350.34,390.82 338.51,381.28 326.69,371.74 314.87,362.20 303.04,352.65 291.22,343.11 279.39,333.57 267.57,324.03 255.75,314.49 243.92,304.94 232.10,295.40 220.28,285.86 208.45,276.32 196.63,266.78 184.80,257.24 172.98,247.69 161.16,238.15 149.33,228.61 137.51,219.07 125.69,209.53 113.86,199.98 102.04,190.44" fill="none" stroke="#fb923c" stroke-width="1.0" opacity="0.55"/><polyline points="453.85,392.90 442.02,383.35 430.20,373.81 418.38,364.27 406.55,354.73 394.73,345.19 382.90,335.65 371.08,326.10 359.26,316.56 347.43,307.02 335.61,297.48 323.79,287.94 311.96,278.39 300.14,268.85 288.31,259.31 276.49,249.77 264.67,240.23 252.84,230.68 241.02,221.14 229.20,211.60 217.37,202.06 205.55,192.52 193.72,182.97 181.90,173.43 170.08,163.89" fill="none" stroke="#fb923c" stroke-width="1.0" opacity="0.55"/><polyline points="521.88,366.35 510.06,356.80 498.24,347.26 486.41,337.72 474.59,328.18 462.77,318.64 450.94,309.09 439.12,299.55 427.29,290.01 415.47,280.47 403.65,270.93 391.82,261.38 380.00,251.84 368.18,242.30 356.35,232.76 344.53,223.22 332.71,213.67 320.88,204.13 309.06,194.59 297.23,185.05 285.41,175.51 273.59,165.96 261.76,156.42 249.94,146.88 238.12,137.34" fill="none" stroke="#fb923c" stroke-width="1.0" opacity="0.55"/><polyline points="589.92,339.79 578.10,330.25 566.28,320.71 554.45,311.17 542.63,301.63 530.80,292.08 518.98,282.54 507.16,273.00 495.33,263.46 483.51,253.92 471.69,244.37 459.86,234.83 448.04,225.29 436.21,215.75 424.39,206.21 412.57,196.66 400.74,187.12 388.92,177.58 377.10,168.04 365.27,158.50 353.45,148.95 341.62,139.41 329.80,129.87 317.98,120.33 306.15,110.79" fill="none" stroke="#fb923c" stroke-width="1.0" opacity="0.55"/><polyline points="657.96,313.24 646.14,303.70 634.31,294.16 622.49,284.62 610.67,275.07 598.84,265.53 587.02,255.99 575.20,246.45 563.37,236.91 551.55,227.36 539.72,217.82 527.90,208.28 516.08,198.74 504.25,189.20 492.43,179.65 480.61,170.11 468.78,160.57 456.96,151.03 445.13,141.49 433.31,131.94 421.49,122.40 409.66,112.86 397.84,103.32 386.02,93.78 374.19,84.24" fill="none" stroke="#fb923c" stroke-width="1.0" opacity="0.55"/><polyline points="726.00,286.69 714.18,277.15 702.35,267.61 690.53,258.06 678.71,248.52 666.88,238.98 655.06,229.44 643.23,219.90 631.41,210.35 619.59,200.81 607.76,191.27 595.94,181.73 584.12,172.19 572.29,162.65 560.47,153.10 548.64,143.56 536.82,134.02 525.00,124.48 513.17,114.94 501.35,105.39 489.53,95.85 477.70,86.31 465.88,76.77 454.05,67.23 442.23,57.68" fill="none" stroke="#fb923c" stroke-width="1.0" opacity="0.55"/><polyline points="317.77,446.00 334.78,439.36 351.79,432.72 368.80,426.09 385.81,419.45 402.82,412.81 419.83,406.17 436.84,399.53 453.85,392.90 470.86,386.26 487.87,379.62 504.88,372.98 521.88,366.35 538.89,359.71 555.90,353.07 572.91,346.43 589.92,339.79 606.93,333.16 623.94,326.52 640.95,319.88 657.96,313.24 674.97,306.60 691.98,299.97 708.99,293.33 726.00,286.69" fill="none" stroke="#fb923c" stroke-width="1.0" opacity="0.55"/><polyline points="270.47,407.83 287.48,401.19 304.49,394.56 321.50,387.92 338.51,381.28 355.52,374.64 372.53,368.00 389.54,361.37 406.55,354.73 423.56,348.09 440.57,341.45 457.58,334.82 474.59,328.18 491.60,321.54 508.61,314.90 525.62,308.26 542.63,301.63 559.64,294.99 576.65,288.35 593.66,281.71 610.67,275.07 627.68,268.44 644.69,261.80 661.70,255.16 678.71,248.52" fill="none" stroke="#fb923c" stroke-width="1.0" opacity="0.55"/><polyline points="223.18,369.66 240.19,363.03 257.20,356.39 274.21,349.75 291.22,343.11 308.23,336.47 325.24,329.84 342.25,323.20 359.26,316.56 376.27,309.92 393.28,303.29 410.29,296.65 427.29,290.01 444.30,283.37 461.31,276.73 478.32,270.10 495.33,263.46 512.34,256.82 529.35,250.18 546.36,243.54 563.37,236.91 580.38,230.27 597.39,223.63 614.40,216.99 631.41,210.35" fill="none" stroke="#fb923c" stroke-width="1.0" opacity="0.55"/><polyline points="175.88,331.50 192.89,324.86 209.90,318.22 226.91,311.58 243.92,304.94 260.93,298.31 277.94,291.67 294.95,285.03 311.96,278.39 328.97,271.76 345.98,265.12 362.99,258.48 380.00,251.84 397.01,245.20 414.02,238.57 431.03,231.93 448.04,225.29 465.05,218.65 482.06,212.01 499.07,205.38 516.08,198.74 533.09,192.10 550.10,185.46 567.11,178.82 584.12,172.19" fill="none" stroke="#fb923c" stroke-width="1.0" opacity="0.55"/><polyline points="128.59,293.33 145.60,286.69 162.61,280.05 179.62,273.41 196.63,266.78 213.64,260.14 230.65,253.50 247.66,246.86 264.67,240.23 281.68,233.59 298.69,226.95 315.70,220.31 332.71,213.67 349.71,207.04 366.72,200.40 383.73,193.76 400.74,187.12 417.75,180.48 434.76,173.85 451.77,167.21 468.78,160.57 485.79,153.93 502.80,147.29 519.81,140.66 536.82,134.02" fill="none" stroke="#fb923c" stroke-width="1.0" opacity="0.55"/><polyline points="81.29,255.16 98.30,248.52 115.31,241.88 132.32,235.25 149.33,228.61 166.34,221.97 183.35,215.33 200.36,208.70 217.37,202.06 234.38,195.42 251.39,188.78 268.40,182.14 285.41,175.51 302.42,168.87 319.43,162.23 336.44,155.59 353.45,148.95 370.46,142.32 387.47,135.68 404.48,129.04 421.49,122.40 438.50,115.76 455.51,109.13 472.52,102.49 489.53,95.85" fill="none" stroke="#fb923c" stroke-width="1.0" opacity="0.55"/><polyline points="34.00,216.99 51.01,210.35 68.02,203.72 85.03,197.08 102.04,190.44 119.05,183.80 136.06,177.17 153.07,170.53 170.08,163.89 187.09,157.25 204.10,150.61 221.11,143.98 238.12,137.34 255.12,130.70 272.13,124.06 289.14,117.42 306.15,110.79 323.16,104.15 340.17,97.51 357.18,90.87 374.19,84.24 391.20,77.60 408.21,70.96 425.22,64.32 442.23,57.68" fill="none" stroke="#fb923c" stroke-width="1.0" opacity="0.55"/>
</svg>
