<svg xmlns="http://www.w3.org/2000/svg" width="760" height="480" viewBox="0 0 760 480">
<rect width="100%" height="100%" fill="#0f172a"/>
<text x="18" y="24" font-family="sans-serif" font-size="15" fill="#f8fafc">Extrusion cap tangent to spherical corner</text>
<text x="18" y="44" font-family="sans-serif" font-size="12" fill="#94a3b8">Expected rejected: singular-ambiguity</text>
<polyline points="284.22,59.57 299.03,54.69 314.24,51.57 329.50,50.54 344.38,51.81 358.42,55.51 371.20,61.65 382.33,70.09 391.52,80.55 398.59,92.67 403.51,106.01 406.34,120.12 407.23,134.58 406.34,149.73 403.51,166.05 398.59,183.22 391.52,200.86 382.33,218.50 371.20,235.62 358.42,251.73 344.38,266.40 329.50,279.28 314.24,290.15 299.03,298.92 284.22,305.59" fill="none" stroke="#60a5fa" stroke-width="1.0" opacity="0.55"/><polyline points="284.22,59.57 282.48,50.39 280.70,42.87 278.91,37.41 277.16,34.37 275.52,34.00 274.02,36.44 272.71,41.65 271.64,49.44 270.81,59.51 270.23,71.42 269.90,84.71 269.79,98.91 269.90,114.33 270.23,131.46 270.81,150.07 271.64,169.76 272.71,190.05 274.02,210.40 275.52,230.22 277.16,248.96 278.91,266.15 280.70,281.45 282.48,294.62 284.22,305.59" fill="none" stroke="#60a5fa" stroke-width="1.0" opacity="0.55"/><polyline points="284.22,59.57 268.00,56.04 251.34,54.33 234.62,54.69 218.33,57.33 202.94,62.32 188.94,69.64 176.75,79.09 166.69,90.40 158.94,103.16 153.55,116.95 150.46,131.33 149.48,145.86 150.46,160.94 153.55,176.99 158.94,193.72 166.69,210.71 176.75,227.50 188.94,243.60 202.94,258.54 218.33,271.92 234.62,283.44 251.34,292.91 268.00,300.28 284.22,305.59" fill="none" stroke="#60a5fa" stroke-width="1.0" opacity="0.55"/><polyline points="284.22,59.57 269.41,66.24 254.20,75.00 238.94,85.88 224.06,98.76 210.02,113.43 197.24,129.54 186.11,146.66 176.92,164.29 169.85,181.93 164.93,199.11 162.10,215.43 161.21,230.58 162.10,245.04 164.93,259.15 169.85,272.49 176.92,284.61 186.11,295.07 197.24,303.50 210.02,309.64 224.06,313.35 238.94,314.62 254.20,313.58 269.41,310.47 284.22,305.59" fill="none" stroke="#60a5fa" stroke-width="1.0" opacity="0.55"/><polyline points="284.22,59.57 285.96,70.53 287.74,83.71 289.53,99.00 291.28,116.20 292.92,134.94 294.42,154.76 295.73,175.11 296.80,195.40 297.63,215.09 298.21,233.69 298.54,250.83 298.65,266.25 298.54,280.44 298.21,293.74 297.63,305.65 296.80,315.71 295.73,323.51 294.42,328.72 292.92,331.16 291.28,330.79 289.53,327.75 287.74,322.29 285.96,314.76 284.22,305.59" fill="none" stroke="#60a5fa" stroke-width="1.0" opacity="0.55"/><polyline points="284.22,59.57 300.44,64.88 317.10,72.25 333.82,81.72 350.11,93.24 365.50,106.62 379.50,121.56 391.69,137.66 401.75,154.45 409.50,171.44 414.89,188.16 417.98,204.22 418.96,219.29 417.98,233.83 414.89,248.20 409.50,262.00 401.75,274.76 391.69,286.06 379.50,295.52 365.50,302.84 350.11,307.83 333.82,310.47 317.10,310.83 300.44,309.11 284.22,305.59" fill="none" stroke="#60a5fa" stroke-width="1.0" opacity="0.55"/><polyline points="284.22,59.57 299.03,54.69 314.24,51.57 329.50,50.54 344.38,51.81 358.42,55.51 371.20,61.65 382.33,70.09 391.52,80.55 398.59,92.67 403.51,106.01 406.34,120.12 407.23,134.58 406.34,149.73 403.51,166.05 398.59,183.22 391.52,200.86 382.33,218.50 371.20,235.62 358.42,251.73 344.38,266.40 329.50,279.28 314.24,290.15 299.03,298.92 284.22,305.59" fill="none" stroke="#60a5fa" stroke-width="1.0" opacity="0.55"/><polyline points="284.22,59.57 284.22,59.57 284.22,59.57 284.22,59.57 284.22,59.57 284.22,59.57 284.22,59.57 284.22,59.57 284.22,59.57 284.22,59.57 284.22,59.57 284.22,59.57 284.22,59.57 284.22,59.57 284.22,59.57 284.22,59.57 284.22,59.57 284.22,59.57 284.22,59.57 284.22,59.57 284.22,59.57 284.22,59.57 284.22,59.57 284.22,59.57 284.22,59.57" fill="none" stroke="#60a5fa" stroke-width="1.0" opacity="0.55"/><polyline points="344.38,51.81 332.35,44.28 316.24,38.30 297.19,34.82 277.16,34.37 258.35,36.83 242.40,41.54 228.99,48.29 218.33,57.33 212.11,68.02 211.30,79.26 215.68,89.81 224.06,98.76 236.09,106.28 252.20,112.26 271.25,115.74 291.28,116.20 310.09,113.74 326.04,109.03 339.45,102.28 350.11,93.24 356.33,82.54 357.14,71.31 352.76,60.75 344.38,51.81" fill="none" stroke="#60a5fa" stroke-width="1.0" opacity="0.55"/><polyline points="391.52,80.55 370.07,67.13 341.34,56.46 307.35,50.25 271.64,49.44 238.08,53.83 209.64,62.23 185.71,74.27 166.69,90.40 155.61,109.47 154.15,129.51 161.97,148.34 176.92,164.29 198.37,177.72 227.10,188.38 261.09,194.59 296.80,195.40 330.36,191.01 358.80,182.61 382.74,170.57 401.75,154.45 412.83,135.38 414.29,115.33 406.47,96.51 391.52,80.55" fill="none" stroke="#60a5fa" stroke-width="1.0" opacity="0.55"/><polyline points="407.23,134.58 382.64,119.19 349.70,106.96 310.74,99.84 269.79,98.91 231.32,103.94 198.71,113.57 171.28,127.38 149.48,145.86 136.78,167.73 135.11,190.70 144.06,212.29 161.21,230.58 185.80,245.97 218.74,258.20 257.70,265.32 298.65,266.25 337.12,261.21 369.73,251.58 397.16,237.78 418.96,219.29 431.66,197.43 433.33,174.45 424.38,152.87 407.23,134.58" fill="none" stroke="#60a5fa" stroke-width="1.0" opacity="0.55"/><polyline points="391.52,200.86 370.07,187.44 341.34,176.78 307.35,170.57 271.64,169.76 238.08,174.15 209.64,182.55 185.71,194.58 166.69,210.71 155.61,229.78 154.15,249.82 161.97,268.65 176.92,284.61 198.37,298.03 227.10,308.69 261.09,314.91 296.80,315.71 330.36,311.33 358.80,302.93 382.74,290.89 401.75,274.76 412.83,255.69 414.29,235.65 406.47,216.82 391.52,200.86" fill="none" stroke="#60a5fa" stroke-width="1.0" opacity="0.55"/><polyline points="344.38,266.40 332.35,258.87 316.24,252.89 297.19,249.41 277.16,248.96 258.35,251.42 242.40,256.13 228.99,262.88 218.33,271.92 212.11,282.61 211.30,293.85 215.68,304.41 224.06,313.35 236.09,320.88 252.20,326.86 271.25,330.34 291.28,330.79 310.09,328.33 326.04,323.62 339.45,316.87 350.11,307.83 356.33,297.14 357.14,285.90 352.76,275.35 344.38,266.40" fill="none" stroke="#60a5fa" stroke-width="1.0" opacity="0.55"/><polyline points="284.22,305.59 284.22,305.59 284.22,305.59 284.22,305.59 284.22,305.59 284.22,305.59 284.22,305.59 284.22,305.59 284.22,305.59 284.22,305.59 284.22,305.59 284.22,305.59 284.22,305.59 284.22,305.59 284.22,305.59 284.22,305.59 284.22,305.59 284.22,305.59 284.22,305.59 284.22,305.59 284.22,305.59 284.22,305.59 284.22,305.59 284.22,305.59 284.22,305.59" fill="none" stroke="#60a5fa" stroke-width="1.0" opacity="0.55"/><polyline points="239.22,446.00 230.67,439.10 222.12,432.20 213.56,425.30 205.01,418.40 196.46,411.50 187.91,404.60 179.36,397.70 170.81,390.80 162.26,383.90 153.71,376.99 145.16,370.09 136.61,363.19 128.06,356.29 119.51,349.39 110.96,342.49 102.41,335.59 93.85,328.69 85.30,321.79 76.75,314.89 68.20,307.99 59.65,301.09 51.10,294.19 42.55,287.29 34.00,280.39" fill="none" stroke="#fb923c" stroke-width="1.0" opacity="0.55"/><polyline points="288.42,426.80 279.87,419.90 271.32,413.00 262.77,406.10 254.22,399.20 245.67,392.30 237.12,385.40 228.57,378.49 220.01,371.59 211.46,364.69 202.91,357.79 194.36,350.89 185.81,343.99 177.26,337.09 168.71,330.19 160.16,323.29 151.61,316.39 143.06,309.49 134.51,302.59 125.96,295.69 117.41,288.79 108.86,281.89 100.31,274.99 91.75,268.09 83.20,261.19" fill="none" stroke="#fb923c" stroke-width="1.0" opacity="0.55"/><polyline points="337.62,407.60 329.07,400.70 320.52,393.80 311.97,386.90 303.42,379.99 294.87,373.09 286.32,366.19 277.77,359.29 269.22,352.39 260.67,345.49 252.12,338.59 243.57,331.69 235.02,324.79 226.47,317.89 217.91,310.99 209.36,304.09 200.81,297.19 192.26,290.29 183.71,283.39 175.16,276.49 166.61,269.59 158.06,262.69 149.51,255.78 140.96,248.88 132.41,241.98" fill="none" stroke="#fb923c" stroke-width="1.0" opacity="0.55"/><polyline points="386.83,388.40 378.28,381.49 369.73,374.59 361.18,367.69 352.63,360.79 344.07,353.89 335.52,346.99 326.97,340.09 318.42,333.19 309.87,326.29 301.32,319.39 292.77,312.49 284.22,305.59 275.67,298.69 267.12,291.79 258.57,284.89 250.02,277.99 241.47,271.09 232.92,264.19 224.37,257.28 215.81,250.38 207.26,243.48 198.71,236.58 190.16,229.68 181.61,222.78" fill="none" stroke="#fb923c" stroke-width="1.0" opacity="0.55"/><polyline points="436.03,369.19 427.48,362.29 418.93,355.39 410.38,348.49 401.83,341.59 393.28,334.69 384.73,327.79 376.18,320.89 367.63,313.99 359.08,307.09 350.53,300.19 341.97,293.29 333.42,286.39 324.87,279.49 316.32,272.59 307.77,265.69 299.22,258.78 290.67,251.88 282.12,244.98 273.57,238.08 265.02,231.18 256.47,224.28 247.92,217.38 239.37,210.48 230.82,203.58" fill="none" stroke="#fb923c" stroke-width="1.0" opacity="0.55"/><polyline points="485.24,349.99 476.69,343.09 468.13,336.19 459.58,329.29 451.03,322.39 442.48,315.49 433.93,308.59 425.38,301.69 416.83,294.79 408.28,287.89 399.73,280.99 391.18,274.09 382.63,267.19 374.08,260.29 365.53,253.38 356.98,246.48 348.43,239.58 339.87,232.68 331.32,225.78 322.77,218.88 314.22,211.98 305.67,205.08 297.12,198.18 288.57,191.28 280.02,184.38" fill="none" stroke="#fb923c" stroke-width="1.0" opacity="0.55"/><polyline points="534.44,330.79 525.89,323.89 517.34,316.99 508.79,310.09 500.24,303.19 491.69,296.29 483.14,289.39 474.59,282.49 466.03,275.59 457.48,268.69 448.93,261.79 440.38,254.88 431.83,247.98 423.28,241.08 414.73,234.18 406.18,227.28 397.63,220.38 389.08,213.48 380.53,206.58 371.98,199.68 363.43,192.78 354.88,185.88 346.33,178.98 337.77,172.08 329.22,165.18" fill="none" stroke="#fb923c" stroke-width="1.0" opacity="0.55"/><polyline points="239.22,446.00 251.52,441.20 263.82,436.40 276.12,431.60 288.42,426.80 300.72,422.00 313.02,417.20 325.32,412.40 337.62,407.60 349.93,402.80 362.23,398.00 374.53,393.20 386.83,388.40 399.13,383.59 411.43,378.79 423.73,373.99 436.03,369.19 448.33,364.39 460.63,359.59 472.94,354.79 485.24,349.99 497.54,345.19 509.84,340.39 522.14,335.59 534.44,330.79" fill="none" stroke="#fb923c" stroke-width="1.0" opacity="0.55"/><polyline points="205.01,418.40 217.31,413.60 229.62,408.80 241.92,404.00 254.22,399.20 266.52,394.40 278.82,389.60 291.12,384.80 303.42,379.99 315.72,375.19 328.02,370.39 340.32,365.59 352.63,360.79 364.93,355.99 377.23,351.19 389.53,346.39 401.83,341.59 414.13,336.79 426.43,331.99 438.73,327.19 451.03,322.39 463.33,317.59 475.64,312.79 487.94,307.99 500.24,303.19" fill="none" stroke="#fb923c" stroke-width="1.0" opacity="0.55"/><polyline points="170.81,390.80 183.11,386.00 195.41,381.19 207.71,376.39 220.01,371.59 232.32,366.79 244.62,361.99 256.92,357.19 269.22,352.39 281.52,347.59 293.82,342.79 306.12,337.99 318.42,333.19 330.72,328.39 343.02,323.59 355.33,318.79 367.63,313.99 379.93,309.19 392.23,304.39 404.53,299.59 416.83,294.79 429.13,289.99 441.43,285.19 453.73,280.39 466.03,275.59" fill="none" stroke="#fb923c" stroke-width="1.0" opacity="0.55"/><polyline points="136.61,363.19 148.91,358.39 161.21,353.59 173.51,348.79 185.81,343.99 198.11,339.19 210.41,334.39 222.72,329.59 235.02,324.79 247.32,319.99 259.62,315.19 271.92,310.39 284.22,305.59 296.52,300.79 308.82,295.99 321.12,291.19 333.42,286.39 345.72,281.59 358.03,276.79 370.33,271.99 382.63,267.19 394.93,262.39 407.23,257.58 419.53,252.78 431.83,247.98" fill="none" stroke="#fb923c" stroke-width="1.0" opacity="0.55"/><polyline points="102.41,335.59 114.71,330.79 127.01,325.99 139.31,321.19 151.61,316.39 163.91,311.59 176.21,306.79 188.51,301.99 200.81,297.19 213.11,292.39 225.42,287.59 237.72,282.79 250.02,277.99 262.32,273.19 274.62,268.39 286.92,263.59 299.22,258.78 311.52,253.98 323.82,249.18 336.12,244.38 348.43,239.58 360.73,234.78 373.03,229.98 385.33,225.18 397.63,220.38" fill="none" stroke="#fb923c" stroke-width="1.0" opacity="0.55"/><polyline points="68.20,307.99 80.50,303.19 92.80,298.39 105.11,293.59 117.41,288.79 129.71,283.99 142.01,279.19 154.31,274.39 166.61,269.59 178.91,264.79 191.21,259.99 203.51,255.18 215.81,250.38 228.12,245.58 240.42,240.78 252.72,235.98 265.02,231.18 277.32,226.38 289.62,221.58 301.92,216.78 314.22,211.98 326.52,207.18 338.82,202.38 351.13,197.58 363.43,192.78" fill="none" stroke="#fb923c" stroke-width="1.0" opacity="0.55"/><polyline points="34.00,280.39 46.30,275.59 58.60,270.79 70.90,265.99 83.20,261.19 95.50,256.38 107.81,251.58 120.11,246.78 132.41,241.98 144.71,237.18 157.01,232.38 169.31,227.58 181.61,222.78 193.91,217.98 206.21,213.18 218.51,208.38 230.82,203.58 243.12,198.78 255.42,193.98 267.72,189.18 280.02,184.38 292.32,179.58 304.62,174.78 316.92,169.98 329.22,165.18" fill="none" stroke="#fb923c" stroke-width="1.0" opacity="0.55"/>
</svg>
