<svg xmlns="http://www.w3.org/2000/svg" width="760" height="480" viewBox="0 0 760 480">
<rect width="100%" height="100%" fill="#0f172a"/>
<text x="18" y="24" font-family="sans-serif" font-size="15" fill="#f8fafc">Spherical corner cap section</text>
<text x="18" y="44" font-family="sans-serif" font-size="12" fill="#94a3b8">Expected complete</text>
<polyline points="350.33,66.32 369.05,60.15 388.29,56.22 407.58,54.90 426.38,56.51 444.14,61.20 460.30,68.96 474.36,79.62 485.98,92.85 494.93,108.17 501.14,125.03 504.71,142.87 505.84,161.15 504.71,180.31 501.14,200.94 494.93,222.65 485.98,244.95 474.36,267.24 460.30,288.89 444.14,309.26 426.38,327.80 407.58,344.09 388.29,357.83 369.05,368.91 350.33,377.35" fill="none" stroke="#60a5fa" stroke-width="1.0" opacity="0.55"/><polyline points="350.33,66.32 348.14,54.72 345.88,45.21 343.62,38.31 341.41,34.46 339.33,34.00 337.44,37.08 335.79,43.67 334.42,53.52 333.37,66.25 332.65,81.31 332.23,98.11 332.09,116.06 332.23,135.55 332.65,157.21 333.37,180.73 334.42,205.63 335.79,231.28 337.44,257.01 339.33,282.06 341.41,305.76 343.62,327.49 345.88,346.83 348.14,363.49 350.33,377.35" fill="none" stroke="#60a5fa" stroke-width="1.0" opacity="0.55"/><polyline points="350.33,66.32 329.83,61.87 308.76,59.70 287.63,60.16 267.03,63.49 247.58,69.81 229.88,79.05 214.47,91.01 201.75,105.30 191.95,121.44 185.14,138.87 181.23,157.04 179.99,175.42 181.23,194.48 185.14,214.78 191.95,235.92 201.75,257.40 214.47,278.63 229.88,298.98 247.58,317.87 267.03,334.78 287.63,349.34 308.76,361.32 329.83,370.63 350.33,377.35" fill="none" stroke="#60a5fa" stroke-width="1.0" opacity="0.55"/><polyline points="350.33,66.32 331.62,74.76 312.38,85.84 293.09,99.58 274.28,115.87 256.52,134.41 240.37,154.79 226.30,176.43 214.69,198.72 205.74,221.02 199.52,242.74 195.95,263.36 194.82,282.52 195.95,300.80 199.52,318.64 205.74,335.51 214.69,350.82 226.30,364.05 240.37,374.71 256.52,382.48 274.28,387.16 293.09,388.77 312.38,387.46 331.62,383.52 350.33,377.35" fill="none" stroke="#60a5fa" stroke-width="1.0" opacity="0.55"/><polyline points="350.33,66.32 352.53,80.19 354.78,96.84 357.05,116.18 359.25,137.92 361.34,161.61 363.23,186.67 364.88,212.39 366.24,238.05 367.29,262.94 368.02,286.46 368.44,308.12 368.57,327.61 368.44,345.56 368.02,362.36 367.29,377.43 366.24,390.15 364.88,400.01 363.23,406.59 361.34,409.67 359.25,409.21 357.05,405.36 354.78,398.46 352.53,388.95 350.33,377.35" fill="none" stroke="#60a5fa" stroke-width="1.0" opacity="0.55"/><polyline points="350.33,66.32 370.84,73.04 391.91,82.36 413.03,94.33 433.64,108.89 453.09,125.80 470.78,144.69 486.19,165.05 498.92,186.27 508.72,207.75 515.52,228.90 519.44,249.20 520.68,268.25 519.44,286.63 515.52,304.80 508.72,322.24 498.92,338.37 486.19,352.66 470.78,364.62 453.09,373.87 433.64,380.18 413.03,383.51 391.91,383.97 370.84,381.80 350.33,377.35" fill="none" stroke="#60a5fa" stroke-width="1.0" opacity="0.55"/><polyline points="350.33,66.32 369.05,60.15 388.29,56.22 407.58,54.90 426.38,56.51 444.14,61.20 460.30,68.96 474.36,79.62 485.98,92.85 494.93,108.17 501.14,125.03 504.71,142.87 505.84,161.15 504.71,180.31 501.14,200.94 494.93,222.65 485.98,244.95 474.36,267.24 460.30,288.89 444.14,309.26 426.38,327.80 407.58,344.09 388.29,357.83 369.05,368.91 350.33,377.35" fill="none" stroke="#60a5fa" stroke-width="1.0" opacity="0.55"/><polyline points="350.33,66.32 350.33,66.32 350.33,66.32 350.33,66.32 350.33,66.32 350.33,66.32 350.33,66.32 350.33,66.32 350.33,66.32 350.33,66.32 350.33,66.32 350.33,66.32 350.33,66.32 350.33,66.32 350.33,66.32 350.33,66.32 350.33,66.32 350.33,66.32 350.33,66.32 350.33,66.32 350.33,66.32 350.33,66.32 350.33,66.32 350.33,66.32 350.33,66.32" fill="none" stroke="#60a5fa" stroke-width="1.0" opacity="0.55"/><polyline points="426.38,56.51 411.18,47.00 390.82,39.44 366.73,35.04 341.41,34.46 317.63,37.57 297.47,43.53 280.51,52.06 267.03,63.49 259.17,77.01 258.14,91.21 263.68,104.56 274.28,115.87 289.48,125.38 309.85,132.94 333.94,137.34 359.25,137.92 383.04,134.81 403.20,128.85 420.16,120.32 433.64,108.89 441.49,95.37 442.52,81.17 436.99,67.82 426.38,56.51" fill="none" stroke="#60a5fa" stroke-width="1.0" opacity="0.55"/><polyline points="485.98,92.85 458.87,75.88 422.54,62.40 379.58,54.55 334.42,53.52 292.00,59.07 256.04,69.69 225.79,84.91 201.75,105.30 187.74,129.41 185.90,154.74 195.78,178.55 214.69,198.72 241.80,215.69 278.13,229.17 321.09,237.02 366.24,238.05 408.67,232.50 444.62,221.88 474.88,206.66 498.92,186.27 512.92,162.16 514.76,136.82 504.89,113.02 485.98,92.85" fill="none" stroke="#60a5fa" stroke-width="1.0" opacity="0.55"/><polyline points="505.84,161.15 474.76,141.69 433.11,126.24 383.86,117.24 332.09,116.06 283.46,122.43 242.23,134.60 207.55,152.05 179.99,175.42 163.93,203.06 161.82,232.11 173.14,259.40 194.82,282.52 225.91,301.98 267.55,317.43 316.81,326.44 368.57,327.61 417.21,321.25 458.43,309.07 493.12,291.63 520.68,268.25 536.73,240.61 538.84,211.56 527.52,184.27 505.84,161.15" fill="none" stroke="#60a5fa" stroke-width="1.0" opacity="0.55"/><polyline points="485.98,244.95 458.87,227.98 422.54,214.50 379.58,206.65 334.42,205.63 292.00,211.18 256.04,221.79 225.79,237.01 201.75,257.40 187.74,281.51 185.90,306.85 195.78,330.65 214.69,350.82 241.80,367.79 278.13,381.27 321.09,389.13 366.24,390.15 408.67,384.60 444.62,373.98 474.88,358.76 498.92,338.37 512.92,314.26 514.76,288.93 504.89,265.12 485.98,244.95" fill="none" stroke="#60a5fa" stroke-width="1.0" opacity="0.55"/><polyline points="426.38,327.80 411.18,318.29 390.82,310.73 366.73,306.33 341.41,305.76 317.63,308.87 297.47,314.82 280.51,323.35 267.03,334.78 259.17,348.30 258.14,362.51 263.68,375.85 274.28,387.16 289.48,396.68 309.85,404.23 333.94,408.64 359.25,409.21 383.04,406.10 403.20,400.15 420.16,391.61 433.64,380.18 441.49,366.66 442.52,352.46 436.99,339.11 426.38,327.80" fill="none" stroke="#60a5fa" stroke-width="1.0" opacity="0.55"/><polyline points="350.33,377.35 350.33,377.35 350.33,377.35 350.33,377.35 350.33,377.35 350.33,377.35 350.33,377.35 350.33,377.35 350.33,377.35 350.33,377.35 350.33,377.35 350.33,377.35 350.33,377.35 350.33,377.35 350.33,377.35 350.33,377.35 350.33,377.35 350.33,377.35 350.33,377.35 350.33,377.35 350.33,377.35 350.33,377.35 350.33,377.35 350.33,377.35 350.33,377.35" fill="none" stroke="#60a5fa" stroke-width="1.0" opacity="0.55"/><polyline points="293.44,446.00 282.63,437.28 271.82,428.55 261.01,419.83 250.20,411.10 239.39,402.38 228.58,393.66 217.77,384.93 206.96,376.21 196.15,367.49 185.34,358.76 174.53,350.04 163.72,341.31 152.91,332.59 142.10,323.87 131.29,315.14 120.48,306.42 109.67,297.70 98.86,288.97 88.05,280.25 77.24,271.52 66.43,262.80 55.62,254.08 44.81,245.35 34.00,236.63" fill="none" stroke="#fb923c" stroke-width="1.0" opacity="0.55"/><polyline points="355.64,421.73 344.83,413.00 334.02,404.28 323.21,395.55 312.40,386.83 301.59,378.11 290.78,369.38 279.97,360.66 269.16,351.93 258.35,343.21 247.54,334.49 236.73,325.76 225.92,317.04 215.11,308.32 204.30,299.59 193.49,290.87 182.68,282.14 171.87,273.42 161.06,264.70 150.25,255.97 139.44,247.25 128.63,238.53 117.82,229.80 107.01,221.08 96.20,212.35" fill="none" stroke="#fb923c" stroke-width="1.0" opacity="0.55"/><polyline points="417.85,397.45 407.04,388.73 396.23,380.00 385.42,371.28 374.61,362.55 363.80,353.83 352.99,345.11 342.18,336.38 331.37,327.66 320.56,318.94 309.75,310.21 298.94,301.49 288.13,292.76 277.32,284.04 266.51,275.32 255.70,266.59 244.89,257.87 234.08,249.15 223.27,240.42 212.46,231.70 201.65,222.97 190.84,214.25 180.03,205.53 169.22,196.80 158.41,188.08" fill="none" stroke="#fb923c" stroke-width="1.0" opacity="0.55"/><polyline points="480.05,373.18 469.24,364.45 458.43,355.73 447.62,347.00 436.81,338.28 426.00,329.56 415.19,320.83 404.38,312.11 393.57,303.38 382.76,294.66 371.95,285.94 361.14,277.21 350.33,268.49 339.52,259.77 328.71,251.04 317.90,242.32 307.09,233.59 296.28,224.87 285.47,216.15 274.66,207.42 263.85,198.70 253.04,189.98 242.23,181.25 231.42,172.53 220.61,163.80" fill="none" stroke="#fb923c" stroke-width="1.0" opacity="0.55"/><polyline points="542.26,348.90 531.45,340.18 520.64,331.45 509.83,322.73 499.02,314.01 488.21,305.28 477.40,296.56 466.59,287.83 455.78,279.11 444.97,270.39 434.16,261.66 423.35,252.94 412.54,244.21 401.73,235.49 390.92,226.77 380.11,218.04 369.30,209.32 358.49,200.60 347.68,191.87 336.87,183.15 326.06,174.42 315.25,165.70 304.44,156.98 293.63,148.25 282.82,139.53" fill="none" stroke="#fb923c" stroke-width="1.0" opacity="0.55"/><polyline points="604.46,324.63 593.65,315.90 582.84,307.18 572.03,298.45 561.22,289.73 550.41,281.01 539.60,272.28 528.79,263.56 517.98,254.83 507.17,246.11 496.36,237.39 485.55,228.66 474.74,219.94 463.93,211.22 453.12,202.49 442.31,193.77 431.50,185.04 420.69,176.32 409.88,167.60 399.07,158.87 388.26,150.15 377.45,141.43 366.64,132.70 355.83,123.98 345.02,115.25" fill="none" stroke="#fb923c" stroke-width="1.0" opacity="0.55"/><polyline points="666.67,300.35 655.86,291.63 645.05,282.90 634.24,274.18 623.43,265.46 612.62,256.73 601.81,248.01 591.00,239.28 580.19,230.56 569.38,221.84 558.57,213.11 547.76,204.39 536.95,195.66 526.14,186.94 515.33,178.22 504.52,169.49 493.71,160.77 482.90,152.05 472.09,143.32 461.28,134.60 450.47,125.87 439.66,117.15 428.85,108.43 418.04,99.70 407.23,90.98" fill="none" stroke="#fb923c" stroke-width="1.0" opacity="0.55"/><polyline points="293.44,446.00 308.99,439.93 324.54,433.86 340.09,427.79 355.64,421.73 371.19,415.66 386.75,409.59 402.30,403.52 417.85,397.45 433.40,391.38 448.95,385.31 464.50,379.24 480.05,373.18 495.60,367.11 511.15,361.04 526.71,354.97 542.26,348.90 557.81,342.83 573.36,336.76 588.91,330.69 604.46,324.63 620.01,318.56 635.56,312.49 651.11,306.42 666.67,300.35" fill="none" stroke="#fb923c" stroke-width="1.0" opacity="0.55"/><polyline points="250.20,411.10 265.75,405.04 281.30,398.97 296.85,392.90 312.40,386.83 327.95,380.76 343.51,374.69 359.06,368.62 374.61,362.55 390.16,356.49 405.71,350.42 421.26,344.35 436.81,338.28 452.36,332.21 467.91,326.14 483.47,320.07 499.02,314.01 514.57,307.94 530.12,301.87 545.67,295.80 561.22,289.73 576.77,283.66 592.32,277.59 607.87,271.52 623.43,265.46" fill="none" stroke="#fb923c" stroke-width="1.0" opacity="0.55"/><polyline points="206.96,376.21 222.51,370.14 238.06,364.07 253.61,358.00 269.16,351.93 284.71,345.87 300.27,339.80 315.82,333.73 331.37,327.66 346.92,321.59 362.47,315.52 378.02,309.45 393.57,303.38 409.12,297.32 424.67,291.25 440.23,285.18 455.78,279.11 471.33,273.04 486.88,266.97 502.43,260.90 517.98,254.83 533.53,248.77 549.08,242.70 564.63,236.63 580.19,230.56" fill="none" stroke="#fb923c" stroke-width="1.0" opacity="0.55"/><polyline points="163.72,341.31 179.27,335.25 194.82,329.18 210.37,323.11 225.92,317.04 241.47,310.97 257.03,304.90 272.58,298.83 288.13,292.76 303.68,286.70 319.23,280.63 334.78,274.56 350.33,268.49 365.88,262.42 381.44,256.35 396.99,250.28 412.54,244.21 428.09,238.15 443.64,232.08 459.19,226.01 474.74,219.94 490.29,213.87 505.84,207.80 521.40,201.73 536.95,195.66" fill="none" stroke="#fb923c" stroke-width="1.0" opacity="0.55"/><polyline points="120.48,306.42 136.03,300.35 151.58,294.28 167.13,288.21 182.68,282.14 198.24,276.08 213.79,270.01 229.34,263.94 244.89,257.87 260.44,251.80 275.99,245.73 291.54,239.66 307.09,233.59 322.64,227.53 338.20,221.46 353.75,215.39 369.30,209.32 384.85,203.25 400.40,197.18 415.95,191.11 431.50,185.04 447.05,178.98 462.60,172.91 478.16,166.84 493.71,160.77" fill="none" stroke="#fb923c" stroke-width="1.0" opacity="0.55"/><polyline points="77.24,271.52 92.79,265.46 108.34,259.39 123.89,253.32 139.44,247.25 155.00,241.18 170.55,235.11 186.10,229.04 201.65,222.97 217.20,216.91 232.75,210.84 248.30,204.77 263.85,198.70 279.40,192.63 294.96,186.56 310.51,180.49 326.06,174.42 341.61,168.36 357.16,162.29 372.71,156.22 388.26,150.15 403.81,144.08 419.36,138.01 434.92,131.94 450.47,125.87" fill="none" stroke="#fb923c" stroke-width="1.0" opacity="0.55"/><polyline points="34.00,236.63 49.55,230.56 65.10,224.49 80.65,218.42 96.20,212.35 111.76,206.29 127.31,200.22 142.86,194.15 158.41,188.08 173.96,182.01 189.51,175.94 205.06,169.87 220.61,163.80 236.16,157.74 251.72,151.67 267.27,145.60 282.82,139.53 298.37,133.46 313.92,127.39 329.47,121.32 345.02,115.25 360.57,109.19 376.12,103.12 391.68,97.05 407.23,90.98" fill="none" stroke="#fb923c" stroke-width="1.0" opacity="0.55"/><polyline points="498.68,210.60 491.62,205.28 483.95,200.23 475.71,195.47 466.94,191.03 457.66,186.92 447.93,183.16 437.77,179.76 427.25,176.74 416.39,174.12 405.25,171.90 393.88,170.09 382.31,168.71 370.62,167.75 358.83,167.22 347.01,167.13 335.20,167.47 323.46,168.25 311.83,169.45 300.37,171.08 289.12,173.12 278.14,175.57 267.46,178.43 257.14,181.66 247.21,185.27 237.73,189.23 228.73,193.54 220.25,198.16 212.33,203.09 205.00,208.29 198.29,213.76 192.23,219.46 186.85,225.37 182.17,231.46 178.21,237.71 174.99,244.09 172.52,250.58 170.81,257.14 169.86,263.76 169.70,270.39 170.30,277.02 171.67,283.60 173.81,290.13 176.71,296.56 180.35,302.87 184.72,309.03 189.79,315.02 195.56,320.81 201.98,326.38 209.05,331.70 216.71,336.75 224.95,341.50 233.73,345.95 243.00,350.06 252.74,353.82 262.89,357.22 273.42,360.24 284.28,362.86 295.42,365.08 306.79,366.89 318.35,368.27 330.05,369.23 341.83,369.75 353.66,369.85 365.46,369.51 377.21,368.73 388.83,367.53 400.30,365.90 411.54,363.86 422.53,361.40 433.21,358.55 443.53,355.32 453.45,351.71 462.93,347.74 471.93,343.44 480.41,338.82 488.33,333.89 495.67,328.68 502.37,323.22 508.43,317.52 513.81,311.61 518.49,305.52 522.45,299.27 525.68,292.89 528.15,286.40 529.86,279.83 530.80,273.22 530.97,266.59 530.37,259.96 528.99,253.37 526.85,246.85 523.96,240.42 520.32,234.11 515.95,227.95 510.87,221.96 505.11,216.16 498.68,210.60" fill="none" stroke="#facc15" stroke-width="2.8" opacity="1.0"/><polyline points="498.68,210.60 501.23,212.71 503.57,214.75 505.93,216.94 508.09,219.05 510.26,221.30 512.23,223.46 514.20,225.77 515.98,227.98 517.75,230.34 519.32,232.60 520.88,235.01 522.26,237.31 523.61,239.75 524.85,242.22 525.92,244.57 526.93,247.07 527.80,249.44 528.60,251.97 529.25,254.37 529.83,256.91 530.27,259.32 530.62,261.87 530.85,264.30 530.98,266.86 530.99,269.28 530.90,271.84 530.69,274.40 530.38,276.82 529.95,279.37 529.43,281.78 528.78,284.32 528.05,286.71 527.17,289.22 526.23,291.59 525.13,294.08 523.99,296.42 522.68,298.87 521.33,301.18 519.80,303.59 518.25,305.86 516.52,308.23 514.67,310.57 512.83,312.77 510.78,315.06 508.75,317.20 506.50,319.43 504.28,321.51 501.85,323.68 499.45,325.70 496.82,327.79 494.25,329.75 491.44,331.77 488.70,333.64 485.72,335.59 482.66,337.48 479.68,339.24 476.45,341.05 473.32,342.73 469.93,344.45 466.66,346.03 463.13,347.66 459.72,349.15 456.05,350.68 452.51,352.07 448.72,353.50 445.06,354.79 441.15,356.11 437.17,357.37 433.35,358.51 429.27,359.66 425.36,360.70 421.18,361.73 417.19,362.66 412.92,363.57 408.85,364.39 404.51,365.19 400.37,365.89 395.97,366.57 391.77,367.15 387.32,367.71 382.84,368.20 378.57,368.61 374.06,368.98 369.76,369.27 365.22,369.52 360.91,369.69 356.35,369.81 352.02,369.86 347.46,369.85 343.13,369.79 338.58,369.65 334.26,369.47 329.72,369.21 325.19,368.88 320.92,368.52 316.43,368.07 312.19,367.59 307.74,367.02 303.55,366.42 299.15,365.72 295.02,365.01 290.69,364.19 286.63,363.37 282.38,362.43 278.39,361.50 274.23,360.45 270.33,359.40 266.26,358.24 262.25,357.02 258.50,355.81 254.59,354.48 250.95,353.17 247.17,351.74 243.65,350.33 240.00,348.79 236.61,347.29 233.10,345.65 229.84,344.05 226.48,342.32 223.37,340.64 220.16,338.82 217.04,336.95 214.16,335.14 211.20,333.19 208.48,331.30 205.70,329.27 203.15,327.31 200.55,325.21 198.18,323.18 195.76,321.01 193.57,318.92 191.35,316.68 189.34,314.53 187.32,312.23 185.40,309.91 183.69,307.68 181.98,305.31 180.46,303.04 178.96,300.62 177.64,298.31 176.35,295.85 175.24,293.50 174.17,291.01 173.26,288.64 172.41,286.13 171.71,283.73 171.08,281.19 170.57,278.65 170.19,276.23 169.90,273.68 169.73,271.25 169.66,268.69 169.71,266.26 169.87,263.70 170.13,261.28 170.51,258.73 170.98,256.32 171.59,253.78 172.27,251.38 173.10,248.86 173.99,246.49 175.03,243.99 176.19,241.52 177.40,239.19 178.77,236.74 180.18,234.45 181.77,232.05 183.37,229.79 185.17,227.44 186.97,225.23 188.97,222.93 190.96,220.77 193.16,218.53 195.34,216.43 197.73,214.25 200.22,212.10 202.67,210.10 205.35,208.03 207.97,206.10 210.83,204.10 213.62,202.24 216.64,200.33 219.59,198.55 222.78,196.72 225.88,195.03 229.23,193.28 232.47,191.68 235.97,190.03 239.54,188.43 242.99,186.97 246.70,185.47 250.27,184.10 254.10,182.71 257.79,181.44 261.74,180.16 265.53,178.99 269.59,177.82 273.48,176.76 277.64,175.70 281.61,174.75 285.86,173.80 290.14,172.92 294.24,172.14 298.59,171.37 302.75,170.70 307.17,170.06 311.38,169.51 315.85,168.98 320.11,168.55 324.62,168.15 328.90,167.83 333.44,167.56 337.75,167.36 342.31,167.22 346.87,167.13 351.20,167.11 355.76,167.16 360.08,167.26 364.64,167.43 368.94,167.65 373.48,167.94 377.76,168.28 382.26,168.70 386.51,169.16 390.97,169.70 395.17,170.28 399.58,170.94 403.73,171.63 408.07,172.42 412.38,173.27 416.42,174.13 420.65,175.09 424.61,176.06 428.75,177.14 432.62,178.22 436.66,179.42 440.43,180.60 444.36,181.91 448.02,183.19 451.83,184.60 455.38,185.99 459.06,187.51 462.67,189.07 466.03,190.60 469.50,192.27 472.71,193.89 476.03,195.65 479.10,197.35 482.26,199.20 485.18,200.99 488.17,202.93 490.93,204.80 493.75,206.81 496.15,208.61 498.68,210.60" fill="none" stroke="#f472b6" stroke-width="2.8" opacity="1.0"/><polyline points="498.68,210.60 507.35,218.31 514.97,226.71 521.33,235.73 526.22,245.29 529.47,255.29 530.93,265.57 530.50,276.00 528.15,286.40 523.89,296.61 517.82,306.47 510.07,315.82 500.82,324.56 490.29,332.57 478.73,339.79 466.37,346.17 453.45,351.71 439.71,356.57 424.74,360.85 408.65,364.43 391.61,367.18 373.80,369.00 355.47,369.82 336.89,369.59 318.35,368.27 300.16,365.89 282.59,362.48 265.92,358.14 250.36,352.95 236.09,347.05 223.23,340.56 211.85,333.63 201.98,326.38 193.32,318.67 185.70,310.27 179.34,301.25 174.44,291.68 171.19,281.69 169.74,271.41 170.17,260.98 172.52,250.58 176.77,240.37 182.84,230.51 190.60,221.16 199.85,212.42 210.37,204.41 221.94,197.19 234.30,190.81 247.21,185.27 260.96,180.40 275.93,176.12 292.01,172.55 309.06,169.80 326.87,167.98 345.20,167.16 363.78,167.39 382.31,168.71 400.51,171.09 418.07,174.50 434.75,178.84 450.31,184.03 464.58,189.93 477.44,196.42 488.82,203.35 498.68,210.60" fill="none" stroke="#34d399" stroke-width="2.8" opacity="1.0"/>
</svg>
