<svg xmlns="http://www.w3.org/2000/svg" width="760" height="480" viewBox="0 0 760 480">
<rect width="100%" height="100%" fill="#0f172a"/>
<text x="18" y="24" font-family="sans-serif" font-size="15" fill="#f8fafc">Swept profile section</text>
<text x="18" y="44" font-family="sans-serif" font-size="12" fill="#94a3b8">Expected complete</text>
<polyline points="210.04,300.69 202.71,294.77 195.37,288.85 188.04,282.93 180.70,277.01 173.37,271.09 166.03,265.17 158.70,259.25 151.36,253.33 144.03,247.41 136.69,241.49 129.36,235.57 122.02,229.65 114.69,223.73 107.35,217.81 100.02,211.90 92.68,205.98 85.35,200.06 78.01,194.14 70.68,188.22 63.34,182.30 56.01,176.38 48.67,170.46 41.34,164.54 34.00,158.62" fill="none" stroke="#60a5fa" stroke-width="1.0" opacity="0.55"/><polyline points="260.69,332.98 253.36,327.06 246.02,321.14 238.69,315.22 231.35,309.30 224.02,303.38 216.68,297.46 209.35,291.54 202.01,285.62 194.68,279.70 187.34,273.78 180.01,267.86 172.67,261.95 165.34,256.03 158.00,250.11 150.67,244.19 143.33,238.27 136.00,232.35 128.66,226.43 121.33,220.51 113.99,214.59 106.66,208.67 99.32,202.75 91.99,196.83 84.65,190.91" fill="none" stroke="#60a5fa" stroke-width="1.0" opacity="0.55"/><polyline points="311.34,346.98 304.01,341.06 296.67,335.14 289.34,329.22 282.00,323.30 274.67,317.38 267.33,311.46 260.00,305.54 252.66,299.62 245.33,293.70 237.99,287.79 230.66,281.87 223.32,275.95 215.99,270.03 208.65,264.11 201.32,258.19 193.98,252.27 186.65,246.35 179.31,240.43 171.98,234.51 164.64,228.59 157.31,222.67 149.97,216.75 142.64,210.83 135.30,204.91" fill="none" stroke="#60a5fa" stroke-width="1.0" opacity="0.55"/><polyline points="361.99,342.69 354.66,336.77 347.32,330.85 339.99,324.93 332.65,319.01 325.32,313.09 317.98,307.17 310.65,301.25 303.31,295.33 295.98,289.42 288.64,283.50 281.31,277.58 273.97,271.66 266.64,265.74 259.30,259.82 251.97,253.90 244.63,247.98 237.30,242.06 229.96,236.14 222.63,230.22 215.29,224.30 207.96,218.38 200.62,212.46 193.29,206.54 185.95,200.62" fill="none" stroke="#60a5fa" stroke-width="1.0" opacity="0.55"/><polyline points="412.64,320.11 405.31,314.19 397.97,308.27 390.64,302.35 383.30,296.43 375.97,290.51 368.63,284.59 361.30,278.67 353.96,272.75 346.63,266.84 339.29,260.92 331.96,255.00 324.62,249.08 317.29,243.16 309.95,237.24 302.62,231.32 295.28,225.40 287.95,219.48 280.61,213.56 273.28,207.64 265.94,201.72 258.61,195.80 251.27,189.88 243.94,183.96 236.60,178.04" fill="none" stroke="#60a5fa" stroke-width="1.0" opacity="0.55"/><polyline points="463.30,279.24 455.96,273.32 448.63,267.40 441.29,261.48 433.96,255.56 426.62,249.64 419.28,243.72 411.95,237.80 404.61,231.88 397.28,225.96 389.94,220.05 382.61,214.13 375.27,208.21 367.94,202.29 360.60,196.37 353.27,190.45 345.93,184.53 338.60,178.61 331.26,172.69 323.93,166.77 316.59,160.85 309.26,154.93 301.92,149.01 294.59,143.09 287.25,137.17" fill="none" stroke="#60a5fa" stroke-width="1.0" opacity="0.55"/><polyline points="513.95,220.08 506.61,214.16 499.28,208.24 491.94,202.32 484.61,196.40 477.27,190.48 469.94,184.56 462.60,178.64 455.27,172.72 447.93,166.80 440.60,160.88 433.26,154.96 425.93,149.04 418.59,143.13 411.25,137.21 403.92,131.29 396.58,125.37 389.25,119.45 381.91,113.53 374.58,107.61 367.24,101.69 359.91,95.77 352.57,89.85 345.24,83.93 337.90,78.01" fill="none" stroke="#60a5fa" stroke-width="1.0" opacity="0.55"/><polyline points="210.04,300.69 222.70,310.48 235.37,319.12 248.03,326.62 260.69,332.98 273.36,338.19 286.02,342.27 298.68,345.20 311.34,346.98 324.01,347.62 336.67,347.12 349.33,345.48 361.99,342.69 374.66,338.76 387.32,333.69 399.98,327.47 412.64,320.11 425.31,311.61 437.97,301.96 450.63,291.17 463.30,279.24 475.96,266.17 488.62,251.95 501.28,236.58 513.95,220.08" fill="none" stroke="#60a5fa" stroke-width="1.0" opacity="0.55"/><polyline points="180.70,277.01 193.36,286.80 206.03,295.44 218.69,302.94 231.35,309.30 244.01,314.52 256.68,318.59 269.34,321.52 282.00,323.30 294.67,323.94 307.33,323.44 319.99,321.80 332.65,319.01 345.32,315.08 357.98,310.01 370.64,303.79 383.30,296.43 395.97,287.93 408.63,278.28 421.29,267.49 433.96,255.56 446.62,242.49 459.28,228.27 471.94,212.91 484.61,196.40" fill="none" stroke="#60a5fa" stroke-width="1.0" opacity="0.55"/><polyline points="151.36,253.33 164.02,263.12 176.69,271.76 189.35,279.27 202.01,285.62 214.67,290.84 227.34,294.91 240.00,297.84 252.66,299.62 265.33,300.27 277.99,299.77 290.65,298.12 303.31,295.33 315.98,291.40 328.64,286.33 341.30,280.11 353.96,272.75 366.63,264.25 379.29,254.61 391.95,243.82 404.61,231.88 417.28,218.81 429.94,204.59 442.60,189.23 455.27,172.72" fill="none" stroke="#60a5fa" stroke-width="1.0" opacity="0.55"/><polyline points="122.02,229.65 134.68,239.44 147.35,248.09 160.01,255.59 172.67,261.95 185.33,267.16 198.00,271.23 210.66,274.16 223.32,275.95 235.99,276.59 248.65,276.09 261.31,274.44 273.97,271.66 286.64,267.73 299.30,262.65 311.96,256.44 324.62,249.08 337.29,240.57 349.95,230.93 362.61,220.14 375.27,208.21 387.94,195.13 400.60,180.91 413.26,165.55 425.93,149.04" fill="none" stroke="#60a5fa" stroke-width="1.0" opacity="0.55"/><polyline points="92.68,205.98 105.34,215.76 118.01,224.41 130.67,231.91 143.33,238.27 155.99,243.48 168.66,247.55 181.32,250.48 193.98,252.27 206.64,252.91 219.31,252.41 231.97,250.77 244.63,247.98 257.30,244.05 269.96,238.97 282.62,232.76 295.28,225.40 307.95,216.90 320.61,207.25 333.27,196.46 345.93,184.53 358.60,171.45 371.26,157.23 383.92,141.87 396.58,125.37" fill="none" stroke="#60a5fa" stroke-width="1.0" opacity="0.55"/><polyline points="63.34,182.30 76.00,192.08 88.67,200.73 101.33,208.23 113.99,214.59 126.65,219.80 139.32,223.88 151.98,226.80 164.64,228.59 177.30,229.23 189.97,228.73 202.63,227.09 215.29,224.30 227.96,220.37 240.62,215.30 253.28,209.08 265.94,201.72 278.61,193.22 291.27,183.57 303.93,172.78 316.59,160.85 329.26,147.77 341.92,133.56 354.58,118.19 367.24,101.69" fill="none" stroke="#60a5fa" stroke-width="1.0" opacity="0.55"/><polyline points="34.00,158.62 46.66,168.41 59.33,177.05 71.99,184.55 84.65,190.91 97.31,196.13 109.98,200.20 122.64,203.13 135.30,204.91 147.96,205.55 160.63,205.05 173.29,203.41 185.95,200.62 198.61,196.69 211.28,191.62 223.94,185.40 236.60,178.04 249.27,169.54 261.93,159.89 274.59,149.10 287.25,137.17 299.92,124.10 312.58,109.88 325.24,94.52 337.90,78.01" fill="none" stroke="#60a5fa" stroke-width="1.0" opacity="0.55"/><polyline points="103.03,167.42 103.03,179.03 103.03,190.64 103.03,202.24 103.03,213.85 103.03,225.46 103.03,237.07 103.03,248.67 103.03,260.28 103.03,271.89 103.03,283.50 103.03,295.10 103.03,306.71 103.03,318.32 103.03,329.93 103.03,341.53 103.03,353.14 103.03,364.75 103.03,376.36 103.03,387.96 103.03,399.57 103.03,411.18 103.03,422.79 103.03,434.39 103.03,446.00" fill="none" stroke="#fb923c" stroke-width="1.0" opacity="0.55"/><polyline points="160.01,145.18 160.01,156.79 160.01,168.40 160.01,180.01 160.01,191.61 160.01,203.22 160.01,214.83 160.01,226.44 160.01,238.04 160.01,249.65 160.01,261.26 160.01,272.87 160.01,284.47 160.01,296.08 160.01,307.69 160.01,319.30 160.01,330.90 160.01,342.51 160.01,354.12 160.01,365.73 160.01,377.33 160.01,388.94 160.01,400.55 160.01,412.16 160.01,423.76" fill="none" stroke="#fb923c" stroke-width="1.0" opacity="0.55"/><polyline points="216.99,122.95 216.99,134.55 216.99,146.16 216.99,157.77 216.99,169.38 216.99,180.98 216.99,192.59 216.99,204.20 216.99,215.81 216.99,227.41 216.99,239.02 216.99,250.63 216.99,262.24 216.99,273.84 216.99,285.45 216.99,297.06 216.99,308.67 216.99,320.27 216.99,331.88 216.99,343.49 216.99,355.10 216.99,366.70 216.99,378.31 216.99,389.92 216.99,401.53" fill="none" stroke="#fb923c" stroke-width="1.0" opacity="0.55"/><polyline points="273.97,100.71 273.97,112.32 273.97,123.93 273.97,135.53 273.97,147.14 273.97,158.75 273.97,170.36 273.97,181.96 273.97,193.57 273.97,205.18 273.97,216.79 273.97,228.39 273.97,240.00 273.97,251.61 273.97,263.21 273.97,274.82 273.97,286.43 273.97,298.04 273.97,309.64 273.97,321.25 273.97,332.86 273.97,344.47 273.97,356.07 273.97,367.68 273.97,379.29" fill="none" stroke="#fb923c" stroke-width="1.0" opacity="0.55"/><polyline points="330.96,78.47 330.96,90.08 330.96,101.69 330.96,113.30 330.96,124.90 330.96,136.51 330.96,148.12 330.96,159.73 330.96,171.33 330.96,182.94 330.96,194.55 330.96,206.16 330.96,217.76 330.96,229.37 330.96,240.98 330.96,252.59 330.96,264.19 330.96,275.80 330.96,287.41 330.96,299.02 330.96,310.62 330.96,322.23 330.96,333.84 330.96,345.45 330.96,357.05" fill="none" stroke="#fb923c" stroke-width="1.0" opacity="0.55"/><polyline points="387.94,56.24 387.94,67.84 387.94,79.45 387.94,91.06 387.94,102.67 387.94,114.27 387.94,125.88 387.94,137.49 387.94,149.10 387.94,160.70 387.94,172.31 387.94,183.92 387.94,195.53 387.94,207.13 387.94,218.74 387.94,230.35 387.94,241.96 387.94,253.56 387.94,265.17 387.94,276.78 387.94,288.39 387.94,299.99 387.94,311.60 387.94,323.21 387.94,334.82" fill="none" stroke="#fb923c" stroke-width="1.0" opacity="0.55"/><polyline points="444.92,34.00 444.92,45.61 444.92,57.21 444.92,68.82 444.92,80.43 444.92,92.04 444.92,103.64 444.92,115.25 444.92,126.86 444.92,138.47 444.92,150.07 444.92,161.68 444.92,173.29 444.92,184.90 444.92,196.50 444.92,208.11 444.92,219.72 444.92,231.33 444.92,242.93 444.92,254.54 444.92,266.15 444.92,277.76 444.92,289.36 444.92,300.97 444.92,312.58" fill="none" stroke="#fb923c" stroke-width="1.0" opacity="0.55"/><polyline points="103.03,167.42 117.27,161.86 131.52,156.30 145.76,150.74 160.01,145.18 174.25,139.63 188.50,134.07 202.75,128.51 216.99,122.95 231.24,117.39 245.48,111.83 259.73,106.27 273.97,100.71 288.22,95.15 302.46,89.59 316.71,84.03 330.96,78.47 345.20,72.91 359.45,67.36 373.69,61.80 387.94,56.24 402.18,50.68 416.43,45.12 430.67,39.56 444.92,34.00" fill="none" stroke="#fb923c" stroke-width="1.0" opacity="0.55"/><polyline points="103.03,213.85 117.27,208.29 131.52,202.73 145.76,197.17 160.01,191.61 174.25,186.05 188.50,180.50 202.75,174.94 216.99,169.38 231.24,163.82 245.48,158.26 259.73,152.70 273.97,147.14 288.22,141.58 302.46,136.02 316.71,130.46 330.96,124.90 345.20,119.34 359.45,113.79 373.69,108.23 387.94,102.67 402.18,97.11 416.43,91.55 430.67,85.99 444.92,80.43" fill="none" stroke="#fb923c" stroke-width="1.0" opacity="0.55"/><polyline points="103.03,260.28 117.27,254.72 131.52,249.16 145.76,243.60 160.01,238.04 174.25,232.48 188.50,226.93 202.75,221.37 216.99,215.81 231.24,210.25 245.48,204.69 259.73,199.13 273.97,193.57 288.22,188.01 302.46,182.45 316.71,176.89 330.96,171.33 345.20,165.77 359.45,160.21 373.69,154.66 387.94,149.10 402.18,143.54 416.43,137.98 430.67,132.42 444.92,126.86" fill="none" stroke="#fb923c" stroke-width="1.0" opacity="0.55"/><polyline points="103.03,306.71 117.27,301.15 131.52,295.59 145.76,290.03 160.01,284.47 174.25,278.91 188.50,273.36 202.75,267.80 216.99,262.24 231.24,256.68 245.48,251.12 259.73,245.56 273.97,240.00 288.22,234.44 302.46,228.88 316.71,223.32 330.96,217.76 345.20,212.20 359.45,206.64 373.69,201.09 387.94,195.53 402.18,189.97 416.43,184.41 430.67,178.85 444.92,173.29" fill="none" stroke="#fb923c" stroke-width="1.0" opacity="0.55"/><polyline points="103.03,353.14 117.27,347.58 131.52,342.02 145.76,336.46 160.01,330.90 174.25,325.34 188.50,319.79 202.75,314.23 216.99,308.67 231.24,303.11 245.48,297.55 259.73,291.99 273.97,286.43 288.22,280.87 302.46,275.31 316.71,269.75 330.96,264.19 345.20,258.63 359.45,253.07 373.69,247.52 387.94,241.96 402.18,236.40 416.43,230.84 430.67,225.28 444.92,219.72" fill="none" stroke="#fb923c" stroke-width="1.0" opacity="0.55"/><polyline points="103.03,399.57 117.27,394.01 131.52,388.45 145.76,382.89 160.01,377.33 174.25,371.77 188.50,366.21 202.75,360.66 216.99,355.10 231.24,349.54 245.48,343.98 259.73,338.42 273.97,332.86 288.22,327.30 302.46,321.74 316.71,316.18 330.96,310.62 345.20,305.06 359.45,299.50 373.69,293.95 387.94,288.39 402.18,282.83 416.43,277.27 430.67,271.71 444.92,266.15" fill="none" stroke="#fb923c" stroke-width="1.0" opacity="0.55"/><polyline points="103.03,446.00 117.27,440.44 131.52,434.88 145.76,429.32 160.01,423.76 174.25,418.20 188.50,412.64 202.75,407.09 216.99,401.53 231.24,395.97 245.48,390.41 259.73,384.85 273.97,379.29 288.22,373.73 302.46,368.17 316.71,362.61 330.96,357.05 345.20,351.49 359.45,345.93 373.69,340.37 387.94,334.82 402.18,329.26 416.43,323.70 430.67,318.14 444.92,312.58" fill="none" stroke="#fb923c" stroke-width="1.0" opacity="0.55"/><polyline points="122.02,229.65 126.77,233.46 131.52,237.10 136.27,240.58 141.01,243.91 145.76,247.07 150.51,250.07 155.26,252.91 160.01,255.59 164.76,258.11 169.51,260.46 174.25,262.66 179.00,264.70 183.75,266.57 188.50,268.29 193.25,269.84 198.00,271.23 202.75,272.46 207.49,273.54 212.24,274.45 216.99,275.20 221.74,275.79 226.49,276.21 231.24,276.48 235.99,276.59 240.73,276.53 245.48,276.32 250.23,275.94 254.98,275.41 259.73,274.71 264.48,273.85 269.22,272.84 273.97,271.66 278.72,270.32 283.47,268.82 288.22,267.15 292.97,265.33 297.72,263.35 302.46,261.21 307.21,258.90 311.96,256.44 316.71,253.81 321.46,251.02 326.21,248.08 330.96,244.97 335.70,241.70 340.45,238.27 345.20,234.68 349.95,230.93 354.70,227.02 359.45,222.94 364.19,218.71 368.94,214.32 373.69,209.76 378.44,205.04 383.19,200.17 387.94,195.13 392.69,189.93 397.43,184.57 402.18,179.05 406.93,173.37 411.68,167.53 416.43,161.53 421.18,155.37 425.93,149.04" fill="none" stroke="#facc15" stroke-width="2.8" opacity="1.0"/><polyline points="122.02,229.65 123.28,230.68 124.74,231.85 126.20,233.01 127.45,233.99 128.93,235.13 130.41,236.26 131.90,237.38 133.39,238.49 134.61,239.39 135.90,240.32 137.42,241.41 138.95,242.48 140.48,243.54 142.03,244.59 143.58,245.63 144.91,246.51 146.48,247.53 147.83,248.39 149.02,249.14 150.21,249.88 151.41,250.62 152.61,251.34 153.65,251.96 154.86,252.67 156.07,253.38 157.30,254.08 158.53,254.77 159.76,255.45 160.82,256.03 162.06,256.70 163.31,257.36 164.57,258.01 165.83,258.65 167.09,259.28 168.36,259.91 169.46,260.44 170.74,261.05 172.03,261.65 173.32,262.24 174.62,262.82 175.93,263.40 177.05,263.88 178.37,264.43 179.69,264.98 181.02,265.51 182.36,266.04 183.70,266.55 184.85,266.98 186.21,267.48 187.57,267.96 188.93,268.43 190.30,268.89 191.68,269.34 193.07,269.78 194.26,270.15 195.66,270.57 197.06,270.97 198.47,271.36 199.88,271.74 201.31,272.11 202.53,272.41 203.66,272.68 204.74,272.93 205.82,273.18 206.91,273.41 208.00,273.64 208.94,273.83 210.04,274.04 211.14,274.25 212.24,274.45 213.35,274.64 214.47,274.82 215.58,274.99 216.54,275.13 217.67,275.29 218.79,275.44 219.93,275.58 221.06,275.71 222.20,275.83 223.18,275.93 224.32,276.04 225.47,276.14 226.62,276.22 227.78,276.30 228.94,276.37 230.10,276.43 231.10,276.48 232.27,276.52 233.45,276.55 234.62,276.57 235.80,276.59 236.99,276.59 238.00,276.59 239.19,276.57 240.39,276.54 241.58,276.51 242.78,276.46 243.99,276.40 245.02,276.35 246.23,276.27 247.44,276.18 248.66,276.09 249.87,275.98 251.10,275.86 252.32,275.73 253.37,275.61 254.60,275.46 255.83,275.30 257.06,275.12 258.30,274.94 259.54,274.74 260.60,274.57 261.85,274.35 263.09,274.12 264.34,273.88 265.59,273.63 266.84,273.37 267.91,273.13 269.17,272.85 270.43,272.55 271.69,272.24 272.95,271.93 274.21,271.59 275.47,271.25 276.55,270.95 277.82,270.58 279.09,270.21 280.35,269.82 281.62,269.42 282.89,269.01 283.98,268.65 285.25,268.21 286.52,267.77 287.79,267.31 289.06,266.84 290.33,266.36 291.61,265.87 292.70,265.44 293.97,264.93 295.24,264.40 296.51,263.87 297.78,263.32 299.05,262.76 300.14,262.28 301.41,261.70 302.68,261.11 303.94,260.50 305.21,259.89 306.48,259.27 307.56,258.73 308.82,258.08 310.08,257.43 311.34,256.77 312.60,256.09 313.86,255.41 315.12,254.71 316.19,254.11 317.44,253.39 318.69,252.67 319.94,251.93 321.18,251.19 322.43,250.44 323.49,249.78 324.73,249.01 325.97,248.23 327.20,247.44 328.43,246.64 329.66,245.83 330.71,245.13 331.93,244.31 333.15,243.47 334.37,242.63 335.59,241.78 336.80,240.92 338.01,240.05 339.04,239.30 340.24,238.42 341.44,237.53 342.64,236.63 343.83,235.73 345.02,234.82 346.04,234.03 347.23,233.10 348.41,232.16 349.58,231.22 350.76,230.27 351.93,229.32 353.09,228.36 354.09,227.53 355.25,226.55 356.40,225.57 357.56,224.58 358.71,223.59 359.85,222.59 360.83,221.73 361.97,220.71 363.10,219.70 364.23,218.67 365.36,217.65 366.48,216.61 367.44,215.72 368.56,214.67 369.67,213.62 370.78,212.57 371.89,211.51 372.99,210.44 374.09,209.37 375.03,208.45 376.12,207.37 377.20,206.29 378.29,205.20 379.37,204.10 380.44,203.01 381.36,202.06 382.43,200.96 383.50,199.85 384.56,198.73 385.62,197.61 386.67,196.49 387.57,195.52 388.62,194.39 389.66,193.26 390.70,192.12 391.74,190.98 392.74,189.88 393.89,188.58 394.88,187.47 396.03,186.17 397.18,184.87 398.32,183.56 399.45,182.25 400.59,180.93 401.55,179.80 402.68,178.47 403.80,177.14 404.91,175.81 406.02,174.48 407.13,173.14 408.23,171.79 409.17,170.64 410.26,169.29 411.35,167.94 412.44,166.58 413.52,165.22 414.60,163.86 415.50,162.72 416.70,161.18 417.90,159.64 419.09,158.09 420.28,156.54 421.47,154.99 422.48,153.65 423.65,152.09 424.82,150.53 425.93,149.04" fill="none" stroke="#f472b6" stroke-width="2.8" opacity="1.0"/><polyline points="122.02,229.65 125.60,232.54 129.23,235.37 132.91,238.14 136.63,240.84 140.40,243.49 144.23,246.06 148.11,248.57 152.04,251.00 156.02,253.35 160.07,255.62 164.17,257.80 168.34,259.90 172.57,261.90 176.86,263.80 181.21,265.59 185.64,267.27 190.13,268.84 194.69,270.28 199.32,271.59 204.02,272.77 208.79,273.80 213.64,274.68 218.56,275.41 223.55,275.97 228.61,276.35 233.73,276.56 238.93,276.57 244.19,276.39 249.51,276.01 254.89,275.42 260.31,274.61 265.79,273.59 271.30,272.34 276.84,270.87 282.40,269.17 287.98,267.24 293.56,265.09 299.14,262.72 304.71,260.14 310.26,257.34 315.77,254.34 321.26,251.14 326.70,247.76 332.09,244.20 337.42,240.48 342.70,236.59 347.91,232.56 353.06,228.38 358.14,224.08 363.15,219.66 368.08,215.12 372.95,210.48 377.74,205.75 382.46,200.93 387.11,196.02 391.69,191.04 396.20,185.98 400.64,180.87 405.01,175.69 409.32,170.46 413.56,165.17 417.74,159.84 421.86,154.46 425.93,149.04" fill="none" stroke="#34d399" stroke-width="2.8" opacity="1.0"/>
</svg>
