<svg xmlns="http://www.w3.org/2000/svg" width="760" height="480" viewBox="0 0 760 480">
<rect width="100%" height="100%" fill="#0f172a"/>
<text x="18" y="24" font-family="sans-serif" font-size="15" fill="#f8fafc">Short segment bounded by surface B</text>
<text x="18" y="44" font-family="sans-serif" font-size="12" fill="#94a3b8">Expected complete</text>
<polyline points="317.77,446.00 305.95,436.46 294.12,426.92 282.30,417.37 270.47,407.83 258.65,398.29 246.83,388.75 235.00,379.21 223.18,369.66 211.36,360.12 199.53,350.58 187.71,341.04 175.88,331.50 164.06,321.95 152.24,312.41 140.41,302.87 128.59,293.33 116.77,283.79 104.94,274.24 93.12,264.70 81.29,255.16 69.47,245.62 57.65,236.08 45.82,226.53 34.00,216.99" fill="none" stroke="#60a5fa" stroke-width="1.0" opacity="0.55"/><polyline points="385.81,419.45 373.98,409.91 362.16,400.36 350.34,390.82 338.51,381.28 326.69,371.74 314.87,362.20 303.04,352.65 291.22,343.11 279.39,333.57 267.57,324.03 255.75,314.49 243.92,304.94 232.10,295.40 220.28,285.86 208.45,276.32 196.63,266.78 184.80,257.24 172.98,247.69 161.16,238.15 149.33,228.61 137.51,219.07 125.69,209.53 113.86,199.98 102.04,190.44" fill="none" stroke="#60a5fa" stroke-width="1.0" opacity="0.55"/><polyline points="453.85,392.90 442.02,383.35 430.20,373.81 418.38,364.27 406.55,354.73 394.73,345.19 382.90,335.65 371.08,326.10 359.26,316.56 347.43,307.02 335.61,297.48 323.79,287.94 311.96,278.39 300.14,268.85 288.31,259.31 276.49,249.77 264.67,240.23 252.84,230.68 241.02,221.14 229.20,211.60 217.37,202.06 205.55,192.52 193.72,182.97 181.90,173.43 170.08,163.89" fill="none" stroke="#60a5fa" stroke-width="1.0" opacity="0.55"/><polyline points="521.88,366.35 510.06,356.80 498.24,347.26 486.41,337.72 474.59,328.18 462.77,318.64 450.94,309.09 439.12,299.55 427.29,290.01 415.47,280.47 403.65,270.93 391.82,261.38 380.00,251.84 368.18,242.30 356.35,232.76 344.53,223.22 332.71,213.67 320.88,204.13 309.06,194.59 297.23,185.05 285.41,175.51 273.59,165.96 261.76,156.42 249.94,146.88 238.12,137.34" fill="none" stroke="#60a5fa" stroke-width="1.0" opacity="0.55"/><polyline points="589.92,339.79 578.10,330.25 566.28,320.71 554.45,311.17 542.63,301.63 530.80,292.08 518.98,282.54 507.16,273.00 495.33,263.46 483.51,253.92 471.69,244.37 459.86,234.83 448.04,225.29 436.21,215.75 424.39,206.21 412.57,196.66 400.74,187.12 388.92,177.58 377.10,168.04 365.27,158.50 353.45,148.95 341.62,139.41 329.80,129.87 317.98,120.33 306.15,110.79" fill="none" stroke="#60a5fa" stroke-width="1.0" opacity="0.55"/><polyline points="657.96,313.24 646.14,303.70 634.31,294.16 622.49,284.62 610.67,275.07 598.84,265.53 587.02,255.99 575.20,246.45 563.37,236.91 551.55,227.36 539.72,217.82 527.90,208.28 516.08,198.74 504.25,189.20 492.43,179.65 480.61,170.11 468.78,160.57 456.96,151.03 445.13,141.49 433.31,131.94 421.49,122.40 409.66,112.86 397.84,103.32 386.02,93.78 374.19,84.24" fill="none" stroke="#60a5fa" stroke-width="1.0" opacity="0.55"/><polyline points="726.00,286.69 714.18,277.15 702.35,267.61 690.53,258.06 678.71,248.52 666.88,238.98 655.06,229.44 643.23,219.90 631.41,210.35 619.59,200.81 607.76,191.27 595.94,181.73 584.12,172.19 572.29,162.65 560.47,153.10 548.64,143.56 536.82,134.02 525.00,124.48 513.17,114.94 501.35,105.39 489.53,95.85 477.70,86.31 465.88,76.77 454.05,67.23 442.23,57.68" fill="none" stroke="#60a5fa" stroke-width="1.0" opacity="0.55"/><polyline points="317.77,446.00 334.78,439.36 351.79,432.72 368.80,426.09 385.81,419.45 402.82,412.81 419.83,406.17 436.84,399.53 453.85,392.90 470.86,386.26 487.87,379.62 504.88,372.98 521.88,366.35 538.89,359.71 555.90,353.07 572.91,346.43 589.92,339.79 606.93,333.16 623.94,326.52 640.95,319.88 657.96,313.24 674.97,306.60 691.98,299.97 708.99,293.33 726.00,286.69" fill="none" stroke="#60a5fa" stroke-width="1.0" opacity="0.55"/><polyline points="270.47,407.83 287.48,401.19 304.49,394.56 321.50,387.92 338.51,381.28 355.52,374.64 372.53,368.00 389.54,361.37 406.55,354.73 423.56,348.09 440.57,341.45 457.58,334.82 474.59,328.18 491.60,321.54 508.61,314.90 525.62,308.26 542.63,301.63 559.64,294.99 576.65,288.35 593.66,281.71 610.67,275.07 627.68,268.44 644.69,261.80 661.70,255.16 678.71,248.52" fill="none" stroke="#60a5fa" stroke-width="1.0" opacity="0.55"/><polyline points="223.18,369.66 240.19,363.03 257.20,356.39 274.21,349.75 291.22,343.11 308.23,336.47 325.24,329.84 342.25,323.20 359.26,316.56 376.27,309.92 393.28,303.29 410.29,296.65 427.29,290.01 444.30,283.37 461.31,276.73 478.32,270.10 495.33,263.46 512.34,256.82 529.35,250.18 546.36,243.54 563.37,236.91 580.38,230.27 597.39,223.63 614.40,216.99 631.41,210.35" fill="none" stroke="#60a5fa" stroke-width="1.0" opacity="0.55"/><polyline points="175.88,331.50 192.89,324.86 209.90,318.22 226.91,311.58 243.92,304.94 260.93,298.31 277.94,291.67 294.95,285.03 311.96,278.39 328.97,271.76 345.98,265.12 362.99,258.48 380.00,251.84 397.01,245.20 414.02,238.57 431.03,231.93 448.04,225.29 465.05,218.65 482.06,212.01 499.07,205.38 516.08,198.74 533.09,192.10 550.10,185.46 567.11,178.82 584.12,172.19" fill="none" stroke="#60a5fa" stroke-width="1.0" opacity="0.55"/><polyline points="128.59,293.33 145.60,286.69 162.61,280.05 179.62,273.41 196.63,266.78 213.64,260.14 230.65,253.50 247.66,246.86 264.67,240.23 281.68,233.59 298.69,226.95 315.70,220.31 332.71,213.67 349.71,207.04 366.72,200.40 383.73,193.76 400.74,187.12 417.75,180.48 434.76,173.85 451.77,167.21 468.78,160.57 485.79,153.93 502.80,147.29 519.81,140.66 536.82,134.02" fill="none" stroke="#60a5fa" stroke-width="1.0" opacity="0.55"/><polyline points="81.29,255.16 98.30,248.52 115.31,241.88 132.32,235.25 149.33,228.61 166.34,221.97 183.35,215.33 200.36,208.70 217.37,202.06 234.38,195.42 251.39,188.78 268.40,182.14 285.41,175.51 302.42,168.87 319.43,162.23 336.44,155.59 353.45,148.95 370.46,142.32 387.47,135.68 404.48,129.04 421.49,122.40 438.50,115.76 455.51,109.13 472.52,102.49 489.53,95.85" fill="none" stroke="#60a5fa" stroke-width="1.0" opacity="0.55"/><polyline points="34.00,216.99 51.01,210.35 68.02,203.72 85.03,197.08 102.04,190.44 119.05,183.80 136.06,177.17 153.07,170.53 170.08,163.89 187.09,157.25 204.10,150.61 221.11,143.98 238.12,137.34 255.12,130.70 272.13,124.06 289.14,117.42 306.15,110.79 323.16,104.15 340.17,97.51 357.18,90.87 374.19,84.24 391.20,77.60 408.21,70.96 425.22,64.32 442.23,57.68" fill="none" stroke="#60a5fa" stroke-width="1.0" opacity="0.55"/><polyline points="404.83,169.82 404.83,178.33 404.83,186.83 404.83,195.34 404.83,203.84 404.83,212.35 404.83,220.85 404.83,229.36 404.83,237.86 404.83,246.37 404.83,254.87 404.83,263.38 404.83,271.88 404.83,280.38 404.83,288.89 404.83,297.39 404.83,305.90 404.83,314.40 404.83,322.91 404.83,331.41 404.83,339.92 404.83,348.42 404.83,356.93 404.83,365.43 404.83,373.94" fill="none" stroke="#fb923c" stroke-width="1.0" opacity="0.55"/><polyline points="396.55,163.14 396.55,171.65 396.55,180.15 396.55,188.66 396.55,197.16 396.55,205.67 396.55,214.17 396.55,222.68 396.55,231.18 396.55,239.69 396.55,248.19 396.55,256.70 396.55,265.20 396.55,273.71 396.55,282.21 396.55,290.71 396.55,299.22 396.55,307.72 396.55,316.23 396.55,324.73 396.55,333.24 396.55,341.74 396.55,350.25 396.55,358.75 396.55,367.26" fill="none" stroke="#fb923c" stroke-width="1.0" opacity="0.55"/><polyline points="388.28,156.46 388.28,164.97 388.28,173.47 388.28,181.98 388.28,190.48 388.28,198.99 388.28,207.49 388.28,216.00 388.28,224.50 388.28,233.01 388.28,241.51 388.28,250.02 388.28,258.52 388.28,267.03 388.28,275.53 388.28,284.04 388.28,292.54 388.28,301.05 388.28,309.55 388.28,318.05 388.28,326.56 388.28,335.06 388.28,343.57 388.28,352.07 388.28,360.58" fill="none" stroke="#fb923c" stroke-width="1.0" opacity="0.55"/><polyline points="380.00,149.78 380.00,158.29 380.00,166.79 380.00,175.30 380.00,183.80 380.00,192.31 380.00,200.81 380.00,209.32 380.00,217.82 380.00,226.33 380.00,234.83 380.00,243.34 380.00,251.84 380.00,260.35 380.00,268.85 380.00,277.36 380.00,285.86 380.00,294.37 380.00,302.87 380.00,311.38 380.00,319.88 380.00,328.38 380.00,336.89 380.00,345.39 380.00,353.90" fill="none" stroke="#fb923c" stroke-width="1.0" opacity="0.55"/><polyline points="371.72,143.10 371.72,151.61 371.72,160.11 371.72,168.62 371.72,177.12 371.72,185.63 371.72,194.13 371.72,202.64 371.72,211.14 371.72,219.65 371.72,228.15 371.72,236.66 371.72,245.16 371.72,253.67 371.72,262.17 371.72,270.68 371.72,279.18 371.72,287.69 371.72,296.19 371.72,304.70 371.72,313.20 371.72,321.71 371.72,330.21 371.72,338.72 371.72,347.22" fill="none" stroke="#fb923c" stroke-width="1.0" opacity="0.55"/><polyline points="363.45,136.43 363.45,144.93 363.45,153.44 363.45,161.94 363.45,170.44 363.45,178.95 363.45,187.45 363.45,195.96 363.45,204.46 363.45,212.97 363.45,221.47 363.45,229.98 363.45,238.48 363.45,246.99 363.45,255.49 363.45,264.00 363.45,272.50 363.45,281.01 363.45,289.51 363.45,298.02 363.45,306.52 363.45,315.03 363.45,323.53 363.45,332.04 363.45,340.54" fill="none" stroke="#fb923c" stroke-width="1.0" opacity="0.55"/><polyline points="355.17,129.75 355.17,138.25 355.17,146.76 355.17,155.26 355.17,163.77 355.17,172.27 355.17,180.77 355.17,189.28 355.17,197.78 355.17,206.29 355.17,214.79 355.17,223.30 355.17,231.80 355.17,240.31 355.17,248.81 355.17,257.32 355.17,265.82 355.17,274.33 355.17,282.83 355.17,291.34 355.17,299.84 355.17,308.35 355.17,316.85 355.17,325.36 355.17,333.86" fill="none" stroke="#fb923c" stroke-width="1.0" opacity="0.55"/><polyline points="404.83,169.82 402.76,168.15 400.69,166.48 398.62,164.81 396.55,163.14 394.48,161.47 392.41,159.80 390.35,158.13 388.28,156.46 386.21,154.79 384.14,153.12 382.07,151.45 380.00,149.78 377.93,148.11 375.86,146.44 373.79,144.77 371.72,143.10 369.65,141.43 367.59,139.77 365.52,138.10 363.45,136.43 361.38,134.76 359.31,133.09 357.24,131.42 355.17,129.75" fill="none" stroke="#fb923c" stroke-width="1.0" opacity="0.55"/><polyline points="404.83,203.84 402.76,202.17 400.69,200.50 398.62,198.83 396.55,197.16 394.48,195.49 392.41,193.82 390.35,192.15 388.28,190.48 386.21,188.81 384.14,187.14 382.07,185.47 380.00,183.80 377.93,182.13 375.86,180.46 373.79,178.79 371.72,177.12 369.65,175.45 367.59,173.78 365.52,172.11 363.45,170.44 361.38,168.77 359.31,167.10 357.24,165.44 355.17,163.77" fill="none" stroke="#fb923c" stroke-width="1.0" opacity="0.55"/><polyline points="404.83,237.86 402.76,236.19 400.69,234.52 398.62,232.85 396.55,231.18 394.48,229.51 392.41,227.84 390.35,226.17 388.28,224.50 386.21,222.83 384.14,221.16 382.07,219.49 380.00,217.82 377.93,216.15 375.86,214.48 373.79,212.81 371.72,211.14 369.65,209.47 367.59,207.80 365.52,206.13 363.45,204.46 361.38,202.79 359.31,201.12 357.24,199.45 355.17,197.78" fill="none" stroke="#fb923c" stroke-width="1.0" opacity="0.55"/><polyline points="404.83,271.88 402.76,270.21 400.69,268.54 398.62,266.87 396.55,265.20 394.48,263.53 392.41,261.86 390.35,260.19 388.28,258.52 386.21,256.85 384.14,255.18 382.07,253.51 380.00,251.84 377.93,250.17 375.86,248.50 373.79,246.83 371.72,245.16 369.65,243.49 367.59,241.82 365.52,240.15 363.45,238.48 361.38,236.81 359.31,235.14 357.24,233.47 355.17,231.80" fill="none" stroke="#fb923c" stroke-width="1.0" opacity="0.55"/><polyline points="404.83,305.90 402.76,304.23 400.69,302.56 398.62,300.89 396.55,299.22 394.48,297.55 392.41,295.88 390.35,294.21 388.28,292.54 386.21,290.87 384.14,289.20 382.07,287.53 380.00,285.86 377.93,284.19 375.86,282.52 373.79,280.85 371.72,279.18 369.65,277.51 367.59,275.84 365.52,274.17 363.45,272.50 361.38,270.83 359.31,269.16 357.24,267.49 355.17,265.82" fill="none" stroke="#fb923c" stroke-width="1.0" opacity="0.55"/><polyline points="404.83,339.92 402.76,338.25 400.69,336.58 398.62,334.91 396.55,333.24 394.48,331.57 392.41,329.90 390.35,328.23 388.28,326.56 386.21,324.89 384.14,323.22 382.07,321.55 380.00,319.88 377.93,318.21 375.86,316.54 373.79,314.87 371.72,313.20 369.65,311.53 367.59,309.86 365.52,308.19 363.45,306.52 361.38,304.85 359.31,303.18 357.24,301.51 355.17,299.84" fill="none" stroke="#fb923c" stroke-width="1.0" opacity="0.55"/><polyline points="404.83,373.94 402.76,372.27 400.69,370.60 398.62,368.93 396.55,367.26 394.48,365.59 392.41,363.92 390.35,362.25 388.28,360.58 386.21,358.91 384.14,357.24 382.07,355.57 380.00,353.90 377.93,352.23 375.86,350.56 373.79,348.89 371.72,347.22 369.65,345.55 367.59,343.88 365.52,342.21 363.45,340.54 361.38,338.87 359.31,337.20 357.24,335.53 355.17,333.86" fill="none" stroke="#fb923c" stroke-width="1.0" opacity="0.55"/><polyline points="404.83,271.88 403.59,270.88 402.35,269.88 401.11,268.87 399.86,267.87 398.62,266.87 397.38,265.87 396.14,264.87 394.90,263.86 393.66,262.86 392.41,261.86 391.17,260.86 389.93,259.86 388.69,258.86 387.45,257.85 386.21,256.85 384.97,255.85 383.72,254.85 382.48,253.85 381.24,252.84 380.00,251.84 378.76,250.84 377.52,249.84 376.28,248.84 375.03,247.83 373.79,246.83 372.55,245.83 371.31,244.83 370.07,243.83 368.83,242.82 367.59,241.82 366.34,240.82 365.10,239.82 363.86,238.82 362.62,237.82 361.38,236.81 360.14,235.81 358.89,234.81 357.65,233.81 356.41,232.81 355.17,231.80" fill="none" stroke="#facc15" stroke-width="2.8" opacity="1.0"/><polyline points="355.17,231.80 357.83,233.95 370.37,244.07 379.78,251.66 389.19,259.25 395.46,264.31 401.73,269.38 404.83,271.88" fill="none" stroke="#f472b6" stroke-width="2.8" opacity="1.0"/><polyline points="355.17,231.80 355.95,232.43 356.72,233.06 357.50,233.68 358.27,234.31 359.05,234.93 359.83,235.56 360.60,236.19 361.38,236.81 362.15,237.44 362.93,238.07 363.71,238.69 364.48,239.32 365.26,239.94 366.03,240.57 366.81,241.20 367.59,241.82 368.36,242.45 369.14,243.08 369.91,243.70 370.69,244.33 371.46,244.95 372.24,245.58 373.02,246.21 373.79,246.83 374.57,247.46 375.34,248.08 376.12,248.71 376.90,249.34 377.67,249.96 378.45,250.59 379.22,251.22 380.00,251.84 380.78,252.47 381.55,253.09 382.33,253.72 383.10,254.35 383.88,254.97 384.66,255.60 385.43,256.23 386.21,256.85 386.98,257.48 387.76,258.10 388.54,258.73 389.31,259.36 390.09,259.98 390.86,260.61 391.64,261.23 392.41,261.86 393.19,262.49 393.97,263.11 394.74,263.74 395.52,264.37 396.29,264.99 397.07,265.62 397.85,266.24 398.62,266.87 399.40,267.50 400.17,268.12 400.95,268.75 401.73,269.38 402.50,270.00 403.28,270.63 404.05,271.25 404.83,271.88" fill="none" stroke="#34d399" stroke-width="2.8" opacity="1.0"/>
</svg>
